<svg id="Warstwa_1" data-name="Warstwa 1" xmlns="http://www.w3.org/2000/svg" viewBox="0 0 1740.22 720.18"><defs><style>.cls-1,.cls-2{fill:#121820;}.cls-1{fill-rule:evenodd;}</style></defs><path class="cls-1" d="M367.26,0C164.75,0,0,164.11,0,365.83,0,536,117.24,679.4,275.48,720.1V607.57l.14.27s-.69-30.2,15.06-73.26c11.52-31.48,31.87-69.82,67.64-108.25-.26.76,114.19-113.14,114.19-113.14,20.7-20.41,44.6-37.79,75.14-37.79,50.59,0,91.61,40.85,91.61,91.25a91,91,0,0,1-35.21,71.88L458.7,583.32V720.18C617.11,679.6,734.52,536.12,734.52,365.83,734.52,164.11,569.76,0,367.26,0ZM546.33,188.14c-98.11,0-177.93,80.16-177.93,178.69a180.68,180.68,0,0,1-5.5,44.23L258.73,307.3a91.55,91.55,0,0,0-10-9.93l-.81-.8-.06.05a91.45,91.45,0,0,0-58.72-21.22c-50.59,0-91.61,40.85-91.61,91.25a90.64,90.64,0,0,0,21.31,58.49l-.06.06.85.85a90.88,90.88,0,0,0,9.88,9.84l105,104.61.6.63A179.86,179.86,0,0,1,12.71,403.65a357.93,357.93,0,0,1-2-37.82c0-196.16,159.63-355.18,356.56-355.18,191.68,0,348,150.68,356.2,339.61C715.21,258.45,639.6,188.14,546.33,188.14ZM242.67,370.52a51.06,51.06,0,1,1-51.06-51A51,51,0,0,1,242.67,370.52Zm354.22,0a50.94,50.94,0,1,0-50.93,51A51,51,0,0,0,596.89,370.52Z"/><path class="cls-2" d="M1081.1,189a58.37,58.37,0,0,0-23.2,21.12l-56.07,76a44.81,44.81,0,0,0-4,6.59q-1.49,3.11-2.48,5.84c-.67,2-1.24,3.89-1.74,5.71-.5-1.82-1.08-3.73-1.74-5.71q-1-2.73-2.48-5.84a45.7,45.7,0,0,0-4-6.59l-56.32-76.52a68.09,68.09,0,0,0-23.2-20.25q-13.77-7.32-32.13-7.32H807.55l135,182.6A137.36,137.36,0,0,1,950,376.36a21.94,21.94,0,0,1,3.23,10.69V538.1h81.13v-151a20.65,20.65,0,0,1,3.1-10.69,128.17,128.17,0,0,1,7.57-11.18l135.22-183.1h-66.74Q1095.12,182.08,1081.1,189Zm150,34.09v315h81.38v-356h-44C1227.26,182.08,1231.09,219.84,1231.09,223.12Zm428.25-41V406.92a22.28,22.28,0,0,0-.75-3.73,72.41,72.41,0,0,0-2.23-7.07q-1.48-4.11-3.47-8.83a49.17,49.17,0,0,0-4.72-8.69l-124.3-182.36a29.19,29.19,0,0,0-14.15-10.69,59.48,59.48,0,0,0-21.09-3.47h-79.89v356h80.89V291.89l170,246.21h80.63v-356Z"/></svg>