<svg width="1393" height="1386" viewBox="0 0 1393 1386" fill="none" xmlns="http://www.w3.org/2000/svg">
<path d="M696.5 1317.3C696.5 1357.08 728.851 1389.72 768.432 1385.66C1119.3 1349.67 1393 1053.29 1393 693.002C1393 332.711 1119.3 36.3385 768.432 0.345416C728.851 -3.73652 696.5 28.919 696.5 68.7058V260.797C696.5 300.584 729.067 332.087 768.095 339.938C932.757 373.146 1056.76 518.583 1056.76 693.002C1056.76 867.421 932.757 1012.86 768.095 1046.07C729.067 1053.92 696.5 1085.44 696.5 1125.21V1317.3ZM480.345 130.127C480.345 81.1437 432.383 46.6154 388.455 68.2976C158.298 181.944 0 418.984 0 693.002C0 967.02 158.298 1204.06 388.455 1317.71C432.383 1339.39 480.345 1304.86 480.345 1255.88V130.151V130.127Z" fill="#3F75FF"/>
</svg>
