<svg width="4500" height="634" viewBox="0 0 4500 634" fill="none" xmlns="http://www.w3.org/2000/svg">
<path d="M0 73.4863H139.871V567.962H0V73.4863ZM709.842 73.4863V567.962H594.699L376.416 304.472V567.962H239.374V73.4863H354.517L572.8 336.955V73.4972H709.842V73.4863ZM982.278 577.858C942.247 577.858 903.397 572.91 865.715 563.025C828.033 553.129 797.428 539.946 773.891 523.464L819.797 420.325C841.937 434.928 867.604 446.702 896.8 455.648C925.995 464.604 954.721 469.071 982.977 469.071C1036.67 469.071 1063.51 455.637 1063.51 428.801C1063.51 414.678 1055.74 404.313 1040.2 397.727C1025.13 390.66 1000.64 383.353 966.735 375.827C929.534 367.821 898.449 359.335 873.491 350.389C848.713 341.1 826.624 325.811 809.203 305.892C791.312 285.642 782.366 258.325 782.366 223.941C782.366 193.807 790.602 166.73 807.084 142.712C823.576 118.224 848.053 98.9135 880.547 84.7909C913.522 70.6574 953.781 63.6016 1001.35 63.6016C1033.84 63.6016 1065.87 67.3588 1097.42 74.8953C1128.96 81.962 1156.75 92.5567 1180.77 106.679L1137.68 210.529C1090.59 185.091 1044.91 172.377 1000.64 172.377C972.852 172.377 952.602 176.615 939.888 185.091C927.175 193.097 920.818 203.691 920.818 216.875C920.818 230.069 928.354 239.954 943.427 246.551C958.5 253.148 982.747 259.974 1016.18 267.041C1053.86 275.047 1084.94 283.752 1109.42 293.178C1134.38 302.123 1155.81 316.716 1173.71 336.977C1192.07 356.746 1201.26 383.833 1201.26 418.206C1201.26 447.871 1193.01 474.718 1176.53 498.736C1160.05 522.754 1135.33 542.065 1102.36 556.657C1069.39 570.791 1029.36 577.847 982.278 577.847V577.858ZM1364.22 184.392H1212.35V73.4863H1655.26V184.392H1504.09V567.962H1364.22V184.392V184.392ZM2013.84 471.889H1804.74L1765.89 567.962H1623.2L1841.47 73.4863H1979.22L2198.21 567.962H2052.69L2013.84 471.889V471.889ZM1972.87 368.761L1909.29 210.529L1845.71 368.761H1972.87Z" fill="#161E2E"/>
<path d="M2558.66 600.728C2558.66 618.827 2573.38 633.67 2591.38 631.824C2750.94 615.452 2875.41 480.637 2875.41 316.748C2875.41 152.858 2750.94 18.0439 2591.38 1.67128C2573.38 -0.185513 2558.66 14.6689 2558.66 32.7672V120.146C2558.66 138.244 2573.48 152.574 2591.22 156.146C2666.11 171.251 2722.5 237.408 2722.5 316.748C2722.5 396.088 2666.11 462.244 2591.22 477.35C2573.48 480.921 2558.66 495.262 2558.66 513.35V600.728ZM2460.36 60.7065C2460.36 38.4249 2438.55 22.7186 2418.58 32.5815C2313.91 84.2769 2241.92 192.102 2241.92 316.748C2241.92 441.393 2313.91 549.219 2418.58 600.914C2438.55 610.777 2460.36 595.071 2460.36 572.789V60.7174V60.7065Z" fill="#3F75FF"/>
<path d="M3310.78 471.89H3101.68L3062.83 567.963H2920.13L3138.41 73.4868H3276.16L3495.15 567.963H3349.63L3310.78 471.89ZM3269.81 368.761L3206.23 210.518L3142.65 368.761H3269.81V368.761ZM3760.84 73.4868C3805.58 73.4868 3844.44 81.0232 3877.4 96.096C3910.37 110.688 3935.8 131.878 3953.7 159.664C3971.59 186.97 3980.53 219.234 3980.53 256.436C3980.53 293.648 3971.59 325.902 3953.7 353.208C3935.8 380.535 3910.37 401.725 3877.4 416.798C3844.44 431.39 3805.58 438.697 3760.84 438.697H3674.66V567.963H3534.79V73.4868H3760.84V73.4868ZM3752.37 328.491C3781.09 328.491 3802.76 322.374 3817.35 310.13C3831.96 297.416 3839.25 279.515 3839.25 256.436C3839.25 233.368 3831.96 215.477 3817.35 202.753C3802.76 190.039 3781.09 183.682 3752.37 183.682H3674.66V328.491H3752.37ZM4274.78 73.4868C4319.52 73.4868 4358.37 81.0232 4391.33 96.096C4424.3 110.688 4449.74 131.878 4467.63 159.664C4485.53 186.97 4494.47 219.234 4494.47 256.436C4494.47 293.648 4485.53 325.902 4467.63 353.208C4449.74 380.535 4424.3 401.725 4391.33 416.798C4358.37 431.39 4319.52 438.697 4274.78 438.697H4188.6V567.963H4048.73V73.4868H4274.78V73.4868ZM4266.31 328.491C4295.03 328.491 4316.69 322.374 4331.29 310.13C4345.9 297.416 4353.19 279.515 4353.19 256.436C4353.19 233.368 4345.9 215.477 4331.29 202.753C4316.69 190.039 4295.03 183.682 4266.31 183.682H4188.6V328.491H4266.31Z" fill="#161E2E"/>
</svg>
