<svg id="Layer_1" data-name="Layer 1" xmlns="http://www.w3.org/2000/svg" viewBox="0 0 875 866"><defs><style>.cls-1{fill:#9d2ee5;}</style></defs><title>duck_2</title><path class="cls-1" d="M579.42,272.9a9.5,9.5,0,0,1-6.24-17.73A24.5,24.5,0,1,0,584,275.5a25,25,0,0,0-.42-4.53A9.34,9.34,0,0,1,579.42,272.9Z"/><path class="cls-1" d="M464.86,616.44c-19.21,0-38.47-2.67-55.38-7.89l0-.07c-5.4-1.47-16-6.16-24.72-11.07-12.61-7.1-30.35-19.5-43.28-38.19-3.93-5.69-13.15-19-7.3-31.57a22.37,22.37,0,0,1,10.15-10.15,28.62,28.62,0,0,1,9.15-3,18.18,18.18,0,0,1-1.62-3.88c-3.54-12.23,2.83-27.1,14.21-33.13a27.31,27.31,0,0,1,13.73-3c17.77.5,35.34,11.68,46.94,21a9,9,0,1,1-11.24,14.05c-13.18-10.55-26.38-16.75-36.21-17a9.46,9.46,0,0,0-4.79.88c-3.89,2.07-6.54,8.12-5.35,12.23,0,.11.77,1.66,5.56,6.37a117.12,117.12,0,0,0,16.68,13.64,9,9,0,0,1-10.05,14.94c-6.45-4.31-20.7-11.36-28.46-7.17a5.64,5.64,0,0,0-2.38,1.91c-.56,1.19-.55,4.56,5.79,13.72,20.92,30.24,57.8,42.15,58.49,42.37,25.65,7.93,57.35,9.32,84.82,3.72,21.92-4.46,50.82-15.3,63.94-41.59,6.28-12.58,13-40.36-1.69-64.67-13-21.48-35.33-28.51-44.34-30.53a9,9,0,0,1,3.94-17.56c11.27,2.53,39.26,11.37,55.81,38.78,17.51,29,12.23,62.31,2.39,82-16.37,32.77-50.61,45.93-76.46,51.19A193.34,193.34,0,0,1,464.86,616.44Z"/><path class="cls-1" d="M721.39,279.15c-.12-1.77-1.06-10.92-8.31-17-10.25-8.65-25.49-5.14-32.79-3.46l-.21.05c-.83.17-3,.65-5.13,1.27a174.68,174.68,0,0,0-27.41,11.84,105.61,105.61,0,0,0-7.16-24.29C634.53,234,627,224.77,617.57,213.08l-.24-.3c-3.92-4.83-8-9.56-12.26-14.1a39.83,39.83,0,0,0,6.35-10.28c7-16.61,0-32.07-2.29-36.41a7.5,7.5,0,0,0-10.9-2.66,132.5,132.5,0,0,1-26.49,14.2q-3.24,1.28-6.55,2.39a55.2,55.2,0,0,0-4.87-27.54,7.5,7.5,0,0,0-12.88-1.3,65.63,65.63,0,0,1-28.7,22.45A64.08,64.08,0,0,1,495.46,164q-.33,0-.66,0a138.51,138.51,0,0,0-46.51,12.69c-13.33,6.32-58,31.18-74,85.67-3,10.39-9.24,38.2-1.09,71.87a144.44,144.44,0,0,0,49.45,78.07c-8.48.51-16.94,1.43-25.33,2.76-24.52,3.89-41.51,10.22-57.93,16.35-18.25,6.8-35.48,13.23-62.82,16.62-27.68,3.43-39.18,1-45.43-1.18-16.51-5.68-28.44-16.8-43.54-30.87a257.67,257.67,0,0,1-25.26-27.2,7.51,7.51,0,0,0-12.6,1.41,157.07,157.07,0,0,0-10.53,28.46c-.15.63-3.71,19.36-4.19,25.2-.55,6.54-.67,30.08,5.23,60.09,7.93,40.3,23.14,75.95,45.2,106C222,659.69,276.72,692.88,348,708.6a423,423,0,0,0,90.25,9.55c7.77,0,15.82-.2,24.12-.66h.13c37.95-2.1,108.6-6,164.17-59.58l.25-.25c14.63-14.1,53.5-51.58,53.54-106.65,0-27.5-9.56-67.32-36.48-96.58a183.71,183.71,0,0,0-18-16.59c-11.29-9.44-17.69-15.18-18-23.59-.26-7.54,4.31-15.69,13.58-24.22a7.5,7.5,0,0,0-10.16-11c-12.64,11.64-18.83,23.67-18.42,35.78.54,15.51,11.63,24.77,23.36,34.58A167.72,167.72,0,0,1,633,464.58c24,26.08,32.54,61.74,32.52,86.42,0,48.69-35.57,83-49,95.86l-.26.24c-51.55,49.71-118.57,53.42-154.58,55.4h-.13c-54.75,3-190.07-.81-264-101.45-52-70.84-47.63-155.12-47.57-155.94.36-4.22,3.16-19.42,3.84-22.94a141.83,141.83,0,0,1,4.74-14.59c5.95,6.77,12.25,13.26,18.84,19.4,15.75,14.68,29.36,27.36,48.88,34.07,7.66,2.64,21.39,5.7,52.15,1.88,29.09-3.6,48-10.64,66.22-17.45,16.45-6.13,32-11.93,55-15.58A245,245,0,0,1,446.25,427a7.5,7.5,0,0,0,3.94-14A130.88,130.88,0,0,1,418,387.44a129.45,129.45,0,0,1-30.24-56.7c-7.3-30.16-1.8-54.9.91-64.13,14.57-49.76,57.55-72.32,66-76.33A123.23,123.23,0,0,1,495.88,179a78.73,78.73,0,0,0,54.22-22.23,41.37,41.37,0,0,1-1.74,17.43,7.49,7.49,0,0,0,8.88,9.59,146.77,146.77,0,0,0,20-6.32,145.75,145.75,0,0,0,21.44-10.6,25.91,25.91,0,0,1-1.12,15.73,25.52,25.52,0,0,1-7.73,10,7.49,7.49,0,0,0-.69,11.15c5.76,5.82,11.31,12,16.51,18.45l.25.3c9.09,11.22,15.66,19.33,20.7,31a92.53,92.53,0,0,1,6.93,26.36l0,.19-.33.21c-22.86,15.12-33.92,31.36-32.89,48.28.54,9,4.26,15.44,7.82,20.58,16.78,24.23,46.46,26.41,62.23,26.41,2,0,3.77,0,5.27-.06,8.83-.18,18.6-1.41,24.11-9.22A21.81,21.81,0,0,0,702,345.55c-5.91-13.34-21-18.31-34.09-21.92,19.58-6.86,32.81-11.76,37.93-16.46.23-.21.54-.46.89-.77C711,302.73,722.31,293,721.39,279.15ZM696.92,295c-.51.43-.94.8-1.26,1.09C692.3,299.2,673,305.94,661.49,310c-3.37,1.17-6.61,2.31-9.58,3.37a11.34,11.34,0,0,0,.4,21.5c2.65.84,5.45,1.59,8.4,2.39,11.26,3,24,6.48,27.53,14.39a6.91,6.91,0,0,1-.7,6c-1.25,1.77-5.34,2.74-12.16,2.87-11.08.22-40.54.8-54.87-19.88-2.89-4.18-4.88-8-5.18-13-1.56-25.54,49.37-48.92,63.91-53.26,1.51-.45,3.3-.83,4-1l.41-.09a57.13,57.13,0,0,1,12.09-1.75c3,0,5.86.52,7.68,2.06,2.71,2.28,3,6.51,3,6.55C706.84,286.5,699.89,292.47,696.92,295Z"/></svg>