<?xml version="1.0" encoding="utf-8"?>
<!-- Generator: Adobe Illustrator 24.3.0, SVG Export Plug-In . SVG Version: 6.00 Build 0)  -->
<svg version="1.1" id="Layer_1" xmlns="http://www.w3.org/2000/svg" xmlns:xlink="http://www.w3.org/1999/xlink" x="0px" y="0px"
	 viewBox="0 0 32 32" style="enable-background:new 0 0 32 32;" xml:space="preserve">
<style type="text/css">
	.st0{fill:#4BC2DE;}
	.st1{fill:#13A6CB;}
	.st2{fill:#FFFFFF;}
	.st3{fill:#D0D1D3;}
	.st4{fill:#D72449;}
	.st5{fill:#A11D38;}
</style>
<g id="Group_88" transform="translate(0.069 0.153)">
	<ellipse id="Ellipse_12" class="st0" cx="15.9" cy="15.8" rx="16" ry="15.7"/>
	<path id="Path_116" class="st1" d="M27.3,26.9c1.6-1.6,2.9-3.6,3.6-5.7L17.4,7.6l-4.4,11l-2.9,5.3l7.5,7.5
		C21.2,31.1,24.7,29.5,27.3,26.9z"/>
	<path id="Path_117" class="st2" d="M9.5,22.2c0.5-3.1,1.4-6,2.7-8.8c0.3-0.6,0.3-1.2,0.1-1.8l-1.1-3.2c-0.1-0.4,0.1-0.8,0.4-0.9
		c0.1,0,0.1,0,0.2,0h4.9c0.4,0,0.7,0.3,0.7,0.7c0,0.1,0,0.2,0,0.2l-1.1,3.2c-0.2,0.6-0.2,1.3,0.1,1.8c1.3,2.8,2.3,5.8,2.7,8.8
		c0.2,1.1-0.6,2.1-1.7,2.3c-0.1,0-0.2,0-0.3,0h-5.8c-1.1,0-2-0.9-2-2C9.5,22.4,9.5,22.3,9.5,22.2z"/>
	<path id="Path_118" class="st3" d="M19.3,22.2c-0.5-3.1-1.4-6-2.7-8.8c-0.3-0.6-0.3-1.2-0.1-1.8l1.1-3.2c0.1-0.4-0.1-0.8-0.4-0.9
		c-0.1,0-0.1,0-0.2,0h-2.4v17.1h2.9c1.1,0,2-0.9,2-2C19.4,22.4,19.3,22.3,19.3,22.2z"/>
	<path id="Path_119" class="st4" d="M20.3,24.6h-1.9c-0.7,0-1.3-0.7-1.6-1.7l-0.9-3.1h6.8l-0.9,3.1C21.5,23.9,20.9,24.6,20.3,24.6z"
		/>
	<path id="Path_120" class="st5" d="M19.3,19.7v4.9h0.9c0.7,0,1.3-0.7,1.6-1.7l0.9-3.1L19.3,19.7z"/>
</g>
</svg>
