<svg width="1070" height="281" viewBox="0 0 1070 281" fill="none" xmlns="http://www.w3.org/2000/svg">
<path d="M165.187 277.574H0L83.4257 130.086H0V79.752H165.187L81.7609 227.239H165.187V277.574Z" fill="url(#paint0_linear_1523_49113)"/>
<path d="M244.173 277.574H193.304V0.549316H244.173V175.239L319.459 79.752H377.543L311.875 162.286L377.543 277.574H319.459L279.319 205.588L244.173 252.221V277.574Z" fill="url(#paint1_linear_1523_49113)"/>
<path d="M617.541 197.452C617.541 208.431 615.444 218.733 611.251 228.355C607.058 237.978 601.324 246.429 594.048 253.708C586.896 260.863 578.51 266.538 568.891 270.733C559.272 274.927 548.975 277.024 537.999 277.024H405.369V11.6583H537.999C548.975 11.6583 559.272 13.7556 568.891 17.9501C578.51 22.1447 586.896 27.8813 594.048 35.1601C601.324 42.3155 607.058 50.7045 611.251 60.3273C615.444 69.95 617.541 80.2513 617.541 91.2311C617.541 96.1659 616.862 101.224 615.506 106.405C614.149 111.587 612.238 116.583 609.771 121.395C607.305 126.206 604.345 130.586 600.892 134.534C597.439 138.481 593.617 141.751 589.424 144.341C593.74 146.685 597.624 149.893 601.077 153.964C604.53 157.912 607.49 162.291 609.956 167.103C612.423 171.914 614.273 176.972 615.506 182.277C616.862 187.459 617.541 192.517 617.541 197.452ZM458.458 223.914H537.999C541.699 223.914 545.152 223.236 548.358 221.879C551.565 220.521 554.339 218.671 556.682 216.327C559.149 213.86 561.06 211.022 562.417 207.815C563.773 204.607 564.451 201.153 564.451 197.452C564.451 193.75 563.773 190.296 562.417 187.089C561.06 183.881 559.149 181.105 556.682 178.761C554.339 176.294 551.565 174.382 548.358 173.025C545.152 171.667 541.699 170.989 537.999 170.989H458.458V223.914ZM458.458 117.879H537.999C541.699 117.879 545.152 117.2 548.358 115.843C551.565 114.486 554.339 112.636 556.682 110.292C559.149 107.824 561.06 104.987 562.417 101.779C563.773 98.4482 564.451 94.9322 564.451 91.2311C564.451 87.5301 563.773 84.0757 562.417 80.8682C561.06 77.6606 559.149 74.8848 556.682 72.5408C554.339 70.0734 551.565 68.1612 548.358 66.8041C545.152 65.4471 541.699 64.7685 537.999 64.7685H458.458V117.879Z" fill="#2A1B5B"/>
<path d="M843.77 176.17C843.77 190.975 841.119 204.792 835.816 217.622C830.514 230.329 823.299 241.371 814.174 250.747C805.048 259.999 794.319 267.34 781.987 272.768C769.779 278.073 756.645 280.725 742.587 280.725C728.652 280.725 715.518 278.073 703.186 272.768C690.977 267.34 680.249 259.999 671 250.747C661.874 241.371 654.66 230.329 649.357 217.622C644.054 204.792 641.403 190.975 641.403 176.17C641.403 161.119 644.054 147.179 649.357 134.348C654.66 121.518 661.874 110.477 671 101.224C680.249 91.848 690.977 84.5075 703.186 79.2027C715.518 73.8978 728.652 71.2454 742.587 71.2454C756.645 71.2454 769.779 73.7745 781.987 78.8326C794.319 83.7673 805.048 90.861 814.174 100.114C823.299 109.243 830.514 120.284 835.816 133.238C841.119 146.068 843.77 160.379 843.77 176.17ZM792.901 176.17C792.901 168.028 791.545 160.688 788.832 154.149C786.242 147.487 782.666 141.812 778.103 137.124C773.54 132.313 768.176 128.674 762.01 126.206C755.967 123.615 749.493 122.32 742.587 122.32C735.681 122.32 729.145 123.615 722.979 126.206C716.936 128.674 711.633 132.313 707.071 137.124C702.631 141.812 699.117 147.487 696.527 154.149C693.937 160.688 692.642 168.028 692.642 176.17C692.642 183.819 693.937 190.913 696.527 197.452C699.117 203.99 702.631 209.665 707.071 214.476C711.633 219.288 716.936 223.112 722.979 225.95C729.145 228.664 735.681 230.021 742.587 230.021C749.493 230.021 755.967 228.726 762.01 226.135C768.176 223.544 773.54 219.905 778.103 215.217C782.666 210.529 786.242 204.854 788.832 198.192C791.545 191.53 792.901 184.189 792.901 176.17Z" fill="#2A1B5B"/>
<path d="M1070 176.17C1070 191.715 1067.35 205.902 1062.05 218.733C1056.74 231.563 1049.53 242.604 1040.4 251.857C1031.28 260.986 1020.55 268.08 1008.22 273.138C996.009 278.196 982.875 280.725 968.817 280.725C954.881 280.725 941.748 278.135 929.416 272.953C917.207 267.772 906.478 260.555 897.23 251.302C888.104 242.049 880.89 231.07 875.587 218.363C870.284 205.532 867.633 191.468 867.633 176.17V0H918.317V92.5265C921.03 89.0722 924.298 85.988 928.121 83.2738C932.067 80.5597 936.26 78.3391 940.7 76.6119C945.263 74.8848 949.949 73.5894 954.758 72.7258C959.568 71.7389 964.254 71.2454 968.817 71.2454C982.875 71.2454 996.009 73.8978 1008.22 79.2027C1020.55 84.3842 1031.28 91.6629 1040.4 101.039C1049.53 110.415 1056.74 121.518 1062.05 134.348C1067.35 147.055 1070 160.996 1070 176.17ZM1019.13 176.17C1019.13 168.522 1017.77 161.428 1015.06 154.889C1012.47 148.227 1008.9 142.491 1004.33 137.679C999.77 132.868 994.405 129.105 988.239 126.391C982.197 123.677 975.722 122.32 968.817 122.32C961.911 122.32 955.375 123.862 949.209 126.946C943.166 129.907 937.863 133.917 933.301 138.975C928.738 143.91 925.161 149.646 922.572 156.185C919.982 162.6 918.687 169.262 918.687 176.17C918.687 183.819 919.982 190.913 922.572 197.452C925.161 203.99 928.738 209.665 933.301 214.476C937.863 219.288 943.166 223.112 949.209 225.95C955.375 228.664 961.911 230.021 968.817 230.021C975.722 230.021 982.197 228.664 988.239 225.95C994.405 223.112 999.77 219.288 1004.33 214.476C1008.9 209.665 1012.47 203.99 1015.06 197.452C1017.77 190.913 1019.13 183.819 1019.13 176.17Z" fill="#2A1B5B"/>
<defs>
<linearGradient id="paint0_linear_1523_49113" x1="0.621649" y1="32.163" x2="398.187" y2="294.514" gradientUnits="userSpaceOnUse">
<stop offset="0.053951" stop-color="#6D5CFF"/>
<stop offset="0.559189" stop-color="#E86EFF"/>
<stop offset="0.923794" stop-color="#FFD66E"/>
</linearGradient>
<linearGradient id="paint1_linear_1523_49113" x1="0.621649" y1="32.163" x2="398.187" y2="294.514" gradientUnits="userSpaceOnUse">
<stop offset="0.053951" stop-color="#6D5CFF"/>
<stop offset="0.559189" stop-color="#E86EFF"/>
<stop offset="0.923794" stop-color="#FFD66E"/>
</linearGradient>
</defs>
</svg>
