<?xml version="1.0" encoding="utf-8"?>
<!-- Generator: Adobe Illustrator 24.1.0, SVG Export Plug-In . SVG Version: 6.00 Build 0)  -->
<svg version="1.1" id="Layer_1" xmlns="http://www.w3.org/2000/svg" xmlns:xlink="http://www.w3.org/1999/xlink" x="0px" y="0px"
	 viewBox="0 0 1299.5 248" style="enable-background:new 0 0 1299.5 248;" xml:space="preserve">
<style type="text/css">
	.st0{fill:#0065D0;}
	.st1{fill:#FFFFFF;}
	.st2{font-family:'Roboto-Medium';}
	.st3{font-size:145.5039px;}
</style>
<circle class="st0" cx="125.9" cy="123.6" r="122.6"/>
<g>
	<path class="st1" d="M130.5,175.3h-12V70.6h12V175.3z"/>
	<path class="st1" d="M88.4,147.2c-3.3,5.9-4.5,11.4-4.5,18.7c0,22.4,18.2,40.6,40.6,40.6s40.6-18.2,40.6-40.6
		c0-19-13.1-35-30.7-39.4v12.1c11.1,4.1,19.1,14.7,19.1,27.3c0,16-13,29-29,29s-29-13-29-29c0-5.9,1.8-11,4.9-15.5l2.1,19.2
		l11.6-1.5l-5.6-36.7L72,138.8l2.1,12.2L88.4,147.2z"/>
	<path class="st1" d="M162.3,96.3c2.4-5.2,2.9-9,2.9-15c0-22.4-18.2-40.6-40.6-40.6S84,58.9,84,81.3c0,19,13.1,35,30.7,39.4v-12.1
		c-11.1-4.1-19.1-14.7-19.1-27.3c0-16,13-29,29-29s29,13,29,29c0,4-0.8,7.9-2.3,11.4l-6.5-17.1l-10.7,3.3l10.3,36l35.3-13l-4.3-10.1
		L162.3,96.3z"/>
</g>
<text transform="matrix(1 0 0 1 367.7328 166.0479)" class="st2 st3">yearn.finance</text>
</svg>
