<svg version="1.1" x="0px" y="0px" width="412" height="377" xmlns="http://www.w3.org/2000/svg" xmlns:xlink="http://www.w3.org/1999/xlink" xmlns:a="http://ns.adobe.com/AdobeSVGViewerExtensions/3.0/" xml:space="preserve"><g transform="translate(20.53894638467 20.117225542395) scale(3.0287274441932 3.0287274441932) rotate(0 61.233985900879 55.452152252197)"><linearGradient id="SVGID_1" x1="0%" y1="0%" x2="100%" y2="0%" gradientTransform="rotate(90)"><stop offset="0%" stop-color="#c74d97" stop-opacity="1"></stop><stop offset="100%" stop-color="#6e86c3" stop-opacity="1"></stop></linearGradient><path d="M121.733 94.553l-34.9-37.263 3-3.109-2.781-2.903 35.416-37.222-4.705-2.832-34.546 36.054-2.594-2.706 33.063-34.748-.039-.023.791-.581-4.281-2.578-32.94 34.378-2.6-2.711 31.461-33.063-.039-.023.791-.582-4.281-2.577-31.332 32.698-2.604-2.718L98.471.665l-.039-.024.281-.208a14.45 14.45 0 00-4.264-.417c-2.785.104-5.359 1.069-7.701 2.699L63.891 27.119l-2.658-2.774-2.658 2.774L35.72 2.716C33.377 1.087 30.805.121 28.018.017a14.426 14.426 0 00-4.264.417l.281.208-.038.024 29.856 31.378-2.604 2.718-31.33-32.698-4.28 2.577.789.582-.038.023 31.459 33.063-2.599 2.711L12.313 6.644 8.03 9.222l.791.581-.039.022 33.062 34.748-2.594 2.706L4.704 11.224 0 14.056l35.416 37.222-2.782 2.903 3.001 3.109-34.9 37.263c.048-.077-.123.031-.432.37l4.916 2.96 1.367-1.006a7.36 7.36 0 00.813-.499l32.745-34.414 2.514 2.604L9.475 99.2c-.332.241-.67.448-1.012.635l4.363 2.626 1.367-1.005c.271-.144.541-.306.813-.498L46.17 68.207l2.507 2.599-31.595 32.974a9.412 9.412 0 01-1.008.638l4.359 2.624 1.367-1.005a7.42 7.42 0 00.813-.499l29.58-31.086 2.502 2.592-30.007 31.315a9.142 9.142 0 01-1.015.634l1.78 1.071c1.999 1.204 3.939 1.114 5.943-.299L58.64 81.134l2.591 2.685 2.591-2.685 27.244 28.631c2.004 1.413 3.945 1.503 5.943.299l1.779-1.071a9.04 9.04 0 01-1.014-.634L67.772 77.043l2.502-2.592 29.58 31.086c.271.192.541.355.813.499l1.369 1.005 4.357-2.624a9.513 9.513 0 01-1.008-.638L73.79 70.806l2.508-2.599 31.164 32.751c.271.192.541.354.813.498l1.369 1.005 4.361-2.626a9.484 9.484 0 01-1.012-.635L79.809 64.568l2.514-2.604 32.746 34.414c.271.192.541.354.813.499l1.367 1.006 4.916-2.96c-.309-.34-.479-.447-.432-.37zM79.602 59.105l-2.504 2.632-3.479 3.655-2.5 2.626-3.482 3.661-2.492 2.621-3.912 4.109-3.911-4.109-2.492-2.621-3.483-3.661-2.499-2.626-3.479-3.655-2.504-2.632-4.501-4.729 3.8-4.058 2.553-2.726 3.377-3.605 2.559-2.732 3.371-3.599 2.564-2.739 4.646-4.96 4.646 4.96 2.564 2.739 3.371 3.599 2.559 2.732 3.377 3.605 2.553 2.726 3.801 4.058-4.503 4.729z" fill="url(#SVGID_1)"></path><linearGradient id="SVGID_2" x1="0%" y1="0%" x2="100%" y2="0%" gradientTransform="rotate(90)"><stop offset="0%" stop-color="#c74d97" stop-opacity="1"></stop><stop offset="100%" stop-color="#6e86c3" stop-opacity="1"></stop></linearGradient><path d="M80.645 54.183L61.233 73.594 41.821 54.183l19.412-19.412z" fill="url(#SVGID_2)"></path></g>
</svg>