<svg width="961" height="377" xmlns="http://www.w3.org/2000/svg" xml:space="preserve" version="1.1">
 <defs>
  <linearGradient gradientTransform="rotate(90)" y2="0%" x2="100%" y1="0%" x1="0%" id="SVGID_1">
   <stop stop-color="#c74d97" offset="0%"/>
   <stop stop-color="#6e86c3" offset="100%"/>
  </linearGradient>
  <linearGradient gradientTransform="rotate(90)" y2="0%" x2="100%" y1="0%" x1="0%" id="SVGID_2">
   <stop stop-color="#c74d97" offset="0%"/>
   <stop stop-color="#6e86c3" offset="100%"/>
  </linearGradient>
 </defs>
 <g>
  <title>Layer 1</title>
  <g id="svg_1" transform="translate(20.5389 20.1172) scale(3.02873 3.02873)">
   <path id="svg_2" fill="url(#SVGID_1)" d="m212.01839,94.553l-34.9,-37.263l3,-3.109l-2.781,-2.903l35.416,-37.222l-4.705,-2.832l-34.546,36.054l-2.594,-2.706l33.063,-34.748l-0.039,-0.023l0.791,-0.581l-4.281,-2.578l-32.94,34.378l-2.6,-2.711l31.461,-33.063l-0.039,-0.023l0.791,-0.582l-4.281,-2.577l-31.332,32.698l-2.604,-2.718l29.858,-31.379l-0.039,-0.024l0.281,-0.208a14.45,14.45 0 0 0 -4.264,-0.417c-2.785,0.104 -5.359,1.069 -7.701,2.699l-22.857,24.404l-2.658,-2.774l-2.658,2.774l-22.855,-24.403c-2.343,-1.629 -4.915,-2.595 -7.702,-2.699a14.426,14.426 0 0 0 -4.264,0.417l0.281,0.208l-0.038,0.024l29.856,31.378l-2.604,2.718l-31.33,-32.698l-4.28,2.577l0.789,0.582l-0.038,0.023l31.459,33.063l-2.599,2.711l-32.937,-34.376l-4.283,2.578l0.791,0.581l-0.039,0.022l33.062,34.748l-2.594,2.706l-34.546,-36.055l-4.704,2.832l35.416,37.222l-2.782,2.903l3.001,3.109l-34.9,37.263c0.048,-0.077 -0.123,0.031 -0.432,0.37l4.916,2.96l1.367,-1.006a7.36,7.36 0 0 0 0.813,-0.499l32.745,-34.414l2.514,2.604l-33.183,34.632c-0.332,0.241 -0.67,0.448 -1.012,0.635l4.363,2.626l1.367,-1.005c0.271,-0.144 0.541,-0.306 0.813,-0.498l31.164,-32.751l2.507,2.599l-31.595,32.974a9.412,9.412 0 0 1 -1.008,0.638l4.359,2.624l1.367,-1.005a7.42,7.42 0 0 0 0.813,-0.499l29.58,-31.086l2.502,2.592l-30.007,31.315a9.142,9.142 0 0 1 -1.015,0.634l1.78,1.071c1.999,1.204 3.939,1.114 5.943,-0.299l27.244,-28.631l2.591,2.685l2.591,-2.685l27.244,28.631c2.004,1.413 3.945,1.503 5.943,0.299l1.779,-1.071a9.04,9.04 0 0 1 -1.014,-0.634l-30.002,-31.316l2.502,-2.592l29.58,31.086c0.271,0.192 0.541,0.355 0.813,0.499l1.369,1.005l4.357,-2.624a9.513,9.513 0 0 1 -1.008,-0.638l-31.595,-32.973l2.508,-2.599l31.164,32.751c0.271,0.192 0.541,0.354 0.813,0.498l1.369,1.005l4.361,-2.626a9.484,9.484 0 0 1 -1.012,-0.635l-33.184,-34.632l2.514,-2.604l32.746,34.414c0.271,0.192 0.541,0.354 0.813,0.499l1.367,1.006l4.916,-2.96c-0.309,-0.34 -0.479,-0.447 -0.432,-0.37zm-42.131,-35.448l-2.504,2.632l-3.479,3.655l-2.5,2.626l-3.482,3.661l-2.492,2.621l-3.912,4.109l-3.911,-4.109l-2.492,-2.621l-3.483,-3.661l-2.499,-2.626l-3.479,-3.655l-2.504,-2.632l-4.501,-4.729l3.8,-4.058l2.553,-2.726l3.377,-3.605l2.559,-2.732l3.371,-3.599l2.564,-2.739l4.646,-4.96l4.646,4.96l2.564,2.739l3.371,3.599l2.559,2.732l3.377,3.605l2.553,2.726l3.801,4.058l-4.503,4.729z"/>
   <path id="svg_3" fill="url(#SVGID_2)" d="m170.93039,54.183l-19.412,19.411l-19.412,-19.411l19.412,-19.412l19.412,19.412z"/>
  </g>
 </g>
</svg>
