<svg xmlns="http://www.w3.org/2000/svg" xmlns:xlink="http://www.w3.org/1999/xlink" viewBox="0 0 113.16 40.71" width="113.16"  height="40.71" ><defs><style>.cls-1{fill:#fff;}.cls-2{fill:url(#linear-gradient);}.cls-3,.cls-6{fill:none;stroke-miterlimit:10;}.cls-3{stroke:url(#linear-gradient-2);}.cls-4{fill:url(#linear-gradient-3);}.cls-5{fill:#231f20;}.cls-6{stroke:#e6e7e7;stroke-width:0.75px;}</style><linearGradient id="linear-gradient" x1="0.8" y1="391.24" x2="33.37" y2="371.71" gradientTransform="matrix(1, 0, 0, -1, 0, 399.87)" gradientUnits="userSpaceOnUse"><stop offset="0" stop-color="#595a5c"/><stop offset="1" stop-color="#231f20"/></linearGradient><linearGradient id="linear-gradient-2" x1="2.9" y1="389.99" x2="37.82" y2="369.04" gradientTransform="matrix(1, 0, 0, -1, 0, 399.87)" gradientUnits="userSpaceOnUse"><stop offset="0" stop-color="#d2d3d4"/><stop offset="1" stop-color="#e6e7e7"/></linearGradient><linearGradient id="linear-gradient-3" x1="9.7" y1="383.96" x2="30.54" y2="371.46" gradientTransform="matrix(1, 0, 0, -1, 0, 399.87)" gradientUnits="userSpaceOnUse"><stop offset="0.07" stop-color="#3db54a"/><stop offset="1" stop-color="#019547"/></linearGradient></defs><g id="Layer_2" data-name="Layer 2"><g id="Layer_1-2" data-name="Layer 1"><path class="cls-1" d="M54.68,1.5v12H52.29V1.5Zm13.63,12L65.68,8.81H64.56v4.66H62.17V1.5h4.47A5.1,5.1,0,0,1,69,2a3.31,3.31,0,0,1,1.46,1.32,3.51,3.51,0,0,1,.49,1.85,3.63,3.63,0,0,1-.68,2.14,3.53,3.53,0,0,1-2,1.31l2.85,4.85ZM64.56,7h2A2,2,0,0,0,68,6.54a1.78,1.78,0,0,0,.48-1.32A1.65,1.65,0,0,0,68,4a2,2,0,0,0-1.45-.46h-2Zm19.2,6.58a6.14,6.14,0,0,1-3.08-.79,5.88,5.88,0,0,1-2.22-2.18,6.2,6.2,0,0,1-.81-3.17,6.12,6.12,0,0,1,.81-3.14,5.91,5.91,0,0,1,2.22-2.19,6.14,6.14,0,0,1,3.08-.79,6.05,6.05,0,0,1,3.07.79A5.72,5.72,0,0,1,89,4.31a6,6,0,0,1,.82,3.14A6.11,6.11,0,0,1,89,10.62a5.69,5.69,0,0,1-2.2,2.18A6.11,6.11,0,0,1,83.76,13.59Zm0-2.14A3.66,3.66,0,0,0,85.65,11a3.31,3.31,0,0,0,1.28-1.41,4.58,4.58,0,0,0,.46-2.11,4.44,4.44,0,0,0-.46-2.09A3.2,3.2,0,0,0,85.65,4a3.66,3.66,0,0,0-1.89-.48A3.74,3.74,0,0,0,81.85,4a3.28,3.28,0,0,0-1.29,1.39,4.57,4.57,0,0,0-.46,2.09,4.71,4.71,0,0,0,.46,2.11A3.39,3.39,0,0,0,81.85,11,3.74,3.74,0,0,0,83.76,11.45Zm23.19,2h-2.39L99.14,5.26v8.21H96.75v-12h2.39l5.42,8.23V1.48H107ZM59.05,33.06a2.65,2.65,0,0,1,1.66,1A3,3,0,0,1,61.36,36a3,3,0,0,1-.48,1.7,3.09,3.09,0,0,1-1.35,1.13,4.86,4.86,0,0,1-2.1.42H52.29v-12h4.92a5,5,0,0,1,2.08.4,2.87,2.87,0,0,1,1.33,1.1,2.82,2.82,0,0,1,.46,1.59,2.68,2.68,0,0,1-.56,1.75A2.92,2.92,0,0,1,59.05,33.06Zm-4.37-.9h2.19a2,2,0,0,0,1.31-.37,1.4,1.4,0,0,0,.46-1.12,1.36,1.36,0,0,0-.46-1.11,1.92,1.92,0,0,0-1.31-.4H54.68Zm2.41,5.08a2,2,0,0,0,1.35-.41,1.43,1.43,0,0,0,.49-1.17,1.49,1.49,0,0,0-.51-1.2A2,2,0,0,0,57,34H54.68v3.22Zm18.6-.33H71l-.79,2.29H67.65l4.29-12h2.78L79,39.2H76.48ZM75,35l-1.72-5-1.73,5ZM95.92,39.2H93.53L88.12,31V39.2H85.73v-12h2.39l5.41,8.23V27.21h2.39Zm14.21,0-4.33-5.34V39.2h-2.39v-12h2.39v5.37l4.33-5.37H113l-4.92,5.94,5.06,6Z"/><g id="Layer_2-2" data-name="Layer 2"><g id="Layer_1-2-2" data-name="Layer 1-2"><circle class="cls-2" cx="20.36" cy="20.36" r="19.86"/><circle class="cls-3" cx="20.36" cy="20.36" r="19.86"/><polygon class="cls-4" points="7.53 23.37 8.26 23.37 9.2 23.37 10.21 23.08 11.09 22.62 12.08 21.89 12.98 20.73 13.45 19.97 14 18.36 16.33 16.96 17.23 16.48 18.92 15.8 20.55 15.05 21.76 14.29 23.48 12.93 25.49 10.58 25.58 10.75 25.66 11.07 25.66 11.65 25.54 12.24 25.04 13.43 24.27 14.83 23.57 15.8 22.38 17.18 22.82 17.17 24.41 16.8 25.56 16.49 26.66 15.94 30.22 14.3 29.94 14.89 29.25 15.93 28.7 16.6 27.84 17.64 28.42 17.56 29.85 17.76 30.61 17.4 31.92 16.3 32.94 14.14 32.99 16.71 32.72 17.5 32.66 17.74 32.54 17.93 31.4 19.03 32.04 19.17 33.16 20.05 35.79 21.72 36.64 22.24 35.3 26.34 32.13 31.45 27.22 35.02 22.4 36.56 18.06 36.64 18.55 35.44 19.95 35.15 21.52 34.73 23.13 34.08 24.81 33.3 26.46 32.4 28.01 31.21 29.72 29.38 29.81 29.12 29.88 28.93 29.9 28.69 29.89 28.19 29.9 27.67 29.75 27.39 29.51 27.06 28.99 26.39 28.43 25.73 27.65 25.02 27 24.45 25.96 23.85 24.89 23.23 24.11 22.92 23.2 22.53 22.29 22.28 21.96 22.2 21.97 22.01 22.25 21.8 22.76 21.54 23.56 21.3 25.23 21.32 25.95 21.53 27.75 22.25 28.78 22.87 30.23 23.79 30.84 24.21 32.12 25.4 31.9 24.97 31.52 24.55 30.93 23.88 30.32 23.31 29.26 22.36 28.48 21.89 27.49 21.39 27.06 21.14 26.11 20.88 25.18 20.64 24.49 20.55 23.79 20.53 23.06 20.44 22.47 20.51 21.98 20.63 21.76 20.68 21.5 20.93 21.2 21.21 21.02 21.5 20.97 21.83 20.97 22.22 21.09 22.56 21.34 22.98 21.77 23.53 22.36 24.2 22.95 24.8 22.14 24.63 21.46 24.5 20.73 24.31 20.07 24.22 19.61 24.17 18.91 24.16 18.31 24.33 17.63 24.72 17.17 25.06 17.02 25.34 15.88 25.25 14.36 25.23 13.64 25.36 13.36 25.48 13.06 25.69 12.75 25.88 12.57 26.04 12.31 26.35 12.2 26.59 12.13 26.82 12.1 26.94 11.34 26.89 10.78 26.87 10.13 26.62 9.51 26.25 9.18 25.98 8.79 25.67 8.42 25.25 8.17 24.85 7.92 24.41 7.69 23.92 7.53 23.54 7.42 23.37 7.53 23.37"/><polygon class="cls-5" points="14.45 20.76 15.22 19.56 15.79 19.46 16.25 19.14 16.74 18.45 17.08 18 17.08 19.38 16.72 20.03 16.1 20.07 15.59 20.28 15.49 20.3 15.2 20.68 15.08 20.82 14.45 20.76"/><circle class="cls-6" cx="20.17" cy="20.17" r="16.47"/></g></g></g></g></svg>