<svg width="762" height="56" viewBox="0 0 762 56" fill="none" xmlns="http://www.w3.org/2000/svg"><g clip-path="url(#clip0)" fill="#00D1FF"><path d="M73.492 26.212c-3.248-3.174-7.15-4.76-11.71-4.76H16.58c-.84 0-1.56-.292-2.162-.877a2.857 2.857 0 01-.903-2.134v-3.666c0-.801.3-1.495.903-2.08a3 3 0 012.162-.876h58.28a.48.48 0 00.355-.137.416.416 0 00.137-.3V.437c0-.145-.046-.254-.137-.328A.558.558 0 0074.86 0H16.58C11.985 0 8.072 1.588 4.844 4.762 1.614 7.935 0 11.765 0 16.252v.712c0 4.524 1.614 8.373 4.843 11.547 3.228 3.174 7.141 4.76 11.738 4.76h45.2c.803 0 1.505.282 2.106.848.603.566.903 1.268.903 2.108v3.665c0 .84-.3 1.542-.903 2.108-.602.566-1.304.848-2.106.848H3.448a.416.416 0 00-.3.137.483.483 0 00-.138.357v10.944c0 .11.046.21.137.3a.418.418 0 00.3.138h58.334c4.56 0 8.463-1.595 11.71-4.788 3.247-3.192 4.871-7.032 4.871-11.52v-.712c-.001-4.488-1.624-8.319-4.87-11.492zM171.622 0h-12.641a.473.473 0 00-.301.109c-.091.074-.137.183-.137.328v13.9c0 1.203-.621 2.116-1.86 2.736l-25.226 10.45-25.226-10.45c-1.24-.62-1.861-1.532-1.861-2.737V.437c0-.145-.036-.254-.109-.328-.075-.072-.184-.109-.329-.109H91.29a.472.472 0 00-.3.109c-.091.074-.137.183-.137.328v15.924c0 2.373.657 4.543 1.97 6.512 1.314 1.97 3.1 3.428 5.363 4.377l26.486 11.108v15.87a.48.48 0 00.137.357.479.479 0 00.355.137h12.641a.417.417 0 00.3-.137.482.482 0 00.137-.356v-15.87l26.486-11.053c2.26-.986 4.05-2.454 5.362-4.405 1.314-1.952 1.969-4.112 1.969-6.485V.437c0-.145-.045-.254-.137-.328a.473.473 0 00-.3-.109zm93.894 0h-12.641c-.146 0-.256.046-.329.137a.47.47 0 00-.109.3v42.464h-5.308c-.985 0-1.824-.437-2.517-1.313L220.098 5.745C217.47 2.062 213.84.145 209.208 0h-21.122a.481.481 0 00-.356.137.415.415 0 00-.137.3v53.846c0 .11.045.21.137.3a.48.48 0 00.356.138h12.641a.42.42 0 00.301-.137.417.417 0 00.137-.3V11.818h5.308c.985 0 1.823.457 2.517 1.368l24.515 35.843c2.627 3.685 6.256 5.582 10.889 5.69h21.123c.146 0 .255-.045.329-.136a.473.473 0 00.109-.3V.436a.476.476 0 00-.109-.3c-.075-.091-.184-.137-.33-.137zm91.366 0H279.45c-.145 0-.256.046-.328.137a.464.464 0 00-.109.3v10.945c0 .109.035.21.109.3.072.092.183.137.328.137h31.957v42.464c0 .11.036.21.109.3.073.092.183.138.329.138h12.641c.146 0 .255-.046.328-.137a.467.467 0 00.109-.3V11.818h31.957a.479.479 0 00.355-.137.415.415 0 00.137-.3V.437a.415.415 0 00-.137-.3.47.47 0 00-.353-.137zm93.893 0h-12.641a.417.417 0 00-.301.137.42.42 0 00-.137.3V21.45h-51.22V.437a.415.415 0 00-.137-.3.485.485 0 00-.354-.137h-12.642a.415.415 0 00-.3.137.42.42 0 00-.137.3v53.846c0 .11.046.21.137.3a.416.416 0 00.3.138h12.642a.478.478 0 00.354-.137.415.415 0 00.137-.3V33.27h51.22v21.012c0 .11.046.21.137.3a.419.419 0 00.301.138h12.641a.482.482 0 00.355-.137.42.42 0 00.137-.3V.436a.427.427 0 00-.137-.3.484.484 0 00-.355-.137zm93.558 0h-61.342c-4.562 0-8.464 1.586-11.711 4.76-3.247 3.174-4.87 7.005-4.87 11.492v22.162c0 4.524 1.623 8.373 4.87 11.547 3.247 3.173 7.149 4.761 11.711 4.761h61.342a.42.42 0 00.301-.137.423.423 0 00.137-.3V43.34c0-.146-.046-.255-.137-.328a.478.478 0 00-.301-.11h-61.342c-.84 0-1.551-.29-2.134-.874-.585-.583-.877-1.277-.877-2.08v-6.677h64.314c.145 0 .254-.046.328-.137a.476.476 0 00.109-.3V21.888c0-.146-.037-.255-.109-.329-.074-.072-.183-.109-.328-.109H479.98v-6.676c0-.803.292-1.495.877-2.08.583-.583 1.294-.876 2.134-.876h61.342a.42.42 0 00.301-.137.42.42 0 00.137-.3V.437a.42.42 0 00-.137-.3.426.426 0 00-.301-.137zm93.45 0h-77.432c-.146 0-.256.046-.328.137a.464.464 0 00-.109.3v10.945c0 .109.035.21.109.3.072.092.182.137.328.137h31.957v42.464c0 .11.036.21.109.3.074.092.183.138.329.138h12.641c.146 0 .255-.046.328-.137a.462.462 0 00.109-.3V11.818h31.957a.479.479 0 00.355-.137.42.42 0 00.137-.3V.437a.42.42 0 00-.137-.3.476.476 0 00-.353-.137zm29.431.109c-.074-.072-.183-.109-.329-.109h-12.64c-.146 0-.257.037-.329.109-.073.074-.109.183-.109.328v53.846c0 .11.036.21.109.3.072.092.183.138.329.138h12.64c.146 0 .255-.046.329-.137a.476.476 0 00.109-.3V.436c0-.144-.037-.254-.109-.328zm34.9 13.189c-.548-.62-1.223-.93-2.026-.93h-16.415a.477.477 0 01-.355-.138.413.413 0 01-.137-.3V.986c0-.11.045-.21.137-.3a.483.483 0 01.355-.138h17.346c4.377 0 8.154 1.77 11.328 5.308l4.213 5.089-8.208 9.904-6.238-7.55zm30.314-7.496c3.174-3.503 6.968-5.254 11.382-5.254h17.292c.146 0 .255.037.329.11.072.073.109.182.109.328V11.93c0 .109-.037.21-.109.3-.074.092-.183.137-.329.137h-16.416c-.802 0-1.477.311-2.025.931l-12.093 14.556 12.148 14.665c.548.584 1.203.876 1.97.876h16.416c.146 0 .255.046.329.137.072.091.109.21.109.355V54.83a.47.47 0 01-.109.3c-.074.092-.183.138-.329.138h-17.291c-4.414 0-8.19-1.77-11.327-5.308l-10.068-12.148-10.069 12.148c-3.174 3.539-6.968 5.308-11.382 5.308h-17.292c-.146 0-.257-.046-.329-.137a.551.551 0 01-.109-.357V43.831a.47.47 0 01.109-.3c.072-.092.183-.137.329-.137h16.415c.766 0 1.441-.31 2.026-.931l11.873-14.337 18.441-22.324z"/></g><defs><clipPath id="clip0"><path fill="#fff" d="M0 0h761.541v55.27H0z"/></clipPath></defs></svg>