<?xml version="1.0" encoding="UTF-8"?>
<svg width="710px" height="321px" viewBox="0 0 710 321" version="1.1" xmlns="http://www.w3.org/2000/svg" xmlns:xlink="http://www.w3.org/1999/xlink">
    <title>Fantom_logo_white</title>
    <g id="Fantom_logo_white" stroke="none" stroke-width="1" fill="none" fill-rule="evenodd">
        <path d="M148.955532,92.2261405 C152.066535,90.5912865 156.800219,90.5912865 159.911223,92.2261405 L159.911223,92.2261405 L191.656176,108.908333 C193.529819,109.892946 194.558836,111.360084 194.743226,112.87471 L194.773417,112.874676 L194.773417,196.727602 C194.732202,198.37986 193.693522,200.021027 191.656176,201.091667 L191.656176,201.091667 L159.911223,217.77386 C156.800219,219.408713 152.066535,219.408713 148.955532,217.77386 L148.955532,217.77386 L117.210578,201.091667 C115.181822,200.025541 114.20819,198.372904 114.15996,196.727602 C114.155219,196.565843 114.154625,196.431313 114.159196,196.319409 L114.158982,113.413321 C114.155833,113.322466 114.155536,113.231831 114.15811,113.14148 L114.15996,112.874676 L114.174162,112.874582 C114.315192,111.343352 115.297489,109.913675 117.210578,108.908333 L117.210578,108.908333 Z M189.776,159.656 L159.911223,175.350245 C156.800219,176.985099 152.066535,176.985099 148.955532,175.350245 L148.955532,175.350245 L119.156,159.691 L119.156,196.562 L148.955532,212.139306 C150.638199,213.033722 152.384732,213.906199 154.092394,214.016751 L154.433377,214.028483 C156.212883,214.034414 157.940455,213.135362 159.692406,212.284309 L159.692406,212.284309 L189.776,196.428 L189.776,159.656 Z M108.996702,194.904713 C108.996702,198.11749 109.371987,200.229113 110.117116,201.716746 C110.734716,202.949772 111.661381,203.892072 113.353409,205.038648 L113.450005,205.10377 C113.821328,205.352846 114.230385,205.613814 114.72831,205.920461 L115.315494,206.278278 L117.118592,207.360909 L114.532463,211.614751 L112.514338,210.402043 L112.175124,210.194838 C111.591595,209.836469 111.107954,209.528583 110.656826,209.225976 C105.8345,205.991257 104.036024,202.464568 104.000537,195.128197 L104,194.904713 L108.996702,194.904713 Z M151.934269,137.180834 C151.70316,137.259776 151.486593,137.351129 151.289137,137.454894 L151.289137,137.454894 L119.544184,154.137086 C119.510871,154.154592 119.479102,154.17193 119.448861,154.189043 L119.448861,154.189043 L119.421987,154.204557 L119.471829,154.232948 L119.544184,154.272028 L151.289137,170.954221 C151.486593,171.057985 151.70316,171.149338 151.934269,171.22828 Z M156.932486,137.180834 L156.932486,171.22828 C157.163594,171.149338 157.380162,171.057985 157.577618,170.954221 L157.577618,170.954221 L189.322571,154.272028 C189.355883,154.254522 189.387652,154.237185 189.417894,154.220072 L189.417894,154.220072 L189.444767,154.204557 L189.394926,154.176167 L189.322571,154.137086 L157.577618,137.454894 C157.380162,137.351129 157.163594,137.259776 156.932486,137.180834 Z M189.776,118.823 L161.299,133.788 L189.776,148.753 L189.776,118.823 Z M119.156,118.858 L119.156,148.718 L147.567,133.788 L119.156,118.858 Z M157.577618,96.6221644 C155.926775,95.754635 152.93998,95.754635 151.289137,96.6221644 L151.289137,96.6221644 L119.544184,113.304357 C119.510871,113.321863 119.479102,113.3392 119.448861,113.356313 L119.448861,113.356313 L119.421987,113.371828 L119.471829,113.400219 L119.544184,113.439299 L151.289137,130.121492 C152.93998,130.989021 155.926775,130.989021 157.577618,130.121492 L157.577618,130.121492 L189.322571,113.439299 C189.355883,113.421793 189.387652,113.404456 189.417894,113.387343 L189.417894,113.387343 L189.444767,113.371828 L189.394926,113.343437 L189.322571,113.304357 Z M194.467537,98.4515358 L196.485662,99.6642442 L196.824876,99.8714489 C197.408405,100.229818 197.892046,100.537704 198.343174,100.840311 C203.1655,104.07503 204.963976,107.601718 204.999463,114.93809 L205,115.161574 L200.003298,115.161574 C200.003298,111.948797 199.628013,109.837174 198.882884,108.349541 C198.265284,107.116515 197.338619,106.174215 195.646591,105.027639 L195.549995,104.962517 C195.178672,104.713441 194.769615,104.452473 194.27169,104.145826 L193.684506,103.788009 L191.881408,102.705378 L194.467537,98.4515358 Z" id="Combined-Shape" fill="#1965E9" fill-rule="nonzero"></path>
        <path d="M255.760218,193.231593 L255.760218,146.468541 L268.728429,146.468541 L268.728429,137.906292 L255.760218,137.906292 L255.760218,131.759036 C255.760218,124.806783 258.800787,121.330656 264.881926,121.330656 C266.640327,121.330656 268.508629,121.623382 270.48683,122.208835 L270.48683,122.208835 L270.48683,113.097724 C268.069028,112.365908 265.394793,112 262.464124,112 C256.822586,112 252.444899,113.609996 249.331063,116.829987 C246.217227,120.049978 244.660309,124.733601 244.660309,130.880857 L244.660309,130.880857 L244.660309,137.906292 L234,137.906292 L234,146.468541 L244.660309,146.468541 L244.660309,193.231593 L255.760218,193.231593 Z M300.819255,194 C305.068725,194 308.787012,193.121821 311.974114,191.365462 C315.161217,189.609103 317.560702,187.084337 319.17257,183.791165 L319.17257,183.791165 L319.17257,193.231593 L330.162579,193.231593 L330.162579,137.906292 L319.17257,137.906292 L319.17257,146.907631 C317.487436,143.614458 315.069634,141.071397 311.919164,139.278447 C308.768695,137.485498 305.068725,136.589023 300.819255,136.589023 C296.056918,136.589023 291.807448,137.796519 288.070845,140.211513 C284.334242,142.626506 281.421889,146.029451 279.333787,150.420348 C277.245686,154.811245 276.201635,159.860776 276.201635,165.568942 C276.201635,171.277108 277.227369,176.271754 279.278837,180.552878 C281.330306,184.834003 284.206025,188.145471 287.905995,190.487282 C291.605964,192.829094 295.910384,194 300.819255,194 Z M303.456857,185.218206 C298.401453,185.218206 294.463367,183.498438 291.642598,180.058902 C288.821829,176.619366 287.411444,171.78938 287.411444,165.568942 C287.411444,159.275324 288.821829,154.35386 291.642598,150.804552 C294.463367,147.255243 298.36482,145.480589 303.346957,145.480589 C308.402361,145.480589 312.303815,147.200357 315.051317,150.639893 C317.798819,154.079429 319.17257,158.982597 319.17257,165.349398 C319.17257,171.643017 317.798819,176.527889 315.051317,180.004016 C312.303815,183.480143 308.438995,185.218206 303.456857,185.218206 Z M357.417802,193.231593 L357.417802,161.726908 C357.417802,156.823739 358.828186,152.908523 361.648955,149.981258 C364.469724,147.053994 368.224644,145.590361 372.913715,145.590361 C377.016652,145.590361 380.002271,146.688086 381.870572,148.883534 C383.738874,151.078983 384.673025,154.5917 384.673025,159.421687 L384.673025,159.421687 L384.673025,193.231593 L395.772934,193.231593 L395.772934,158.763052 C395.772934,143.980366 389.142295,136.589023 375.881017,136.589023 C371.631547,136.589023 367.839994,137.522088 364.506358,139.38822 C361.172722,141.254351 358.626703,143.943775 356.868302,147.456493 L356.868302,147.456493 L355.879201,137.906292 L345.548592,137.906292 C346.134726,142.516734 346.427793,147.712628 346.427793,153.493976 L346.427793,153.493976 L346.427793,193.231593 L357.417802,193.231593 Z M432.919164,194 C435.996367,194 438.743869,193.597501 441.161671,192.792503 L441.161671,192.792503 L441.161671,183.791165 C439.18347,184.376618 437.241901,184.669344 435.336966,184.669344 C432.406297,184.669344 430.116712,183.882642 428.468211,182.309237 C426.819709,180.735832 425.995459,178.046408 425.995459,174.240964 L425.995459,174.240964 L425.995459,146.468541 L441.271571,146.468541 L441.271571,137.906292 L425.995459,137.906292 L425.995459,120.232932 L414.89555,124.074967 L414.89555,137.906292 L404.125341,137.906292 L404.125341,146.468541 L414.89555,146.468541 L414.89555,175.119143 C414.89555,181.266399 416.470784,185.950022 419.621253,189.170013 C422.771723,192.390004 427.20436,194 432.919164,194 Z M475.340599,194 C480.689071,194 485.414774,192.829094 489.517711,190.487282 C493.620648,188.145471 496.789434,184.815707 499.024069,180.497992 C501.258704,176.180277 502.376022,171.130745 502.376022,165.349398 C502.376022,159.56805 501.258704,154.500223 499.024069,150.145917 C496.789434,145.791611 493.620648,142.443552 489.517711,140.10174 C485.414774,137.759929 480.689071,136.589023 475.340599,136.589023 C469.918862,136.589023 465.156524,137.759929 461.053588,140.10174 C456.950651,142.443552 453.781865,145.791611 451.54723,150.145917 C449.312595,154.500223 448.195277,159.56805 448.195277,165.349398 C448.195277,171.130745 449.312595,176.180277 451.54723,180.497992 C453.781865,184.815707 456.950651,188.145471 461.053588,190.487282 C465.156524,192.829094 469.918862,194 475.340599,194 Z M475.230699,185.218206 C470.175295,185.218206 466.273842,183.535029 463.52634,180.168675 C460.778837,176.80232 459.405086,171.862561 459.405086,165.349398 C459.405086,158.982597 460.797154,154.079429 463.58129,150.639893 C466.365425,147.200357 470.285195,145.480589 475.340599,145.480589 C480.322737,145.480589 484.187557,147.200357 486.935059,150.639893 C489.682561,154.079429 491.056312,158.982597 491.056312,165.349398 C491.056312,171.862561 489.700878,176.80232 486.990009,180.168675 C484.27914,183.535029 480.35937,185.218206 475.230699,185.218206 Z M526.334242,193.231593 L526.334242,161.946452 C526.334242,156.896921 527.579776,152.908523 530.070845,149.981258 C532.561913,147.053994 535.932183,145.590361 540.181653,145.590361 C543.844989,145.590361 546.500908,146.688086 548.14941,148.883534 C549.797911,151.078983 550.622162,154.555109 550.622162,159.311914 L550.622162,159.311914 L550.622162,193.231593 L561.722071,193.231593 L561.722071,161.946452 C561.722071,156.896921 562.949289,152.908523 565.403724,149.981258 C567.858159,147.053994 571.210112,145.590361 575.459582,145.590361 C579.122919,145.590361 581.778837,146.688086 583.427339,148.883534 C585.07584,151.078983 585.900091,154.555109 585.900091,159.311914 L585.900091,159.311914 L585.900091,193.231593 L597,193.231593 L597,158.763052 C597,143.980366 590.845595,136.589023 578.536785,136.589023 C574.433848,136.589023 570.752195,137.540384 567.491826,139.443106 C564.231456,141.345828 561.758704,143.943775 560.073569,147.236948 C557.435967,140.138331 551.831063,136.589023 543.258856,136.589023 C539.229186,136.589023 535.712383,137.503793 532.708447,139.333333 C529.704511,141.162874 527.396609,143.760821 525.784741,147.127175 L525.784741,147.127175 L524.79564,137.906292 L514.465032,137.906292 C515.051166,142.516734 515.344233,147.712628 515.344233,153.493976 L515.344233,153.493976 L515.344233,193.231593 L526.334242,193.231593 Z" id="fantom" fill="#1965E9" fill-rule="nonzero"></path>
    </g>
</svg>
