<svg width="935" height="268" viewBox="0 0 935 268" fill="none" xmlns="http://www.w3.org/2000/svg">
<path d="M22.7 24.197V68.797C22.7 68.997 22.8 69.097 23 69.197L155.7 139.597C167.2 145.697 181.2 145.097 192.1 137.897L212.6 124.497C212.9 124.297 212.9 123.797 212.6 123.697L23.4 23.797C23 23.597 22.7 23.897 22.7 24.197Z" fill="url(#paint0_linear_4172_25867)"/>
<path d="M22.7 89.097V133.297C22.7 133.597 22.9 133.897 23.2 134.097L98.5 174.097C110.8 180.597 125.8 180.497 136.9 171.997L155.7 159.997C156.2 159.597 156.2 158.797 155.6 158.497L24 88.297C23.4 87.897 22.7 88.397 22.7 89.097Z" fill="url(#paint1_linear_4172_25867)"/>
<path d="M22.7 153.997V244.597L57.4 222.497V171.697L22.7 153.997Z" fill="url(#paint2_linear_4172_25867)"/>
<path fill-rule="evenodd" clip-rule="evenodd" d="M0.866943 23.097C0.866943 6.25387 18.9245 -4.42351 33.6685 3.56282L229.565 109.761C229.566 109.761 229.567 109.762 229.568 109.763C244.811 118.002 245.148 139.622 230.313 148.449L230.307 148.453L34.4005 264.056L34.3917 264.062C19.5429 272.775 0.866943 262.099 0.866943 244.897V23.097ZM29.7302 10.8305C20.4745 5.81807 9.13304 12.5406 9.13304 23.097V244.897C9.13304 255.692 20.8513 262.416 30.2014 256.936C30.2037 256.935 30.206 256.934 30.2083 256.932L226.087 141.345C226.089 141.344 226.092 141.342 226.094 141.341C235.451 135.765 235.186 122.194 225.635 117.033L29.7315 10.8311C29.7311 10.8309 29.7307 10.8307 29.7302 10.8305Z" fill="url(#paint3_linear_4172_25867)"/>
<path d="M782.1 91.697H730.2V198.097H706.6V91.697H654.6V68.097H782.1V91.697Z" fill="url(#paint4_linear_4172_25867)"/>
<path d="M934.3 68.197L872.8 193.497C871.8 195.397 870.4 196.997 868.5 198.197C866.6 199.397 864.5 199.997 862.2 199.997C860 199.997 857.9 199.397 856 198.197C854.1 196.997 852.6 195.497 851.6 193.497L790.2 68.197H816.6L862.3 161.797L908.1 68.197H934.3Z" fill="url(#paint5_linear_4172_25867)"/>
<path d="M426.5 91.697H332.1V198.097H308.5V79.997C308.5 78.397 308.8 76.797 309.4 75.397C310 73.997 310.8 72.697 311.9 71.597C313 70.497 314.2 69.697 315.7 69.097C317.1 68.497 318.7 68.197 320.4 68.197H426.5V91.697ZM404.9 144.997H330.4V121.297H404.9V144.997Z" fill="url(#paint6_linear_4172_25867)"/>
<path d="M532 165.597C532 168.897 531.4 172.397 530.3 176.197C529.2 179.997 527.3 183.497 524.7 186.697C522.1 189.897 518.8 192.597 514.6 194.797C510.5 196.997 505.4 198.097 499.5 198.097H457C453.7 198.097 450.2 197.497 446.4 196.397C442.6 195.297 439.1 193.397 435.9 190.797C432.7 188.197 430 184.897 427.8 180.697C425.6 176.597 424.5 171.497 424.5 165.597C424.5 162.297 425.1 158.797 426.2 154.997C427.3 151.197 429.2 147.697 431.8 144.397C434.4 141.197 437.7 138.497 441.9 136.297C446 134.097 451.1 132.997 457 132.997H510.1V155.497H457C453.8 155.497 451.3 156.497 449.6 158.397C447.8 160.397 447 162.797 447 165.697C447 168.797 448 171.197 450 172.897C452 174.597 454.4 175.497 457.2 175.497H499.5C502.7 175.497 505.2 174.497 506.9 172.597C508.7 170.697 509.5 168.297 509.5 165.397V132.497C509.5 129.397 508.5 126.997 506.6 125.197C504.7 123.397 502.3 122.497 499.4 122.497H447.8V100.097H499.5C502.8 100.097 506.3 100.697 510.1 101.797C513.9 102.897 517.4 104.797 520.6 107.397C523.8 109.997 526.5 113.297 528.7 117.497C530.9 121.597 532 126.697 532 132.597V165.597Z" fill="url(#paint7_linear_4172_25867)"/>
<path d="M658.2 198.097H634.6V143.697C634.6 140.597 634.1 137.897 633 135.397C631.9 132.997 630.5 130.897 628.7 129.097C626.9 127.297 624.8 125.997 622.3 125.097C619.9 124.197 617.2 123.697 614.4 123.697H573.2V198.097H549.6V111.797C549.6 110.197 549.9 108.597 550.5 107.197C551.1 105.797 551.9 104.497 553 103.497C554.1 102.397 555.4 101.597 556.8 100.997C558.2 100.397 559.8 100.097 561.4 100.097H614.5C617.5 100.097 620.6 100.397 623.9 101.097C627.2 101.797 630.5 102.797 633.7 104.297C636.9 105.797 640 107.697 642.9 109.897C645.8 112.197 648.4 114.897 650.7 118.097C653 121.297 654.8 125.097 656.1 129.297C657.4 133.497 658.1 138.297 658.1 143.597V198.097H658.2Z" fill="url(#paint8_linear_4172_25867)"/>
<defs>
<linearGradient id="paint0_linear_4172_25867" x1="34.3573" y1="28.2732" x2="360.567" y2="295.507" gradientUnits="userSpaceOnUse">
<stop stop-color="#E14084"/>
<stop offset="0.4944" stop-color="#3A62F1"/>
<stop offset="1" stop-color="#56B5BB"/>
</linearGradient>
<linearGradient id="paint1_linear_4172_25867" x1="-2.00922" y1="71.3957" x2="338.593" y2="350.42" gradientUnits="userSpaceOnUse">
<stop stop-color="#E14084"/>
<stop offset="0.4944" stop-color="#3A62F1"/>
<stop offset="1" stop-color="#56B5BB"/>
</linearGradient>
<linearGradient id="paint2_linear_4172_25867" x1="-7.96111" y1="168.83" x2="153.835" y2="301.376" gradientUnits="userSpaceOnUse">
<stop stop-color="#E14084"/>
<stop offset="0.4944" stop-color="#3A62F1"/>
<stop offset="1" stop-color="#56B5BB"/>
</linearGradient>
<linearGradient id="paint3_linear_4172_25867" x1="-35.1654" y1="59.1466" x2="168.539" y2="226.023" gradientUnits="userSpaceOnUse">
<stop stop-color="#E14084"/>
<stop offset="0.4944" stop-color="#3A62F1"/>
<stop offset="1" stop-color="#56B5BB"/>
</linearGradient>
<linearGradient id="paint4_linear_4172_25867" x1="331.167" y1="-43.6851" x2="869.447" y2="186.61" gradientUnits="userSpaceOnUse">
<stop stop-color="#EA2071"/>
<stop offset="0.4944" stop-color="#3A62F1"/>
<stop offset="1" stop-color="#56B5BB"/>
</linearGradient>
<linearGradient id="paint5_linear_4172_25867" x1="383.146" y1="-85.8225" x2="921.426" y2="144.472" gradientUnits="userSpaceOnUse">
<stop stop-color="#EA2071"/>
<stop offset="0.4944" stop-color="#3A62F1"/>
<stop offset="1" stop-color="#56B5BB"/>
</linearGradient>
<linearGradient id="paint6_linear_4172_25867" x1="272.856" y1="92.6087" x2="811.136" y2="322.904" gradientUnits="userSpaceOnUse">
<stop stop-color="#EA2071"/>
<stop offset="0.4944" stop-color="#3A62F1"/>
<stop offset="1" stop-color="#56B5BB"/>
</linearGradient>
<linearGradient id="paint7_linear_4172_25867" x1="284.208" y1="66.076" x2="822.488" y2="296.371" gradientUnits="userSpaceOnUse">
<stop stop-color="#EA2071"/>
<stop offset="0.4944" stop-color="#3A62F1"/>
<stop offset="1" stop-color="#56B5BB"/>
</linearGradient>
<linearGradient id="paint8_linear_4172_25867" x1="301.009" y1="26.8064" x2="839.288" y2="257.101" gradientUnits="userSpaceOnUse">
<stop stop-color="#EA2071"/>
<stop offset="0.4944" stop-color="#3A62F1"/>
<stop offset="1" stop-color="#56B5BB"/>
</linearGradient>
</defs>
</svg>
