<svg width="846" height="261" viewBox="0 0 846 261" fill="none" xmlns="http://www.w3.org/2000/svg">
<path fill-rule="evenodd" clip-rule="evenodd" d="M261.111 130.5C261.111 202.573 202.659 261 130.556 261C58.4521 261 0 202.573 0 130.5C0 58.4268 58.4521 0 130.556 0C202.659 0 261.111 58.4268 261.111 130.5ZM50.5 77L130.5 215.069C136.039 205.511 144.682 190.592 144.682 190.592L92.6467 101.047H133.899L119.96 77H50.5ZM210.5 77L151.13 179.465L111.919 111.924H140.162L151.087 130.741L182.167 77H210.5Z" fill="black"/>
<path d="M401.262 202.232L447.479 58.4808C447.899 57.0075 447.059 56.3759 445.797 56.3759H418.278C417.712 56.3759 417.209 56.5594 416.828 56.8937C416.505 57.1794 416.273 57.5748 416.177 58.0597L381.936 176.134L346.644 58.0597C346.435 57.0075 345.593 56.3759 344.542 56.3759H313.032C311.774 56.3759 310.934 57.0075 311.354 58.4808L358.619 202.232C358.734 202.526 358.87 202.77 359.025 202.97C359.14 203.119 359.265 203.244 359.407 203.345C359.754 203.595 360.182 203.705 360.721 203.705H399.163C400.213 203.705 401.051 203.284 401.262 202.232Z" fill="black"/>
<path fill-rule="evenodd" clip-rule="evenodd" d="M463.599 155.929C464.858 176.344 472.84 185.394 487.966 185.394C498.677 185.394 506.241 180.553 508.971 168.767C509.391 167.715 510.022 167.083 511.073 167.083H537.541C538.803 167.083 539.643 167.715 539.432 168.978C536.701 188.972 517.795 206.441 487.544 206.441C451.414 206.441 431.877 182.658 431.877 149.825C431.877 115.308 452.463 92.5768 486.915 92.5768C522.418 92.5768 542.164 116.15 542.795 154.034C542.795 155.297 541.953 155.929 540.902 155.929H463.599ZM508.763 135.934C507.501 124.358 500.99 113.414 487.124 113.414C474.31 113.414 466.958 120.99 464.438 135.934H508.763Z" fill="black"/>
<path d="M620.053 118.255C597.788 118.255 581.189 130.672 581.4 155.508V201.811C581.4 202.863 580.561 203.705 579.51 203.705H551.78C550.729 203.705 549.89 202.863 549.89 201.811L550.729 149.404L549.89 97.2075C549.89 96.1553 550.729 95.313 551.78 95.313H579.51C580.77 95.313 581.4 95.9446 581.4 97.2075L580.561 113.624C588.964 100.785 603.459 94.4716 619.214 94.4716C620.893 94.4716 622.786 94.682 624.256 94.8921C625.307 95.1025 625.936 95.9446 625.936 96.9968V116.571C625.936 117.833 625.307 118.465 624.045 118.465C622.786 118.255 621.315 118.255 620.053 118.255Z" fill="black"/>
<path d="M730.115 170.661C730.115 193.392 708.689 206.231 679.488 206.231C647.977 206.231 627.811 193.392 626.761 169.188C626.761 167.926 627.6 167.294 628.651 167.294H655.541C656.59 167.294 657.432 167.926 657.432 169.188C658.272 181.395 666.253 186.657 680.959 186.657C693.354 186.657 700.076 181.817 700.076 173.398C700.076 165.097 688.608 163.375 674.906 161.318L674.903 161.317C654.558 158.263 629.282 154.468 629.282 127.304C629.282 104.784 647.347 92.7873 676.547 92.7873C704.908 92.7873 724.023 104.153 725.914 126.884C726.123 128.146 725.494 128.778 724.234 128.778H698.395C697.344 128.778 696.713 128.146 696.505 127.094C694.825 117.833 688.941 111.94 676.127 111.94C665.833 111.94 659.322 115.728 659.322 124.989C659.322 133.257 670.694 134.829 684.326 136.713C704.699 139.53 730.115 143.044 730.115 170.661Z" fill="black"/>
<path fill-rule="evenodd" clip-rule="evenodd" d="M766.804 155.929C768.064 176.344 776.047 185.394 791.173 185.394C801.885 185.394 809.449 180.553 812.179 168.767C812.486 167.998 812.904 167.454 813.516 167.217C813.601 167.184 813.691 167.157 813.785 167.136C813.938 167.101 814.103 167.083 814.278 167.083H840.749C842.008 167.083 842.848 167.715 842.639 168.978C839.909 188.972 821.002 206.441 790.753 206.441C754.619 206.441 735.082 182.658 735.082 149.825C735.082 115.308 755.67 92.5768 790.122 92.5768C825.623 92.5768 845.369 116.15 846 154.034C846 155.297 845.16 155.929 844.11 155.929H766.804ZM811.968 135.934C810.708 124.358 804.195 113.414 790.333 113.414C777.518 113.414 770.165 120.99 767.644 135.934H811.968Z" fill="black"/>
<g clip-path="url(#clip0_203_53)">
<ellipse cx="132.88" cy="126.235" rx="97.445" ry="95.2304" fill="white"/>
<path fill-rule="evenodd" clip-rule="evenodd" d="M130.556 261C202.659 261 261.111 202.573 261.111 130.5C261.111 58.4268 202.659 0 130.556 0C58.4521 0 0 58.4268 0 130.5C0 202.573 58.4521 261 130.556 261ZM130.5 215.069C99.2581 161.15 50.5 77 50.5 77H119.96L133.899 101.047H92.6467L144.682 190.592C144.682 190.592 136.039 205.511 130.5 215.069ZM151.13 179.465L210.5 77H182.167L151.087 130.741L140.162 111.924H111.919L151.13 179.465Z" fill="#0085FF"/>
<path d="M447.479 58.4809L401.262 202.232C401.051 203.284 400.213 203.705 399.163 203.705H360.721C360.182 203.705 359.754 203.595 359.407 203.345C359.265 203.244 359.14 203.119 359.025 202.97C358.87 202.77 358.734 202.526 358.619 202.232L311.354 58.4809C310.934 57.0076 311.774 56.376 313.032 56.376H344.542C345.593 56.376 346.435 57.0076 346.644 58.0598L381.936 176.134L416.177 58.0598C416.273 57.5749 416.505 57.1795 416.828 56.8938C417.209 56.5595 417.712 56.376 418.278 56.376H445.797C447.059 56.376 447.899 57.0076 447.479 58.4809Z" fill="black"/>
<path fill-rule="evenodd" clip-rule="evenodd" d="M463.599 155.929C464.858 176.344 472.84 185.394 487.966 185.394C498.677 185.394 506.241 180.553 508.971 168.767C509.391 167.715 510.022 167.083 511.073 167.083H537.541C538.803 167.083 539.643 167.715 539.432 168.978C536.701 188.972 517.795 206.441 487.544 206.441C451.414 206.441 431.877 182.658 431.877 149.825C431.877 115.308 452.463 92.5771 486.915 92.5771C522.418 92.5771 542.164 116.15 542.795 154.034C542.795 155.297 541.953 155.929 540.902 155.929H463.599ZM508.763 135.934C507.501 124.358 500.99 113.414 487.124 113.414C474.31 113.414 466.958 120.99 464.438 135.934H508.763Z" fill="black"/>
<path d="M581.4 155.508C581.189 130.672 597.788 118.255 620.053 118.255C621.315 118.255 622.786 118.255 624.045 118.465C625.307 118.465 625.936 117.833 625.936 116.571V96.9969C625.936 95.9447 625.307 95.1026 624.256 94.8922C622.786 94.6821 620.893 94.4717 619.214 94.4717C603.459 94.4717 588.964 100.785 580.561 113.624L581.4 97.2076C581.4 95.9447 580.77 95.3131 579.51 95.3131H551.78C550.729 95.3131 549.89 96.1554 549.89 97.2076L550.729 149.404L549.89 201.811C549.89 202.863 550.729 203.705 551.78 203.705H579.51C580.561 203.705 581.4 202.863 581.4 201.811V155.508Z" fill="black"/>
<path d="M730.115 170.661C730.115 193.392 708.689 206.232 679.488 206.232C647.977 206.232 627.811 193.393 626.761 169.189C626.761 167.927 627.6 167.295 628.651 167.295H655.541C656.59 167.295 657.432 167.927 657.432 169.189C658.272 181.396 666.253 186.657 680.959 186.657C693.354 186.657 700.076 181.817 700.076 173.398C700.076 165.097 688.608 163.375 674.906 161.318L674.903 161.317C654.558 158.263 629.282 154.468 629.282 127.304C629.282 104.784 647.347 92.7881 676.547 92.7881C704.908 92.7881 724.023 104.153 725.914 126.884C726.123 128.146 725.494 128.778 724.234 128.778H698.395C697.344 128.778 696.713 128.146 696.505 127.094C694.825 117.833 688.941 111.94 676.127 111.94C665.833 111.94 659.322 115.728 659.322 124.989C659.322 133.257 670.694 134.829 684.326 136.713H684.328C704.701 139.53 730.115 143.044 730.115 170.661Z" fill="black"/>
<path fill-rule="evenodd" clip-rule="evenodd" d="M791.173 185.394C776.047 185.394 768.064 176.344 766.804 155.929H844.11C845.16 155.929 846 155.297 846 154.034C845.369 116.15 825.623 92.5771 790.122 92.5771C755.67 92.5771 735.082 115.308 735.082 149.825C735.082 182.658 754.619 206.441 790.753 206.441C821.002 206.441 839.909 188.972 842.639 168.978C842.848 167.715 842.008 167.083 840.749 167.083H814.278C814.103 167.083 813.938 167.101 813.785 167.136C813.691 167.157 813.601 167.184 813.516 167.217C812.904 167.454 812.486 167.998 812.179 168.767C809.449 180.553 801.885 185.394 791.173 185.394ZM790.333 113.414C804.195 113.414 810.708 124.358 811.968 135.934H767.644C770.165 120.99 777.518 113.414 790.333 113.414Z" fill="black"/>
</g>
<defs>
<clipPath id="clip0_203_53">
<rect width="846" height="261" fill="white"/>
</clipPath>
</defs>
</svg>
