
<svg width="1004" height="177" viewBox="0 0 1004 177" fill="none" xmlns="http://www.w3.org/2000/svg">
<path d="M29.4202 27.0114L76.217 0L123.014 27.0114L105.809 36.9901L76.217 19.9575L46.625 36.9901L29.4202 27.0114ZM123.014 61.0768L105.809 51.098L76.217 68.1307L46.625 51.098L29.4202 61.0768V81.0342L59.0123 98.0669V132.132L76.217 142.111L93.4217 132.132V98.0669L123.014 81.0342V61.0768ZM123.014 115.1V95.1421L105.809 105.121V125.078L123.014 115.1ZM135.229 122.154L105.637 139.186V159.144L152.434 132.132V78.1094L135.229 88.0882V122.154ZM118.025 44.0441L135.229 54.0228V73.9803L152.434 64.0015V44.0441L135.229 34.0654L118.025 44.0441ZM59.0123 146.412V166.37L76.217 176.348L93.4217 166.37V146.412L76.217 156.391L59.0123 146.412ZM29.4202 115.1L46.625 125.078V105.121L29.4202 95.1421V115.1ZM59.0123 44.0441L76.217 54.0228L93.4217 44.0441L76.217 34.0654L59.0123 44.0441ZM17.2047 54.0228L34.4094 44.0441L17.2047 34.0654L0 44.0441V64.0015L17.2047 73.9803V54.0228ZM17.2047 88.0882L0 78.1094V132.132L46.7968 159.144V139.186L17.2047 122.154V88.0882Z" fill="#F0B90B"/>
<path d="M288.072 110.67V110.389C288.072 97.2099 281.062 90.6203 269.705 86.274C276.715 82.3483 282.604 76.1793 282.604 65.1032V64.8227C282.604 49.4003 270.266 39.4458 250.217 39.4458H204.651V137.589H251.339C273.491 137.589 288.072 128.616 288.072 110.67ZM261.153 68.7485C261.153 76.0391 255.124 79.1236 245.59 79.1236H225.681V58.3734H246.992C256.105 58.3734 261.153 62.0187 261.153 68.4681V68.7485ZM266.621 108.006C266.621 115.296 260.872 118.661 251.339 118.661H225.681V97.0697H250.637C261.714 97.0697 266.621 101.136 266.621 107.725V108.006Z" fill="#F0B90B"/>
<path d="M394.442 137.589V39.4458H373.131V99.8738L327.144 39.4458H307.235V137.589H328.546V75.1979L376.075 137.589H394.442Z" fill="#F0B90B"/>
<path d="M502.825 110.67V110.389C502.825 97.2099 495.815 90.6203 484.459 86.274C491.469 82.3483 497.358 76.1793 497.358 65.1032V64.8227C497.358 49.4003 485.019 39.4458 464.97 39.4458H419.404V137.589H466.092C488.244 137.589 502.825 128.616 502.825 110.67ZM475.906 68.7485C475.906 76.0391 469.877 79.1236 460.344 79.1236H440.435V58.3734H461.746C470.859 58.3734 475.906 62.0187 475.906 68.4681V68.7485ZM481.374 108.006C481.374 115.296 475.626 118.661 466.092 118.661H440.435V97.0697H465.391C476.467 97.0697 481.374 101.136 481.374 107.725V108.006Z" fill="#F0B90B"/>
<path d="M632.954 120.251L621.877 109.035C613.465 116.886 605.754 121.794 593.696 121.794C574.909 121.794 561.309 106.091 561.309 86.7426C561.309 67.3944 574.909 51.9719 593.696 51.9719C604.913 51.9719 613.325 56.8791 621.176 64.1697L632.253 51.4111C622.859 42.438 611.923 36.1288 593.837 36.1288C564.113 36.1288 543.223 58.9821 543.223 87.023C543.223 115.344 564.534 137.637 593.136 137.637C611.502 137.637 622.719 130.907 632.954 120.251Z" fill="#F0B90B"/>
<path d="M716.555 94.594V135.954H733.8V37.8113H716.555V78.6107H669.727V37.8113H652.481V135.954H669.727V94.594H716.555Z" fill="#F0B90B"/>
<path d="M811.16 37.1103H795.176L751.994 135.954H769.659L779.754 112.26H826.162L836.116 135.954H854.343L811.16 37.1103ZM819.852 96.9775H786.063L802.888 57.7203L819.852 96.9775Z" fill="#F0B90B"/>
<path d="M873.556 37.8113V135.954H890.801V37.8113H873.556Z" fill="#F0B90B"/>
<path d="M987.035 105.67L934.458 37.8113H918.475V135.954H935.44V66.1325L989.559 135.954H1004V37.8113H987.035V105.67Z" fill="#F0B90B"/>
</svg>
