<?xml version="1.0" encoding="utf-8"?>
<!-- Generator: Adobe Illustrator 23.0.4, SVG Export Plug-In . SVG Version: 6.00 Build 0)  -->
<svg version="1.1" id="Layer_1" xmlns="http://www.w3.org/2000/svg" xmlns:xlink="http://www.w3.org/1999/xlink" x="0px" y="0px"
	 viewBox="0 0 1059.1 440" style="enable-background:new 0 0 1059.1 440;" xml:space="preserve">
<style type="text/css">
	.st0{fill:#FFFFFF;}
	.st1{clip-path:url(#SVGID_2_);fill:#001428;}
	.st2{clip-path:url(#SVGID_2_);fill:#009CB4;}
	.st3{clip-path:url(#SVGID_2_);fill:#E8663D;}
	.st4{clip-path:url(#SVGID_2_);fill:#008C73;}
	.st5{fill:#001428;}
</style>
<g>
	<path class="st5" d="M474.5,319.6c0-38.3,24.7-68,66.9-68c19.1,0,39.9,8,53.5,23.6L573,293.8c-7.1-6.9-17.5-13-31.6-13
		c-18.8,0-34.4,14.3-34.4,38.8c0,21.4,13.2,38.8,35.7,38.8c8.2,0,15.2-1.7,22.8-5.8v-15.6h-25.6v-25.6h55.4v59.3
		c-12.1,9.3-32.1,16.2-52.6,16.2C504.6,386.9,474.5,362.5,474.5,319.6z"/>
	<path class="st5" d="M614.4,294.5h29v10.6h0.4c7.1-8.2,16.7-12.3,27.3-12.3c18.8,0,32.5,9.3,32.5,38.1v54.4h-29V338
		c0-15-5-19.3-14.5-19.3c-10,0-16.7,6.9-16.7,21v45.7h-29V294.5z"/>
	<path class="st5" d="M718.1,340c0-27.7,19.9-47.2,49.2-47.2c28.6,0,49,19.1,49,47.2c0,27.9-20.4,47-49,47
		C738,387,718.1,367.5,718.1,340z M787,340c0-12.6-8.4-21.4-19.7-21.4c-11.7,0-19.9,8.9-19.9,21.4c0,12.1,8.4,21.4,19.9,21.4
		C778.3,361.4,787,352.5,787,340z"/>
	<path class="st5" d="M824.9,373.7l13.6-18.8c7.6,6.9,15.4,10.2,23.8,10.2c5.8,0,8.7-2,8.7-5.4c0-3-2.8-4.8-14.1-8.4
		c-15.2-4.6-28.6-12.1-28.6-29.5c0-18.4,15-29,34-29c13.7,0,23.8,3.5,34.4,11.3l-13.7,20.2c-6.3-6.3-14.1-9.5-20.2-9.5
		c-3.3,0-7.2,1.5-7.2,5c0,2.8,3.3,4.8,12.4,8c20.1,6.9,31,12.1,31,29.9c0,16.9-12.1,29.2-37,29.2C847.5,387,834.9,382.6,824.9,373.7
		z"/>
	<path class="st5" d="M911.8,266.5c0-8.9,7.2-16.3,17.3-16.3c10,0,17.5,7.2,17.5,16.3c0,9.5-7.4,16.7-17.5,16.7
		C919.1,283.2,911.8,276,911.8,266.5z M914.6,294.5h29v90.8h-29V294.5z"/>
	<path class="st5" d="M957.5,373.7l13.6-18.8c7.6,6.9,15.4,10.2,23.8,10.2c5.8,0,8.7-2,8.7-5.4c0-3-2.8-4.8-14.1-8.4
		c-15.2-4.6-28.6-12.1-28.6-29.5c0-18.4,15-29,34-29c13.7,0,23.8,3.5,34.4,11.3l-13.7,20.2c-6.3-6.3-14.1-9.5-20.2-9.5
		c-3.3,0-7.2,1.5-7.2,5c0,2.8,3.3,4.8,12.4,8c20.1,6.9,31,12.1,31,29.9c0,16.9-12.1,29.2-37,29.2C980.2,387,967.5,382.6,957.5,373.7
		z"/>
</g>
<g>
	<path class="st5" d="M134.4,249.2c12.3,0,23.6-4.2,32.6-11.2l-74.9-74.9c-7,9-11.2,20.3-11.2,32.6
		C81,225.3,104.9,249.2,134.4,249.2z"/>
	<path class="st5" d="M357,195.8c0-12.3-4.2-23.6-11.2-32.6L271,238.1c9,7,20.3,11.2,32.6,11.2C333.1,249.2,357,225.3,357,195.8z"/>
	<path class="st5" d="M394.7,114.4l-33.1,33.1c10.9,13.1,17.6,30,17.6,48.3c0,41.6-33.9,75.5-75.5,75.5c-18.4,0-35.2-6.6-48.3-17.6
		L219,290l-36.3-36.3c-13.1,10.9-30,17.6-48.3,17.6c-41.6,0-75.5-33.9-75.5-75.5c0-18.4,6.6-35.2,17.6-48.3l-17-17l-16.1-16.1
		c-18.8,31-29.7,67.4-29.7,106.4c0,113.4,91.9,205.4,205.4,205.4s205.4-91.9,205.4-205.4C424.4,181.8,413.5,145.4,394.7,114.4z"/>
	<path class="st5" d="M367.6,79C330.2,39.9,277.5,15.4,219,15.4S107.8,39.9,70.4,79C65.3,84.4,60.5,90,56,95.9l163,163l163-163
		C377.5,90,372.7,84.4,367.6,79z M219,42.3c48,0,92.7,18.5,126.3,52.3L219,220.8L92.8,94.6C126.3,60.8,171,42.3,219,42.3z"/>
</g>
</svg>
