<?xml version="1.0" encoding="utf-8"?>
<!-- Generator: Adobe Illustrator 25.0.1, SVG Export Plug-In . SVG Version: 6.00 Build 0)  -->
<svg version="1.1" id="Layer_1" xmlns="http://www.w3.org/2000/svg" xmlns:xlink="http://www.w3.org/1999/xlink" x="0px" y="0px"
	 viewBox="0 0 1217.1 510.6" style="enable-background:new 0 0 1217.1 510.6;" xml:space="preserve">
<style type="text/css">
	.st0{enable-background:new    ;}
</style>
<g id="Layer_2_1_">
	<g id="Layer_1-2">
		<g class="st0">
			<path d="M110.5,291.8c0,13.1,0.4,35.7,29.6,35.7c7.4,0,12.6-0.4,16.5-0.9v54.8c-7.8,0.9-20,1.7-29.2,1.7
				c-50.5,0-81.4-9.1-81.4-59.6V190.8H17v-57h29.2v-64h64.4v64h47.9v57h-47.9V291.8z"/>
			<path d="M197.1,258.3c0-98.3,85.3-124.5,130.1-124.5c61.4,0,122.7,41.8,124.9,118.8c0,18.3-1.3,30-1.3,30H262
				c7.8,39.2,52.2,43.5,65.3,43.5c36.1,0,54-19.6,61.4-27.8l50.5,29.2c-9.6,13.1-41.8,55.7-111.8,55.7
				C280.7,383.1,197.1,356.6,197.1,258.3z M263.7,236.5h119.7c-2.6-21.8-23.9-45.7-56.6-45.7C289.4,190.8,266.3,212.1,263.7,236.5z"
				/>
			<path d="M505.2,48.1h65.3v329h-65.3V48.1z"/>
			<path d="M633.1,48.1h65.3v329h-65.3V48.1z"/>
			<path d="M749.3,257.8c0-68.3,58.3-124.5,129.7-124.5s130.5,56.1,130.5,124.5c0,69.2-59.2,124.9-130.5,124.9
				S749.3,327,749.3,257.8z M813.3,257.8c0,39.6,28.3,68.3,65.7,68.3c37,0,65.7-29.6,65.7-68.3c0-38.3-28.7-67.4-65.7-67.4
				C842.4,190.4,813.3,220,813.3,257.8z"/>
			<path d="M1126.6,271.3V377h-64.8V137.7h64.8v31.8c24.4-32.2,64.8-36.6,81.8-36.1v63.5C1192.7,195.6,1126.6,198.6,1126.6,271.3z"
				/>
		</g>
	</g>
</g>
</svg>
