<svg width="220" height="42" viewBox="0 0 220 42" fill="none" xmlns="http://www.w3.org/2000/svg">
<path d="M7.87441 1.03223H0V8.90663H7.87441V1.03223Z" fill="#333333"/>
<path d="M39.3783 1.03223H31.5039V8.90663H39.3783V1.03223Z" fill="#333333"/>
<path d="M23.6238 1.03223H15.7494V8.90663H7.875V40.4043H31.4982V8.90663H23.6238V1.03223ZM23.6238 24.6554H15.7494V16.781H23.6238V24.6554Z" fill="#333333"/>
<path d="M75.0977 40.4084L66.659 27.8094H59.8542V40.4084H51.1836V1.03418H69.1854C78.4662 1.03418 84.0352 5.92725 84.0352 14.027V14.1385C84.0352 20.4949 80.6032 24.489 75.5964 26.3438L85.2207 40.4062L75.0977 40.4084ZM75.2662 14.4775C75.2662 10.7591 72.6785 8.85172 68.4592 8.85172H59.8542V20.1581H68.6298C72.847 20.1581 75.2662 17.9095 75.2662 14.5891V14.4775Z" fill="#333333"/>
<path d="M109.647 41.0844C97.4982 41.0844 88.7773 32.0288 88.7773 20.834V20.7225C88.7773 9.52771 97.6098 0.358398 109.76 0.358398C121.911 0.358398 130.63 9.41397 130.63 20.6087V20.7225C130.63 31.9151 121.797 41.0844 109.647 41.0844ZM121.572 20.7225C121.572 13.9724 116.622 8.34655 109.647 8.34655C102.671 8.34655 97.8351 13.8586 97.8351 20.6087V20.7225C97.8351 27.4726 102.785 33.0962 109.76 33.0962C116.736 33.0962 121.572 27.5842 121.572 20.834V20.7225Z" fill="#333333"/>
<path d="M156.334 41.0844C144.186 41.0844 135.465 32.0288 135.465 20.834V20.7225C135.465 9.52771 144.297 0.358398 156.448 0.358398C168.599 0.358398 177.317 9.41397 177.317 20.6087V20.7225C177.317 31.9151 168.485 41.0844 156.334 41.0844ZM168.26 20.7225C168.26 13.9724 163.31 8.34655 156.334 8.34655C149.359 8.34655 144.523 13.8586 144.523 20.6087V20.7225C144.523 27.4726 149.473 33.0962 156.448 33.0962C163.423 33.0962 168.26 27.5842 168.26 20.834V20.7225Z" fill="#333333"/>
<path d="M209.604 40.4084L197.399 23.6469L192.842 28.3715V40.4018H184.172V1.03418H192.836V18.2463L208.803 1.03418H219.268L203.235 17.741L219.998 40.4084H209.604Z" fill="#333333"/>
</svg>
