<svg width="363" height="120" viewBox="0 0 363 120" fill="none" xmlns="http://www.w3.org/2000/svg">
<path fill-rule="evenodd" clip-rule="evenodd" d="M65.0543 0H16.7763V38.7519H0V52.634H16.7763V67.2046H0V81.0867H16.7763V119.368H65.0543C94.0883 119.368 116.176 103.735 124.675 81.0867H140V67.2046H128.036C128.329 64.7433 128.479 62.2304 128.479 59.674V59.333C128.479 57.0624 128.361 54.8275 128.128 52.634H140V38.7519H124.961C116.68 15.7841 94.4203 0 65.0543 0ZM30.2729 106.915V81.0867H109.887C102.464 96.5706 86.5176 106.915 65.0543 106.915H30.2729ZM30.2729 67.2046H114.022C114.346 64.8672 114.512 62.4668 114.512 60.015V59.674C114.512 57.2773 114.354 54.9269 114.043 52.634H30.2729V67.2046ZM109.989 38.7519C102.611 23.0503 86.6165 12.4326 65.0543 12.4326H30.2729V38.7519H109.989Z" fill="#F4B731"/>
<path fill-rule="evenodd" clip-rule="evenodd" d="M225.333 33.4766C222.022 32.8613 218.404 32.5537 214.479 32.5537H202.33C196.807 32.5537 192.33 37.0309 192.33 42.5537V85C192.33 90.5229 196.807 95 202.33 95H208.502C211.109 95 213.131 94.9854 214.566 94.9561C216.031 94.9268 217.892 94.8096 220.147 94.6045C222.403 94.3701 224.454 94.0479 226.3 93.6377C229.903 92.8467 233.097 91.6309 235.88 89.9902C238.692 88.3203 240.963 86.46 242.691 84.4092C244.449 82.3291 245.885 80 246.998 77.4219C248.111 74.8145 248.888 72.2656 249.327 69.7754C249.767 67.2559 249.986 64.6484 249.986 61.9531C249.986 59.9023 249.825 57.9248 249.503 56.0205C249.21 54.0869 248.668 52.124 247.877 50.1318C247.115 48.1396 246.134 46.2939 244.933 44.5947C243.731 42.8955 242.193 41.2988 240.318 39.8047C238.443 38.3105 236.305 37.0361 233.902 35.9814C231.5 34.9268 228.644 34.0918 225.333 33.4766ZM203.404 42.749H214.786C217.364 42.749 219.386 42.8516 220.851 43.0566C222.579 43.291 224.264 43.7158 225.904 44.3311C227.545 44.9463 229.156 45.8105 230.738 46.9238C232.35 48.0371 233.741 49.3408 234.913 50.835C236.114 52.2998 237.066 54.1162 237.77 56.2842C238.502 58.4521 238.868 60.8252 238.868 63.4033C238.868 67.8857 237.872 71.7969 235.88 75.1367C234.796 76.9531 233.434 78.5059 231.793 79.7949C230.182 81.0547 228.614 82.0068 227.091 82.6514C225.597 83.2666 223.78 83.75 221.642 84.1016C219.503 84.4531 217.774 84.6582 216.456 84.7168C215.138 84.7754 213.468 84.8047 211.446 84.8047H203.404V42.749Z" fill="#F4B731"/>
<path fill-rule="evenodd" clip-rule="evenodd" d="M293.734 32.5537C290.075 32.5537 286.787 34.7879 285.439 38.1899L262.931 95H273.653L280.641 78.6523H306.129L313.116 95H324.498L302.032 38.195C300.685 34.7903 297.396 32.5537 293.734 32.5537ZM293.385 45.3418L302.262 68.501H284.464L293.385 45.3418Z" fill="#F4B731"/>
<path d="M351 38.0908C351 35.0328 353.479 32.5537 356.537 32.5537C359.595 32.5537 362.074 35.0328 362.074 38.0908V95H351V38.0908Z" fill="#F4B731"/>
</svg>
