<svg id="svg" version="1.1" xmlns="http://www.w3.org/2000/svg" xmlns:xlink="http://www.w3.org/1999/xlink" width="400" height="173.75565610859726" viewBox="0, 0, 400,173.75565610859726"><g id="svgg"><path id="path0" d="M75.586 50.825 C 75.586 50.969,75.521 51.086,75.440 51.086 C 75.360 51.086,75.146 51.360,74.966 51.694 C 74.786 52.029,74.578 52.302,74.504 52.302 C 74.431 52.302,74.370 52.459,74.370 52.650 C 74.370 52.841,74.291 52.997,74.194 52.997 C 74.096 52.997,73.882 53.291,73.716 53.649 C 73.551 54.007,73.279 54.427,73.111 54.582 C 72.943 54.736,72.806 54.993,72.806 55.152 C 72.806 55.311,72.689 55.486,72.546 55.541 C 72.402 55.596,72.285 55.760,72.285 55.906 C 72.285 56.052,72.140 56.298,71.962 56.452 C 71.785 56.607,71.584 56.909,71.516 57.124 C 71.448 57.339,71.320 57.515,71.231 57.515 C 71.142 57.515,71.069 57.632,71.069 57.776 C 71.069 57.919,70.990 58.036,70.895 58.036 C 70.799 58.036,70.721 58.185,70.721 58.365 C 70.721 58.546,70.604 58.739,70.460 58.794 C 70.317 58.849,70.200 59.036,70.200 59.209 C 70.200 59.382,70.043 59.636,69.852 59.774 C 69.661 59.912,69.505 60.125,69.505 60.247 C 69.505 60.369,69.428 60.469,69.334 60.469 C 69.241 60.469,69.115 60.665,69.055 60.904 C 68.995 61.142,68.876 61.338,68.791 61.338 C 68.706 61.338,68.636 61.494,68.636 61.685 C 68.636 61.877,68.570 62.033,68.490 62.033 C 68.409 62.033,68.196 62.307,68.016 62.641 C 67.836 62.976,67.628 63.249,67.554 63.249 C 67.480 63.249,67.420 63.367,67.420 63.510 C 67.420 63.653,67.343 63.771,67.249 63.771 C 67.155 63.771,67.030 63.966,66.970 64.205 C 66.910 64.444,66.791 64.639,66.706 64.639 C 66.621 64.639,66.551 64.767,66.551 64.923 C 66.551 65.079,66.406 65.333,66.228 65.488 C 66.051 65.642,65.850 65.945,65.782 66.160 C 65.714 66.375,65.586 66.551,65.497 66.551 C 65.407 66.551,65.334 66.651,65.334 66.773 C 65.334 66.895,65.178 67.108,64.987 67.246 C 64.796 67.384,64.639 67.638,64.639 67.811 C 64.639 67.984,64.522 68.171,64.379 68.226 C 64.235 68.281,64.118 68.474,64.118 68.655 C 64.118 68.835,64.040 68.983,63.944 68.983 C 63.849 68.983,63.771 69.101,63.771 69.244 C 63.771 69.387,63.698 69.505,63.609 69.505 C 63.519 69.505,63.391 69.681,63.323 69.896 C 63.255 70.111,63.054 70.413,62.877 70.568 C 62.700 70.722,62.554 70.979,62.554 71.138 C 62.554 71.297,62.437 71.472,62.294 71.527 C 62.150 71.582,62.033 71.775,62.033 71.956 C 62.033 72.137,61.955 72.285,61.859 72.285 C 61.764 72.285,61.685 72.402,61.685 72.546 C 61.685 72.689,61.615 72.806,61.529 72.806 C 61.443 72.806,61.290 73.042,61.189 73.330 C 61.089 73.618,60.886 73.900,60.738 73.957 C 60.590 74.013,60.469 74.199,60.469 74.370 C 60.469 74.541,60.352 74.725,60.209 74.780 C 60.065 74.835,59.948 75.039,59.948 75.233 C 59.948 75.428,59.870 75.586,59.774 75.586 C 59.679 75.586,59.600 75.704,59.600 75.847 C 59.600 75.990,59.531 76.108,59.446 76.108 C 59.362 76.108,59.163 76.381,59.004 76.716 C 58.845 77.050,58.641 77.324,58.550 77.324 C 58.459 77.324,58.384 77.445,58.384 77.592 C 58.384 77.739,58.233 78.022,58.048 78.221 C 57.647 78.651,57.868 79.184,58.514 79.348 C 58.729 79.402,58.905 79.517,58.905 79.602 C 58.905 79.687,59.044 79.757,59.214 79.757 C 59.385 79.757,59.636 79.913,59.774 80.103 C 59.911 80.294,60.280 80.498,60.594 80.557 C 60.908 80.616,61.164 80.734,61.164 80.819 C 61.164 80.904,61.264 80.973,61.386 80.973 C 61.509 80.973,61.719 81.127,61.855 81.314 C 61.990 81.502,62.339 81.708,62.631 81.772 C 62.923 81.836,63.280 82.015,63.423 82.169 C 63.744 82.515,64.704 83.058,64.993 83.058 C 65.111 83.058,65.333 83.199,65.488 83.371 C 65.763 83.677,66.888 84.275,67.190 84.275 C 67.274 84.275,67.454 84.428,67.589 84.616 C 67.724 84.803,68.074 85.009,68.366 85.073 C 68.658 85.138,68.999 85.336,69.124 85.514 C 69.249 85.693,69.464 85.838,69.602 85.838 C 69.739 85.838,69.852 85.910,69.852 85.998 C 69.852 86.086,70.106 86.214,70.417 86.282 C 70.727 86.351,71.108 86.552,71.263 86.731 C 71.417 86.909,71.632 87.055,71.741 87.055 C 71.849 87.055,71.937 87.133,71.937 87.228 C 71.937 87.324,72.096 87.402,72.290 87.402 C 72.485 87.402,72.688 87.520,72.743 87.663 C 72.798 87.806,72.991 87.924,73.172 87.924 C 73.353 87.924,73.501 87.983,73.501 88.056 C 73.501 88.129,73.826 88.344,74.222 88.534 C 75.371 89.084,75.586 89.214,75.586 89.355 C 75.586 89.428,75.782 89.487,76.021 89.487 C 76.260 89.487,76.455 89.409,76.455 89.314 C 76.455 89.218,76.612 89.140,76.803 89.140 C 76.994 89.140,77.150 89.070,77.150 88.985 C 77.150 88.900,77.346 88.781,77.585 88.721 C 77.824 88.661,78.019 88.535,78.019 88.442 C 78.019 88.348,78.136 88.271,78.280 88.271 C 78.423 88.271,78.540 88.193,78.540 88.097 C 78.540 88.002,78.697 87.924,78.888 87.924 C 79.079 87.924,79.235 87.854,79.235 87.769 C 79.235 87.683,79.431 87.565,79.670 87.505 C 79.909 87.445,80.104 87.319,80.104 87.225 C 80.104 87.131,80.222 87.055,80.365 87.055 C 80.508 87.055,80.626 86.977,80.626 86.881 C 80.626 86.785,80.782 86.707,80.973 86.707 C 81.164 86.707,81.321 86.631,81.321 86.537 C 81.321 86.443,81.516 86.317,81.755 86.257 C 81.994 86.197,82.189 86.098,82.189 86.036 C 82.189 85.974,82.444 85.811,82.754 85.674 C 83.065 85.537,83.422 85.323,83.548 85.197 C 83.675 85.072,83.890 84.970,84.026 84.970 C 84.163 84.970,84.275 84.891,84.275 84.796 C 84.275 84.700,84.382 84.622,84.514 84.622 C 84.646 84.622,84.851 84.505,84.970 84.361 C 85.089 84.218,85.333 84.101,85.512 84.101 C 85.692 84.101,85.838 84.023,85.838 83.927 C 85.838 83.831,85.956 83.753,86.099 83.753 C 86.242 83.753,86.360 83.675,86.360 83.579 C 86.360 83.484,86.516 83.406,86.707 83.406 C 86.898 83.406,87.055 83.329,87.055 83.235 C 87.055 83.142,87.250 83.016,87.489 82.956 C 87.728 82.896,87.924 82.777,87.924 82.692 C 87.924 82.607,88.012 82.537,88.120 82.537 C 88.229 82.537,88.444 82.391,88.598 82.213 C 88.753 82.034,89.134 81.833,89.444 81.765 C 89.755 81.696,90.009 81.569,90.009 81.481 C 90.009 81.393,90.122 81.321,90.259 81.321 C 90.397 81.321,90.612 81.175,90.737 80.996 C 90.862 80.818,91.203 80.620,91.495 80.556 C 91.787 80.491,92.137 80.285,92.272 80.098 C 92.407 79.910,92.657 79.757,92.827 79.757 C 92.997 79.757,93.136 79.685,93.136 79.597 C 93.136 79.509,93.367 79.386,93.650 79.324 C 94.177 79.208,94.583 78.530,94.202 78.403 C 94.094 78.367,94.005 78.217,94.005 78.068 C 94.005 77.920,93.860 77.673,93.683 77.518 C 93.505 77.364,93.304 77.061,93.236 76.846 C 93.169 76.631,93.040 76.455,92.951 76.455 C 92.862 76.455,92.789 76.367,92.789 76.258 C 92.789 76.150,92.645 75.935,92.469 75.781 C 92.293 75.626,92.101 75.303,92.041 75.062 C 91.982 74.821,91.774 74.453,91.579 74.244 C 91.384 74.034,91.225 73.782,91.225 73.682 C 91.225 73.583,91.152 73.501,91.063 73.501 C 90.974 73.501,90.845 73.325,90.777 73.110 C 90.710 72.895,90.509 72.593,90.331 72.438 C 90.154 72.284,90.009 72.038,90.009 71.892 C 90.009 71.746,89.891 71.582,89.748 71.527 C 89.605 71.472,89.487 71.268,89.487 71.074 C 89.487 70.880,89.409 70.721,89.314 70.721 C 89.218 70.721,89.140 70.604,89.140 70.460 C 89.140 70.317,89.079 70.200,89.006 70.200 C 88.932 70.200,88.724 69.926,88.544 69.592 C 88.364 69.257,88.150 68.983,88.070 68.983 C 87.989 68.983,87.924 68.835,87.924 68.655 C 87.924 68.474,87.806 68.281,87.663 68.226 C 87.520 68.171,87.402 67.967,87.402 67.773 C 87.402 67.578,87.324 67.420,87.228 67.420 C 87.133 67.420,87.055 67.320,87.055 67.197 C 87.055 67.075,86.898 66.862,86.707 66.725 C 86.516 66.587,86.360 66.333,86.360 66.159 C 86.360 65.986,86.242 65.800,86.099 65.745 C 85.956 65.690,85.838 65.526,85.838 65.380 C 85.838 65.234,85.693 64.988,85.516 64.834 C 85.338 64.679,85.132 64.357,85.056 64.118 C 84.981 63.879,84.775 63.557,84.597 63.403 C 84.420 63.248,84.275 63.002,84.275 62.857 C 84.275 62.711,84.157 62.546,84.014 62.491 C 83.871 62.436,83.753 62.261,83.753 62.102 C 83.753 61.943,83.608 61.687,83.431 61.532 C 83.253 61.378,83.052 61.075,82.984 60.860 C 82.917 60.645,82.788 60.469,82.699 60.469 C 82.610 60.469,82.537 60.352,82.537 60.209 C 82.537 60.065,82.459 59.948,82.363 59.948 C 82.268 59.948,82.189 59.791,82.189 59.600 C 82.189 59.409,82.129 59.253,82.055 59.253 C 81.981 59.253,81.774 58.979,81.593 58.645 C 81.413 58.310,81.200 58.036,81.119 58.036 C 81.039 58.036,80.973 57.919,80.973 57.776 C 80.973 57.632,80.896 57.515,80.803 57.515 C 80.709 57.515,80.583 57.320,80.523 57.081 C 80.463 56.842,80.344 56.646,80.259 56.646 C 80.174 56.646,80.104 56.519,80.104 56.363 C 80.104 56.207,79.959 55.953,79.782 55.798 C 79.604 55.643,79.403 55.341,79.335 55.126 C 79.268 54.911,79.139 54.735,79.050 54.735 C 78.961 54.735,78.888 54.618,78.888 54.474 C 78.888 54.331,78.825 54.214,78.748 54.214 C 78.670 54.214,78.462 53.881,78.284 53.475 C 78.107 53.069,77.829 52.619,77.668 52.476 C 77.506 52.333,77.318 52.040,77.250 51.825 C 77.182 51.609,77.054 51.434,76.965 51.434 C 76.876 51.434,76.803 51.350,76.803 51.247 C 76.803 50.941,76.331 50.565,75.946 50.565 C 75.742 50.565,75.586 50.678,75.586 50.825 M76.455 59.208 C 76.455 59.353,76.600 59.599,76.778 59.754 C 76.955 59.908,77.162 60.230,77.237 60.469 C 77.312 60.708,77.519 61.030,77.696 61.185 C 77.874 61.339,78.019 61.593,78.019 61.749 C 78.019 61.905,78.092 62.033,78.181 62.033 C 78.270 62.033,78.399 62.209,78.467 62.424 C 78.535 62.639,78.716 62.932,78.870 63.076 C 79.024 63.219,79.285 63.629,79.451 63.988 C 79.616 64.346,79.831 64.639,79.928 64.639 C 80.025 64.639,80.104 64.796,80.104 64.987 C 80.104 65.178,80.177 65.334,80.266 65.334 C 80.355 65.334,80.484 65.510,80.552 65.725 C 80.620 65.940,80.820 66.243,80.998 66.397 C 81.175 66.552,81.321 66.767,81.321 66.875 C 81.321 66.984,81.397 67.072,81.491 67.072 C 81.585 67.072,81.711 67.268,81.771 67.507 C 81.830 67.745,81.949 67.941,82.034 67.941 C 82.120 67.941,82.189 68.069,82.189 68.225 C 82.189 68.381,82.335 68.635,82.512 68.789 C 82.690 68.944,82.890 69.246,82.958 69.461 C 83.026 69.676,83.155 69.852,83.244 69.852 C 83.333 69.852,83.406 69.970,83.406 70.113 C 83.406 70.256,83.472 70.374,83.553 70.374 C 83.634 70.374,83.847 70.706,84.026 71.112 C 84.205 71.518,84.479 71.968,84.636 72.111 C 84.792 72.255,84.975 72.548,85.043 72.763 C 85.111 72.978,85.240 73.154,85.329 73.154 C 85.418 73.154,85.491 73.242,85.491 73.351 C 85.491 73.459,85.635 73.674,85.811 73.828 C 85.986 73.983,86.179 74.307,86.238 74.547 C 86.298 74.788,86.506 75.156,86.700 75.365 C 86.895 75.575,87.055 75.827,87.055 75.927 C 87.055 76.026,87.117 76.108,87.192 76.108 C 87.268 76.108,87.448 76.368,87.592 76.686 C 87.857 77.271,87.713 77.672,87.236 77.672 C 87.136 77.672,87.055 77.734,87.055 77.810 C 87.055 77.886,86.703 78.093,86.273 78.270 C 85.843 78.448,85.491 78.659,85.491 78.740 C 85.491 78.822,85.374 78.888,85.230 78.888 C 85.087 78.888,84.970 78.966,84.970 79.062 C 84.970 79.157,84.811 79.235,84.617 79.235 C 84.422 79.235,84.219 79.353,84.164 79.496 C 84.109 79.639,83.916 79.757,83.735 79.757 C 83.554 79.757,83.406 79.835,83.406 79.930 C 83.406 80.026,83.288 80.104,83.145 80.104 C 83.002 80.104,82.884 80.182,82.884 80.278 C 82.884 80.374,82.738 80.452,82.558 80.452 C 82.379 80.452,82.135 80.569,82.016 80.712 C 81.897 80.856,81.692 80.973,81.560 80.973 C 81.428 80.973,81.321 81.051,81.321 81.147 C 81.321 81.242,81.213 81.321,81.081 81.321 C 80.950 81.321,80.745 81.438,80.626 81.581 C 80.507 81.725,80.262 81.842,80.083 81.842 C 79.904 81.842,79.757 81.920,79.757 82.016 C 79.757 82.111,79.639 82.189,79.496 82.189 C 79.353 82.189,79.235 82.268,79.235 82.363 C 79.235 82.459,79.087 82.537,78.907 82.537 C 78.726 82.537,78.533 82.654,78.478 82.798 C 78.423 82.941,78.219 83.058,78.025 83.058 C 77.830 83.058,77.672 83.136,77.672 83.232 C 77.672 83.328,77.583 83.406,77.475 83.406 C 77.367 83.406,77.136 83.570,76.961 83.771 C 76.532 84.266,75.510 84.266,75.080 83.771 C 74.906 83.570,74.675 83.406,74.567 83.406 C 74.459 83.406,74.370 83.328,74.370 83.232 C 74.370 83.136,74.211 83.058,74.017 83.058 C 73.823 83.058,73.619 82.941,73.564 82.798 C 73.509 82.654,73.316 82.537,73.135 82.537 C 72.954 82.537,72.806 82.459,72.806 82.363 C 72.806 82.268,72.689 82.189,72.546 82.189 C 72.402 82.189,72.285 82.111,72.285 82.016 C 72.285 81.920,72.138 81.842,71.959 81.842 C 71.779 81.842,71.535 81.725,71.416 81.581 C 71.297 81.438,71.092 81.321,70.960 81.321 C 70.829 81.321,70.721 81.242,70.721 81.147 C 70.721 81.051,70.613 80.973,70.482 80.973 C 70.350 80.973,70.145 80.856,70.026 80.712 C 69.907 80.569,69.663 80.452,69.484 80.452 C 69.304 80.452,69.157 80.374,69.157 80.278 C 69.157 80.182,69.040 80.104,68.897 80.104 C 68.753 80.104,68.636 80.026,68.636 79.930 C 68.636 79.835,68.488 79.757,68.307 79.757 C 68.126 79.757,67.933 79.639,67.878 79.496 C 67.823 79.353,67.619 79.235,67.425 79.235 C 67.231 79.235,67.072 79.157,67.072 79.062 C 67.072 78.966,66.955 78.888,66.811 78.888 C 66.668 78.888,66.551 78.811,66.551 78.717 C 66.551 78.624,66.355 78.498,66.116 78.438 C 65.877 78.378,65.682 78.259,65.682 78.174 C 65.682 78.089,65.526 78.019,65.334 78.019 C 65.143 78.019,64.987 77.941,64.987 77.845 C 64.987 77.750,64.905 77.672,64.806 77.672 C 64.329 77.672,64.184 77.271,64.450 76.686 C 64.594 76.368,64.774 76.108,64.849 76.108 C 64.925 76.108,64.987 76.019,64.987 75.911 C 64.987 75.803,65.132 75.588,65.310 75.433 C 65.487 75.279,65.688 74.976,65.756 74.761 C 65.824 74.546,65.952 74.370,66.041 74.370 C 66.130 74.370,66.203 74.214,66.203 74.023 C 66.203 73.831,66.281 73.675,66.377 73.675 C 66.473 73.675,66.551 73.558,66.551 73.414 C 66.551 73.271,66.624 73.154,66.713 73.154 C 66.802 73.154,66.930 72.978,66.998 72.763 C 67.066 72.548,67.256 72.255,67.420 72.111 C 67.583 71.968,67.773 71.675,67.841 71.460 C 67.909 71.245,68.037 71.069,68.126 71.069 C 68.216 71.069,68.288 70.912,68.288 70.721 C 68.288 70.530,68.367 70.374,68.462 70.374 C 68.558 70.374,68.636 70.256,68.636 70.113 C 68.636 69.970,68.709 69.852,68.798 69.852 C 68.887 69.852,69.016 69.676,69.084 69.461 C 69.151 69.246,69.352 68.944,69.530 68.789 C 69.707 68.635,69.852 68.389,69.852 68.243 C 69.852 68.097,69.970 67.933,70.113 67.878 C 70.256 67.823,70.374 67.648,70.374 67.489 C 70.374 67.330,70.512 67.073,70.680 66.919 C 70.849 66.764,71.140 66.344,71.328 65.986 C 71.515 65.628,71.729 65.334,71.803 65.334 C 71.877 65.334,71.937 65.186,71.937 65.006 C 71.937 64.825,72.058 64.630,72.206 64.573 C 72.354 64.517,72.557 64.235,72.658 63.947 C 72.758 63.659,72.911 63.423,72.997 63.423 C 73.083 63.423,73.154 63.306,73.154 63.162 C 73.154 63.019,73.223 62.902,73.309 62.902 C 73.394 62.902,73.513 62.706,73.573 62.467 C 73.633 62.228,73.758 62.033,73.852 62.033 C 73.946 62.033,74.023 61.885,74.023 61.704 C 74.023 61.523,74.144 61.329,74.291 61.272 C 74.439 61.215,74.642 60.933,74.743 60.645 C 74.843 60.357,74.996 60.122,75.082 60.122 C 75.168 60.122,75.239 60.004,75.239 59.861 C 75.239 59.718,75.317 59.600,75.413 59.600 C 75.508 59.600,75.586 59.450,75.586 59.267 C 75.586 58.913,75.880 58.731,76.238 58.863 C 76.358 58.907,76.455 59.062,76.455 59.208 M96.233 83.102 C 96.107 83.221,95.769 83.436,95.482 83.579 C 95.195 83.723,94.858 83.938,94.731 84.057 C 94.605 84.177,94.390 84.275,94.253 84.275 C 94.117 84.275,94.005 84.353,94.005 84.448 C 94.005 84.544,93.849 84.622,93.658 84.622 C 93.467 84.622,93.310 84.682,93.310 84.755 C 93.310 84.887,92.795 85.201,92.224 85.417 C 92.057 85.480,91.920 85.600,91.920 85.685 C 91.920 85.769,91.764 85.838,91.573 85.838 C 91.381 85.838,91.225 85.915,91.225 86.009 C 91.225 86.103,91.030 86.228,90.791 86.288 C 90.552 86.348,90.356 86.467,90.356 86.552 C 90.356 86.637,90.239 86.707,90.096 86.707 C 89.952 86.707,89.835 86.785,89.835 86.881 C 89.835 86.977,89.679 87.055,89.487 87.055 C 89.296 87.055,89.140 87.131,89.140 87.225 C 89.140 87.319,88.944 87.445,88.705 87.505 C 88.467 87.565,88.271 87.683,88.271 87.769 C 88.271 87.854,88.158 87.924,88.020 87.924 C 87.882 87.924,87.667 88.069,87.542 88.248 C 87.418 88.426,87.061 88.628,86.751 88.696 C 86.440 88.764,86.186 88.892,86.186 88.980 C 86.186 89.068,86.058 89.140,85.902 89.140 C 85.746 89.140,85.492 89.285,85.337 89.463 C 85.183 89.640,84.861 89.847,84.622 89.922 C 84.383 89.997,84.061 90.204,83.907 90.381 C 83.752 90.559,83.539 90.704,83.434 90.704 C 83.114 90.704,81.817 91.435,81.729 91.665 C 81.683 91.784,81.436 91.924,81.179 91.976 C 80.922 92.027,80.540 92.232,80.329 92.429 C 80.118 92.627,79.824 92.789,79.677 92.789 C 79.530 92.789,79.409 92.861,79.409 92.949 C 79.409 93.037,79.190 93.157,78.922 93.216 C 78.654 93.275,78.323 93.476,78.188 93.664 C 78.053 93.852,77.803 94.005,77.633 94.005 C 77.463 94.005,77.324 94.075,77.324 94.160 C 77.324 94.245,77.129 94.364,76.890 94.424 C 76.651 94.484,76.455 94.610,76.455 94.704 C 76.455 94.797,76.260 94.874,76.021 94.874 C 75.782 94.874,75.586 94.797,75.586 94.704 C 75.586 94.610,75.391 94.484,75.152 94.424 C 74.913 94.364,74.718 94.245,74.718 94.160 C 74.718 94.075,74.561 94.005,74.370 94.005 C 74.179 94.005,74.023 93.927,74.023 93.831 C 74.023 93.736,73.905 93.658,73.762 93.658 C 73.619 93.658,73.501 93.581,73.501 93.487 C 73.501 93.393,73.306 93.268,73.067 93.208 C 72.828 93.148,72.632 93.029,72.632 92.944 C 72.632 92.859,72.493 92.789,72.323 92.789 C 72.153 92.789,71.902 92.633,71.764 92.442 C 71.627 92.251,71.258 92.047,70.944 91.988 C 70.630 91.930,70.374 91.812,70.374 91.727 C 70.374 91.642,70.292 91.573,70.193 91.573 C 70.093 91.573,69.840 91.413,69.631 91.218 C 69.422 91.023,69.054 90.815,68.813 90.756 C 68.572 90.697,68.253 90.510,68.104 90.340 C 67.955 90.171,67.623 89.979,67.366 89.915 C 67.109 89.850,66.898 89.728,66.898 89.642 C 66.898 89.557,66.759 89.487,66.589 89.487 C 66.419 89.487,66.168 89.331,66.030 89.141 C 65.893 88.950,65.526 88.746,65.216 88.688 C 64.876 88.624,64.610 88.451,64.547 88.253 C 64.489 88.072,64.291 87.924,64.106 87.924 C 63.922 87.924,63.771 87.852,63.771 87.764 C 63.771 87.676,63.517 87.548,63.206 87.480 C 62.896 87.411,62.515 87.210,62.360 87.031 C 62.206 86.853,61.991 86.707,61.882 86.707 C 61.774 86.707,61.685 86.637,61.685 86.552 C 61.685 86.467,61.490 86.348,61.251 86.288 C 61.012 86.228,60.817 86.103,60.817 86.009 C 60.817 85.915,60.660 85.838,60.469 85.838 C 60.278 85.838,60.122 85.760,60.122 85.665 C 60.122 85.569,60.004 85.491,59.861 85.491 C 59.718 85.491,59.600 85.413,59.600 85.317 C 59.600 85.222,59.442 85.143,59.247 85.143 C 59.053 85.143,58.849 85.026,58.794 84.883 C 58.739 84.739,58.546 84.622,58.365 84.622 C 58.185 84.622,58.036 84.544,58.036 84.448 C 58.036 84.353,57.925 84.275,57.788 84.275 C 57.652 84.275,57.437 84.172,57.310 84.047 C 57.184 83.921,56.827 83.707,56.516 83.570 C 56.205 83.433,55.951 83.262,55.951 83.190 C 55.951 82.519,54.511 83.238,54.318 84.005 C 54.248 84.285,54.055 84.637,53.889 84.786 C 53.574 85.069,52.997 86.188,52.997 86.516 C 52.997 86.621,52.919 86.707,52.824 86.707 C 52.728 86.707,52.650 86.864,52.650 87.055 C 52.650 87.246,52.572 87.402,52.476 87.402 C 52.381 87.402,52.300 87.578,52.297 87.793 C 52.294 88.008,52.176 88.336,52.036 88.521 C 51.896 88.707,51.781 89.078,51.781 89.347 C 51.781 89.615,51.703 89.835,51.607 89.835 C 51.512 89.835,51.434 90.054,51.434 90.321 C 51.434 90.589,51.358 90.884,51.265 90.977 C 51.172 91.070,51.043 91.711,50.979 92.402 C 50.915 93.092,50.795 93.658,50.714 93.658 C 50.632 93.658,50.565 95.495,50.565 97.741 C 50.565 99.987,50.632 101.825,50.714 101.825 C 50.795 101.825,50.915 102.390,50.979 103.080 C 51.043 103.771,51.172 104.412,51.265 104.505 C 51.358 104.598,51.434 104.893,51.434 105.161 C 51.434 105.428,51.512 105.647,51.607 105.647 C 51.703 105.647,51.781 105.867,51.781 106.135 C 51.781 106.404,51.896 106.775,52.036 106.961 C 52.176 107.146,52.294 107.474,52.297 107.689 C 52.300 107.904,52.381 108.080,52.476 108.080 C 52.572 108.080,52.650 108.236,52.650 108.427 C 52.650 108.619,52.728 108.775,52.824 108.775 C 52.919 108.775,52.997 108.861,52.997 108.966 C 52.997 109.294,53.574 110.413,53.889 110.697 C 54.055 110.846,54.241 111.170,54.304 111.418 C 54.366 111.666,54.566 112.029,54.750 112.226 C 54.933 112.422,55.083 112.665,55.083 112.764 C 55.083 112.864,55.155 112.945,55.245 112.945 C 55.334 112.945,55.455 113.098,55.514 113.284 C 55.573 113.470,55.774 113.671,55.960 113.730 C 56.146 113.789,56.299 113.956,56.299 114.101 C 56.299 114.443,59.318 117.463,59.661 117.463 C 59.806 117.463,59.973 117.615,60.032 117.802 C 60.091 117.988,60.292 118.189,60.478 118.248 C 60.664 118.307,60.817 118.428,60.817 118.517 C 60.817 118.606,60.905 118.679,61.014 118.679 C 61.122 118.679,61.337 118.823,61.491 118.999 C 61.646 119.175,62.002 119.376,62.283 119.445 C 62.564 119.515,62.916 119.707,63.065 119.873 C 63.349 120.188,64.468 120.765,64.796 120.765 C 64.901 120.765,64.987 120.843,64.987 120.938 C 64.987 121.034,65.143 121.112,65.334 121.112 C 65.526 121.112,65.682 121.190,65.682 121.286 C 65.682 121.381,65.871 121.460,66.102 121.460 C 66.333 121.460,66.550 121.543,66.584 121.645 C 66.617 121.746,66.976 121.874,67.380 121.928 C 67.784 121.982,68.115 122.095,68.115 122.178 C 68.115 122.261,68.334 122.328,68.601 122.328 C 68.869 122.328,69.164 122.404,69.257 122.497 C 69.349 122.590,69.991 122.719,70.681 122.783 C 71.372 122.847,71.937 122.967,71.937 123.048 C 71.937 123.130,73.775 123.197,76.021 123.197 C 78.267 123.197,80.104 123.130,80.104 123.048 C 80.104 122.967,80.669 122.847,81.360 122.783 C 82.051 122.719,82.692 122.590,82.785 122.497 C 82.878 122.404,83.173 122.328,83.440 122.328 C 83.708 122.328,83.927 122.261,83.927 122.178 C 83.927 122.095,84.258 121.982,84.662 121.928 C 85.066 121.874,85.424 121.746,85.458 121.645 C 85.492 121.543,85.709 121.460,85.940 121.460 C 86.171 121.460,86.360 121.381,86.360 121.286 C 86.360 121.190,86.516 121.112,86.707 121.112 C 86.898 121.112,87.055 121.034,87.055 120.938 C 87.055 120.843,87.132 120.765,87.227 120.765 C 87.524 120.765,88.792 120.168,88.792 120.029 C 88.792 119.955,88.949 119.896,89.140 119.896 C 89.331 119.896,89.487 119.821,89.487 119.730 C 89.487 119.639,89.761 119.435,90.096 119.276 C 90.430 119.117,90.704 118.918,90.704 118.833 C 90.704 118.749,90.821 118.679,90.964 118.679 C 91.108 118.679,91.225 118.606,91.225 118.517 C 91.225 118.428,91.377 118.307,91.564 118.248 C 91.750 118.189,91.951 117.988,92.010 117.802 C 92.069 117.615,92.236 117.463,92.380 117.463 C 92.723 117.463,95.743 114.443,95.743 114.101 C 95.743 113.956,95.895 113.789,96.081 113.730 C 96.268 113.671,96.468 113.470,96.528 113.284 C 96.587 113.098,96.708 112.945,96.797 112.945 C 96.886 112.945,96.959 112.857,96.959 112.748 C 96.959 112.640,97.103 112.425,97.279 112.271 C 97.455 112.116,97.655 111.760,97.725 111.479 C 97.794 111.198,97.987 110.846,98.153 110.697 C 98.468 110.413,99.044 109.294,99.044 108.966 C 99.044 108.861,99.123 108.775,99.218 108.775 C 99.314 108.775,99.392 108.619,99.392 108.427 C 99.392 108.236,99.470 108.080,99.566 108.080 C 99.661 108.080,99.739 107.891,99.739 107.660 C 99.739 107.429,99.823 107.212,99.924 107.178 C 100.026 107.145,100.154 106.786,100.208 106.382 C 100.262 105.978,100.374 105.647,100.457 105.647 C 100.540 105.647,100.608 105.428,100.608 105.161 C 100.608 104.893,100.684 104.598,100.777 104.505 C 100.870 104.412,100.998 103.771,101.063 103.080 C 101.127 102.390,101.246 101.825,101.328 101.825 C 101.410 101.825,101.477 99.987,101.477 97.741 C 101.477 95.495,101.410 93.658,101.328 93.658 C 101.246 93.658,101.127 93.092,101.063 92.402 C 100.998 91.711,100.870 91.070,100.777 90.977 C 100.684 90.884,100.608 90.589,100.608 90.321 C 100.608 90.054,100.540 89.835,100.457 89.835 C 100.374 89.835,100.262 89.504,100.208 89.100 C 100.154 88.696,100.026 88.338,99.924 88.304 C 99.823 88.270,99.739 88.053,99.739 87.822 C 99.739 87.591,99.661 87.402,99.566 87.402 C 99.470 87.402,99.392 87.246,99.392 87.055 C 99.392 86.864,99.314 86.707,99.218 86.707 C 99.123 86.707,99.044 86.621,99.044 86.516 C 99.044 86.188,98.468 85.069,98.153 84.786 C 97.987 84.637,97.800 84.312,97.738 84.064 C 97.506 83.141,96.722 82.639,96.233 83.102 " stroke="none" fill="#04a4fc" fill-rule="evenodd"></path><path id="path1" d="M325.586 67.016 C 325.132 67.057,324.761 67.165,324.761 67.255 C 324.761 67.346,324.566 67.420,324.327 67.420 C 324.088 67.420,323.892 67.498,323.892 67.593 C 323.892 67.689,323.662 67.767,323.381 67.767 C 323.100 67.767,322.827 67.836,322.775 67.921 C 322.723 68.006,322.405 68.127,322.070 68.190 C 321.734 68.253,321.460 68.379,321.460 68.470 C 321.460 68.561,321.303 68.636,321.112 68.636 C 320.921 68.636,320.765 68.698,320.765 68.775 C 320.765 68.851,320.486 69.014,320.145 69.138 C 319.804 69.261,319.483 69.472,319.431 69.607 C 319.380 69.742,319.189 69.852,319.008 69.852 C 318.827 69.852,318.679 69.925,318.679 70.014 C 318.679 70.103,318.504 70.232,318.289 70.300 C 318.074 70.369,317.658 70.687,317.364 71.007 C 317.070 71.328,316.767 71.590,316.689 71.590 C 316.498 71.590,315.030 73.069,315.030 73.263 C 315.030 73.348,314.758 73.652,314.426 73.937 C 314.094 74.223,313.820 74.551,313.818 74.666 C 313.816 74.781,313.632 75.058,313.408 75.281 C 313.185 75.504,312.857 76.016,312.680 76.419 C 312.502 76.821,312.294 77.150,312.217 77.150 C 312.140 77.150,312.076 77.268,312.076 77.411 C 312.076 77.554,311.998 77.672,311.903 77.672 C 311.807 77.672,311.729 77.823,311.729 78.009 C 311.729 78.194,311.660 78.389,311.575 78.441 C 311.490 78.494,311.369 78.811,311.306 79.147 C 311.243 79.482,311.117 79.757,311.026 79.757 C 310.935 79.757,310.860 79.952,310.860 80.191 C 310.860 80.430,310.788 80.626,310.700 80.626 C 310.612 80.626,310.486 81.134,310.419 81.755 C 310.353 82.376,310.229 82.884,310.145 82.884 C 310.060 82.884,309.991 83.197,309.991 83.579 C 309.991 83.962,309.913 84.275,309.818 84.275 C 309.708 84.275,309.644 85.549,309.644 87.750 C 309.644 89.951,309.708 91.225,309.818 91.225 C 309.913 91.225,309.991 91.611,309.991 92.084 C 309.991 92.556,310.059 92.984,310.141 93.035 C 310.223 93.085,310.341 93.497,310.403 93.950 C 310.525 94.839,310.864 95.743,311.076 95.743 C 311.149 95.743,311.208 95.897,311.208 96.084 C 311.208 96.465,311.743 97.709,311.946 97.799 C 312.018 97.831,312.076 98.007,312.076 98.190 C 312.076 98.373,312.146 98.523,312.231 98.523 C 312.317 98.523,312.435 98.719,312.495 98.957 C 312.555 99.196,312.681 99.392,312.775 99.392 C 312.869 99.392,312.945 99.492,312.945 99.614 C 312.945 99.736,313.102 99.949,313.293 100.087 C 313.484 100.225,313.640 100.458,313.640 100.605 C 313.640 100.752,313.912 101.106,314.245 101.392 C 314.577 101.678,314.851 102.004,314.853 102.117 C 314.857 102.346,316.682 104.257,316.896 104.257 C 316.971 104.257,317.243 104.453,317.501 104.692 C 317.758 104.930,318.015 105.126,318.071 105.126 C 318.127 105.126,318.384 105.321,318.642 105.560 C 318.899 105.799,319.209 105.995,319.329 105.995 C 319.450 105.995,319.548 106.073,319.548 106.169 C 319.548 106.264,319.705 106.342,319.896 106.342 C 320.087 106.342,320.243 106.417,320.243 106.508 C 320.243 106.599,320.517 106.725,320.851 106.788 C 321.186 106.851,321.460 106.972,321.460 107.057 C 321.460 107.142,321.577 107.211,321.720 107.211 C 321.864 107.211,321.981 107.289,321.981 107.385 C 321.981 107.480,322.137 107.559,322.328 107.559 C 322.520 107.559,322.676 107.633,322.676 107.724 C 322.676 107.815,323.145 107.942,323.719 108.007 C 324.292 108.072,324.761 108.193,324.761 108.276 C 324.761 108.359,325.113 108.427,325.543 108.427 C 325.973 108.427,326.325 108.506,326.325 108.601 C 326.325 108.711,327.570 108.775,329.713 108.775 C 331.856 108.775,333.102 108.711,333.102 108.601 C 333.102 108.506,333.454 108.427,333.884 108.427 C 334.314 108.427,334.666 108.349,334.666 108.254 C 334.666 108.158,334.920 108.079,335.230 108.079 C 335.541 108.078,336.019 107.961,336.293 107.818 C 336.566 107.675,336.938 107.559,337.118 107.559 C 337.298 107.559,337.446 107.480,337.446 107.385 C 337.446 107.289,337.563 107.211,337.706 107.211 C 337.850 107.211,337.967 107.142,337.967 107.057 C 337.967 106.972,338.241 106.851,338.575 106.788 C 338.910 106.725,339.183 106.618,339.183 106.549 C 339.183 106.481,339.332 106.348,339.514 106.253 C 339.696 106.159,340.126 105.936,340.470 105.758 C 340.813 105.580,341.095 105.365,341.095 105.280 C 341.095 105.195,341.186 105.126,341.298 105.126 C 341.410 105.126,341.826 104.788,342.221 104.375 C 342.617 103.962,343.074 103.573,343.238 103.510 C 343.401 103.448,343.587 103.261,343.650 103.096 C 343.714 102.931,344.171 102.397,344.667 101.909 C 345.162 101.421,345.622 100.851,345.689 100.641 C 345.755 100.432,345.883 100.261,345.972 100.261 C 346.061 100.261,346.134 100.179,346.134 100.080 C 346.134 99.980,346.296 99.726,346.493 99.515 C 346.691 99.304,346.896 98.916,346.949 98.653 C 347.003 98.391,347.114 98.175,347.198 98.175 C 347.282 98.175,347.350 98.058,347.350 97.915 C 347.350 97.772,347.428 97.654,347.524 97.654 C 347.619 97.654,347.698 97.498,347.698 97.307 C 347.698 97.116,347.772 96.959,347.864 96.959 C 347.955 96.959,348.081 96.685,348.144 96.351 C 348.206 96.017,348.327 95.743,348.412 95.743 C 348.497 95.743,348.566 95.547,348.566 95.308 C 348.566 95.070,348.641 94.874,348.732 94.874 C 348.822 94.874,348.950 94.405,349.015 93.831 C 349.080 93.258,349.201 92.789,349.284 92.789 C 349.367 92.789,349.435 92.359,349.435 91.833 C 349.435 91.308,349.513 90.877,349.609 90.877 C 349.718 90.877,349.783 89.719,349.783 87.750 C 349.783 85.780,349.718 84.622,349.609 84.622 C 349.513 84.622,349.435 84.231,349.435 83.753 C 349.435 83.275,349.368 82.884,349.286 82.884 C 349.203 82.884,349.089 82.485,349.031 81.996 C 348.921 81.066,348.575 80.104,348.350 80.104 C 348.278 80.104,348.219 79.948,348.219 79.758 C 348.219 79.330,347.664 78.019,347.483 78.019 C 347.410 78.019,347.350 77.863,347.350 77.672 C 347.350 77.480,347.288 77.324,347.211 77.324 C 347.135 77.324,346.972 77.045,346.848 76.705 C 346.725 76.364,346.514 76.043,346.379 75.991 C 346.244 75.939,346.134 75.749,346.134 75.568 C 346.134 75.387,346.061 75.239,345.972 75.239 C 345.883 75.239,345.764 75.095,345.708 74.919 C 345.624 74.654,345.046 74.023,343.533 72.546 C 343.435 72.450,343.006 72.000,342.579 71.546 C 342.152 71.093,341.718 70.721,341.614 70.721 C 341.510 70.721,341.244 70.526,341.023 70.287 C 340.802 70.048,340.493 69.852,340.336 69.852 C 340.180 69.852,340.052 69.774,340.052 69.679 C 340.052 69.583,339.935 69.505,339.791 69.505 C 339.648 69.505,339.531 69.428,339.531 69.334 C 339.531 69.241,339.335 69.115,339.096 69.055 C 338.858 68.995,338.662 68.876,338.662 68.791 C 338.662 68.706,338.506 68.636,338.315 68.636 C 338.123 68.636,337.967 68.558,337.967 68.462 C 337.967 68.367,337.791 68.286,337.576 68.282 C 337.361 68.279,336.990 68.164,336.751 68.028 C 336.512 67.891,336.140 67.777,335.925 67.773 C 335.710 67.770,335.534 67.689,335.534 67.593 C 335.534 67.498,335.345 67.420,335.114 67.420 C 334.883 67.420,334.663 67.326,334.625 67.212 C 334.555 67.002,327.429 66.847,325.586 67.016 M137.446 87.750 L 137.446 108.427 151.173 108.427 L 164.900 108.427 164.900 104.518 L 164.900 100.608 155.256 100.608 L 145.613 100.608 145.613 83.840 L 145.613 67.072 141.529 67.072 L 137.446 67.072 137.446 87.750 M198.378 67.188 C 198.315 67.252,198.262 76.557,198.262 87.866 L 198.262 108.427 202.520 108.427 L 206.777 108.427 206.777 87.750 L 206.777 67.072 202.635 67.072 C 200.358 67.072,198.442 67.124,198.378 67.188 M243.614 87.750 L 243.614 108.427 251.868 108.427 C 256.407 108.427,260.122 108.361,260.122 108.279 C 260.122 108.197,260.640 108.082,261.274 108.023 C 262.414 107.916,263.423 107.597,263.423 107.342 C 263.423 107.270,263.658 107.211,263.944 107.211 C 264.231 107.211,264.466 107.133,264.466 107.037 C 264.466 106.942,264.552 106.864,264.657 106.864 C 264.889 106.864,266.082 106.319,266.203 106.158 C 266.251 106.094,266.466 105.987,266.681 105.920 C 266.896 105.853,267.072 105.725,267.072 105.636 C 267.072 105.546,267.228 105.474,267.420 105.474 C 267.611 105.474,267.767 105.395,267.767 105.300 C 267.767 105.204,267.849 105.126,267.949 105.126 C 268.048 105.126,268.341 104.930,268.598 104.692 C 268.856 104.453,269.128 104.257,269.204 104.257 C 269.425 104.257,272.806 100.826,272.806 100.602 C 272.806 100.489,273.002 100.244,273.241 100.056 C 273.480 99.868,273.675 99.582,273.675 99.421 C 273.675 99.260,273.831 99.030,274.023 98.911 C 274.214 98.792,274.370 98.577,274.370 98.435 C 274.370 98.292,274.445 98.175,274.536 98.175 C 274.627 98.175,274.753 97.902,274.816 97.567 C 274.879 97.233,275.000 96.959,275.084 96.959 C 275.169 96.959,275.239 96.842,275.239 96.699 C 275.239 96.555,275.317 96.438,275.413 96.438 C 275.508 96.438,275.586 96.281,275.586 96.090 C 275.586 95.899,275.665 95.743,275.760 95.743 C 275.856 95.743,275.934 95.567,275.935 95.352 C 275.936 95.137,276.053 94.737,276.196 94.463 C 276.338 94.189,276.455 93.779,276.455 93.551 C 276.455 93.323,276.533 93.136,276.629 93.136 C 276.725 93.136,276.803 92.878,276.803 92.563 C 276.803 92.248,276.899 91.893,277.017 91.775 C 277.325 91.467,277.328 84.209,277.020 83.901 C 276.901 83.781,276.803 83.426,276.803 83.110 C 276.803 82.795,276.725 82.537,276.629 82.537 C 276.533 82.537,276.455 82.263,276.455 81.929 C 276.455 81.594,276.386 81.321,276.301 81.321 C 276.217 81.321,276.094 80.969,276.030 80.539 C 275.965 80.109,275.839 79.757,275.750 79.757 C 275.660 79.757,275.586 79.639,275.586 79.496 C 275.586 79.353,275.508 79.235,275.413 79.235 C 275.317 79.235,275.239 79.079,275.239 78.888 C 275.239 78.697,275.161 78.540,275.065 78.540 C 274.970 78.540,274.891 78.454,274.891 78.349 C 274.891 78.015,274.313 76.900,273.988 76.609 C 273.816 76.454,273.675 76.243,273.675 76.139 C 273.675 76.035,273.480 75.754,273.241 75.515 C 273.002 75.276,272.806 75.015,272.806 74.935 C 272.806 74.809,271.164 73.084,270.513 72.525 C 270.389 72.419,270.172 72.165,270.031 71.961 C 269.891 71.757,269.647 71.590,269.491 71.590 C 269.334 71.590,269.059 71.394,268.880 71.156 C 268.700 70.917,268.424 70.721,268.266 70.721 C 268.108 70.721,267.933 70.604,267.878 70.460 C 267.823 70.317,267.628 70.200,267.444 70.200 C 267.260 70.200,267.069 70.094,267.019 69.965 C 266.916 69.696,265.626 68.983,265.242 68.983 C 265.102 68.983,264.987 68.905,264.987 68.810 C 264.987 68.714,264.798 68.636,264.567 68.636 C 264.336 68.636,264.121 68.577,264.089 68.506 C 264.018 68.346,262.354 67.767,261.966 67.767 C 261.812 67.767,261.685 67.689,261.685 67.593 C 261.685 67.498,261.334 67.420,260.904 67.420 C 260.474 67.420,260.122 67.341,260.122 67.246 C 260.122 67.132,257.255 67.072,251.868 67.072 L 243.614 67.072 243.614 87.750 M332.204 75.069 C 332.236 75.162,332.529 75.239,332.855 75.239 C 333.182 75.239,333.449 75.317,333.449 75.413 C 333.449 75.508,333.606 75.586,333.797 75.586 C 333.988 75.586,334.144 75.661,334.144 75.752 C 334.144 75.844,334.418 75.970,334.752 76.032 C 335.087 76.095,335.361 76.216,335.361 76.301 C 335.361 76.386,335.442 76.455,335.543 76.455 C 335.693 76.455,336.253 76.949,337.638 78.304 C 338.365 79.015,338.997 79.792,339.092 80.091 C 339.155 80.289,339.280 80.452,339.369 80.452 C 339.458 80.452,339.531 80.569,339.531 80.712 C 339.531 80.856,339.605 80.973,339.697 80.973 C 339.788 80.973,339.914 81.247,339.977 81.581 C 340.039 81.916,340.160 82.189,340.245 82.189 C 340.330 82.189,340.400 82.385,340.400 82.624 C 340.400 82.863,340.478 83.058,340.573 83.058 C 340.669 83.058,340.747 83.208,340.747 83.391 C 340.747 83.574,340.845 83.757,340.964 83.797 C 341.130 83.852,341.182 84.817,341.182 87.837 C 341.182 90.856,341.130 91.821,340.964 91.877 C 340.845 91.916,340.747 92.138,340.747 92.369 C 340.747 92.600,340.687 92.789,340.614 92.789 C 340.475 92.789,339.878 94.057,339.878 94.354 C 339.878 94.449,339.800 94.526,339.705 94.526 C 339.609 94.526,339.531 94.683,339.531 94.874 C 339.531 95.065,339.453 95.222,339.357 95.222 C 339.262 95.222,339.183 95.303,339.183 95.403 C 339.183 95.573,339.047 95.770,338.532 96.345 C 338.412 96.478,338.315 96.635,338.315 96.693 C 338.315 96.931,337.078 98.175,336.842 98.175 C 336.783 98.175,336.539 98.371,336.300 98.610 C 336.062 98.849,335.752 99.044,335.613 99.044 C 335.474 99.044,335.361 99.123,335.361 99.218 C 335.361 99.314,335.204 99.392,335.013 99.392 C 334.822 99.392,334.666 99.470,334.666 99.566 C 334.666 99.661,334.548 99.739,334.405 99.739 C 334.262 99.739,334.144 99.815,334.144 99.907 C 334.144 99.999,333.752 100.127,333.272 100.191 C 332.792 100.254,332.357 100.374,332.306 100.457 C 332.254 100.540,331.904 100.608,331.528 100.608 C 331.151 100.608,330.843 100.686,330.843 100.782 C 330.843 100.880,330.350 100.956,329.713 100.956 C 329.076 100.956,328.584 100.880,328.584 100.782 C 328.584 100.686,328.193 100.608,327.715 100.608 C 327.237 100.608,326.846 100.539,326.846 100.454 C 326.846 100.369,326.494 100.247,326.064 100.183 C 325.634 100.118,325.282 99.992,325.282 99.902 C 325.282 99.813,325.165 99.739,325.022 99.739 C 324.878 99.739,324.761 99.661,324.761 99.566 C 324.761 99.470,324.605 99.392,324.414 99.392 C 324.222 99.392,324.066 99.314,324.066 99.218 C 324.066 99.123,323.952 99.044,323.813 99.044 C 323.674 99.044,323.365 98.849,323.126 98.610 C 322.887 98.371,322.646 98.175,322.590 98.175 C 322.356 98.175,321.112 96.936,321.112 96.704 C 321.112 96.602,320.932 96.362,320.460 95.836 C 320.341 95.703,320.243 95.510,320.243 95.408 C 320.243 95.305,320.165 95.222,320.070 95.222 C 319.974 95.222,319.896 95.074,319.896 94.893 C 319.896 94.712,319.778 94.519,319.635 94.464 C 319.492 94.409,319.374 94.220,319.374 94.045 C 319.374 93.653,318.987 92.792,318.810 92.790 C 318.738 92.789,318.679 92.600,318.679 92.369 C 318.679 92.138,318.598 91.922,318.498 91.889 C 318.396 91.855,318.271 90.995,318.212 89.919 C 318.152 88.845,318.022 87.953,317.915 87.880 C 317.776 87.785,317.776 87.714,317.915 87.619 C 318.020 87.548,318.154 86.673,318.214 85.666 C 318.274 84.664,318.403 83.817,318.501 83.784 C 318.599 83.751,318.679 83.590,318.679 83.426 C 318.679 83.058,319.069 82.193,319.236 82.191 C 319.304 82.190,319.410 81.916,319.473 81.581 C 319.536 81.247,319.656 80.973,319.741 80.973 C 319.826 80.973,319.896 80.856,319.896 80.712 C 319.896 80.569,319.974 80.452,320.070 80.452 C 320.165 80.452,320.243 80.324,320.243 80.168 C 320.243 80.012,320.517 79.627,320.851 79.311 C 321.186 78.996,321.460 78.662,321.460 78.570 C 321.460 78.337,322.428 77.324,322.651 77.324 C 322.752 77.324,323.029 77.129,323.268 76.890 C 323.507 76.651,323.784 76.455,323.884 76.455 C 323.984 76.455,324.066 76.386,324.066 76.301 C 324.066 76.216,324.340 76.095,324.674 76.032 C 325.009 75.970,325.282 75.844,325.282 75.752 C 325.282 75.661,325.439 75.586,325.630 75.586 C 325.821 75.586,325.977 75.508,325.977 75.413 C 325.977 75.317,326.173 75.239,326.412 75.239 C 326.651 75.239,326.846 75.165,326.846 75.074 C 326.846 74.716,332.082 74.710,332.204 75.069 M257.776 75.065 C 257.835 75.161,258.191 75.239,258.568 75.239 C 258.945 75.239,259.253 75.317,259.253 75.413 C 259.253 75.508,259.526 75.586,259.861 75.586 C 260.195 75.586,260.469 75.656,260.469 75.741 C 260.469 75.826,260.743 75.947,261.077 76.009 C 261.412 76.072,261.685 76.198,261.685 76.289 C 261.685 76.381,261.842 76.455,262.033 76.455 C 262.224 76.455,262.381 76.533,262.381 76.629 C 262.381 76.725,262.498 76.803,262.641 76.803 C 262.785 76.803,262.902 76.876,262.902 76.965 C 262.902 77.054,263.064 77.178,263.262 77.241 C 263.670 77.371,266.203 79.820,266.203 80.085 C 266.203 80.180,266.347 80.360,266.523 80.485 C 266.698 80.610,266.895 80.927,266.960 81.190 C 267.026 81.453,267.155 81.668,267.249 81.668 C 267.343 81.668,267.420 81.785,267.420 81.929 C 267.420 82.072,267.498 82.189,267.593 82.189 C 267.689 82.189,267.770 82.365,267.773 82.580 C 267.777 82.795,267.891 83.167,268.028 83.406 C 268.164 83.645,268.279 84.016,268.282 84.231 C 268.286 84.446,268.367 84.622,268.462 84.622 C 268.558 84.622,268.636 84.930,268.636 85.307 C 268.636 85.683,268.714 86.040,268.810 86.099 C 268.906 86.158,268.983 86.941,268.983 87.847 C 268.983 88.825,268.913 89.487,268.810 89.487 C 268.714 89.487,268.636 89.762,268.636 90.098 C 268.636 90.434,268.566 90.844,268.480 91.010 C 268.393 91.176,268.182 91.762,268.009 92.311 C 267.836 92.861,267.633 93.310,267.557 93.310 C 267.482 93.310,267.420 93.467,267.420 93.658 C 267.420 93.849,267.341 94.005,267.246 94.005 C 267.150 94.005,267.072 94.119,267.072 94.258 C 267.072 94.397,266.877 94.706,266.638 94.945 C 266.399 95.184,266.203 95.461,266.203 95.561 C 266.203 95.661,266.130 95.743,266.041 95.743 C 265.952 95.743,265.835 95.880,265.782 96.047 C 265.728 96.214,265.449 96.507,265.161 96.699 C 264.873 96.890,264.595 97.179,264.543 97.341 C 264.491 97.504,264.278 97.691,264.069 97.757 C 263.861 97.823,263.481 98.101,263.226 98.375 C 262.970 98.649,262.518 98.921,262.223 98.980 C 261.927 99.039,261.685 99.156,261.685 99.240 C 261.685 99.323,261.568 99.392,261.425 99.392 C 261.281 99.392,261.164 99.470,261.164 99.566 C 261.164 99.661,260.930 99.739,260.643 99.739 C 260.356 99.739,260.122 99.812,260.122 99.901 C 260.122 99.989,259.672 100.110,259.123 100.170 C 258.573 100.229,257.988 100.352,257.822 100.443 C 257.656 100.534,256.268 100.608,254.737 100.608 L 251.955 100.608 251.955 87.750 L 251.955 74.891 254.812 74.891 C 256.529 74.891,257.711 74.961,257.776 75.065 " stroke="none" fill="#0c0c14" fill-rule="evenodd"></path><path id="path2" d="" stroke="none" fill="#040c14" fill-rule="evenodd"></path><path id="path3" d="" stroke="none" fill="#08a8c4" fill-rule="evenodd"></path><path id="path4" d="" stroke="none" fill="#085c4c" fill-rule="evenodd"></path></g></svg>