<?xml version="1.0" encoding="UTF-8"?>
<svg width="190px" height="47px" viewBox="0 0 190 47" version="1.1" xmlns="http://www.w3.org/2000/svg" xmlns:xlink="http://www.w3.org/1999/xlink">
    <title>StaFi-Black</title>
    <g id="最终" stroke="none" stroke-width="1" fill="none" fill-rule="evenodd">
        <g id="Artboard" transform="translate(-41.000000, -8.000000)" fill="#000000" fill-rule="nonzero">
            <g id="StaFi-Black" transform="translate(41.000000, 8.000000)">
                <g id="StaFi" transform="translate(59.000000, 0.000000)">
                    <path d="M14.1875,46 C9.16666667,46 5.546875,44.9732143 3.328125,42.9196429 C1.109375,40.8660714 0,37.5974702 0,33.1138393 L0,29.5714286 L10.125,29.5714286 L10.125,34.3459821 C10.125,35.389881 11.0677083,36.2070312 11.453125,36.797433 C11.8385417,37.3878348 12.5104167,37.6830357 13.46875,37.6830357 C14.46875,37.6830357 15.1614583,37.4434524 15.546875,36.9642857 C15.9322917,36.485119 16.125,35.6979167 16.125,34.6026786 C16.125,33.2165179 15.9583333,32.0571057 15.625,31.124442 C15.2916667,30.1917783 14.7135417,29.3018973 13.890625,28.4547991 C13.0677083,27.6077009 11.9270833,26.6194196 10.46875,25.4899554 L5.53125,21.6395089 C1.84375,18.781622 0,15.5130208 0,11.8337054 C0,7.98325893 1.08854167,5.0483631 3.265625,3.02901786 C5.44270833,1.00967262 8.59375,0 12.71875,0 C17.7604167,0 21.3385417,1.10379464 23.453125,3.31138393 C25.5677083,5.51897321 26.625,8.6421131 26.625,13.1428571 L15.4375,13.1428571 L15.4375,10.2678571 C15.4375,9.65178571 15.2239583,9.17261905 14.796875,8.83035714 C14.3697917,8.48809524 13.7916667,8.31696429 13.0625,8.31696429 C12.1875,8.31696429 11.546875,8.51804315 11.140625,8.92020089 C10.734375,9.32235863 10.53125,9.84002976 10.53125,10.4732143 C10.53125,11.1063988 10.7395833,11.7909226 11.15625,12.5267857 C11.5729167,13.2626488 12.3958333,14.109747 13.625,15.0680804 L19.96875,20.0736607 C21.2395833,21.0662202 22.40625,22.1143973 23.46875,23.218192 C24.53125,24.3219866 25.3854167,25.6054688 26.03125,27.0686384 C26.6770833,28.531808 27,30.3158482 27,32.4207589 C27,36.6648065 26.046875,39.9890253 24.140625,42.3934152 C22.234375,44.7978051 18.9166667,46 14.1875,46 Z" id="Path"></path>
                    <path d="M44.0551136,46 C41.2539773,46 39.365625,45.4690315 38.3900568,44.4070946 C37.4144886,43.3451577 37.1875,41.7177177 37.1875,39.5247748 L37.1875,15.3074324 L34,15.3074324 L34,7.66666667 L37.1875,7.66666667 L37.1875,0 L46.75,0 L46.75,7.66666667 L49.9375,7.66666667 L49.9375,15.3074324 L46.75,15.3074324 L46.75,37.3490991 C46.75,37.987988 47.1267045,38.4369369 47.3585227,38.6959459 C47.5903409,38.954955 48.0346591,39.0844595 48.6914773,39.0844595 C49.1551136,39.0844595 50.6329545,39.0499249 51,38.9808559 L51,45.3006757 C50.7681818,45.3697447 48.98125,45.5035661 47.7642045,45.7021396 C46.5471591,45.9007132 45.3107955,46 44.0551136,46 Z" id="Path"></path>
                    <path d="M67.2955832,46 C64.7474519,46 62.8057758,45.4825936 61.4705549,44.4477807 C60.1353341,43.4129678 59.2231031,41.9945605 58.7338618,40.1925587 C58.2446206,38.390557 58,36.3476936 58,34.0639687 C58,31.6196693 58.2751982,29.6169495 58.8255946,28.0558094 C59.3759909,26.4946693 60.3187995,25.2145344 61.6540204,24.2154047 C62.9892412,23.216275 64.8289921,22.368799 67.1732729,21.6729765 L73.9614949,19.6390339 L73.9614949,15.517624 C73.9614949,13.3587903 73.1562854,12.2793734 71.5458664,12.2793734 C70.0781427,12.2793734 69.3442809,13.1536118 69.3442809,14.9020888 L69.3442809,17.310705 L58.7032843,17.310705 C58.6828992,17.1679721 58.6727067,16.9850957 58.6727067,16.7620757 C58.6727067,16.5390557 58.6727067,16.2848129 58.6727067,15.9993473 C58.6727067,12.0028285 59.7480181,9.17047433 61.898641,7.5022846 C64.0492639,5.83409487 67.4586636,5 72.1268403,5 C74.5730464,5 76.7644394,5.37913403 78.7010193,6.13740209 C80.6375991,6.89567015 82.1715742,8.01523064 83.3029445,9.49608355 C84.4343148,10.9769365 85,12.8057006 85,14.982376 L85,45.5718016 L74.1143828,45.5718016 L74.1143828,40.808094 C73.5843715,42.4852045 72.7078143,43.7697998 71.4847112,44.6618799 C70.2616082,45.55396 68.8652322,46 67.2955832,46 Z M71.6070215,38.5600522 C72.5039638,38.5600522 73.1155153,38.2299826 73.4416761,37.5698433 C73.7678369,36.9097041 73.9309173,36.19604 73.9309173,35.4288512 L73.9309173,24.2421671 C72.4224236,24.7774151 71.2502831,25.4509356 70.414496,26.2627285 C69.5787089,27.0745213 69.1608154,28.2654482 69.1608154,29.8355091 L69.1608154,35.0006527 C69.1608154,37.3735857 69.9762174,38.5600522 71.6070215,38.5600522 Z" id="Shape"></path>
                    <polygon id="Path" points="92 46 92 0 112 0 112 8.75132576 102 8.75132576 102 15.3333333 112 15.3333333 112 25.1904762 102 25.1904762 102 46"></polygon>
                    <path d="M120,7.66666667 L120,0 L131,0 L131,7.66666667 L120,7.66666667 Z M120,46 L120,12.047619 L131,12.047619 L131,46 L120,46 Z" id="Shape"></path>
                </g>
                <path d="M23.6023853,31.9361862 L23.581298,32.0019507 L25.7881609,32.118646 C27.1540783,32.1905197 28.4806487,32.3190777 29.7670404,32.5043141 L30.374298,32.5979507 L30.3793378,32.4858688 L33.5237614,33.2351294 L33.6696636,33.2783148 C35.15773,33.7839995 36.6380651,34.097499 38.1139495,34.2205849 L40.4363784,34.4142711 L37.8282785,46.0369507 L27.5948556,46.0369507 L23.206298,33.1969507 L19.1817157,46.0369507 L9.42575114,46.0369507 L6.98834893,34.3405898 L9.3702628,34.2558199 C10.9239195,34.2005268 12.318224,33.8908002 13.6468907,33.2968133 L13.8994001,33.2123628 L14.2818416,33.1168023 L15.8561154,32.7499027 L17.0603339,32.4710316 L17.061298,32.5569507 L17.5842945,32.4758943 C18.0857235,32.4021007 18.5938786,32.3374399 19.1093419,32.2818535 L19.8880908,32.2052724 L20.6612259,32.1436783 L22.795298,31.9929507 L22.7847183,31.9606068 L23.056298,31.9739507 L23.6023853,31.9361862 Z M35.8931737,0 L36.777992,0.0365621752 L47.4233695,0.476446988 L41.1889162,30 L39.435539,29.9343479 C37.4698449,29.8607459 35.2989795,29.4863055 32.8200765,28.7830183 L32.5275222,28.6648433 L31.285298,28.0483842 L29.0799249,27.4896077 C27.6439309,27.1257916 26.0739885,26.9236118 24.3688605,26.8850279 L23.6221615,26.8674567 L23.1893248,26.872546 L22.4246351,26.9118467 C20.9492649,26.9876723 19.579904,27.1915074 18.3154361,27.5220132 L15.485298,28.2617794 L14.9891988,28.5025747 L14.5935037,28.7000909 L14.4296777,28.7720196 C12.3572044,29.5689743 10.1968314,29.9689409 7.96404365,29.9689409 L7.56170941,29.9646585 L5.91903142,29.9298765 L0,0.0356792225 L10.3502506,0.0356792225 L15.799298,25.3138359 L20.1715269,13.5539265 L26.8971667,13.5539265 L31.567298,25.2472103 L35.8931737,0 Z" id="Combined-Shape-Copy"></path>
            </g>
        </g>
    </g>
</svg>