<svg viewBox="0 0 156 156" fill="none" xmlns="http://www.w3.org/2000/svg">
    <g opacity="0.9" filter="url(#filter0_d_1656:6923)">
        <path fill-rule="evenodd" clip-rule="evenodd" d="M8 90.6638C9.94789 93.7552 13.6431 96.8028 23.712 96.7882H121.665C125.46 96.7882 129.743 99.6317 131.247 103.161L147.489 141.613C148.978 145.142 147.102 148 143.306 148H42.9187C36.9462 147.621 31.4033 146.046 28.8395 139.98L8 90.6638ZM92.2317 11.1194L108.66 50.0532C110.149 53.5966 109.218 58.7002 106.569 61.4708L82.7501 86.858H28.596C20.0167 86.96 14.9322 83.6499 22.2224 75.5861L84.7553 9.73413C87.3907 6.96357 90.7422 7.57601 92.2317 11.1194Z" fill="url(#paint0_linear_1656:6923)">
        </path>
    </g>
    <defs>
        <filter id="filter0_d_1656:6923" x="0" y="0" width="156" height="156" filterUnits="userSpaceOnUse" color-interpolation-filters="sRGB">
            <feFlood flood-opacity="0" result="BackgroundImageFix"></feFlood>
            <feColorMatrix in="SourceAlpha" type="matrix" values="0 0 0 0 0 0 0 0 0 0 0 0 0 0 0 0 0 0 127 0" result="hardAlpha"></feColorMatrix>
            <feOffset></feOffset>
            <feGaussianBlur stdDeviation="4"></feGaussianBlur>
            <feComposite in2="hardAlpha" operator="out"></feComposite>
            <feColorMatrix type="matrix" values="0 0 0 0 0.0196078 0 0 0 0 0.788235 0 0 0 0 0.607843 0 0 0 0.51 0"></feColorMatrix>
            <feBlend mode="normal" in2="BackgroundImageFix" result="effect1_dropShadow_1656:6923"></feBlend>
            <feBlend mode="normal" in="SourceGraphic" in2="effect1_dropShadow_1656:6923" result="shape"></feBlend>
        </filter>
        <linearGradient id="paint0_linear_1656:6923" x1="248.732" y1="78" x2="-24.0514" y2="196.649" gradientUnits="userSpaceOnUse">
            <stop stop-color="#FEF47A"></stop>
            <stop offset="0.151042" stop-color="#92E28E"></stop><stop offset="1" stop-color="#07CAA7"></stop>
        </linearGradient>
    </defs>
</svg>