
<svg xmlns="http://www.w3.org/2000/svg" viewBox="0 0 310.08 75.32"><defs><style>.cls-1{fill:#04045a;}</style></defs><g id="Layer_2" data-name="Layer 2"><g id="Layer_1-2" data-name="Layer 1"><path class="cls-1" d="M45.37,6.3A27.73,27.73,0,0,0,27.77,0,27.64,27.64,0,0,0,10.15,6.3a27.75,27.75,0,0,0,4.61,46c.1.32.2.64.32,1a14.51,14.51,0,0,0,1.78,3.42,4,4,0,0,0,2.35,1.58,4.06,4.06,0,0,0,4.91-3,15,15,0,0,0,.35-3.84,22.64,22.64,0,0,0-.4-3.69A5.05,5.05,0,0,0,21.16,44L21,44a17.66,17.66,0,0,1-8.58-8A17.42,17.42,0,1,1,45,24.32a17.64,17.64,0,0,1-1.49,11.73,18.34,18.34,0,0,1-8.6,8.29l-.07,0-.45.22c-.15.08-.29.17-.43.26l-.32.25a4.49,4.49,0,0,0-.39.36,4.67,4.67,0,0,0-.86,1.18l-.14.26-.07.17L32,47.4a5.23,5.23,0,0,0-.2.6,15.1,15.1,0,0,0-.32,1.72c-.09,1-.13,1.84-.16,2.68l-.07,4.78c0,1.55-.05,3.09-.07,4.62a11.28,11.28,0,0,1-1.13,4.61l0,0A6.09,6.09,0,1,0,40.66,66a9.57,9.57,0,0,1-1.39-4.33c-.08-1.46-.14-2.91-.09-4.34a27.72,27.72,0,0,1,.37-4.15c.05-.3.11-.58.17-.85A27.16,27.16,0,0,0,52.14,40.6,27.46,27.46,0,0,0,45.37,6.3Z"/><path class="cls-1" d="M34.89,34.92l-7.06-7.06-7.07-7.07-.57-.57A10.8,10.8,0,0,0,35.46,35.49Z"/><path class="cls-1" d="M220.85,44.82h-20V10.66a4.5,4.5,0,1,0-9,0V49.32a4.51,4.51,0,0,0,4.5,4.5h24.48a4.5,4.5,0,1,0,0-9Z"/><path class="cls-1" d="M260.09,6.16H235a4.5,4.5,0,0,0,0,9h25.14a4.5,4.5,0,0,0,0-9Z"/><path class="cls-1" d="M254.17,34.49a4.5,4.5,0,1,0,0-9h-13.3a4.5,4.5,0,1,0,0,9Z"/><path class="cls-1" d="M260.09,44.82H235a4.5,4.5,0,0,0,0,9h25.14a4.5,4.5,0,0,0,0-9Z"/><path class="cls-1" d="M135.77,6.16a4.5,4.5,0,0,0-4.5,4.5v14.7H112.06V10.66a4.49,4.49,0,0,0-4.5-4.5H66.9a4.5,4.5,0,0,0,0,9H79.58V49.32a4.5,4.5,0,1,0,9,0V15.16h14.48V49.32a4.5,4.5,0,0,0,9,0v-15h19.21v15a4.5,4.5,0,0,0,9,0V10.66A4.49,4.49,0,0,0,135.77,6.16Z"/><path class="cls-1" d="M298.08,25.49h-16a3,3,0,0,1-3-3V18.15a3,3,0,0,1,3-3h16.64a4.5,4.5,0,0,0,0-9H282.12a12,12,0,0,0-12,12v4.34a12,12,0,0,0,12,12h16a3,3,0,0,1,3,3v4.34a3,3,0,0,1-3,3H274.63a4.5,4.5,0,0,0,0,9h23.45a12,12,0,0,0,12-12V37.48A12,12,0,0,0,298.08,25.49Z"/><path class="cls-1" d="M169.72,8.9a4.5,4.5,0,0,0-8.28,0L145,47.56a4.5,4.5,0,0,0,4.14,6.26H182a4.5,4.5,0,0,0,4.14-6.26ZM156,44.82l9.61-22.65,9.61,22.65Z"/></g></g></svg>