<svg width="1200" height="600" viewBox="0 0 1200 600" fill="none" xmlns="http://www.w3.org/2000/svg"><path d="M535 206H575V366H615V166H575C553 166 535 184 535 206Z" fill="#1B314F"/><path d="M655 366H695V286C695 264 677 246 655 246V366Z" fill="#1B314F"/><path d="M735 246V366H775V286H815V326C815 348 833 366 855 366V286C855 264 837 246 815 246H735Z" fill="#1B314F"/><path d="M1095 246H1055V206C1055 184 1037 166 1015 166V326H935V286H975V246H935C913 246 895 264 895 286V326C895 348 913 366 935 366H1055V286H1095V326C1095 348 1113 366 1135 366V286C1135 264 1117 246 1095 246Z" fill="#1B314F"/><path d="M655 206H695C695 184 677 166 655 166V206Z" fill="#1B314F"/><path d="M591.577 433.573H575V406.427H591.177V410.886H579.913V417.634H589.979V422.094H579.913V429.114H591.577V433.573Z" fill="#2F7AEA"/><path d="M664.244 406.427H669.996L660.569 419.729L670.355 433.573H664.603L657.373 423.374L650.183 433.573H644.431L654.218 419.729L644.871 406.427H650.623L657.493 416.238L664.244 406.427Z" fill="#2F7AEA"/><path d="M742.488 427.368L744.365 430.936C743.487 431.841 742.222 432.578 740.571 433.147C738.946 433.716 737.229 434 735.418 434C731.157 434 727.682 432.72 724.992 430.161C722.329 427.601 720.998 424.214 720.998 420C720.998 415.967 722.263 412.619 724.793 409.956C727.296 407.319 730.798 406 735.298 406C738.866 406 741.702 406.918 743.806 408.753L741.609 412.283C739.719 411.067 737.615 410.46 735.298 410.46C732.635 410.46 730.451 411.326 728.747 413.058C727.043 414.79 726.191 417.104 726.191 420C726.191 422.844 727.083 425.145 728.867 426.903C730.678 428.661 733.008 429.54 735.857 429.54C738.307 429.54 740.517 428.816 742.488 427.368Z" fill="#2F7AEA"/><path d="M821.749 433.573H816.875V421.978H804.093V433.573H799.18V406.427H804.093V417.518H816.875V406.427H821.749V433.573Z" fill="#2F7AEA"/><path d="M880.778 433.573H875.825L887.648 406.349H891.962L903.786 433.573H898.553L895.637 426.632H883.694L880.778 433.573ZM893.76 422.172L889.686 412.515L885.571 422.172H893.76Z" fill="#2F7AEA"/><path d="M981.791 406.427V433.573H977.877L962.498 414.765V433.573H957.904V406.427H961.819L977.198 425.313V406.427H981.791Z" fill="#2F7AEA"/><path d="M1057.84 423.413H1051.09V418.953H1062.44V430.199C1061.24 431.363 1059.64 432.294 1057.65 432.992C1055.65 433.664 1053.76 434 1051.97 434C1047.45 434 1043.88 432.733 1041.27 430.199C1038.68 427.692 1037.39 424.292 1037.39 420C1037.39 416.018 1038.67 412.696 1041.23 410.033C1043.78 407.344 1047.15 406 1051.33 406C1054.9 406 1057.9 406.918 1060.32 408.753L1058.24 412.554C1057.55 411.908 1056.63 411.404 1055.49 411.042C1054.34 410.654 1053.16 410.46 1051.93 410.46C1049.14 410.46 1046.89 411.313 1045.18 413.019C1043.45 414.7 1042.59 417.027 1042.59 420C1042.59 422.87 1043.45 425.184 1045.18 426.942C1046.89 428.674 1049.18 429.54 1052.05 429.54C1053.06 429.54 1054.16 429.359 1055.33 428.997C1056.5 428.609 1057.34 428.17 1057.84 427.679V423.413Z" fill="#2F7AEA"/><path d="M1135 433.573H1118.42V406.427H1134.6V410.886H1123.34V417.634H1133.4V422.094H1123.34V429.114H1135V433.573Z" fill="#2F7AEA"/><path d="M169.449 319.147L179.949 240.069L88.73 176.741L172.074 204.96L191.761 174.772L263.621 130.147L422.105 217.429L430.308 350.647L359.761 448.757L303.98 457.288L332.855 404.46V353.601L311.855 313.897L290.527 299.788L257.714 333.585V369.351L232.121 393.304L199.636 397.241L185.199 405.444L161.574 397.898L151.73 362.46L169.449 337.522V319.147Z" fill="white"/><path d="M315.136 176.085C297.746 172.475 278.715 173.46 278.715 173.46C278.715 173.46 272.48 202.335 233.761 209.882C234.09 209.882 284.949 227.272 315.136 176.085Z" fill="#94A6C3"/><path d="M330.886 437.929C351.886 421.523 367.636 398.882 374.855 373.288C375.183 372.304 378.136 370.663 380.105 369.351C383.386 367.382 386.667 365.741 387.324 363.116C388.636 355.569 389.292 347.695 389.292 339.82C389.292 336.866 386.339 333.913 383.386 330.96C381.089 328.991 378.792 326.694 378.792 325.054C375.511 295.194 361.73 267.304 339.746 246.96L337.449 249.257C358.777 269.273 372.558 296.507 375.511 325.382C375.839 328.007 378.464 330.632 381.089 333.257C383.386 335.226 386.011 338.179 386.011 339.491C386.011 347.038 385.355 354.585 384.042 362.132C383.714 363.445 380.761 364.757 378.464 366.07C375.183 367.71 372.23 369.351 371.574 371.976C363.699 399.866 345.652 424.148 321.699 439.898C325.964 430.71 339.417 400.851 346.636 385.757L345.324 337.195L303.652 296.835L280.027 300.116L254.105 342.116C254.105 342.116 266.246 357.538 249.183 375.585C232.449 393.304 219.324 397.241 219.324 397.241L207.183 390.679C210.792 386.085 218.011 379.195 223.589 374.601C233.105 366.726 242.621 366.07 242.621 357.538C242.949 339.82 223.917 344.741 223.917 344.741L217.027 351.304L214.074 375.585L199.636 393.632L197.996 393.304L174.371 388.054C174.371 388.054 188.808 380.507 191.105 371.976C193.402 363.773 186.511 336.538 186.183 334.898C186.511 335.226 193.074 340.804 196.027 349.991C201.277 335.554 208.167 321.773 210.136 320.46C212.105 319.148 238.683 305.038 238.683 305.038L229.824 328.335L236.386 324.726L252.136 286.007C252.136 286.007 267.558 278.46 279.042 278.46C299.714 278.132 330.23 252.866 316.449 207.585C320.386 209.226 388.636 243.351 400.449 310.288C409.308 361.804 380.105 410.038 330.886 437.929Z" fill="#94A6C3"/><path d="M252.793 183.304C260.34 174.444 257.386 161.319 257.386 161.319L235.402 193.804C235.074 193.804 243.277 194.132 252.793 183.304Z" fill="#1B314F"/><path d="M178.964 360.82L181.589 347.695C181.589 347.695 170.761 366.726 169.777 369.351C168.793 372.305 170.433 377.555 174.699 377.226C178.964 376.898 184.214 370.664 184.214 366.07C184.214 360.164 178.964 360.82 178.964 360.82Z" fill="#1B314F"/><path d="M373.871 152.132C373.871 152.132 390.277 152.789 407.339 154.757C368.949 124.57 332.527 115.71 302.996 115.71C262.308 115.71 234.746 132.445 233.105 133.429L245.902 113.085C245.902 113.085 194.714 108.164 176.667 162.304C172.074 150.82 167.808 134.085 167.808 134.085C167.808 134.085 141.23 157.382 153.699 196.101C123.183 184.945 79.5425 169.523 77.9019 169.195C75.605 168.867 74.9488 169.851 74.9488 169.851C74.9488 169.851 74.2925 170.835 76.2613 172.476C79.8706 175.429 148.777 226.289 163.871 236.132C160.589 247.945 160.589 253.523 163.871 259.101C168.464 266.648 168.792 270.585 168.136 276.164C167.48 281.742 161.574 329.976 160.261 335.882C158.949 341.789 145.167 362.789 145.824 369.023C146.48 375.257 155.011 401.835 162.558 404.789C168.136 406.757 181.918 411.023 191.105 411.023C194.386 411.023 197.339 410.367 198.652 409.054C204.23 404.132 205.871 403.148 209.808 403.148C210.136 403.148 210.464 403.148 210.793 403.148C212.433 403.148 214.402 403.476 216.699 403.476C221.949 403.476 228.839 402.492 233.761 397.898C240.98 390.679 253.449 380.835 257.386 376.242C262.308 370.007 264.933 361.476 263.621 352.945C262.636 345.07 266.902 338.179 271.824 331.289C278.058 323.085 289.542 308.32 289.542 308.32C312.183 325.382 326.292 351.304 326.292 380.179C326.292 431.367 281.668 472.71 226.543 472.71C218.011 472.71 209.808 471.726 201.605 469.757C226.871 478.617 248.199 481.57 265.589 481.57C302.668 481.57 322.355 468.117 322.355 468.117C322.355 468.117 315.464 476.976 304.308 487.148C304.636 487.148 304.636 487.148 304.636 487.148C365.996 478.617 395.855 428.085 395.855 428.085C395.855 428.085 393.558 444.492 390.605 455.648C472.308 394.289 458.527 317.507 458.199 314.882C458.855 315.867 467.058 325.71 471.324 330.96C484.449 195.773 373.871 152.132 373.871 152.132ZM248.199 368.039C246.886 369.679 241.308 374.601 237.371 378.21C233.433 381.82 229.168 385.429 225.886 388.71C224.574 390.023 221.949 390.679 218.011 390.679C216.699 390.679 215.386 390.679 214.402 390.679C213.746 390.679 213.089 390.679 212.433 390.679C211.777 390.679 211.449 390.679 211.121 390.679C210.136 390.679 209.152 390.679 208.167 390.679C213.089 384.117 227.527 369.023 232.449 365.742C238.355 361.804 241.308 357.867 237.699 350.976C234.089 344.085 224.574 345.726 224.574 345.726C224.574 345.726 230.152 343.429 235.074 343.429C228.839 341.789 220.964 343.429 217.355 347.039C213.418 350.648 214.074 363.445 212.433 371.648C210.793 380.179 205.214 384.445 196.683 392.32C192.089 396.585 188.808 397.898 186.183 397.898C180.605 396.914 174.042 395.273 169.449 393.632C166.167 389.367 161.246 375.257 159.933 369.351C160.917 366.07 164.855 359.179 166.824 355.242C170.761 347.695 173.058 343.429 173.714 339.492C175.027 333.914 179.293 299.46 180.933 285.023C185.199 290.601 191.105 299.789 189.793 305.695C199.308 292.242 192.418 279.117 189.136 273.867C186.183 268.617 182.246 258.117 185.527 246.96C188.808 235.804 200.621 204.96 200.621 204.96C200.621 204.96 204.558 211.851 210.136 210.539C215.714 209.226 260.667 141.632 260.667 141.632C260.667 141.632 272.808 168.21 260.011 187.57C246.886 206.929 234.089 210.539 234.089 210.539C234.089 210.539 252.136 213.82 268.871 201.679C275.761 217.757 282.324 234.492 282.652 236.789C281.668 239.085 268.542 270.585 267.23 272.554C266.574 273.21 261.98 274.523 258.699 275.179C253.121 276.82 249.839 277.804 248.527 278.789C246.23 280.757 235.73 309.632 230.808 323.742C224.902 325.382 218.996 328.664 214.73 335.226C217.027 333.585 224.246 332.601 229.496 331.945C234.089 331.617 248.199 339.164 251.808 353.273C251.808 353.601 251.808 353.601 251.808 353.929C252.464 359.179 250.824 364.101 248.199 368.039ZM217.355 371.976C220.308 367.71 219.98 360.492 220.308 358.195C220.636 355.898 221.293 351.632 223.918 350.976C226.543 350.32 232.777 351.304 232.777 355.898C232.777 360.164 228.183 361.148 224.902 364.101C222.605 366.398 218.011 371.32 217.355 371.976ZM348.277 309.304C351.558 292.57 351.886 278.132 350.902 266.32C363.699 283.382 371.574 304.054 373.871 325.382C374.199 328.007 376.824 330.632 379.449 333.257C381.746 335.226 384.371 337.851 384.371 339.492C384.371 347.039 383.714 354.585 382.402 362.132C382.074 363.117 379.121 364.757 376.824 366.07C373.542 367.71 370.589 369.351 369.933 371.976C362.714 397.242 347.292 419.554 326.621 435.304C357.136 403.476 371.902 350.976 348.277 309.304ZM327.605 438.257C348.933 421.851 365.339 398.882 372.558 372.96C372.886 371.976 375.839 370.335 377.808 369.023C381.089 367.382 384.371 365.414 385.027 362.789C386.339 355.242 386.996 347.367 386.996 339.492C386.996 336.539 384.043 333.585 381.089 330.632C379.449 328.664 376.824 326.367 376.824 324.726C374.199 300.773 364.683 278.132 349.918 259.429C343.355 220.054 317.105 207.914 316.449 207.585C317.105 208.57 334.167 233.179 322.355 262.054C310.214 291.257 279.043 286.664 276.418 286.992C273.793 286.992 263.621 300.117 250.824 324.398C249.183 323.742 242.293 322.101 234.417 323.414C240.324 307.007 249.183 283.71 250.824 281.742C251.48 281.085 256.402 279.773 259.683 278.789C265.918 277.148 268.871 276.164 269.855 274.851C270.511 273.867 273.792 266.32 277.074 258.445C280.027 258.445 287.574 257.789 288.23 257.46C288.886 256.804 295.121 240.726 295.121 238.757C295.121 237.117 282.324 205.289 277.402 193.148C279.699 190.523 281.996 187.242 284.293 183.632C351.558 190.851 404.058 247.945 404.058 317.179C404.058 370.335 372.886 416.601 327.605 438.257Z" fill="#1B314F"/><path d="M240.324 261.07C246.558 253.851 243.277 240.398 231.793 238.101C234.746 231.21 239.011 217.429 239.011 217.429C239.011 217.429 205.543 269.929 202.589 270.913C199.636 271.898 196.683 260.413 196.683 260.413C190.449 284.367 207.183 287.648 209.152 280.101C218.339 277.804 234.089 267.96 240.324 261.07Z" fill="#1B314F"/><path d="M211.777 273.867L228.839 244.664C228.839 244.664 238.683 249.586 233.761 257.461C227.527 266.648 211.777 273.867 211.777 273.867Z" fill="#FFD923"/><path d="M422.761 409.054C417.839 415.617 412.261 422.507 405.699 429.07C448.027 347.695 407.668 273.21 406.027 270.257C408.98 273.21 411.933 276.492 414.558 279.445C447.043 315.539 450.98 369.679 422.761 409.054Z" fill="#D82122"/><path d="M462.136 304.382C447.371 264.679 426.371 230.882 380.105 200.367C335.48 170.835 287.574 173.132 284.949 173.46C284.621 173.46 284.293 173.46 284.293 173.46C285.933 172.804 287.574 172.476 289.214 172.148C299.386 168.867 312.511 166.242 325.636 164.601C360.418 159.679 395.527 171.492 419.48 196.757C419.808 197.085 419.808 197.085 420.136 197.413C447.371 226.288 461.48 262.382 462.136 304.382Z" fill="#D82122"/><path d="M369.605 141.961C320.714 132.774 289.214 137.367 266.574 145.899C265.918 143.274 263.621 138.024 261.652 133.758C254.761 141.961 247.543 151.805 242.949 158.039C230.48 166.571 225.23 174.774 225.23 174.774C232.449 150.164 253.449 131.789 279.043 127.196C286.261 125.883 294.136 125.227 302.668 125.227C325.308 125.555 347.949 131.133 369.605 141.961Z" fill="#D82122"/><path d="M188.808 204.961C150.418 203.649 163.215 159.024 163.871 156.399C163.871 156.727 166.496 191.508 188.808 204.961Z" fill="#D82122"/><path d="M226.543 124.57C197.011 142.289 202.918 184.617 202.918 184.617C174.699 141.633 224.246 125.554 226.543 124.57Z" fill="#D82122"/><path d="M177.98 216.773C179.949 218.414 181.918 221.367 179.621 225.632C178.308 227.929 176.34 227.601 173.386 226.289C169.449 224.32 145.824 210.539 124.496 196.429C148.777 204.96 173.386 214.148 177.324 216.117C177.324 216.117 177.652 216.445 177.98 216.773Z" fill="white"/></svg>
