<?xml version="1.0" standalone="no"?>
<!DOCTYPE svg PUBLIC "-//W3C//DTD SVG 20010904//EN"
 "http://www.w3.org/TR/2001/REC-SVG-20010904/DTD/svg10.dtd">
<svg version="1.0" xmlns="http://www.w3.org/2000/svg"
 width="247.000000pt" height="76.000000pt" viewBox="0 0 247.000000 76.000000"
 preserveAspectRatio="xMidYMid meet">

<g transform="translate(0.000000,76.000000) scale(0.100000,-0.100000)"
fill="#000000" stroke="none">
<path d="M180 467 c0 -2 -13 -40 -29 -84 -16 -47 -24 -86 -19 -91 15 -15 -30
-45 -67 -44 -19 1 -35 -2 -35 -6 0 -19 61 -101 104 -140 112 -103 280 -126
415 -58 50 26 139 114 165 164 20 39 20 39 -6 40 -28 0 -78 19 -79 29 -5 58
-36 170 -49 178 -5 3 -6 -9 -3 -28 10 -67 -13 -116 -100 -204 -44 -46 -85 -82
-91 -80 -5 2 -17 19 -28 37 -25 48 -24 125 3 170 l21 35 -25 -23 c-26 -24 -37
-48 -54 -112 l-9 -35 -46 45 c-52 51 -74 110 -64 172 4 21 4 38 1 38 -3 0 -5
-1 -5 -3z"/>
<path d="M1026 333 c-3 -4 -6 -42 -6 -85 0 -70 2 -78 19 -78 25 0 31 19 31 99
0 58 -2 67 -19 68 -10 1 -22 -1 -25 -4z"/>
<path d="M1152 315 c19 -43 57 -43 76 1 13 27 -3 34 -27 12 -8 -7 -11 -8 -8
-2 4 7 -5 11 -23 12 -27 1 -28 -1 -18 -23z"/>
<path d="M1310 261 c0 -78 6 -91 41 -91 5 0 9 38 9 85 0 84 0 85 -25 85 -25 0
-25 -1 -25 -79z"/>
<path d="M1456 261 c-18 -52 -23 -78 -16 -85 17 -17 43 6 60 53 l15 42 84 -3
84 -3 14 -42 c14 -41 46 -65 63 -46 12 11 -42 163 -58 163 -8 0 -10 -5 -6 -12
5 -8 0 -7 -11 2 -14 11 -19 12 -22 3 -5 -15 -123 -19 -123 -4 0 4 -13 8 -28 7
-26 -1 -31 -7 -56 -75z"/>
<path d="M2018 320 c45 -43 12 -100 -58 -100 -32 0 -48 7 -79 35 -40 36 -55
42 -66 25 -9 -14 20 -65 51 -89 55 -43 148 -39 196 9 23 24 28 37 28 79 0 34
-4 51 -12 52 -7 1 -28 3 -47 5 l-35 4 22 -20z"/>
<path d="M2160 302 c0 -93 101 -165 189 -134 22 8 39 7 60 -1 41 -15 63 3 37
31 -13 15 -14 25 -6 46 5 15 10 42 10 59 0 27 -4 32 -25 33 -21 2 -25 -3 -25
-25 0 -33 -15 -58 -24 -42 -8 13 -53 15 -60 2 -3 -5 1 -14 9 -21 24 -20 18
-30 -19 -30 -46 0 -85 33 -92 79 -5 30 -10 37 -30 39 -21 2 -24 -2 -24 -36z"/>
</g>
</svg>
