<svg version="1.0" xmlns="http://www.w3.org/2000/svg"
 width="1008.000000pt" height="968.000000pt" viewBox="0 0 1008.000000 968.000000"
 preserveAspectRatio="xMidYMid meet">

<g transform="translate(0.000000,968.000000) scale(0.100000,-0.100000)"
fill="#333" stroke="none">
<path d="M2652 7807 l-362 -362 458 -458 459 -458 -38 -112 c-49 -147 -69
-270 -69 -433 0 -531 278 -983 770 -1252 198 -108 538 -230 915 -327 736 -189
849 -222 994 -290 198 -94 296 -196 337 -350 18 -67 17 -217 -1 -289 -46 -175
-195 -351 -380 -447 -250 -131 -685 -167 -1013 -83 -122 30 -295 115 -382 186
-177 146 -315 398 -376 689 -10 46 -18 85 -19 87 -3 4 -1027 -96 -1032 -102
-4 -3 -1 -45 6 -93 32 -231 113 -506 206 -697 l54 -111 -445 -445 -444 -445
363 -363 362 -362 459 459 458 458 79 -33 c418 -176 1045 -231 1653 -143 146
21 357 71 468 112 l66 24 439 -439 438 -438 362 362 363 363 -407 407 -406
406 51 104 c106 213 150 394 159 643 16 475 -107 833 -387 1128 -292 307 -621
453 -1550 687 -655 164 -937 277 -1049 419 -111 140 -121 336 -24 479 56 83
194 172 344 222 169 57 453 83 664 61 445 -47 669 -237 767 -653 12 -51 23
-94 24 -96 2 -3 726 23 943 34 l124 6 -7 87 c-14 177 -49 335 -113 500 l-35
93 451 452 451 451 -362 363 -363 362 -456 -456 -457 -457 -111 42 c-273 102
-537 147 -926 158 -425 11 -798 -44 -1084 -160 l-106 -43 -460 458 -460 458
-363 -363z"/>
</g>
</svg>
