<svg width="408" height="160" viewBox="0 0 408 160" fill="none" xmlns="http://www.w3.org/2000/svg">
<rect width="408" height="160" fill="white"/>
<path d="M130.68 59.1574L128.13 61.7004L131.356 64.9178L134.589 68.1351L134.321 68.9219C133.976 69.9545 133.835 70.8186 133.835 71.9636C133.835 75.6938 135.793 78.869 139.259 80.7587C140.654 81.5174 143.048 82.3744 145.704 83.0558C150.888 84.3835 151.684 84.6153 152.705 85.093C154.1 85.7533 154.79 86.4698 155.079 87.5517C155.206 88.0223 155.199 89.076 155.072 89.5818C154.748 90.8112 153.698 92.0475 152.395 92.7219C150.634 93.6421 147.57 93.895 145.26 93.305C144.401 93.0942 143.182 92.4971 142.569 91.9983C141.323 90.9727 140.351 89.2025 139.921 87.1583C139.851 86.8351 139.794 86.5612 139.787 86.5471C139.766 86.519 132.553 87.2215 132.518 87.2636C132.49 87.2847 132.511 87.5798 132.56 87.9169C132.786 89.5397 133.356 91.4715 134.011 92.8132L134.392 93.593L131.257 96.719L128.13 99.845L130.687 102.395L133.237 104.938L136.47 101.714L139.696 98.4963L140.252 98.7281C143.196 99.9645 147.613 100.351 151.895 99.7326C152.924 99.5851 154.41 99.2339 155.192 98.9459L155.657 98.7773L158.749 101.861L161.834 104.938L164.384 102.395L166.94 99.845L164.074 96.9859L161.214 94.1339L161.573 93.4033C162.32 91.907 162.63 90.6355 162.693 88.8864C162.806 85.5496 161.939 83.0347 159.967 80.9624C157.91 78.8058 155.593 77.7802 149.05 76.1364C144.436 74.9843 142.45 74.1905 141.661 73.193C140.879 72.2095 140.809 70.8326 141.492 69.8281C141.886 69.245 142.858 68.6198 143.915 68.2686C145.105 67.8682 147.106 67.6855 148.592 67.8401C151.726 68.1702 153.304 69.505 153.994 72.4273C154.079 72.7855 154.156 73.0876 154.163 73.1017C154.177 73.1227 159.277 72.9401 160.805 72.8628L161.679 72.8207L161.63 72.2095C161.531 70.9661 161.284 69.8562 160.834 68.6971L160.587 68.0438L163.764 64.8686L166.94 61.7004L164.391 59.1504L161.834 56.6074L158.622 59.8107L155.403 63.0211L154.621 62.726C152.698 62.0095 150.839 61.6934 148.099 61.6161C145.105 61.5388 142.478 61.9252 140.463 62.7401L139.717 63.0421L136.477 59.8248L133.237 56.6074L130.68 59.1574Z" fill="#333333"/>
<path d="M192.44 66.54V79.32H212.72V85.92H192.44V102H184.64V60H215.3V66.54H192.44ZM248.424 102L237.024 86.04L225.744 102H216.864L232.464 80.58L217.704 60H226.524L237.264 74.94L247.884 60H256.344L241.644 80.28L257.424 102H248.424ZM275.824 102.6C272.584 102.6 269.444 102.14 266.404 101.22C263.404 100.3 261.024 99.08 259.264 97.56L261.964 91.5C263.684 92.86 265.784 93.98 268.264 94.86C270.784 95.7 273.304 96.12 275.824 96.12C278.944 96.12 281.264 95.62 282.784 94.62C284.344 93.62 285.124 92.3 285.124 90.66C285.124 89.46 284.684 88.48 283.804 87.72C282.964 86.92 281.884 86.3 280.564 85.86C279.244 85.42 277.444 84.92 275.164 84.36C271.964 83.6 269.364 82.84 267.364 82.08C265.404 81.32 263.704 80.14 262.264 78.54C260.864 76.9 260.164 74.7 260.164 71.94C260.164 69.62 260.784 67.52 262.024 65.64C263.304 63.72 265.204 62.2 267.724 61.08C270.284 59.96 273.404 59.4 277.084 59.4C279.644 59.4 282.164 59.72 284.644 60.36C287.124 61 289.264 61.92 291.064 63.12L288.604 69.18C286.764 68.1 284.844 67.28 282.844 66.72C280.844 66.16 278.904 65.88 277.024 65.88C273.944 65.88 271.644 66.4 270.124 67.44C268.644 68.48 267.904 69.86 267.904 71.58C267.904 72.78 268.324 73.76 269.164 74.52C270.044 75.28 271.144 75.88 272.464 76.32C273.784 76.76 275.584 77.26 277.864 77.82C280.984 78.54 283.544 79.3 285.544 80.1C287.544 80.86 289.244 82.04 290.644 83.64C292.084 85.24 292.804 87.4 292.804 90.12C292.804 92.44 292.164 94.54 290.884 96.42C289.644 98.3 287.744 99.8 285.184 100.92C282.624 102.04 279.504 102.6 275.824 102.6Z" fill="#333333"/>
</svg>
