<svg width="1105" height="249" viewBox="0 0 1105 249" fill="none" xmlns="http://www.w3.org/2000/svg">
<path d="M326 16H372.4V232.147H326V16Z" fill="black"/>
<path d="M496.923 71.5807C515.483 71.5807 530.744 77.3447 542.705 88.8725C554.666 100.4 560.646 119.442 560.646 145.997V232.147H517.03V148.467C517.03 121.089 506.307 107.399 484.86 107.399C473.517 107.399 464.753 111.208 458.566 118.824C452.38 126.441 449.286 137.145 449.286 150.938V232.147H405.67V73.4334H443.718L447.74 93.1955C453.308 86.4023 460.01 81.153 467.846 77.4476C475.683 73.5363 485.375 71.5807 496.923 71.5807Z" fill="black"/>
<path d="M747.126 16V232.147H709.078L704.747 210.224C692.58 226.075 676.082 234 655.254 234C641.231 234 628.651 230.706 617.515 224.119C606.379 217.326 597.615 207.754 591.222 195.402C585.035 183.051 581.942 168.744 581.942 152.482C581.942 136.425 585.035 122.324 591.222 110.178C597.615 97.8272 606.379 88.3579 617.515 81.7705C628.857 74.9773 641.54 71.5807 655.563 71.5807C676.185 71.5807 692.168 78.7856 703.51 93.1955V16H747.126ZM665.462 198.49C677.216 198.49 686.6 194.373 693.611 186.139C700.623 177.699 704.128 166.686 704.128 153.099C704.128 139.307 700.623 128.191 693.611 119.751C686.6 111.311 677.216 107.091 665.462 107.091C653.707 107.091 644.221 111.311 637.003 119.751C629.992 128.191 626.486 139.204 626.486 152.79C626.486 166.377 629.992 177.39 637.003 185.83C644.221 194.27 653.707 198.49 665.462 198.49Z" fill="black"/>
<path d="M771.348 153.099C771.348 136.631 774.647 122.324 781.247 110.178C788.052 97.8272 797.435 88.3579 809.396 81.7705C821.563 74.9773 835.586 71.5807 851.465 71.5807C867.551 71.5807 881.677 74.7715 893.844 81.153C906.217 87.3286 915.807 96.1804 922.612 107.708C929.623 119.03 933.232 132.411 933.439 147.85C933.439 153.408 933.026 158.348 932.201 162.671H816.82V163.907C817.851 175.434 821.563 184.492 827.956 191.079C834.349 197.667 843.113 200.96 854.249 200.96C863.117 200.96 870.438 199.108 876.212 195.402C882.192 191.491 886.111 185.83 887.967 178.419H930.964C929.314 188.918 925.293 198.387 918.9 206.827C912.507 215.267 904.052 221.957 893.535 226.898C883.017 231.633 870.953 234 857.343 234C839.607 234 824.244 230.706 811.252 224.119C798.466 217.532 788.567 208.165 781.556 196.02C774.751 183.669 771.348 169.362 771.348 153.099ZM889.823 134.263C888.379 124.588 884.358 117.178 877.759 112.031C871.366 106.679 863.22 104.003 853.321 104.003C843.835 104.003 835.792 106.782 829.193 112.34C822.8 117.692 818.985 125 817.748 134.263H889.823Z" fill="black"/>
<path d="M994.877 151.246L938.579 73.4334H988.381L1021.48 120.368L1055.2 73.4334H1101.91L1045.92 151.246L1105 232.147H1055.2L1018.7 182.433L982.504 232.147H935.795L994.877 151.246Z" fill="black"/>
<path fill-rule="evenodd" clip-rule="evenodd" d="M125 249C194.036 249 250 193.259 250 124.5C250 55.7405 194.036 0 125 0C55.9644 0 0 55.7405 0 124.5C0 193.259 55.9644 249 125 249ZM125 206.261C175.489 206.261 216.418 165.599 216.418 115.439C216.418 65.2787 175.489 44.597 125 44.597C74.5113 44.597 33.5821 65.2787 33.5821 115.439C33.5821 165.599 74.5113 206.261 125 206.261Z" fill="black"/>
<path fill-rule="evenodd" clip-rule="evenodd" d="M70.8954 130.074C76.254 130.074 81.1328 128.028 84.7879 124.679C86.7779 128.222 88.9384 131.976 91.1864 135.735C95.9626 143.723 101.258 151.944 106.236 158.246C108.709 161.377 111.289 164.273 113.851 166.455C116.072 168.347 119.685 170.954 124.067 170.954C128.411 170.954 132.045 168.383 134.294 166.514C136.897 164.351 139.547 161.474 142.107 158.35C147.258 152.064 152.788 143.855 157.798 135.871C160.269 131.933 162.644 128.001 164.82 124.31C168.515 127.878 173.552 130.074 179.104 130.074C190.439 130.074 199.627 120.923 199.627 109.634C199.627 98.3448 190.439 89.1934 179.104 89.1934C169.868 89.1934 162.056 95.271 159.481 103.63C158.974 104.542 158.423 105.528 157.832 106.576C154.528 112.439 150.013 120.228 145.141 127.993C140.24 135.803 135.1 143.39 130.544 148.95C128.25 151.749 126.287 153.807 124.732 155.1C124.491 155.3 124.28 155.465 124.097 155.601C123.937 155.478 123.756 155.332 123.552 155.158C122.058 153.886 120.171 151.846 117.966 149.054C113.586 143.51 108.678 135.936 104.01 128.129C99.3696 120.369 95.0874 112.584 91.9579 106.724C91.5345 105.931 91.1327 105.174 90.7543 104.458C88.4534 95.6754 80.4344 89.1934 70.8954 89.1934C59.5612 89.1934 50.373 98.3448 50.373 109.634C50.373 120.923 59.5612 130.074 70.8954 130.074Z" fill="black"/>
</svg>
