<svg width="3176" height="600" viewBox="0 0 3176 600" fill="none" xmlns="http://www.w3.org/2000/svg">
<path d="M20.0001 556.413L280.706 123.478H49.0523V27.6087H455.784V42.0652L200.43 475H446.61V571.63H20.0001V556.413Z" fill="#2962EF"/>
<path d="M590.845 27.6087H947.117V123.478H713.935V250.543H900.481V340.326H713.935V475.761H959.35V571.63H590.845V27.6087Z" fill="#2962EF"/>
<path d="M1102.65 27.6087H1298.37C1330.48 27.6087 1359.53 30.9058 1385.53 37.5C1411.52 44.0942 1433.69 54.2391 1452.04 67.9348C1470.39 81.6304 1484.41 98.8768 1494.09 119.674C1504.28 140.471 1509.38 164.819 1509.38 192.717V195.761C1509.38 216.558 1506.58 234.819 1500.97 250.543C1495.36 266.268 1487.46 279.964 1477.27 291.63C1467.08 303.297 1455.1 313.188 1441.34 321.304C1427.58 329.42 1412.8 335.761 1396.99 340.326L1541.49 571.63H1409.99L1279.26 361.63H1225.74V571.63H1102.65V27.6087ZM1295.31 277.935C1326.4 277.935 1349.59 271.341 1364.88 258.152C1380.68 244.964 1388.58 225.435 1388.58 199.565V196.522C1388.58 168.623 1380.43 149.348 1364.12 138.696C1348.32 127.536 1325.38 121.957 1295.31 121.957H1225.74V277.935H1295.31Z" fill="#2962EF"/>
<path d="M1671.75 27.6087H1796.37V571.63H1671.75V27.6087Z" fill="#2962EF"/>
<path d="M2210.27 481.848C2233.21 481.848 2253.85 477.536 2272.2 468.913C2291.06 460.29 2307.11 448.116 2320.36 432.391C2333.11 417.174 2343.05 398.406 2350.18 376.087C2357.32 353.768 2360.89 328.913 2360.89 301.522V295.435C2360.89 269.058 2357.32 244.964 2350.18 223.152C2343.56 201.341 2333.87 182.572 2321.13 166.848C2307.88 151.123 2291.82 138.949 2272.96 130.326C2254.11 121.703 2232.7 117.391 2208.74 117.391C2184.79 117.391 2163.38 121.703 2144.52 130.326C2126.17 138.442 2110.37 150.109 2097.12 165.326C2083.87 181.051 2073.68 200.072 2066.54 222.391C2059.91 244.203 2056.6 268.804 2056.6 296.196V302.283C2056.6 330.181 2060.42 355.29 2068.07 377.609C2075.71 399.42 2086.42 417.935 2100.18 433.152C2113.43 448.877 2129.49 461.051 2148.35 469.674C2167.2 477.79 2187.85 481.848 2210.27 481.848ZM2207.98 580C2165.16 580 2126.43 573.152 2091.77 559.457C2057.11 545.254 2027.8 525.725 2003.85 500.87C1979.38 476.522 1960.52 447.355 1947.27 413.37C1934.02 379.384 1927.39 342.609 1927.39 303.043V296.957C1927.39 256.377 1934.28 219.094 1948.04 185.109C1962.31 151.123 1982.19 121.957 2007.67 97.6087C2032.65 73.2609 2062.21 54.2391 2096.36 40.5435C2130.51 26.8478 2167.97 20 2208.74 20C2250.03 20 2287.74 26.5942 2321.89 39.7826C2356.55 52.971 2386.37 71.4855 2411.34 95.3261C2435.81 119.674 2454.92 148.587 2468.68 182.065C2482.96 215.543 2490.09 252.826 2490.09 293.913V300C2490.09 340.58 2483.21 378.116 2469.45 412.609C2456.2 446.594 2437.34 476.014 2412.87 500.87C2388.41 525.725 2358.85 545.254 2324.19 559.457C2289.53 573.152 2250.79 580 2207.98 580Z" fill="#2962EF"/>
<path d="M2624.22 27.6087H2767.95L2975.91 385.978V27.6087H3086V571.63H2962.15L2734.31 184.348V571.63H2624.22V27.6087Z" fill="#2962EF"/>
</svg>
