<svg width="538" height="122" viewBox="0 0 538 122" fill="none" xmlns="http://www.w3.org/2000/svg">
<path fill-rule="evenodd" clip-rule="evenodd" d="M220.877 34.4248H210.059V94.0122H220.877V34.4248Z" fill="white"/>
<path fill-rule="evenodd" clip-rule="evenodd" d="M316.776 59.3826C327.929 62.0046 334.367 65.7115 335.908 73.035C336.173 74.2529 336.294 75.497 336.271 76.742C336.271 87.8628 328.473 94.9151 315.779 94.9151C306.093 94.8346 296.748 91.3446 289.394 85.06L295.831 77.5557C301.634 82.5284 308.525 85.6929 316.051 85.6929C323.577 85.6929 325.662 82.3476 325.662 77.7365C325.662 73.1254 323.214 71.1363 311.971 68.6048C299.095 65.6211 291.66 61.3717 291.66 50.3412C291.66 39.3108 299.367 33.5243 311.336 33.5243C319.674 33.4312 327.806 36.1029 334.457 41.1191L328.745 48.985C323.305 45.0068 317.139 42.2944 311.608 42.2944C306.077 42.2944 302.269 45.4589 302.269 49.4371C302.269 53.4153 305.261 56.6702 316.776 59.3826Z" fill="white"/>
<path fill-rule="evenodd" clip-rule="evenodd" d="M418.054 34.4248L403.554 78.3456L388.694 34.4248H379.777L364.917 78.3456L350.417 34.4248H338.979L360.053 94.0122H369.24L384.1 51.5403L398.961 94.0122H408.057L429.132 34.4248H418.054Z" fill="white"/>
<path d="M513.433 43.9334H498.358V64.8524H513.433C521.515 64.8524 526.51 61.7734 526.51 54.076C526.51 46.3785 521.425 43.9334 513.433 43.9334ZM513.07 74.1799H498.358V94.0122H487.732V34.4248H514.341C528.417 34.4248 537.317 41.5789 537.317 53.6232C537.317 67.0258 527.418 74.1799 513.07 74.1799Z" fill="white"/>
<path d="M260.412 43.9334H245.057V64.7619H260.502C268.089 64.7619 272.966 60.3245 272.966 54.2571C272.966 48.1897 268.269 43.9334 260.412 43.9334ZM271.43 94.0122L258.244 73.9988H245.057V94.0122H234.4V34.4248H261.315C275.133 34.4248 283.714 42.6656 283.714 54.2571C283.714 64.0374 277.753 69.9237 269.263 72.2782L283.985 94.0122H271.43Z" fill="white"/>
<path d="M170.393 46.8313L179.009 69.4709C172.462 69.46 165.992 70.8818 160.054 73.6366L170.393 46.8313ZM139.738 94.0122H150.894C150.894 94.0122 158.966 76.8967 182.637 78.7984L188.986 94.0122H200.141L175.472 34.4248H165.042L139.738 94.0122Z" fill="white"/>
<path d="M461.136 73.6366C455.205 70.8872 448.746 69.4655 442.209 69.4709L450.812 46.8313L461.136 73.6366ZM456.155 34.4248H445.741L421.018 94.0122H432.157L438.587 78.7984C462.132 76.8967 470.192 94.0122 470.192 94.0122H481.421L456.155 34.4248Z" fill="white"/>
<path fill-rule="evenodd" clip-rule="evenodd" d="M91.7297 91.3037L60.759 122L45.4106 106.788C61.9622 105.786 77.9472 100.443 91.7297 91.3037Z" fill="white"/>
<path d="M120.705 60.1164L116.902 56.304L60.8505 0.116699L4.79922 56.304L0 61.1149L1.72047 62.658C3.7126 64.2919 5.70473 65.835 7.78741 67.2873C23 77.9647 41.0623 83.8131 59.6316 84.0718C78.201 84.3305 96.419 78.9886 111.921 68.7397C114.095 67.2873 116.268 65.6534 118.351 64.0196C120.433 62.3857 120.614 62.1134 121.701 61.1149L120.705 60.1164ZM75.6103 74.1859C58.8882 63.8952 39.6334 58.4889 20.0118 58.5733C45.6379 47.4084 76.9686 45.8653 105.764 62.4764C96.5639 68.2994 86.3226 72.277 75.6103 74.1859Z" fill="white"/>
</svg>
