<svg width="1694" height="348" viewBox="0 0 1694 348" fill="none" xmlns="http://www.w3.org/2000/svg">
<path fill-rule="evenodd" clip-rule="evenodd" d="M174 0C143.006 0 113.865 8.11602 88.6313 22.3491C35.7563 52.1727 0 108.901 0 174C0 270.098 77.9024 348 174 348C270.098 348 348 270.098 348 174C348 77.9024 270.098 0 174 0ZM109.974 185.947V43.4417C129.278 33.9552 150.999 28.6234 174 28.6234C254.289 28.6234 319.377 93.7107 319.377 174C319.377 221.655 296.448 263.961 261.005 290.479C265.929 279.091 268.658 266.532 268.658 253.342C268.658 201.618 226.728 159.688 175.004 159.688C149.742 159.688 126.815 169.695 109.974 185.947ZM81.3507 260.121H81.5924C82.419 271.668 85.3398 282.638 89.9761 292.651C52.8436 266.307 28.6234 222.979 28.6234 174C28.6234 128.932 49.1239 88.6444 81.3507 61.9643V260.121ZM109.974 253.342C109.974 217.427 139.089 188.312 175.004 188.312C210.92 188.312 240.035 217.427 240.035 253.342C240.035 289.257 210.92 318.372 175.004 318.372C139.089 318.372 109.974 289.257 109.974 253.342Z" fill="#651ED9"/>
<path d="M488.313 204.494C488.313 190.202 493.27 177.75 503.466 166.996C513.663 156.241 524.993 150.864 537.598 150.864C549.494 150.864 560.257 156.1 569.746 166.571C579.235 177.042 584.05 189.636 584.05 204.494C584.05 219.351 579.235 231.945 569.746 242.416C560.257 252.887 549.494 257.982 537.598 257.982C524.993 257.982 513.663 252.746 503.466 241.992C493.27 231.238 488.313 218.785 488.313 204.494ZM488.313 71.0572H468.061V273.971H488.313V252.18L490.437 254.868C491.712 256.567 493.694 258.689 496.527 261.095C499.359 263.5 502.617 265.906 506.44 268.17C510.123 270.575 514.796 272.556 520.32 274.254C525.843 275.952 531.649 276.801 537.598 276.801C555.442 276.801 571.021 269.726 584.333 255.576C597.646 241.426 604.302 224.304 604.302 204.494C604.302 184.683 597.504 167.562 584.192 153.411C570.879 139.12 555.3 132.045 537.598 132.045C531.649 132.045 525.843 132.894 520.178 134.592C514.513 136.29 509.981 138.271 506.44 140.535C502.758 142.799 499.501 145.346 496.385 148.176C493.27 151.006 491.287 152.987 490.295 154.119C489.304 155.251 488.596 156.241 488.313 156.807V71.0572Z" fill="#08090A"/>
<path d="M668.106 194.306C654.935 196.57 644.88 201.239 637.94 208.314C630.859 215.389 627.46 224.729 627.46 236.332C627.46 246.944 632.134 256.284 641.623 264.491C651.111 272.698 662.866 276.801 676.745 276.801C682.268 276.801 687.65 276.094 692.89 274.537C698.13 273.122 702.379 271.424 705.636 269.443C708.752 267.462 711.726 265.34 714.558 262.793C717.391 260.246 719.09 258.548 719.94 257.557C720.79 256.567 721.356 255.718 721.781 255.152V273.971H742.033V185.532C742.033 170.392 736.793 157.656 726.313 147.327C715.833 137.139 702.804 131.903 686.942 131.903C680.711 131.903 674.479 132.894 668.531 134.733C662.583 136.573 657.768 138.695 654.085 140.959C650.403 143.365 646.863 146.053 643.464 149.025C640.065 151.996 637.94 154.119 636.949 155.251C635.958 156.383 635.25 157.373 634.683 158.081L647.712 171.099L652.103 166.147C654.935 162.751 659.609 159.355 666.123 155.958C672.638 152.562 679.578 150.864 686.942 150.864C697.139 150.864 705.495 154.119 712.009 160.487C718.524 166.996 721.781 175.344 721.781 185.532L668.106 194.306ZM676.745 257.982C667.681 257.982 660.458 256.001 655.36 251.897C650.262 247.793 647.712 242.558 647.712 236.332C647.712 223.314 656.493 215.106 673.913 211.71L721.781 202.937V211.71C721.781 225.436 717.533 236.615 709.035 245.105C700.538 253.736 689.774 257.982 676.745 257.982Z" fill="#08090A"/>
<path d="M869.568 150.864L867.443 148.742C866.31 147.61 864.328 146.195 861.779 144.214C859.229 142.233 856.255 140.393 852.998 138.554C849.599 136.714 845.35 135.158 840.252 133.884C835.153 132.611 829.913 131.903 824.532 131.903C811.219 131.903 800.031 135.865 791.25 143.648C782.47 151.572 778.079 160.628 778.079 171.099C778.079 180.014 780.628 187.23 785.869 192.891C791.109 198.551 797.482 202.654 804.846 205.201C812.21 207.748 819.433 210.154 826.798 212.276C834.162 214.399 840.393 217.229 845.633 220.908C850.874 224.587 853.564 229.257 853.564 235.058C853.564 241.709 850.874 247.227 845.633 251.614C840.393 255.859 832.887 258.123 823.115 258.123C818.867 258.123 814.618 257.416 810.511 256.001C806.262 254.585 802.863 252.887 800.314 251.048C797.623 249.208 795.074 247.086 792.808 244.822C790.542 242.558 788.984 240.86 788.418 240.011C787.71 239.162 787.143 238.454 786.86 237.888L772.273 252.321L774.114 255.01C775.388 256.708 777.371 258.689 780.204 261.095C783.036 263.5 786.293 265.906 790.117 268.311C793.799 270.575 798.615 272.698 804.421 274.396C810.228 276.094 816.459 276.943 823.115 276.943C838.552 276.943 850.874 272.839 860.079 264.915C869.143 256.991 873.816 246.944 873.816 235.058C873.816 225.861 871.126 218.361 866.027 212.418C860.787 206.475 854.556 202.23 847.191 199.683C839.827 197.136 832.463 194.73 825.098 192.749C817.734 190.768 811.361 188.079 806.262 184.683C801.022 181.287 798.473 176.759 798.473 171.241C798.473 165.864 800.881 161.053 805.696 157.09C810.511 152.987 816.742 151.006 824.532 151.006C830.48 151.006 836.145 152.279 841.526 154.968C846.766 157.656 850.165 159.779 851.582 161.336C852.998 162.892 854.131 164.307 854.981 165.439L869.568 150.864Z" fill="#08090A"/>
<path d="M907.172 273.971H927.424V134.875H907.172V273.971ZM904.197 88.4619C904.197 92.141 905.33 95.254 907.88 97.8011C910.429 100.348 913.545 101.48 917.227 101.48C920.909 101.48 923.883 100.348 926.432 97.8011C928.981 95.254 930.256 92.141 930.256 88.4619C930.256 84.7829 928.981 81.8113 926.432 79.2643C923.883 76.7172 920.909 75.4437 917.227 75.4437C913.545 75.4437 910.429 76.7172 907.88 79.2643C905.33 81.8113 904.197 84.7829 904.197 88.4619Z" fill="#08090A"/>
<path d="M1055.24 150.864L1053.12 148.742C1051.98 147.61 1050 146.195 1047.45 144.214C1044.9 142.233 1041.93 140.393 1038.67 138.554C1035.27 136.714 1031.02 135.158 1025.93 133.884C1020.83 132.611 1015.59 131.903 1010.21 131.903C996.893 131.903 985.704 135.865 976.924 143.648C968.143 151.572 963.753 160.628 963.753 171.099C963.753 180.014 966.302 187.23 971.542 192.891C976.782 198.551 983.155 202.654 990.52 205.201C997.884 207.748 1005.11 210.154 1012.47 212.276C1019.84 214.399 1026.07 217.229 1031.31 220.908C1036.55 224.587 1039.24 229.257 1039.24 235.058C1039.24 241.709 1036.55 247.227 1031.31 251.614C1026.07 255.859 1018.56 258.123 1008.79 258.123C1004.54 258.123 1000.29 257.416 996.185 256.001C991.936 254.585 988.537 252.887 985.988 251.048C983.297 249.208 980.748 247.086 978.482 244.822C976.216 242.558 974.658 240.86 974.091 240.011C973.383 239.162 972.817 238.454 972.533 237.888L957.946 252.321L959.787 255.01C961.062 256.708 963.045 258.689 965.877 261.095C968.71 263.5 971.967 265.906 975.791 268.311C979.473 270.575 984.288 272.698 990.095 274.396C995.901 276.094 1002.13 276.943 1008.79 276.943C1024.23 276.943 1036.55 272.839 1045.75 264.915C1054.82 256.991 1059.49 246.944 1059.49 235.058C1059.49 225.861 1056.8 218.361 1051.7 212.418C1046.46 206.475 1040.23 202.23 1032.86 199.683C1025.5 197.136 1018.14 194.73 1010.77 192.749C1003.41 190.768 997.034 188.079 991.936 184.683C986.696 181.287 984.147 176.759 984.147 171.241C984.147 165.864 986.554 161.053 991.369 157.09C996.185 152.987 1002.42 151.006 1010.21 151.006C1016.15 151.006 1021.82 152.279 1027.2 154.968C1032.44 157.656 1035.84 159.779 1037.26 161.336C1038.67 162.892 1039.8 164.307 1040.65 165.439L1055.24 150.864Z" fill="#08090A"/>
<path d="M1087.04 262.368C1087.04 266.613 1088.31 270.151 1090.86 272.839C1093.41 275.528 1096.95 276.801 1101.34 276.801C1105.87 276.801 1109.42 275.528 1111.96 272.839C1114.51 270.151 1115.79 266.613 1115.79 262.368C1115.79 258.123 1114.51 254.727 1111.96 252.038C1109.42 249.35 1105.87 247.935 1101.34 247.935C1096.95 247.935 1093.41 249.35 1090.86 252.038C1088.31 254.727 1087.04 258.123 1087.04 262.368Z" fill="#08090A"/>
<path d="M1140.65 204.352C1140.65 224.446 1147.44 241.567 1161.18 255.718C1174.78 269.868 1191.21 276.801 1210.18 276.801C1216.98 276.801 1223.64 275.811 1230.15 273.688C1236.67 271.566 1242.05 269.302 1246.15 266.755C1250.4 264.208 1254.37 261.378 1258.05 258.123C1261.88 254.869 1264.42 252.604 1265.56 251.189C1266.69 249.774 1267.54 248.784 1268.11 247.935L1253.66 234.917L1248.99 240.577C1245.73 244.539 1240.49 248.359 1233.27 252.18C1225.9 256.142 1218.26 257.982 1210.18 257.982C1196.87 257.982 1185.26 252.887 1175.48 242.558C1165.71 232.228 1160.9 219.493 1160.9 204.494C1160.9 189.494 1165.71 176.759 1175.48 166.43C1185.26 156.1 1196.87 150.864 1210.18 150.864C1215.42 150.864 1220.52 151.713 1225.34 153.27C1230.15 154.968 1233.98 156.807 1237.09 158.789C1240.07 160.77 1242.9 163.175 1245.45 165.864C1248 168.694 1249.7 170.533 1250.4 171.524C1251.25 172.656 1251.82 173.363 1252.1 173.929L1266.69 159.496L1260.6 152.845C1256.64 148.317 1249.84 143.648 1240.49 138.978C1231.14 134.309 1220.95 131.903 1210.04 131.903C1191.21 131.903 1174.92 138.978 1161.18 153.128C1147.44 167.279 1140.65 184.259 1140.65 204.352Z" fill="#08090A"/>
<path d="M1327.66 194.306C1314.49 196.57 1304.44 201.239 1297.5 208.314C1290.41 215.389 1287.02 224.729 1287.02 236.332C1287.02 246.944 1291.69 256.284 1301.18 264.491C1310.67 272.698 1322.42 276.801 1336.3 276.801C1341.82 276.801 1347.21 276.094 1352.45 274.537C1357.69 273.122 1361.93 271.424 1365.19 269.443C1368.31 267.462 1371.28 265.34 1374.11 262.793C1376.95 260.246 1378.65 258.548 1379.5 257.557C1380.35 256.567 1380.91 255.718 1381.34 255.152V273.971H1401.59V185.532C1401.59 170.392 1396.35 157.656 1385.87 147.327C1375.39 137.139 1362.36 131.903 1346.5 131.903C1340.27 131.903 1334.03 132.894 1328.09 134.733C1322.14 136.573 1317.32 138.695 1313.64 140.959C1309.96 143.365 1306.42 146.053 1303.02 149.025C1299.62 151.996 1297.5 154.119 1296.5 155.251C1295.51 156.383 1294.81 157.373 1294.24 158.081L1307.27 171.099L1311.66 166.147C1314.49 162.751 1319.16 159.355 1325.68 155.958C1332.19 152.562 1339.13 150.864 1346.5 150.864C1356.69 150.864 1365.05 154.119 1371.57 160.487C1378.08 166.996 1381.34 175.344 1381.34 185.532L1327.66 194.306ZM1336.3 257.982C1327.24 257.982 1320.01 256.001 1314.92 251.897C1309.82 247.793 1307.27 242.558 1307.27 236.332C1307.27 223.314 1316.05 215.106 1333.47 211.71L1381.34 202.937V211.71C1381.34 225.436 1377.09 236.615 1368.59 245.105C1360.09 253.736 1349.33 257.982 1336.3 257.982Z" fill="#08090A"/>
<path d="M1529.12 150.864L1527 148.742C1525.87 147.61 1523.88 146.195 1521.33 144.214C1518.79 142.233 1515.81 140.393 1512.55 138.554C1509.15 136.714 1504.91 135.158 1499.81 133.884C1494.71 132.611 1489.47 131.903 1484.09 131.903C1470.77 131.903 1459.59 135.865 1450.81 143.648C1442.03 151.572 1437.64 160.628 1437.64 171.099C1437.64 180.014 1440.18 187.23 1445.42 192.891C1450.66 198.551 1457.04 202.654 1464.4 205.201C1471.77 207.748 1478.99 210.154 1486.35 212.276C1493.72 214.399 1499.95 217.229 1505.19 220.908C1510.43 224.587 1513.12 229.257 1513.12 235.058C1513.12 241.709 1510.43 247.227 1505.19 251.614C1499.95 255.859 1492.44 258.123 1482.67 258.123C1478.42 258.123 1474.17 257.416 1470.07 256.001C1465.82 254.585 1462.42 252.887 1459.87 251.048C1457.18 249.208 1454.63 247.086 1452.36 244.822C1450.1 242.558 1448.54 240.86 1447.97 240.011C1447.27 239.162 1446.7 238.454 1446.42 237.888L1431.83 252.321L1433.67 255.01C1434.94 256.708 1436.93 258.689 1439.76 261.095C1442.59 263.5 1445.85 265.906 1449.67 268.311C1453.36 270.575 1458.17 272.698 1463.98 274.396C1469.78 276.094 1476.01 276.943 1482.67 276.943C1498.11 276.943 1510.43 272.839 1519.63 264.915C1528.7 256.991 1533.37 246.944 1533.37 235.058C1533.37 225.861 1530.68 218.361 1525.58 212.418C1520.34 206.475 1514.11 202.23 1506.75 199.683C1499.38 197.136 1492.02 194.73 1484.65 192.749C1477.29 190.768 1470.92 188.079 1465.82 184.683C1460.58 181.287 1458.03 176.759 1458.03 171.241C1458.03 165.864 1460.44 161.053 1465.25 157.09C1470.07 152.987 1476.3 151.006 1484.09 151.006C1490.04 151.006 1495.7 152.279 1501.08 154.968C1506.32 157.656 1509.72 159.779 1511.14 161.336C1512.55 162.892 1513.69 164.307 1514.54 165.439L1529.12 150.864Z" fill="#08090A"/>
<path d="M1588.4 71.0572H1568.14V273.971H1588.4V197.136C1588.4 183.693 1592.5 172.656 1600.86 164.024C1609.07 155.251 1619.41 151.006 1631.87 151.006C1642.92 151.006 1651.98 154.685 1659.07 162.043C1666.15 169.401 1669.69 179.306 1669.69 191.476V274.113H1689.94V191.476C1689.94 173.505 1684.7 159.072 1674.22 148.176C1663.74 137.422 1650.14 131.903 1633.29 131.903C1627.63 131.903 1622.24 132.752 1617 134.45C1611.91 136.148 1607.66 137.988 1604.4 139.969C1601.28 141.95 1598.31 144.355 1595.48 147.044C1592.64 149.874 1590.94 151.713 1590.1 152.704C1589.25 153.836 1588.68 154.543 1588.25 155.109L1588.4 71.0572Z" fill="#08090A"/>
<path fill-rule="evenodd" clip-rule="evenodd" d="M492.373 67V146.347C492.78 145.972 493.206 145.58 493.654 145.174C496.91 142.216 500.358 139.513 504.282 137.098C508.223 134.583 513.118 132.472 519.011 130.706C525.057 128.893 531.256 127.987 537.598 127.987C556.533 127.987 573.154 135.611 587.157 150.639C601.18 165.548 608.363 183.664 608.363 204.494C608.363 225.305 601.333 243.43 587.292 258.355C573.288 273.24 556.669 280.859 537.598 280.859C531.262 280.859 525.051 279.954 519.125 278.132C513.437 276.383 508.398 274.281 504.294 271.615C500.285 269.235 496.866 266.708 493.897 264.186C493.364 263.733 492.856 263.288 492.373 262.849V278.028H464V67H492.373ZM488.313 252.18L490.437 254.868C490.96 255.565 491.602 256.333 492.373 257.163C493.482 258.356 494.857 259.676 496.527 261.095C499.359 263.5 502.617 265.906 506.44 268.17C510.123 270.575 514.796 272.556 520.32 274.254C525.843 275.952 531.649 276.801 537.598 276.801C555.442 276.801 571.021 269.726 584.333 255.576C597.646 241.426 604.302 224.304 604.302 204.494C604.302 184.683 597.504 167.562 584.192 153.411C570.879 139.12 555.3 132.045 537.598 132.045C531.649 132.045 525.843 132.894 520.178 134.592C514.513 136.29 509.981 138.271 506.44 140.535C502.758 142.799 499.501 145.346 496.385 148.176C494.738 149.672 493.408 150.93 492.373 151.952C491.45 152.863 490.763 153.585 490.295 154.119C489.304 155.251 488.596 156.241 488.313 156.807V71.0572H468.061V273.971H488.313V252.18ZM667.418 190.307L667.451 190.301L717.58 182.108C716.937 174.481 714.093 168.313 709.153 163.371C703.478 157.832 696.183 154.922 686.942 154.922C680.23 154.922 673.935 156.462 668.002 159.555C661.69 162.846 657.557 165.944 655.222 168.744L655.144 168.838L647.892 177.016L629.242 158.382L631.512 155.547C631.611 155.423 631.746 155.247 631.911 155.033C632.387 154.413 633.109 153.475 633.893 152.579C635.055 151.252 637.332 148.995 640.79 145.972C644.327 142.879 648.018 140.075 651.863 137.564L651.956 137.503C656.001 135.016 661.149 132.769 667.33 130.857C673.647 128.904 680.283 127.846 686.942 127.846C703.802 127.846 717.865 133.454 729.145 144.419L729.165 144.438C740.444 155.555 746.094 169.342 746.094 185.532V278.028H717.721V265.406C717.575 265.538 717.426 265.672 717.275 265.808C714.224 268.552 711.053 270.808 707.816 272.866L707.748 272.91C704.068 275.148 699.444 276.967 693.998 278.441C688.361 280.11 682.603 280.859 676.745 280.859C662.007 280.859 649.275 276.476 638.965 267.558C628.756 258.728 623.4 248.33 623.4 236.332C623.4 223.888 627.074 213.442 635.054 205.46C642.767 197.605 653.702 192.665 667.418 190.307ZM637.94 208.314C630.859 215.389 627.46 224.729 627.46 236.332C627.46 246.944 632.134 256.284 641.623 264.491C651.111 272.698 662.866 276.801 676.745 276.801C682.268 276.801 687.65 276.094 692.89 274.537C698.13 273.122 702.379 271.424 705.636 269.443C708.752 267.462 711.726 265.34 714.558 262.793C715.833 261.646 716.879 260.672 717.721 259.856C718.749 258.86 719.473 258.102 719.94 257.557C720.571 256.821 721.046 256.164 721.423 255.642L721.669 255.302L721.781 255.152V273.971H742.033V185.532C742.033 170.392 736.793 157.656 726.313 147.327C715.833 137.139 702.804 131.903 686.942 131.903C680.711 131.903 674.479 132.894 668.531 134.733C662.583 136.573 657.768 138.695 654.085 140.959C650.403 143.365 646.863 146.053 643.464 149.025C640.065 151.996 637.94 154.119 636.949 155.251C636.258 156.04 635.704 156.761 635.24 157.364C635.039 157.627 634.855 157.867 634.683 158.081L647.712 171.099L652.103 166.147C654.935 162.751 659.609 159.355 666.123 155.958C672.638 152.562 679.578 150.864 686.942 150.864C697.139 150.864 705.495 154.119 712.009 160.487C718.524 166.996 721.781 175.344 721.781 185.532L668.106 194.306C654.935 196.57 644.88 201.239 637.94 208.314ZM709.035 245.105C717.533 236.615 721.781 225.436 721.781 211.71V202.937L673.913 211.71C656.493 215.106 647.712 223.314 647.712 236.332C647.712 242.558 650.262 247.793 655.36 251.897C660.458 256.001 667.681 257.982 676.745 257.982C689.774 257.982 700.538 253.736 709.035 245.105ZM674.69 215.692C674.683 215.694 674.675 215.695 674.668 215.697C666.382 217.315 660.665 219.987 657.06 223.37C653.577 226.639 651.773 230.84 651.773 236.332C651.773 241.276 653.723 245.369 657.907 248.737C662.024 252.051 668.207 253.924 676.745 253.924C688.794 253.924 698.479 250.042 706.14 242.26L706.164 242.236C713.785 234.622 717.721 224.534 717.721 211.71V207.806L674.69 215.692ZM875.31 150.864L854.541 171.616L851.732 167.873C850.947 166.828 849.895 165.513 848.577 164.065C848.249 163.704 847.426 163.02 845.82 162.007C844.282 161.037 842.246 159.898 839.691 158.587C834.902 156.198 829.868 155.063 824.532 155.063C817.455 155.063 812.239 156.847 808.331 160.177L808.278 160.223C804.263 163.526 802.534 167.242 802.534 171.241C802.534 175.24 804.259 178.549 808.472 181.28L808.515 181.307C813.153 184.397 819.091 186.931 826.154 188.831C833.652 190.848 841.118 193.289 848.52 195.849C856.572 198.634 863.389 203.288 869.074 209.736L869.111 209.777C874.913 216.541 877.877 225.01 877.877 235.058C877.877 248.15 872.671 259.297 862.753 267.968L862.729 267.989C852.625 276.687 839.288 281 823.115 281C816.111 281 809.493 280.106 803.281 278.29C797.195 276.51 792.034 274.254 787.989 271.767L787.954 271.745C783.975 269.242 780.561 266.723 777.574 264.186C774.655 261.707 772.407 259.498 770.865 257.444L770.812 257.374L767.009 251.82L787.985 231.065L790.488 236.067C790.481 236.052 790.534 236.15 790.728 236.409C790.926 236.673 791.187 236.994 791.537 237.413L791.676 237.58L791.796 237.76C792.097 238.211 793.342 239.618 795.679 241.953C797.77 244.042 800.126 246.004 802.607 247.7L802.692 247.758C804.831 249.301 807.836 250.833 811.795 252.152L811.835 252.165C815.518 253.434 819.32 254.066 823.115 254.066C832.287 254.066 838.765 251.943 843.052 248.482C847.406 244.827 849.504 240.43 849.504 235.058C849.504 230.78 847.634 227.271 843.299 224.228C838.501 220.859 832.701 218.2 825.672 216.175C818.206 214.023 810.906 211.59 803.518 209.035C795.542 206.277 788.596 201.811 782.888 195.646C776.835 189.108 774.019 180.847 774.019 171.099C774.019 159.309 779.031 149.208 788.528 140.637L788.555 140.613C798.176 132.086 810.363 127.846 824.532 127.846C830.273 127.846 835.844 128.601 841.237 129.948C846.556 131.277 851.148 132.938 854.932 134.986L854.996 135.021C858.322 136.899 861.493 138.852 864.271 141.011C864.826 141.442 865.387 141.87 865.938 142.29C867.655 143.599 869.276 144.836 870.315 145.873L875.31 150.864ZM845.633 251.614C840.393 255.859 832.887 258.123 823.115 258.123C818.867 258.123 814.618 257.416 810.511 256.001C806.262 254.585 802.863 252.887 800.314 251.048C797.623 249.208 795.074 247.086 792.808 244.822C791.311 243.326 790.123 242.078 789.326 241.158C788.917 240.685 788.61 240.299 788.418 240.011C787.71 239.162 787.143 238.454 786.86 237.888L772.273 252.321L774.114 255.01C775.388 256.708 777.371 258.689 780.204 261.095C783.036 263.5 786.293 265.906 790.117 268.311C793.799 270.575 798.615 272.698 804.421 274.396C810.228 276.094 816.459 276.943 823.115 276.943C838.552 276.943 850.874 272.839 860.079 264.915C869.143 256.991 873.816 246.944 873.816 235.058C873.816 225.861 871.126 218.361 866.027 212.418C860.787 206.475 854.556 202.23 847.191 199.683C839.827 197.136 832.463 194.73 825.098 192.749C817.734 190.768 811.361 188.079 806.262 184.683C801.022 181.287 798.473 176.759 798.473 171.241C798.473 165.864 800.881 161.053 805.696 157.09C810.511 152.987 816.742 151.006 824.532 151.006C830.48 151.006 836.145 152.279 841.526 154.968C846.766 157.656 850.165 159.779 851.582 161.336C851.87 161.653 852.147 161.964 852.412 162.268C853.448 163.457 854.304 164.538 854.981 165.439L869.568 150.864L867.443 148.742C867.217 148.516 866.957 148.278 866.665 148.027C865.887 147.358 864.885 146.594 863.7 145.69C863.104 145.235 862.462 144.745 861.779 144.214C859.229 142.233 856.255 140.393 852.998 138.554C849.599 136.714 845.35 135.158 840.252 133.884C835.153 132.611 829.913 131.903 824.532 131.903C811.219 131.903 800.031 135.865 791.25 143.648C782.47 151.572 778.079 160.628 778.079 171.099C778.079 180.014 780.628 187.23 785.869 192.891C791.109 198.551 797.482 202.654 804.846 205.201C812.21 207.748 819.433 210.154 826.798 212.276C834.162 214.399 840.393 217.229 845.633 220.908C850.874 224.587 853.564 229.257 853.564 235.058C853.564 241.709 850.874 247.227 845.633 251.614ZM903.111 278.028V130.817H931.484V278.028H903.111ZM1060.98 150.864L1040.21 171.616L1037.41 167.873C1036.62 166.828 1035.57 165.513 1034.25 164.065C1033.92 163.704 1033.1 163.02 1031.49 162.007C1029.96 161.037 1027.92 159.898 1025.36 158.587C1020.58 156.198 1015.54 155.063 1010.21 155.063C1003.13 155.063 997.913 156.847 994.004 160.177L993.951 160.223C989.936 163.526 988.207 167.242 988.207 171.241C988.207 175.24 989.933 178.549 994.146 181.28L994.188 181.307C998.826 184.397 1004.76 186.931 1011.83 188.831C1019.33 190.848 1026.79 193.289 1034.19 195.849C1042.25 198.634 1049.06 203.288 1054.75 209.736L1054.78 209.777C1060.59 216.541 1063.55 225.01 1063.55 235.058C1063.55 248.15 1058.34 259.297 1048.43 267.968L1048.4 267.989C1038.3 276.687 1024.96 281 1008.79 281C1001.78 281 995.166 280.106 988.954 278.29C982.868 276.51 977.708 274.254 973.663 271.767L973.627 271.745C969.649 269.242 966.234 266.723 963.247 264.186C960.329 261.707 958.081 259.498 956.539 257.444L956.486 257.374L952.683 251.82L973.659 231.065L976.161 236.066C976.161 236.066 976.22 236.167 976.401 236.409C976.6 236.673 976.861 236.994 977.211 237.413L977.35 237.58L977.47 237.76C977.771 238.211 979.016 239.618 981.353 241.953C983.444 244.042 985.8 246.004 988.281 247.7L988.366 247.758C990.505 249.301 993.51 250.833 997.469 252.152L997.508 252.165C1001.19 253.434 1004.99 254.066 1008.79 254.066C1017.96 254.066 1024.44 251.943 1028.73 248.482C1033.08 244.827 1035.18 240.43 1035.18 235.058C1035.18 230.78 1033.31 227.271 1028.97 224.228C1024.18 220.859 1018.37 218.2 1011.35 216.175C1003.88 214.023 996.579 211.59 989.191 209.035C981.216 206.277 974.269 201.811 968.561 195.646C962.509 189.108 959.692 180.847 959.692 171.099C959.692 159.309 964.705 149.208 974.202 140.637L974.229 140.613C983.849 132.086 996.037 127.846 1010.21 127.846C1015.95 127.846 1021.52 128.601 1026.91 129.948C1032.23 131.277 1036.82 132.938 1040.61 134.986L1040.67 135.021C1044 136.899 1047.17 138.852 1049.95 141.011C1050.5 141.442 1051.06 141.87 1051.61 142.29C1053.33 143.599 1054.95 144.836 1055.99 145.873L1060.98 150.864ZM1031.31 251.614C1026.07 255.859 1018.56 258.123 1008.79 258.123C1004.54 258.123 1000.29 257.416 996.185 256.001C991.936 254.585 988.537 252.887 985.988 251.048C983.297 249.208 980.748 247.086 978.482 244.822C976.985 243.326 975.797 242.078 975 241.158C974.59 240.685 974.284 240.299 974.091 240.011C973.383 239.162 972.817 238.454 972.533 237.888L957.946 252.321L959.787 255.01C961.062 256.708 963.045 258.689 965.877 261.095C968.71 263.5 971.967 265.906 975.791 268.311C979.473 270.575 984.288 272.698 990.095 274.396C995.901 276.094 1002.13 276.943 1008.79 276.943C1024.23 276.943 1036.55 272.839 1045.75 264.915C1054.82 256.991 1059.49 246.944 1059.49 235.058C1059.49 225.861 1056.8 218.361 1051.7 212.418C1046.46 206.475 1040.23 202.23 1032.86 199.683C1025.5 197.136 1018.14 194.73 1010.77 192.749C1003.41 190.768 997.034 188.079 991.936 184.683C986.696 181.287 984.147 176.759 984.147 171.241C984.147 165.864 986.554 161.053 991.369 157.09C996.185 152.987 1002.42 151.006 1010.21 151.006C1016.15 151.006 1021.82 152.279 1027.2 154.968C1032.44 157.656 1035.84 159.779 1037.26 161.336C1037.54 161.653 1037.82 161.964 1038.09 162.268C1039.12 163.457 1039.98 164.538 1040.65 165.439L1055.24 150.864L1053.12 148.742C1052.89 148.516 1052.63 148.278 1052.34 148.027C1051.56 147.358 1050.56 146.594 1049.37 145.69C1048.78 145.235 1048.14 144.745 1047.45 144.214C1044.9 142.233 1041.93 140.393 1038.67 138.554C1035.27 136.714 1031.02 135.158 1025.93 133.884C1020.83 132.611 1015.59 131.903 1010.21 131.903C996.893 131.903 985.704 135.865 976.924 143.648C968.143 151.572 963.753 160.628 963.753 171.099C963.753 180.014 966.302 187.23 971.542 192.891C976.782 198.551 983.155 202.654 990.52 205.201C997.884 207.748 1005.11 210.154 1012.47 212.276C1019.84 214.399 1026.07 217.229 1031.31 220.908C1036.55 224.587 1039.24 229.257 1039.24 235.058C1039.24 241.709 1036.55 247.227 1031.31 251.614ZM1268.11 247.935C1267.69 248.556 1267.13 249.254 1266.41 250.138C1266.14 250.462 1265.86 250.81 1265.56 251.189C1264.42 252.604 1261.88 254.869 1258.05 258.123C1254.37 261.378 1250.4 264.208 1246.15 266.755C1242.05 269.302 1236.67 271.566 1230.15 273.688C1223.64 275.811 1216.98 276.801 1210.18 276.801C1191.21 276.801 1174.78 269.868 1161.18 255.718C1147.44 241.567 1140.65 224.446 1140.65 204.352C1140.65 184.259 1147.44 167.279 1161.18 153.128C1174.92 138.978 1191.21 131.903 1210.04 131.903C1220.95 131.903 1231.14 134.309 1240.49 138.978C1249.84 143.648 1256.64 148.317 1260.6 152.845L1266.69 159.496L1252.1 173.929C1251.87 173.464 1251.45 172.902 1250.83 172.087L1250.4 171.524C1250.23 171.275 1249.98 170.972 1249.68 170.613C1248.99 169.784 1247.97 168.657 1246.66 167.203L1245.45 165.864C1242.9 163.175 1240.07 160.77 1237.09 158.789C1233.98 156.807 1230.15 154.968 1225.34 153.27C1220.52 151.713 1215.42 150.864 1210.18 150.864C1196.87 150.864 1185.26 156.1 1175.48 166.43C1165.71 176.759 1160.9 189.494 1160.9 204.494C1160.9 219.493 1165.71 232.228 1175.48 242.558C1185.26 252.887 1196.87 257.982 1210.18 257.982C1218.26 257.982 1225.9 256.142 1233.27 252.18C1240.49 248.359 1245.73 244.539 1248.99 240.577L1253.66 234.917L1268.11 247.935ZM1224.04 157.114C1219.62 155.693 1214.96 154.922 1210.18 154.922C1198.08 154.922 1187.51 159.629 1178.44 169.217C1169.43 178.735 1164.96 190.448 1164.96 204.494C1164.96 218.54 1169.43 230.253 1178.44 239.771C1187.48 249.336 1198.05 253.924 1210.18 253.924C1217.6 253.924 1224.58 252.243 1231.34 248.608L1231.37 248.594C1238.39 244.879 1243.09 241.361 1245.85 238.002L1253.23 229.064L1273.43 247.269L1271.49 250.185C1270.96 250.98 1270.21 251.901 1269.44 252.838C1269.21 253.133 1268.96 253.429 1268.73 253.724C1267.3 255.51 1264.4 258.052 1260.71 261.188C1256.83 264.611 1252.68 267.572 1248.27 270.219C1243.77 273.003 1238.05 275.381 1231.41 277.546C1224.47 279.808 1217.38 280.859 1210.18 280.859C1190.09 280.859 1172.61 273.468 1158.26 258.535C1143.77 243.606 1136.59 225.463 1136.59 204.352C1136.59 183.229 1143.78 165.228 1158.27 150.304C1172.73 135.408 1190.05 127.846 1210.04 127.846C1221.56 127.846 1232.38 130.392 1242.31 135.349C1251.8 140.092 1259.14 145.033 1263.63 150.14C1263.64 150.151 1263.65 150.162 1263.66 150.174L1272.32 159.635L1250.98 180.753L1248.47 175.748C1248.48 175.765 1248.43 175.662 1248.18 175.325C1248.02 175.102 1247.84 174.871 1247.62 174.579C1247.49 174.399 1247.33 174.197 1247.16 173.958L1247.1 173.883C1246.66 173.264 1245.59 172.08 1243.69 169.976C1243.31 169.559 1242.91 169.107 1242.46 168.616C1240.13 166.162 1237.55 163.977 1234.87 162.188C1232.08 160.419 1228.58 158.719 1224.04 157.114ZM1326.97 190.307L1327.01 190.301L1377.14 182.108C1376.49 174.48 1373.65 168.311 1368.71 163.369C1363.03 157.831 1355.74 154.922 1346.5 154.922C1339.79 154.922 1333.49 156.462 1327.56 159.555C1321.25 162.846 1317.11 165.944 1314.78 168.744L1314.7 168.838L1307.45 177.016L1288.8 158.382L1291.07 155.547C1291.17 155.423 1291.3 155.247 1291.47 155.032C1291.94 154.412 1292.66 153.474 1293.45 152.579C1294.61 151.252 1296.89 148.995 1300.35 145.972C1303.88 142.879 1307.57 140.075 1311.42 137.564L1311.51 137.503C1315.56 135.016 1320.7 132.769 1326.89 130.857C1333.2 128.904 1339.84 127.846 1346.5 127.846C1363.36 127.846 1377.42 133.454 1388.7 144.419L1388.72 144.438C1400 155.555 1405.65 169.342 1405.65 185.532V278.028H1377.28V265.406C1377.13 265.538 1376.98 265.672 1376.83 265.808C1373.78 268.552 1370.61 270.808 1367.37 272.866L1367.3 272.91C1363.62 275.148 1359 276.967 1353.55 278.441C1347.92 280.11 1342.16 280.859 1336.3 280.859C1321.56 280.859 1308.83 276.476 1298.52 267.558C1288.31 258.728 1282.96 248.33 1282.96 236.332C1282.96 223.888 1286.63 213.442 1294.61 205.46C1302.32 197.605 1313.26 192.665 1326.97 190.307ZM1297.5 208.314C1290.41 215.389 1287.02 224.729 1287.02 236.332C1287.02 246.944 1291.69 256.284 1301.18 264.491C1310.67 272.698 1322.42 276.801 1336.3 276.801C1341.82 276.801 1347.21 276.094 1352.45 274.537C1357.69 273.122 1361.93 271.424 1365.19 269.443C1368.31 267.462 1371.28 265.34 1374.11 262.793C1375.39 261.646 1376.43 260.672 1377.28 259.856C1378.3 258.86 1379.03 258.102 1379.5 257.557C1380.12 256.824 1380.6 256.169 1380.97 255.649L1380.98 255.634C1381.05 255.543 1381.12 255.452 1381.18 255.37C1381.23 255.293 1381.29 255.22 1381.34 255.152V273.971H1401.59V185.532C1401.59 170.392 1396.35 157.656 1385.87 147.327C1375.39 137.139 1362.36 131.903 1346.5 131.903C1340.27 131.903 1334.03 132.894 1328.09 134.733C1322.14 136.573 1317.32 138.695 1313.64 140.959C1309.96 143.365 1306.42 146.053 1303.02 149.025C1299.62 151.996 1297.5 154.119 1296.5 155.251C1295.81 156.04 1295.26 156.76 1294.8 157.364L1294.79 157.373C1294.65 157.55 1294.53 157.716 1294.4 157.872L1294.24 158.081L1307.27 171.099L1311.66 166.147C1314.49 162.751 1319.16 159.355 1325.68 155.958C1332.19 152.562 1339.13 150.864 1346.5 150.864C1356.69 150.864 1365.05 154.119 1371.57 160.487C1378.08 166.996 1381.34 175.344 1381.34 185.532L1327.66 194.306C1314.49 196.57 1304.44 201.239 1297.5 208.314ZM1368.59 245.105C1377.09 236.615 1381.34 225.436 1381.34 211.71V202.937L1333.47 211.71C1316.05 215.106 1307.27 223.314 1307.27 236.332C1307.27 242.558 1309.82 247.793 1314.92 251.897C1320.01 256.001 1327.24 257.982 1336.3 257.982C1349.33 257.982 1360.09 253.736 1368.59 245.105ZM1334.25 215.692C1334.24 215.694 1334.23 215.695 1334.22 215.697C1325.94 217.315 1320.22 219.987 1316.62 223.37C1313.13 226.639 1311.33 230.84 1311.33 236.332C1311.33 241.276 1313.28 245.369 1317.46 248.737C1321.58 252.051 1327.76 253.924 1336.3 253.924C1348.35 253.924 1358.03 250.042 1365.7 242.26L1365.72 242.236C1373.34 234.622 1377.28 224.534 1377.28 211.71V207.806L1334.25 215.692ZM1534.87 150.864L1514.1 171.616L1511.29 167.873C1510.5 166.828 1509.45 165.513 1508.13 164.065C1507.8 163.704 1506.98 163.02 1505.38 162.007C1503.84 161.037 1501.8 159.898 1499.25 158.587C1494.46 156.198 1489.42 155.063 1484.09 155.063C1477.01 155.063 1471.79 156.847 1467.89 160.177L1467.83 160.222C1463.82 163.526 1462.09 167.242 1462.09 171.241C1462.09 175.24 1463.82 178.549 1468.03 181.28L1468.07 181.307C1472.71 184.397 1478.65 186.931 1485.71 188.831C1493.21 190.848 1500.67 193.289 1508.08 195.849C1516.13 198.634 1522.94 203.288 1528.63 209.736L1528.67 209.777C1534.47 216.541 1537.43 225.01 1537.43 235.058C1537.43 248.15 1532.23 259.297 1522.31 267.968L1522.29 267.989C1512.18 276.687 1498.84 281 1482.67 281C1475.67 281 1469.05 280.106 1462.84 278.29C1456.75 276.51 1451.59 274.254 1447.54 271.767L1447.51 271.745C1443.53 269.242 1440.12 266.723 1437.13 264.186C1434.21 261.707 1431.96 259.498 1430.42 257.444L1430.37 257.374L1426.56 251.82L1447.54 231.065L1450.04 236.068C1450.04 236.049 1450.09 236.148 1450.28 236.409C1450.48 236.673 1450.74 236.994 1451.09 237.413L1451.23 237.58L1451.35 237.76C1451.65 238.211 1452.9 239.618 1455.24 241.953C1457.33 244.042 1459.68 246.004 1462.16 247.7L1462.25 247.758C1464.39 249.301 1467.39 250.833 1471.35 252.152L1471.39 252.165C1475.07 253.434 1478.88 254.066 1482.67 254.066C1491.84 254.066 1498.32 251.943 1502.61 248.483C1506.96 244.827 1509.06 240.431 1509.06 235.058C1509.06 230.78 1507.19 227.271 1502.85 224.228C1498.06 220.859 1492.26 218.2 1485.23 216.175C1477.76 214.023 1470.46 211.59 1463.07 209.035C1455.1 206.277 1448.15 201.811 1442.44 195.646C1436.39 189.108 1433.57 180.847 1433.57 171.099C1433.57 159.309 1438.59 149.208 1448.08 140.637L1448.11 140.613C1457.73 132.086 1469.92 127.846 1484.09 127.846C1489.83 127.846 1495.4 128.601 1500.79 129.948C1506.11 131.277 1510.7 132.938 1514.49 134.986L1514.55 135.021C1517.88 136.899 1521.05 138.852 1523.83 141.011C1524.38 141.442 1524.94 141.87 1525.49 142.29C1527.21 143.599 1528.83 144.836 1529.87 145.873L1534.87 150.864ZM1505.19 251.614C1499.95 255.859 1492.44 258.123 1482.67 258.123C1478.42 258.123 1474.17 257.416 1470.07 256.001C1465.82 254.585 1462.42 252.887 1459.87 251.048C1457.18 249.208 1454.63 247.086 1452.36 244.822C1450.87 243.326 1449.68 242.078 1448.88 241.158C1448.47 240.685 1448.17 240.299 1447.97 240.011C1447.27 239.162 1446.7 238.454 1446.42 237.888L1431.83 252.321L1433.67 255.01C1434.94 256.708 1436.93 258.689 1439.76 261.095C1442.59 263.5 1445.85 265.906 1449.67 268.311C1453.36 270.575 1458.17 272.698 1463.98 274.396C1469.78 276.094 1476.01 276.943 1482.67 276.943C1498.11 276.943 1510.43 272.839 1519.63 264.915C1528.7 256.991 1533.37 246.944 1533.37 235.058C1533.37 225.861 1530.68 218.361 1525.58 212.418C1520.34 206.475 1514.11 202.23 1506.75 199.683C1499.38 197.136 1492.02 194.73 1484.65 192.749C1477.29 190.768 1470.92 188.079 1465.82 184.683C1460.58 181.287 1458.03 176.759 1458.03 171.241C1458.03 165.864 1460.44 161.053 1465.25 157.09C1470.07 152.987 1476.3 151.006 1484.09 151.006C1490.04 151.006 1495.7 152.279 1501.08 154.968C1506.32 157.656 1509.72 159.779 1511.14 161.336C1511.43 161.653 1511.7 161.964 1511.97 162.268C1513 163.457 1513.86 164.538 1514.54 165.439L1529.12 150.864L1527 148.742C1527 148.738 1526.99 148.734 1526.99 148.73C1526.76 148.507 1526.51 148.274 1526.22 148.027C1525.44 147.358 1524.44 146.594 1523.26 145.69C1522.66 145.235 1522.02 144.745 1521.33 144.214C1518.79 142.233 1515.81 140.393 1512.55 138.554C1509.15 136.714 1504.91 135.158 1499.81 133.884C1494.71 132.611 1489.47 131.903 1484.09 131.903C1470.77 131.903 1459.59 135.865 1450.81 143.648C1442.03 151.572 1437.64 160.628 1437.64 171.099C1437.64 180.014 1440.18 187.23 1445.42 192.891C1450.66 198.551 1457.04 202.654 1464.4 205.201C1471.77 207.748 1478.99 210.154 1486.35 212.276C1493.72 214.399 1499.95 217.229 1505.19 220.908C1510.43 224.587 1513.12 229.257 1513.12 235.058C1513.12 241.709 1510.43 247.227 1505.19 251.614ZM1592.46 67L1592.33 144.448C1592.42 144.358 1592.51 144.267 1592.61 144.175L1592.68 144.101C1595.66 141.272 1598.84 138.695 1602.22 136.546L1602.29 136.502C1605.9 134.306 1610.46 132.353 1615.72 130.601L1615.75 130.591C1621.4 128.76 1627.21 127.846 1633.29 127.846C1651.13 127.846 1665.81 133.729 1677.13 145.346L1677.15 145.365C1688.49 157.156 1694 172.668 1694 191.476V278.17H1665.63V191.476C1665.63 180.125 1662.35 171.307 1656.14 164.855C1649.89 158.362 1641.92 155.063 1631.87 155.063C1620.45 155.063 1611.22 158.9 1603.82 166.796L1603.78 166.845C1596.25 174.616 1592.46 184.591 1592.46 197.136V278.028H1564.08V67H1592.46ZM1592.32 150.268C1591.29 151.354 1590.56 152.158 1590.1 152.704C1589.6 153.367 1589.2 153.884 1588.86 154.313L1588.84 154.339C1588.62 154.631 1588.43 154.882 1588.25 155.109L1588.4 71.0572H1568.14V273.971H1588.4V197.136C1588.4 183.693 1592.5 172.656 1600.86 164.024C1609.07 155.251 1619.41 151.006 1631.87 151.006C1642.92 151.006 1651.98 154.685 1659.07 162.043C1666.15 169.401 1669.69 179.306 1669.69 191.476V274.113H1689.94V191.476C1689.94 173.505 1684.7 159.072 1674.22 148.176C1663.74 137.422 1650.14 131.903 1633.29 131.903C1627.63 131.903 1622.24 132.752 1617 134.45C1611.91 136.148 1607.66 137.988 1604.4 139.969C1601.28 141.95 1598.31 144.355 1595.48 147.044C1594.21 148.314 1593.16 149.384 1592.32 150.268ZM506.414 169.786C496.919 179.8 492.373 191.259 492.373 204.494C492.373 217.728 496.919 229.187 506.414 239.202C515.974 249.284 526.284 253.924 537.598 253.924C548.167 253.924 557.887 249.458 566.736 239.693C575.524 229.995 579.989 218.382 579.989 204.494C579.989 190.605 575.524 178.992 566.736 169.294C557.864 159.504 548.138 154.922 537.598 154.922C526.312 154.922 515.996 159.68 506.414 169.786ZM927.424 134.875H907.172V273.971H927.424V134.875ZM905.008 100.67C901.601 97.2655 900.137 93.0724 900.137 88.4619C900.137 83.8036 901.632 79.7691 905.008 76.3954C908.337 73.0695 912.493 71.3866 917.227 71.3866C922.008 71.3866 926.008 73.1031 929.304 76.3954C932.599 79.6878 934.317 83.685 934.317 88.4619C934.317 93.1912 932.632 97.344 929.304 100.67C925.927 104.044 921.889 105.537 917.227 105.537C912.612 105.537 908.416 104.074 905.008 100.67ZM1087.91 275.63C1084.53 272.064 1082.98 267.467 1082.98 262.368C1082.98 257.228 1084.56 252.788 1087.91 249.248C1091.35 245.623 1096.03 243.878 1101.34 243.878C1106.78 243.878 1111.46 245.61 1114.91 249.248C1118.27 252.788 1119.85 257.228 1119.85 262.368C1119.85 267.467 1118.29 272.064 1114.91 275.63C1111.4 279.335 1106.67 280.859 1101.34 280.859C1096.14 280.859 1091.42 279.323 1087.91 275.63ZM503.466 166.996C493.27 177.75 488.313 190.202 488.313 204.494C488.313 218.785 493.27 231.238 503.466 241.992C513.663 252.746 524.993 257.982 537.598 257.982C549.494 257.982 560.257 252.887 569.746 242.416C579.235 231.945 584.05 219.351 584.05 204.494C584.05 189.636 579.235 177.042 569.746 166.571C560.257 156.1 549.494 150.864 537.598 150.864C524.993 150.864 513.663 156.241 503.466 166.996ZM907.88 97.8011C905.33 95.254 904.197 92.141 904.197 88.4619C904.197 84.7829 905.33 81.8113 907.88 79.2643C910.429 76.7172 913.545 75.4437 917.227 75.4437C920.909 75.4437 923.883 76.7172 926.432 79.2643C928.981 81.8113 930.256 84.7829 930.256 88.4619C930.256 92.141 928.981 95.254 926.432 97.8011C923.883 100.348 920.909 101.48 917.227 101.48C913.545 101.48 910.429 100.348 907.88 97.8011ZM1090.86 272.839C1088.31 270.151 1087.04 266.613 1087.04 262.368C1087.04 258.123 1088.31 254.727 1090.86 252.038C1093.41 249.35 1096.95 247.935 1101.34 247.935C1105.87 247.935 1109.42 249.35 1111.96 252.038C1114.51 254.727 1115.79 258.123 1115.79 262.368C1115.79 266.613 1114.51 270.151 1111.96 272.839C1109.42 275.528 1105.87 276.801 1101.34 276.801C1096.95 276.801 1093.41 275.528 1090.86 272.839Z" fill="#08090A"/>
</svg>
