<svg width="141px" height="30px" viewBox="0 0 141 30" xmlns="http://www.w3.org/2000/svg" xmlns:xlink="http://www.w3.org/1999/xlink" style="height: 30px; flex-shrink: 0; color: rgb(26, 26, 27);"><title>编组</title><g id="\u4EA4\u6613\u9996\u9875" stroke="none" stroke-width="1" fill="currentColor" fill-rule="evenodd"><g id="PC-dark" transform="translate(-16.000000, -19.000000)"><g id="\u7F16\u7EC4" transform="translate(15.999964, 18.999988)"><path d="M21.0236053,0 C22.3188602,0 23.4021038,1.6083568 23.6774926,3.76253336 C25.1336288,2.55638455 26.7992793,2.19135645 27.5831148,2.97427223 C28.4557739,3.84615841 27.9045206,5.81027804 26.3518319,7.36138019 C26.1770385,7.535995 25.9966564,7.69730582 25.8134206,7.84602537 C29.2997764,8.61064818 32.541897,10.2820801 35.2170687,12.7370218 C38.9877313,16.1973646 41.3030901,20.9099451 41.7365064,26.0064406 L41.7365064,26.0064406 L42.0761051,30.0000119 L36.8254059,30.0000119 L36.5233819,26.4489169 C36.2011437,22.6607258 34.4803204,19.1579765 31.6775614,16.5860311 C28.8750403,14.0139668 25.2355322,12.5975675 21.4297919,12.5975675 L21.4297919,12.5975675 L20.6463131,12.5975675 C16.8405729,12.5975675 13.2011837,14.0139668 10.3985437,16.5860311 C7.59590363,19.1579765 5.87496136,22.6607258 5.55272315,26.4489169 L5.55272315,26.4489169 L5.25081806,30.0000119 L0,30.0000119 L0.339717548,26.0064406 C0.77313388,20.9099451 3.08837377,16.1973646 6.85903641,12.7370218 C9.5283816,10.2873067 12.7621787,8.61801288 16.2399732,7.85113316 C16.0545971,7.70098818 15.8721936,7.53801436 15.6953788,7.36138019 C14.14269,5.81027804 13.5914368,3.84615841 14.4640959,2.97427223 C15.2478125,2.19135645 16.9135819,2.55638455 18.3697181,3.76253336 C18.6451069,1.6083568 19.7282315,0 21.0236053,0 Z M55.9631092,7.82772052 C62.2949116,7.82772052 67.2808047,12.7242998 67.2808047,18.9475954 C67.2808047,25.0762188 62.2949116,29.9412011 55.9631092,29.9412011 L55.9631092,29.9412011 L47.2761141,29.9412011 L47.2761141,7.82772052 Z M104.189327,7.82772052 C110.521129,7.82772052 115.507022,12.7242998 115.507022,18.9475954 C115.507022,25.0762188 110.521129,29.9412011 104.189327,29.9412011 L104.189327,29.9412011 L95.5023316,29.9412011 L95.5023316,7.82772052 Z M81.3339101,7.81822955 C87.7573898,7.81822955 92.773842,12.6767975 92.773842,18.8493716 C92.773842,25.0218269 87.7573898,29.8803948 81.3339101,29.8803948 C74.9103114,29.8803948 69.8938592,25.0218269 69.8938592,18.8493716 C69.8938592,12.6767975 74.9103114,7.81822955 81.3339101,7.81822955 Z M129.560104,7.81822955 C135.983583,7.81822955 141.000036,12.6767975 141.000036,18.8493716 C141.000036,25.0218269 135.983583,29.8803948 129.560104,29.8803948 C123.136505,29.8803948 118.120053,25.0218269 118.120053,18.8493716 C118.120053,12.6767975 123.136505,7.81822955 129.560104,7.81822955 Z M15.908377,19.3114712 C16.9482195,19.3114712 17.7911518,20.8097138 17.7911518,22.6578987 C17.7911518,24.5060836 16.9482195,26.0043262 15.908377,26.0043262 C14.8685346,26.0043262 14.0256022,24.5060836 14.0256022,22.6578987 C14.0256022,20.8097138 14.8685346,19.3114712 15.908377,19.3114712 Z M26.1677518,19.3114712 C27.2075943,19.3114712 28.0505267,20.8097138 28.0505267,22.6578987 C28.0505267,24.5060836 27.2075943,26.0043262 26.1677518,26.0043262 C25.1279094,26.0043262 24.284977,24.5060836 24.284977,22.6578987 C24.284977,20.8097138 25.1279094,19.3114712 26.1677518,19.3114712 Z M55.8407538,12.6293902 L52.5372771,12.6293902 L52.5372771,25.1394127 L55.8407538,25.1394127 C59.2054677,25.1394127 61.8360491,22.4225488 61.8360491,18.9475954 C61.8360491,15.409448 59.2054677,12.6293902 55.8407538,12.6293902 L55.8407538,12.6293902 Z M104.066971,12.6293902 L100.763495,12.6293902 L100.763495,25.1394127 L104.066971,25.1394127 C107.431685,25.1394127 110.062267,22.4225488 110.062267,18.9475954 C110.062267,15.409448 107.431685,12.6293902 104.066971,12.6293902 L104.066971,12.6293902 Z M81.3339101,12.6462696 C77.9079591,12.6462696 75.3079367,15.304691 75.3079367,18.8493716 C75.3079367,22.3938146 77.9079591,25.0523547 81.3339101,25.0523547 C84.7597422,25.0523547 87.3597645,22.3938146 87.3597645,18.8493716 C87.3597645,15.304691 84.7597422,12.6462696 81.3339101,12.6462696 Z M129.560104,12.6462696 C126.134153,12.6462696 123.53413,15.304691 123.53413,18.8493716 C123.53413,22.3938146 126.134153,25.0523547 129.560104,25.0523547 C132.985936,25.0523547 135.585958,22.3938146 135.585958,18.8493716 C135.585958,15.304691 132.985936,12.6462696 129.560104,12.6462696 Z" id="\u5F62\u72B6\u7ED3\u5408" fill="currentColor"></path><g></g></g></g></g></svg>