<svg width="178" height="48" viewBox="0 0 178 48" fill="none" xmlns="http://www.w3.org/2000/svg">
<g clip-path="url(#clip0_3_5971)">
<path d="M33.0621 26.6676C39.101 18.0777 38.6145 7.36062 31.9755 2.73028C25.3366 -1.90007 15.0591 1.30976 9.02015 9.89963C2.98123 18.4895 3.46769 29.2066 10.1067 33.8369C16.7457 38.4673 27.0231 35.2575 33.0621 26.6676Z" fill="#030333"/>
<path d="M55.047 35.773C52.8201 34.8147 50.9082 33.2537 49.5288 31.2676C48.0847 29.2251 47.3626 26.6536 47.3626 23.5529C47.345 20.6588 48.0677 17.8077 49.4626 15.2682C50.8556 12.7093 53.0218 10.6206 55.9611 9.00216C58.9005 7.38368 62.5781 6.57501 66.994 6.57617H73.2227C74.8908 6.57617 76.1881 6.96895 77.1145 7.75451C78.0408 8.54007 78.5052 9.65198 78.5075 11.0902V14.5196C78.5075 15.9578 78.1918 17.1131 77.5603 17.9853C76.9287 18.8575 75.9809 19.2953 74.7167 19.2988C74.0523 19.326 73.394 19.1624 72.8204 18.8274C72.1832 18.3968 71.5937 17.9002 71.0617 17.3458C70.3731 16.6373 69.6001 16.0152 68.7597 15.4934C68.0365 15.0671 67.066 14.854 65.8483 14.854C63.4557 14.854 61.5606 15.7406 60.1629 17.5139C58.7652 19.2872 58.0658 21.3666 58.0646 23.7522C58.0646 25.4585 58.4367 26.7495 59.1808 27.6251C59.9249 28.5008 60.9952 28.9386 62.3918 28.9386C63.5178 28.9386 64.4314 28.7024 65.1326 28.2299C66.0293 27.5865 66.8573 26.8531 67.6035 26.0413C68.2461 25.2967 68.9737 24.6291 69.7714 24.052C70.4029 23.6257 71.1929 23.4126 72.1413 23.4126C73.2674 23.4126 74.192 23.7378 74.9152 24.3882C75.6384 25.0386 75.9995 25.905 75.9983 26.9874C75.9718 27.8877 75.7886 28.7765 75.4568 29.6144L74.0341 33.444C73.5825 34.657 72.7363 35.5887 71.4953 36.2391C70.2543 36.8895 68.7313 37.2153 66.9261 37.2165H61.9843C59.5963 37.2194 57.2338 36.7278 55.047 35.773Z" fill="#030333"/>
<path d="M141.251 7.62467C140.303 6.93153 139.084 6.58496 137.594 6.58496H124.534C121.014 6.58496 118.07 7.22496 115.7 8.50496C113.331 9.78496 111.57 11.4554 110.417 13.5164C109.268 15.5766 108.674 17.8974 108.692 20.2537C108.672 21.9981 108.967 23.7318 109.562 25.3725C109.923 26.4504 110.104 27.326 110.104 27.9995C110.106 28.3632 110.067 28.7259 109.987 29.0808C109.879 29.5733 109.677 30.0408 109.393 30.4585C108.92 31.1516 108.165 31.9938 107.13 32.985C106.072 33.9265 105.13 34.9892 104.323 36.1509C103.668 37.1398 103.34 38.3972 103.339 39.9233C103.339 42.7074 104.49 44.751 106.792 46.0541C109.094 47.3572 111.848 48.0059 115.054 48.0001H123.449C125.344 48.0001 126.853 47.4612 127.977 46.3834C128.529 45.8661 128.965 45.2389 129.257 44.5427C129.549 43.8464 129.691 43.0967 129.673 42.3424C129.673 40.859 129.165 39.6351 128.149 38.6705C127.133 37.7058 125.791 37.2229 124.121 37.2218C123.413 37.2148 122.708 37.3171 122.032 37.525C121.268 37.7804 120.522 38.0843 119.798 38.4348C119.029 38.7929 118.363 39.0736 117.8 39.277C117.202 39.4851 116.572 39.5877 115.939 39.5802C114.992 39.5802 114.247 39.3214 113.705 38.8039C113.446 38.5693 113.24 38.2831 113.1 37.9639C112.961 37.6447 112.89 37.2997 112.893 36.9515C112.893 36.1428 113.254 35.4358 113.976 34.8305C114.699 34.2251 115.714 33.9219 117.024 33.9207H121.83C125.392 33.9207 128.336 33.2807 130.662 32.0007C131.197 31.7083 131.714 31.3831 132.21 31.0268C133.694 29.9846 134.912 28.6114 135.767 27.017C136.852 24.9724 137.411 22.6922 137.394 20.3802C137.404 19.3411 137.313 18.3034 137.122 17.2819L136.986 16.3392C136.986 15.0834 137.708 14.4544 139.152 14.4521C140.326 14.4521 141.206 14.1154 141.792 13.4419C142.378 12.7684 142.672 11.8927 142.673 10.8148C142.673 9.3812 142.199 8.31781 141.251 7.62467ZM119.484 16.7863C120.5 15.7754 121.777 15.27 123.315 15.27C124.853 15.27 126.13 15.7754 127.146 16.7863C128.161 17.7971 128.668 19.0678 128.67 20.5985C128.671 22.1292 128.163 23.4 127.146 24.4108C126.13 25.4216 124.853 25.9265 123.315 25.9253C121.777 25.9242 120.5 25.4193 119.484 24.4108C118.468 23.3988 117.961 22.1281 117.961 20.5985C117.961 19.069 118.47 17.7954 119.488 16.7776L119.484 16.7863Z" fill="#030333"/>
<path d="M105.885 12.1457C104.809 10.3928 103.263 8.97307 101.422 8.04574C99.4948 7.03838 97.2891 6.49311 94.8048 6.40993C91.6937 6.30596 88.9285 6.93845 86.5093 8.3074C84.1259 9.64145 82.1587 11.604 80.8239 13.979C79.4463 16.4125 78.6872 19.1442 78.6125 21.9363C78.5476 23.5579 78.7111 25.1806 79.0983 26.7571C80.4008 32.7839 86.0635 37.3725 92.9504 37.655C93.5511 37.7142 94.1559 37.7212 94.7578 37.6758L99.7745 37.3171C100.906 37.2351 101.781 36.7897 102.399 35.9811C102.73 35.5544 102.967 35.0632 103.095 34.5393C103.208 34.054 103.244 33.5541 103.201 33.0577C103.122 32.0111 102.754 31.1683 102.096 30.5295C101.77 30.2144 101.378 29.9749 100.949 29.8281C100.519 29.6813 100.062 29.6309 99.6108 29.6804C99.183 29.7056 98.7635 29.8084 98.3728 29.9837C97.9274 30.1986 97.498 30.4447 97.0877 30.7201C96.7167 30.9668 96.3331 31.1941 95.9384 31.4011C95.5964 31.5716 95.2232 31.6712 94.8414 31.694C94.5928 31.725 94.3403 31.7005 94.1023 31.6222C93.8644 31.544 93.6469 31.414 93.4658 31.2417C93.1165 30.9066 92.908 30.452 92.8824 29.9698C92.8597 29.6898 92.8953 29.4082 92.987 29.1425C93.0787 28.8768 93.2245 28.6328 93.4153 28.4258C93.8146 27.9637 94.4055 27.7067 95.1879 27.6547L98.0593 27.4485C100.191 27.296 101.916 26.7184 103.236 25.7156C103.542 25.4837 103.833 25.2325 104.107 24.9636V24.9532C105.942 23.4514 107 21.4112 107.28 18.8327C107.313 18.526 107.335 18.2107 107.347 17.8883C107.442 15.8722 106.933 13.8734 105.885 12.1457ZM98.6078 17.7948C98.594 18.3665 98.4567 18.9287 98.2052 19.443C97.9538 19.9572 97.594 20.4116 97.1504 20.7753C96.2447 21.5692 95.0629 21.9791 93.8576 21.9172C93.2655 21.9104 92.6806 21.787 92.1367 21.5541C91.5927 21.3213 91.1005 20.9835 90.6884 20.5604C90.2861 20.1582 89.971 19.678 89.7626 19.1497C89.5542 18.6214 89.4569 18.0562 89.4769 17.489C89.4968 16.9218 89.6334 16.3647 89.8784 15.8522C90.1233 15.3397 90.4713 14.8826 90.9008 14.5093C91.3415 14.1147 91.8562 13.8106 92.4153 13.6147C92.9744 13.4187 93.5669 13.3346 94.1588 13.3673C95.3642 13.387 96.5138 13.8759 97.3611 14.7294C97.7782 15.121 98.1055 15.5976 98.3206 16.1267C98.5358 16.6557 98.6338 17.2246 98.6078 17.7948Z" fill="#030333"/>
<path d="M173.586 8.33708C172.682 7.50878 171.463 7.11658 169.929 7.16047H169.896C169.4 7.18526 168.913 7.30802 168.465 7.52161C168.016 7.7352 167.615 8.03537 167.284 8.40466C166.706 9.02502 165.677 9.4565 164.49 9.48943C163.613 9.5342 162.744 9.31173 161.998 8.85174L161.658 8.66459C161.404 8.52134 161.147 8.3908 160.889 8.27297C158.92 7.29082 156.738 6.80863 154.536 6.86936C146.427 7.09809 140.064 14.6135 140.322 23.6538C140.347 24.5041 140.43 25.3518 140.573 26.1907C140.804 27.5693 141.199 28.9159 141.748 30.2022C141.918 30.573 142.102 30.9352 142.302 31.2887C143.514 33.434 145.073 35.0634 146.979 36.1771C148.885 37.2907 150.852 37.8187 152.88 37.7609C154.235 37.7228 155.323 37.4675 156.144 36.995C157.054 36.4532 157.889 35.7948 158.627 35.0369C159.011 34.6532 159.418 34.2927 159.846 33.9573C160.151 33.742 160.516 33.6258 160.89 33.6246C161.058 33.6076 161.227 33.6267 161.386 33.6805C161.545 33.7344 161.691 33.8217 161.813 33.9365C162.11 34.2671 162.381 34.6199 162.623 34.9918C162.955 35.5131 163.35 35.9921 163.798 36.4179C163.946 36.5546 164.103 36.6819 164.267 36.7992C164.841 37.2081 165.761 37.3953 167.025 37.3606C168.738 37.3121 169.989 36.8275 170.776 35.9068C171.563 34.986 171.937 33.8522 171.897 32.5052C171.879 31.8328 171.672 30.9173 171.277 29.7586C170.91 28.8166 170.699 27.8218 170.65 26.8127C170.565 23.8236 170.788 22.7267 173.278 16.5456C173.301 16.4889 173.32 16.431 173.337 16.3723C173.414 16.1343 173.684 15.5417 174.147 14.5944C174.411 14.0514 174.644 13.4936 174.843 12.9239C174.977 12.4744 175.032 12.0056 175.007 11.5377C175.008 10.9351 174.881 10.3391 174.637 9.78787C174.392 9.23668 174.034 8.74251 173.586 8.33708ZM161.016 26.1664C160.463 26.7444 159.799 27.2053 159.063 27.5215C158.327 27.8378 157.534 28.0028 156.732 28.0067C155.94 28.0323 155.15 27.9016 154.409 27.6222C153.668 27.3428 152.989 26.9201 152.413 26.3785C151.836 25.837 151.373 25.1873 151.05 24.4668C150.728 23.7464 150.551 22.9695 150.531 22.1808C150.483 20.4757 151.017 19.0317 152.135 17.8487C153.253 16.6657 154.669 16.0529 156.382 16.0101C158.097 15.9616 159.557 16.493 160.763 17.6044C161.969 18.7157 162.596 20.1257 162.644 21.8343C162.693 23.5452 162.15 24.9892 161.016 26.1664Z" fill="#030333"/>
</g>
<defs>
<clipPath id="clip0_3_5971">
<rect width="178" height="48" fill="white"/>
</clipPath>
</defs>
</svg>
