<svg fill="none" height="355" viewBox="0 0 2121 355" width="2121"
	xmlns="http://www.w3.org/2000/svg">
	<g fill="#13202b">
		<path d="m607.981 103.095c31.721 0 51.987 12.336 51.987 37.889 0 17.623-9.693 28.196-22.91 32.602 14.979 4.406 28.196 14.979 28.196 37.008 0 33.483-32.601 41.413-58.154 41.413h-64.323v-148.912zm0 84.589h-33.483v38.77h31.721c14.098 0 27.315-2.643 27.315-19.385 0-15.86-13.217-19.385-25.553-19.385zm-3.525-59.036h-30.839v34.364h32.602c12.335 0 21.147-5.286 21.147-16.741 0-12.336-8.812-17.623-22.91-17.623z"/>
		<path d="m689.926 252.007 60.798-148.912h34.364l60.798 148.912h-32.601l-11.455-28.196h-67.848l-11.454 28.196zm53.749-54.63h48.462l-21.147-53.75c-.881-2.643-1.762-6.168-3.524-11.454-.882 6.168-1.763 8.811-3.525 11.454z"/>
		<path d="m883.774 252.007v-148.912h61.68c29.077 0 59.036 10.574 59.036 48.463 0 25.552-14.098 38.769-32.602 44.056l44.942 56.393h-37.012l-40.532-51.987h-23.791v51.987zm31.721-79.302h30.84c13.217 0 25.553-6.168 25.553-21.147 0-14.98-11.455-21.148-25.553-21.148h-30.84z"/>
		<path d="m1055.6 252.007v-148.912h29.95l69.61 96.925c0-6.168-.88-13.217-.88-20.266v-76.659h31.72v148.912h-29.96l-69.6-96.925c0 6.168.88 13.217.88 20.266v76.659z"/>
		<path d="m1304.96 103.095c31.72 0 51.98 12.336 51.98 37.889 0 17.623-9.69 28.196-22.91 32.602 14.98 4.406 28.2 14.979 28.2 37.007 0 33.484-32.6 41.414-58.15 41.414h-64.33v-148.912zm0 84.589h-33.49v38.77h31.73c14.09 0 27.31-2.644 27.31-19.385 0-15.86-12.34-19.385-25.55-19.385zm-2.65-59.036h-30.84v34.364h32.61c12.33 0 21.14-5.287 21.14-16.741-.88-12.336-8.81-17.623-22.91-17.623z"/>
		<path d="m1407.17 252.007v-148.912h61.68c29.07 0 59.03 10.574 59.03 48.463 0 25.552-14.1 38.769-32.6 44.056l44.94 56.393h-37.01l-40.53-51.987h-23.79v51.987zm31.72-79.302h30.84c13.21 0 25.55-6.168 25.55-21.147 0-14.98-11.46-21.148-25.55-21.148h-30.84z"/>
		<path d="m1610.71 103.095v148.912h-31.72v-148.912z"/>
		<path d="m1719.97 103.095c52.87 0 78.42 31.721 78.42 74.897 0 43.175-25.55 74.896-78.42 74.896h-55.51v-149.793zm0 27.315h-23.79v92.519h23.79c29.96 0 45.82-15.86 45.82-46.7 0-30.839-16.74-45.819-45.82-45.819z"/>
		<path d="m1916.46 99.5702c15.87 0 31.73 3.5248 45.82 9.6928v30.839c-11.45-7.049-26.43-11.454-41.41-11.454-26.43 0-52.87 14.098-52.87 49.343 0 39.651 29.08 49.344 51.11 49.344 6.17 0 12.33-.882 16.74-2.644v-52.868h30.84v74.015c-14.98 6.168-31.72 9.693-48.46 9.693-41.42 0-81.95-22.91-81.95-77.54-.88-54.63 38.77-78.4208 80.18-78.4208z"/>
		<path d="m2119.12 103.095v28.196h-73.13v31.721h66.97v28.197h-66.97v33.483h74.02v28.196h-106.62v-149.793z"/>
	</g>
	<path d="m184.154 158.606h-1.762c-23.791 0-42.295 19.384-42.295 44.056v47.581l43.176-32.601 43.175 32.601v-47.581c0-23.79-19.385-43.175-42.294-44.056z" fill="#ff4339"/>
	<path d="m0 0v354.216l110.142-81.946v-93.4l-20.2663-15.86 93.4003-70.491 93.4 70.491-20.266 15.86v93.4l110.142 81.946v-354.216z" fill="#ff4339"/>
</svg>