<svg xmlns="http://www.w3.org/2000/svg" width="80" height="80" viewBox="0 0 80 80">
    <defs>
        <style>
            .cls-2{fill:#2a72e5}
        </style>
    </defs>
    <g id="tokamak_symbol" transform="translate(-165 -1449)">
        <path id="Base" fill="none" d="M0 0H80V80H0z" transform="translate(165 1449)"/>
        <g id="symbol" transform="translate(-130.65 1179.629)">
            <path id="패스_1" d="M296.669 295.21c-.247.779-.551 1.829-.748 2.626a3.962 3.962 0 0 1 2.052-2.58 10.677 10.677 0 0 1 8.444-4.082v-.03c-6.065-1.73-7.947.251-8.473 1.182a20.44 20.44 0 0 0-1.273 2.883" class="cls-2" transform="translate(0.214 6.291)"/>
            <path id="패스_2" d="M300.243 289.083l-.892.85c1.026-.836 2.718-.642 5.323.613a11.249 11.249 0 0 1 2.125-2.706c-1.235-.894-2.487-1.673-3.282-1.307a28.308 28.308 0 0 0-3.275 2.549" class="cls-2" transform="translate(2.926 3.165)"/>
            <path id="패스_3" d="M308.169 284.344c-.926.338-2.159.789-3.076 1.161a11.108 11.108 0 0 1 1.288 1.641 30.532 30.532 0 0 1 4.3-1.9c-.249-1.028-.31-1.541.007-1.671-.757.229-1.771.512-2.521.772" class="cls-2" transform="translate(7.465 0.934)"/>
            <path id="패스_4" d="M317.909 282.469c-1.409.114-3.286.288-4.691.452-.734.181-1.058.441-1.422 1.54a53.56 53.56 0 0 1 5.794-.768 3.173 3.173 0 0 1 2.519-1.321l-2.2.1" class="cls-2" transform="translate(12.764)"/>
            <path id="패스_5" d="M327.558 283.171c-1.318-.2-3.076-.448-4.4-.6a5.664 5.664 0 0 0-3.771.889 57.557 57.557 0 0 1 6.029.629 7.605 7.605 0 0 1 4.731-.411c-.777-.153-1.808-.377-2.589-.5" class="cls-2" transform="translate(18.766 0.137)"/>
            <path id="패스_6" d="M336.007 286.361c-.978-.45-2.283-1.04-3.275-1.449a10.164 10.164 0 0 0-6.169-.5 37.682 37.682 0 0 1 4.715 1.8 11.571 11.571 0 0 1 7.7 1.788c-.886-.507-2.065-1.193-2.976-1.639" class="cls-2" transform="translate(24.439 1.381)"/>
            <path id="패스_7" d="M345.847 298.8a22.174 22.174 0 0 0-2.706-5.287l-.7-.955c-3.144-3.824-6.313-5.518-10.6-5.664a15.08 15.08 0 0 1 2.7 2.628c7.125 1 12.029 7.22 12.493 15.844a21.877 21.877 0 0 0-1.191-6.565" class="cls-2" transform="translate(28.613 3.517)"/>
            <path id="패스_8" d="M334.4 322.483a30.9 30.9 0 0 0 3.86-2.935c.455-.439 1.065-1.019 1.5-1.479 8.887-10.224 4.849-24.978-4.693-27.653a7.1 7.1 0 0 1 .165 1.415v.254a7.127 7.127 0 0 1-.167 1.394c10.208 4.574 9.205 22.828-1.626 29.593l.958-.588" class="cls-2" transform="translate(29.877 6.256)"/>
            <path id="패스_9" d="M327.525 324.954c1.329-.341 3.094-.83 4.412-1.23 13.066-4.876 15.15-24.786 7.816-29.575a14.571 14.571 0 0 1-2.7 2.546c6.2 6.793-.154 25.984-11.8 28.74l2.27-.48" class="cls-2" transform="translate(23.404 9.161)"/>
            <path id="패스_10" d="M319.43 324.258c1.232-.011 2.876-.028 4.108-.076 10.853-1.113 18.577-20.9 15.889-27.093a36.191 36.191 0 0 1-4.715 1.664c-.025 7.915-10.756 25.6-18.452 25.4.951.034 2.219.1 3.169.1" class="cls-2" transform="translate(16.294 11.447)"/>
            <path id="패스_11" d="M310.182 320.889c1.212.29 2.833.661 4.052.908 4.528.331 15.931-14.932 20.142-23a57.518 57.518 0 0 1-6.045.453c-3.287 3.168-11.961 13.132-13.666 15.1-4.39 5.06-6.022 6.02-6.616 5.934l2.133.606" class="cls-2" transform="translate(9.802 12.776)"/>
            <path id="패스_12" d="M302.187 315.527a36.418 36.418 0 0 0 4.1 2.361l.116.057c.243-1.287 11.035-14.087 19.367-18.667a54.232 54.232 0 0 1-5.782-.935c-9.954 3.788-20.115 15.378-18.366 16.8l.56.384" class="cls-2" transform="translate(4.568 12.423)"/>
            <path id="패스_13" d="M298.6 310.321c.471.629 1.107 1.465 1.608 2.062-2.242-3.392 7.211-12.176 16.992-14.224a31.672 31.672 0 0 1-4.3-2.025c-9 .971-17.567 7.3-15.805 11.684.432.768 1.01 1.79 1.508 2.5" class="cls-2" transform="translate(0.954 10.705)"/>
            <path id="패스_14" d="M295.653 300.529v.428c.039.743.1 1.732.183 2.469-.242-4.818 7.126-7.931 13.891-7.71a11.706 11.706 0 0 1-2.127-2.772c-5.719-.729-8.845.736-10.462 2.091a11.661 11.661 0 0 0-1.483 5.493" class="cls-2" transform="translate(0 8.073)"/>
        </g>
    </g>
</svg>
