<?xml version="1.0" standalone="no"?>
<!DOCTYPE svg PUBLIC "-//W3C//DTD SVG 20010904//EN"
 "http://www.w3.org/TR/2001/REC-SVG-20010904/DTD/svg10.dtd">
<svg version="1.0" xmlns="http://www.w3.org/2000/svg"
 width="1042.000000pt" height="625.000000pt" viewBox="0 0 1042.000000 625.000000"
 preserveAspectRatio="xMidYMid meet">

<g transform="translate(0.000000,625.000000) scale(0.100000,-0.100000)"
fill="#000000" stroke="none">
<path d="M105 4418 c-3 -7 -4 -593 -3 -1303 l3 -1290 1215 0 1215 0 0 145 0
145 -1067 3 -1068 2 0 1005 0 1005 1068 2 1067 3 0 145 0 145 -1213 3 c-965 2
-1214 0 -1217 -10z"/>
<path d="M2322 3910 c-245 -64 -385 -261 -354 -496 12 -89 55 -183 104 -231
81 -78 217 -135 413 -172 225 -43 305 -101 305 -221 0 -61 -17 -96 -64 -138
-49 -43 -103 -55 -221 -50 -108 5 -176 30 -221 80 -36 38 -65 107 -71 164 l-6
54 -148 0 -149 0 0 -37 c0 -67 29 -176 64 -248 47 -94 138 -183 238 -230 236
-112 578 -78 739 72 102 95 141 191 140 348 0 146 -25 221 -99 295 -93 93
-179 127 -492 199 -168 38 -234 93 -233 193 1 100 87 158 233 158 68 0 95 -5
135 -24 62 -28 110 -82 126 -138 6 -24 13 -49 15 -56 3 -10 37 -12 146 -10
l143 3 -3 55 c-4 92 -22 149 -72 224 -75 111 -184 181 -330 212 -94 20 -250
17 -338 -6z"/>
<path d="M3780 3125 l0 -775 150 0 150 0 0 775 0 775 -150 0 -150 0 0 -775z"/>
<path d="M4486 3580 l-206 -320 0 -135 0 -135 213 -320 212 -319 178 -1 177 0
-68 103 c-38 56 -153 225 -256 376 -104 153 -186 284 -186 296 0 13 104 183
230 380 127 196 235 366 241 376 9 18 4 19 -160 19 l-169 0 -206 -320z"/>
<path d="M5945 3888 c-2 -7 -83 -346 -180 -753 -97 -407 -178 -750 -182 -762
l-5 -23 154 0 155 0 38 170 39 170 260 -2 260 -3 36 -163 c21 -89 40 -165 42
-168 3 -2 73 -3 155 -2 l150 3 -138 580 c-76 319 -159 667 -185 773 l-46 192
-274 0 c-211 0 -276 -3 -279 -12z m299 -155 c8 -26 166 -725 166 -735 0 -4
-86 -8 -191 -8 -149 0 -190 3 -187 13 3 6 43 177 88 380 71 310 87 367 101
367 10 0 20 -8 23 -17z"/>
<path d="M7630 3125 l0 -775 500 0 500 0 0 140 0 140 -350 0 -350 0 0 635 0
635 -150 0 -150 0 0 -775z"/>
<path d="M9310 3125 l0 -775 500 0 500 0 0 140 0 140 -355 0 -355 0 0 495 0
495 355 0 355 0 0 140 0 140 -500 0 -500 0 0 -775z"/>
<path d="M9810 3125 l0 -145 140 0 140 0 0 145 0 145 -140 0 -140 0 0 -145z"/>
</g>
</svg>
