<?xml version="1.0" encoding="UTF-8"?>
<svg width="1421px" height="276px" viewBox="0 0 1421 276" version="1.1" xmlns="http://www.w3.org/2000/svg" xmlns:xlink="http://www.w3.org/1999/xlink">
    <g id="balancer-black" stroke="none" stroke-width="1" fill="none" fill-rule="evenodd">
        <g id="pebbles-thick" transform="translate(34.000000, 42.000000)" fill="#000000">
            <path d="M70.2249426,131.335102 C88.3885318,135.90693 109.829275,138.547543 132.794118,138.547543 C155.758961,138.547543 177.199704,135.90693 195.363293,131.335102 C237.156963,138.821731 265.588235,153.574957 265.588235,170.550897 C265.588235,195.099459 206.134284,215 132.794118,215 C59.4539516,215 0,195.099459 0,170.550897 C0,153.574957 28.4312724,138.821731 70.2249426,131.335102 Z" id="peb-bot"></path>
            <path d="M86.2284218,59.3444914 C99.8672231,62.7039965 115.788524,64.6326414 132.794118,64.6326414 C149.799711,64.6326414 165.721012,62.7039965 179.359813,59.3444914 C214.858075,65.0764396 239.321267,77.15789 239.321267,91.1346186 C239.321267,110.650136 191.627438,126.470588 132.794118,126.470588 C73.9607976,126.470588 26.2669683,110.650136 26.2669683,91.1346186 C26.2669683,77.15789 50.7301608,65.0764396 86.2284218,59.3444914 Z" id="peb-med"></path>
            <g id="peb-top" transform="translate(53.506787, 0.000000)">
                <ellipse id="peb-sm" cx="79.7737557" cy="26.7533937" rx="79.7737557" ry="26.7533937"></ellipse>
            </g>
        </g>
        <path d="M374.533,238 L374.533,52.4265 L433.7145,52.4265 C445.110557,52.4265 454.930875,53.5488221 463.17575,55.7935 C471.420625,58.0381779 478.197723,61.2324793 483.50725,65.3765 C488.816777,69.5205207 492.744904,74.5925533 495.29175,80.59275 C497.838596,86.5929467 499.112,93.3484624 499.112,100.8595 C499.112,105.43519 498.399757,109.838146 496.97525,114.0685 C495.550743,118.298854 493.392431,122.226982 490.50025,125.853 C487.608069,129.479018 483.982105,132.716486 479.62225,135.5655 C475.262395,138.414514 470.147196,140.745491 464.2765,142.5585 C477.830901,145.234847 488.061299,150.112631 494.968,157.192 C501.874701,164.271369 505.328,173.595275 505.328,185.164 C505.328,193.020373 503.881931,200.185968 500.98975,206.661 C498.097569,213.136032 493.867278,218.704477 488.29875,223.3665 C482.730222,228.028523 475.909957,231.632904 467.83775,234.17975 C459.765543,236.726596 450.549552,238 440.1895,238 L374.533,238 Z M399.656,153.4365 L399.656,218.057 L439.801,218.057 C446.966702,218.057 453.117891,217.236842 458.25475,215.5965 C463.391609,213.956158 467.6219,211.646765 470.94575,208.66825 C474.2696,205.689735 476.708492,202.150104 478.2625,198.04925 C479.816508,193.948396 480.5935,189.437525 480.5935,184.5165 C480.5935,174.933452 477.204951,167.357778 470.42775,161.78925 C463.650549,156.220722 453.398569,153.4365 439.6715,153.4365 L399.656,153.4365 Z M399.656,135.5655 L432.808,135.5655 C439.887369,135.5655 446.016974,134.788508 451.197,133.2345 C456.377026,131.680492 460.672066,129.52218 464.08225,126.7595 C467.492434,123.99682 470.017658,120.651436 471.658,116.72325 C473.298342,112.795064 474.1185,108.500023 474.1185,103.838 C474.1185,92.9599456 470.837866,84.9741921 464.2765,79.8805 C457.715134,74.7868079 447.527902,72.24 433.7145,72.24 L399.656,72.24 L399.656,135.5655 Z M638.90674,238 L628.67624,238 C626.431562,238 624.61858,237.65467 623.23724,236.964 C621.8559,236.27333 620.949409,234.805678 620.51774,232.561 L617.92774,220.388 C614.47439,223.496016 611.107423,226.280238 607.82674,228.74075 C604.546057,231.201262 601.092758,233.273242 597.46674,234.95675 C593.840722,236.640258 589.977344,237.913662 585.87649,238.777 C581.775636,239.640338 577.221599,240.072 572.21424,240.072 C567.120548,240.072 562.350679,239.359757 557.90449,237.93525 C553.458301,236.510743 549.594923,234.374014 546.31424,231.525 C543.033557,228.675986 540.422,225.071605 538.47949,220.71175 C536.53698,216.351895 535.56574,211.19353 535.56574,205.2365 C535.56574,200.056474 536.990226,195.070774 539.83924,190.27925 C542.688254,185.487726 547.285458,181.235852 553.63099,177.5235 C559.976522,173.811148 568.286022,170.767929 578.55974,168.39375 C588.833458,166.019571 601.394833,164.659835 616.24424,164.3145 L616.24424,154.084 C616.24424,143.896616 614.064345,136.191443 609.70449,130.96825 C605.344635,125.745057 598.891283,123.1335 590.34424,123.1335 C584.732545,123.1335 580.005843,123.845743 576.16399,125.27025 C572.322138,126.694757 568.998338,128.291908 566.19249,130.06175 C563.386643,131.831592 560.969334,133.428743 558.94049,134.85325 C556.911647,136.277757 554.904417,136.99 552.91874,136.99 C551.364732,136.99 550.004996,136.579921 548.83949,135.75975 C547.673984,134.939579 546.74591,133.925173 546.05524,132.7165 L541.91124,125.335 C549.163276,118.341965 556.976365,113.118851 565.35074,109.6655 C573.725115,106.212149 583.005856,104.4855 593.19324,104.4855 C600.53161,104.4855 607.049712,105.694155 612.74774,108.1115 C618.445769,110.528845 623.237221,113.895812 627.12224,118.2125 C631.00726,122.529188 633.942564,127.752303 635.92824,133.882 C637.913917,140.011697 638.90674,146.74563 638.90674,154.084 L638.90674,238 Z M579.07774,223.8845 C583.135427,223.8845 586.847723,223.474421 590.21474,222.65425 C593.581757,221.834079 596.754475,220.668591 599.73299,219.15775 C602.711505,217.646909 605.560477,215.812344 608.27999,213.654 C610.999504,211.495656 613.654227,209.03518 616.24424,206.2725 L616.24424,178.948 C605.625187,179.293335 596.603444,180.135077 589.17874,181.47325 C581.754036,182.811423 575.710763,184.559656 571.04874,186.718 C566.386717,188.876344 562.998167,191.423152 560.88299,194.3585 C558.767813,197.293848 557.71024,200.574482 557.71024,204.2005 C557.71024,207.653851 558.271401,210.632321 559.39374,213.136 C560.516079,215.639679 562.026897,217.690075 563.92624,219.28725 C565.825583,220.884425 568.070227,222.049913 570.66024,222.78375 C573.250253,223.517587 576.056058,223.8845 579.07774,223.8845 Z M703.59148,47.2465 L703.59148,238 L680.54048,238 L680.54048,47.2465 L703.59148,47.2465 Z M844.68122,238 L834.45072,238 C832.206043,238 830.393061,237.65467 829.01172,236.964 C827.63038,236.27333 826.723889,234.805678 826.29222,232.561 L823.70222,220.388 C820.24887,223.496016 816.881904,226.280238 813.60122,228.74075 C810.320537,231.201262 806.867239,233.273242 803.24122,234.95675 C799.615202,236.640258 795.751824,237.913662 791.65097,238.777 C787.550117,239.640338 782.996079,240.072 777.98872,240.072 C772.895028,240.072 768.125159,239.359757 763.67897,237.93525 C759.232782,236.510743 755.369404,234.374014 752.08872,231.525 C748.808037,228.675986 746.19648,225.071605 744.25397,220.71175 C742.311461,216.351895 741.34022,211.19353 741.34022,205.2365 C741.34022,200.056474 742.764706,195.070774 745.61372,190.27925 C748.462735,185.487726 753.059939,181.235852 759.40547,177.5235 C765.751002,173.811148 774.060502,170.767929 784.33422,168.39375 C794.607939,166.019571 807.169313,164.659835 822.01872,164.3145 L822.01872,154.084 C822.01872,143.896616 819.838826,136.191443 815.47897,130.96825 C811.119115,125.745057 804.665763,123.1335 796.11872,123.1335 C790.507026,123.1335 785.780323,123.845743 781.93847,125.27025 C778.096618,126.694757 774.772818,128.291908 771.96697,130.06175 C769.161123,131.831592 766.743814,133.428743 764.71497,134.85325 C762.686127,136.277757 760.678897,136.99 758.69322,136.99 C757.139213,136.99 755.779476,136.579921 754.61397,135.75975 C753.448465,134.939579 752.520391,133.925173 751.82972,132.7165 L747.68572,125.335 C754.937757,118.341965 762.750845,113.118851 771.12522,109.6655 C779.499596,106.212149 788.780336,104.4855 798.96772,104.4855 C806.30609,104.4855 812.824192,105.694155 818.52222,108.1115 C824.220249,110.528845 829.011701,113.895812 832.89672,118.2125 C836.78174,122.529188 839.717044,127.752303 841.70272,133.882 C843.688397,140.011697 844.68122,146.74563 844.68122,154.084 L844.68122,238 Z M784.85222,223.8845 C788.909907,223.8845 792.622204,223.474421 795.98922,222.65425 C799.356237,221.834079 802.528956,220.668591 805.50747,219.15775 C808.485985,217.646909 811.334957,215.812344 814.05447,213.654 C816.773984,211.495656 819.428708,209.03518 822.01872,206.2725 L822.01872,178.948 C811.399667,179.293335 802.377924,180.135077 794.95322,181.47325 C787.528517,182.811423 781.485244,184.559656 776.82322,186.718 C772.161197,188.876344 768.772648,191.423152 766.65747,194.3585 C764.542293,197.293848 763.48472,200.574482 763.48472,204.2005 C763.48472,207.653851 764.045882,210.632321 765.16822,213.136 C766.290559,215.639679 767.801378,217.690075 769.70072,219.28725 C771.600063,220.884425 773.844708,222.049913 776.43472,222.78375 C779.024733,223.517587 781.830539,223.8845 784.85222,223.8845 Z M883.724961,238 L883.724961,106.8165 L897.451961,106.8165 C900.732644,106.8165 902.804623,108.413651 903.667961,111.608 L905.480961,125.853 C911.178989,119.550635 917.546009,114.457019 924.582211,110.572 C931.618412,106.686981 939.755248,104.7445 948.992961,104.7445 C956.158663,104.7445 962.482517,105.931571 967.964711,108.30575 C973.446905,110.679929 978.022526,114.046895 981.691711,118.40675 C985.360896,122.766605 988.145118,128.011303 990.044461,134.141 C991.943803,140.270697 992.893461,147.047796 992.893461,154.4725 L992.893461,238 L969.842461,238 L969.842461,154.4725 C969.842461,144.544117 967.576233,136.838944 963.043711,131.35675 C958.511188,125.874556 951.583007,123.1335 942.258961,123.1335 C935.438593,123.1335 929.071574,124.773817 923.157711,128.0545 C917.243848,131.335183 911.783319,135.781305 906.775961,141.393 L906.775961,238 L883.724961,238 Z M1121.2922,130.1265 C1120.60153,131.076171 1119.91087,131.809997 1119.2202,132.328 C1118.52953,132.846003 1117.53671,133.105 1116.2417,133.105 C1114.94669,133.105 1113.54379,132.565422 1112.03295,131.48625 C1110.52211,130.407078 1108.60121,129.220006 1106.2702,127.925 C1103.93919,126.629994 1101.1118,125.442922 1097.78795,124.36375 C1094.4641,123.284578 1090.38489,122.745 1085.5502,122.745 C1079.1615,122.745 1073.50673,123.888905 1068.5857,126.17675 C1063.66468,128.464595 1059.5423,131.766812 1056.21845,136.0835 C1052.8946,140.400188 1050.39096,145.623303 1048.70745,151.753 C1047.02394,157.882697 1046.1822,164.746129 1046.1822,172.3435 C1046.1822,180.286206 1047.08869,187.343886 1048.9017,193.51675 C1050.71471,199.689614 1053.26152,204.869562 1056.5422,209.05675 C1059.82288,213.243938 1063.81576,216.438239 1068.52095,218.63975 C1073.22614,220.841261 1078.514,221.942 1084.3847,221.942 C1089.9964,221.942 1094.61518,221.272923 1098.2412,219.93475 C1101.86722,218.596577 1104.88886,217.107342 1107.3062,215.467 C1109.72355,213.826658 1111.70919,212.337423 1113.2632,210.99925 C1114.81721,209.661077 1116.37119,208.992 1117.9252,208.992 C1119.91088,208.992 1121.37853,209.725826 1122.3282,211.1935 L1128.8032,219.611 C1123.10517,226.604035 1115.98274,231.719234 1107.4357,234.95675 C1098.88866,238.194266 1089.86691,239.813 1080.3702,239.813 C1072.16849,239.813 1064.54965,238.302182 1057.51345,235.2805 C1050.47725,232.258818 1044.36923,227.877445 1039.1892,222.13625 C1034.00917,216.395055 1029.92997,209.337375 1026.95145,200.963 C1023.97294,192.588625 1022.4837,183.048887 1022.4837,172.3435 C1022.4837,162.587785 1023.84344,153.566041 1026.56295,145.278 C1029.28246,136.989959 1033.25376,129.845947 1038.47695,123.84575 C1043.70014,117.845553 1050.1535,113.162017 1057.8372,109.795 C1065.52091,106.427983 1074.32682,104.7445 1084.2552,104.7445 C1093.40658,104.7445 1101.52183,106.233735 1108.6012,109.21225 C1115.68057,112.190765 1121.93967,116.399473 1127.3787,121.8385 L1121.2922,130.1265 Z M1208.76894,104.7445 C1216.62531,104.7445 1223.87724,106.06107 1230.52494,108.69425 C1237.17264,111.32743 1242.91375,115.126059 1247.74844,120.09025 C1252.58313,125.054441 1256.36018,131.184047 1259.07969,138.47925 C1261.7992,145.774453 1263.15894,154.083953 1263.15894,163.408 C1263.15894,167.034018 1262.77044,169.451327 1261.99344,170.66 C1261.21644,171.868673 1259.74879,172.473 1257.59044,172.473 L1170.30744,172.473 C1170.48011,180.761041 1171.60243,187.969803 1173.67444,194.0995 C1175.74645,200.229197 1178.59542,205.344396 1182.22144,209.44525 C1185.84746,213.546104 1190.16408,216.610907 1195.17144,218.63975 C1200.1788,220.668593 1205.79041,221.683 1212.00644,221.683 C1217.7908,221.683 1222.7765,221.013923 1226.96369,219.67575 C1231.15088,218.337577 1234.75526,216.891508 1237.77694,215.3375 C1240.79862,213.783492 1243.32385,212.337423 1245.35269,210.99925 C1247.38153,209.661077 1249.12977,208.992 1250.59744,208.992 C1252.49678,208.992 1253.96444,209.725826 1255.00044,211.1935 L1261.47544,219.611 C1258.62643,223.064351 1255.21629,226.064404 1251.24494,228.61125 C1247.27359,231.158096 1243.02171,233.251658 1238.48919,234.892 C1233.95667,236.532342 1229.27313,237.762579 1224.43844,238.58275 C1219.60375,239.402921 1214.8123,239.813 1210.06394,239.813 C1200.9989,239.813 1192.64623,238.280599 1185.00569,235.21575 C1177.36515,232.150901 1170.76072,227.661613 1165.19219,221.74775 C1159.62366,215.833887 1155.28546,208.51721 1152.17744,199.7975 C1149.06943,191.07779 1147.51544,181.063223 1147.51544,169.7535 C1147.51544,160.602121 1148.91834,152.055206 1151.72419,144.1125 C1154.53004,136.169794 1158.56608,129.284779 1163.83244,123.45725 C1169.0988,117.629721 1175.53057,113.0541 1183.12794,109.73025 C1190.72531,106.4064 1199.27223,104.7445 1208.76894,104.7445 Z M1209.28694,121.709 C1198.14989,121.709 1189.38714,124.924885 1182.99844,131.35675 C1176.60974,137.788615 1172.63845,146.702443 1171.08444,158.0985 L1242.43894,158.0985 C1242.43894,152.745807 1241.70511,147.846439 1240.23744,143.40025 C1238.76977,138.954061 1236.61146,135.112266 1233.76244,131.87475 C1230.91343,128.637234 1227.43854,126.133592 1223.33769,124.36375 C1219.23684,122.593908 1214.5533,121.709 1209.28694,121.709 Z M1296.63418,238 L1296.63418,106.8165 L1309.84318,106.8165 C1312.34686,106.8165 1314.07351,107.291329 1315.02318,108.241 C1315.97285,109.190671 1316.62035,110.830988 1316.96568,113.162 L1318.51968,133.623 C1323.00904,124.471621 1328.5559,117.327609 1335.16043,112.19075 C1341.76496,107.053891 1349.5133,104.4855 1358.40568,104.4855 C1362.0317,104.4855 1365.31233,104.895579 1368.24768,105.71575 C1371.18303,106.535921 1373.9025,107.679826 1376.40618,109.1475 L1373.42768,126.371 C1372.82334,128.529344 1371.48519,129.6085 1369.41318,129.6085 C1368.20451,129.6085 1366.34836,129.198421 1363.84468,128.37825 C1361.341,127.558079 1357.84454,127.148 1353.35518,127.148 C1345.32614,127.148 1338.61379,129.478977 1333.21793,134.141 C1327.82207,138.803023 1323.3112,145.580122 1319.68518,154.4725 L1319.68518,238 L1296.63418,238 Z" id="Balancer" fill="#000000" fill-rule="nonzero"></path>
    </g>
</svg>
