<svg xmlns="http://www.w3.org/2000/svg" viewBox="0 0 784.16 142.27"><defs><style>.cls-1{fill:#4948f6;}</style></defs><title>Asset 1</title><g id="Layer_2" data-name="Layer 2"><g id="Layer_1-2" data-name="Layer 1"><path class="cls-1" d="M147.42,131c-.7-1.13-1.42-2.25-2.17-3.34-.38-.55-.8-1.08-1.21-1.62-.52-.7-1-1.41-1.59-2.1s-1-1.19-1.52-1.79l-1-1.15c-.18-.2-.34-.41-.52-.6-.57-.62-1.15-1.21-1.73-1.81s-1-1-1.56-1.55-1.28-1.2-1.93-1.79-1-.92-1.59-1.38c-.7-.59-1.41-1.18-2.13-1.75L128.91,111c-.78-.58-1.56-1.16-2.36-1.73-.48-.34-1-.66-1.48-1-.87-.57-1.74-1.14-2.63-1.68l-1.3-.74c-1-.59-2-1.17-3-1.73l-.56-.28a86.34,86.34,0,0,0-16.76-6.55L100,97c-1.27-.33-2.56-.63-3.85-.91L95,95.86c-1.26-.25-2.54-.47-3.82-.68l-1.3-.2c-1.3-.18-2.57-.34-3.9-.46A89.29,89.29,0,0,0,76.69,94a91.38,91.38,0,0,0-13.43,1A81.86,81.86,0,0,1,9.06,126.5c-1.2,1.64-2.35,3.3-3.39,5L26,142.27a58,58,0,0,1,50.77-27.53,58,58,0,0,1,50.76,27.53l20.24-10.71C147.65,131.37,147.52,131.21,147.42,131Z"/><path class="cls-1" d="M73.7,6.11C72.88,4.27,72,2.45,71,.69L51.59,12.79a57.42,57.42,0,0,1-1.43,57.52,58,58,0,0,1-49.34,30L0,123.08c1,0,2-.08,2.92-.15.54,0,1.07,0,1.61-.08.9-.07,1.79-.2,2.69-.31.66-.08,1.3-.14,2-.24.86-.13,1.73-.3,2.6-.47l1.3-.25.75-.14c.86-.19,1.7-.41,2.55-.62.69-.17,1.38-.35,2.05-.54.85-.24,1.68-.5,2.52-.78.68-.22,1.37-.43,2-.69.83-.29,1.66-.59,2.48-.91l2-.83c.82-.35,1.63-.7,2.44-1.07s1.32-.64,2-1,1.6-.79,2.39-1.22,1.3-.73,1.92-1.09c.79-.43,1.57-.9,2.35-1.37.62-.39,1.23-.81,1.85-1.21s1.55-1,2.3-1.54c.43-.3.84-.63,1.26-.94q2.35-1.72,4.61-3.63c.62-.52,1.24-1,1.84-1.56s1.3-1.22,1.94-1.82,1.21-1.14,1.8-1.73S55.4,97.63,56,97c.21-.22.43-.45.63-.69.36-.4.74-.78,1.1-1.2.58-.66,1.15-1.34,1.73-2s1.11-1.34,1.65-2,1.09-1.41,1.62-2.12A87.45,87.45,0,0,0,74,68.58,81.07,81.07,0,0,1,73.7,6.11Z"/><path class="cls-1" d="M151.46,99.59a57.93,57.93,0,0,1-49.34-30,57.39,57.39,0,0,1-1.43-57.52L81.25,0A69.85,69.85,0,0,0,76,12a81.25,81.25,0,0,0,.24,50.25,90.94,90.94,0,0,0,3.9,10.11q1.77,3.86,4,7.62A90.87,90.87,0,0,0,91.71,91a81.86,81.86,0,0,1,54.47,31c2,.21,4,.36,6.07.4Z"/><path class="cls-1" d="M230,92.49h28.37l-14-30.22Zm17.61-52.78,36.11,77.44H269.9l-5.55-12h-40.3l-5.66,11.95H204.54l36.57-77.44Z"/><polygon class="cls-1" points="373.78 104.44 373.78 117.15 330.58 117.15 330.58 39.71 343.45 39.71 343.45 104.44 373.78 104.44"/><polygon class="cls-1" points="475.17 117.15 449.19 87 437.95 99.44 437.95 117.15 425.21 117.15 425.21 39.81 437.97 39.81 437.97 80.3 474.75 39.72 491.89 39.72 457.91 77.36 491.44 117.15 475.19 117.15 475.17 117.15"/><polygon class="cls-1" points="593.14 52.53 556.47 52.53 556.47 72.07 580.91 72.07 580.91 84.78 556.47 84.78 556.47 104.44 593.14 104.44 593.14 117.15 543.7 117.15 543.7 39.71 593.14 39.71 593.14 52.53"/><polygon class="cls-1" points="713.04 39.71 722.99 39.71 722.99 117.15 710.23 117.15 710.23 66.32 682.57 111.03 654.68 66.14 654.68 117.15 641.91 117.15 641.91 39.71 651.96 39.71 682.55 88.75 713.04 39.71"/><rect class="cls-1" x="770.07" y="40.04" width="14.09" height="76.77"/></g></g></svg>