<svg width="1476" height="591" viewBox="0 0 1476 591" fill="none" xmlns="http://www.w3.org/2000/svg">
<path fill-rule="evenodd" clip-rule="evenodd" d="M190.471 -0.00412518V474.906L2.47955e-05 474.906V115.126L190.471 -0.00412518Z" fill="#0519D3"/>
<path fill-rule="evenodd" clip-rule="evenodd" d="M228.563 590.996L228.563 113.207H419.034V118.664V475.866L228.563 590.996Z" fill="#0519D3"/>
<rect x="629.059" y="168.934" width="60.9472" height="306.995" fill="#1B1E27"/>
<rect x="629.059" y="168.934" width="60.9472" height="306.995" fill="#1B1E27"/>
<path d="M1035.18 321.458C1035.18 406.265 966.446 475.015 881.658 475.015C796.87 475.015 728.135 406.265 728.135 321.458C728.135 236.652 796.87 167.902 881.658 167.902C966.446 167.902 1035.18 236.652 1035.18 321.458ZM789.544 321.458C789.544 372.342 830.785 413.592 881.658 413.592C932.531 413.592 973.772 372.342 973.772 321.458C973.772 270.574 932.531 229.325 881.658 229.325C830.785 229.325 789.544 270.574 789.544 321.458Z" fill="#1B1E27"/>
<path d="M973.772 79.0117L1035.18 79.0116V476.711H973.772V79.0117Z" fill="#1B1E27"/>
<path d="M1072.47 77.3672H1133.88V475.066H1072.47L1072.47 77.3672Z" fill="#1B1E27"/>
<path d="M1476.13 346.323C1481.97 308.684 1473.8 270.2 1453.19 238.259C1432.58 206.317 1400.99 183.17 1364.47 173.259C1327.96 163.348 1289.1 167.373 1255.35 184.56C1221.61 201.748 1195.35 230.887 1181.62 266.384C1167.9 301.882 1167.67 341.236 1180.98 376.891C1194.3 412.547 1220.22 441.993 1253.76 459.575C1287.31 477.158 1326.12 481.638 1362.75 472.157C1399.37 462.675 1431.23 439.9 1452.21 408.203L1401.15 373.913C1388.56 392.931 1369.45 406.597 1347.47 412.286C1325.5 417.974 1302.21 415.286 1282.08 404.737C1261.96 394.187 1246.41 376.52 1238.42 355.126C1230.43 333.733 1230.57 310.121 1238.8 288.822C1247.04 267.524 1262.79 250.04 1283.04 239.728C1303.29 229.415 1326.6 227 1348.51 232.947C1370.42 238.893 1389.37 252.782 1401.74 271.947C1414.1 291.111 1419.01 314.202 1415.51 336.785L1476.13 346.323Z" fill="#1B1E27"/>
<path d="M1200.67 292.754H1472.08L1475.91 346.249H1200.67V292.754Z" fill="#1B1E27"/>
</svg>