<svg width="6243" height="1609" viewBox="0 0 6243 1609" fill="none" xmlns="http://www.w3.org/2000/svg">
<path fill-rule="evenodd" clip-rule="evenodd" d="M175.111 115.569C208.939 98.9206 251.334 97.3534 292.934 119.737L406.147 185.469C409.431 187.376 412.838 188.879 416.311 189.993C419.001 192.457 421.995 194.671 425.279 196.577L653.045 328.82C656.329 330.726 659.736 332.229 663.209 333.344C665.899 335.807 668.894 338.021 672.178 339.928L899.944 472.17C903.228 474.077 906.635 475.58 910.108 476.694C912.798 479.158 915.793 481.372 919.076 483.278L1146.84 615.52C1150.13 617.427 1153.53 618.93 1157.01 620.045C1159.7 622.508 1162.69 624.722 1165.98 626.629L1279.81 692.719L1279.83 692.733C1298.09 703.371 1313.47 718.087 1324.62 735.545C1325.57 737.03 1326.58 738.45 1327.65 739.803C1328.3 741.4 1329.03 742.979 1329.85 744.535C1339.16 762.143 1344.5 782.294 1344.5 804.155C1344.5 826.007 1339.16 846.156 1329.84 863.77C1329.02 865.326 1328.29 866.906 1327.64 868.503C1326.57 869.856 1325.55 871.277 1324.61 872.762C1320.5 879.185 1315.83 885.238 1310.65 890.854C1328.91 921.571 1343.81 954.525 1354.82 989.208C1377.08 972.464 1396.31 951.846 1411.41 928.201C1413.14 925.499 1414.58 922.697 1415.75 919.83C1417.67 917.401 1419.39 914.763 1420.89 911.927C1437.9 879.774 1447.5 843.129 1447.5 804.155C1447.5 765.186 1437.91 728.544 1420.91 696.393C1419.41 693.557 1417.68 690.919 1415.76 688.489C1414.6 685.621 1413.16 682.819 1411.43 680.117C1391.3 648.592 1363.83 622.451 1331.63 603.705L1331.58 603.675L1217.69 537.554C1214.41 535.647 1211 534.144 1207.53 533.029C1204.84 530.566 1201.84 528.352 1198.56 526.445L970.794 394.203C967.51 392.297 964.103 390.794 960.629 389.679C957.94 387.215 954.945 385.002 951.661 383.095L723.895 250.853C720.611 248.946 717.204 247.443 713.731 246.329C711.041 243.865 708.047 241.651 704.763 239.745L476.996 107.503C473.712 105.596 470.305 104.093 466.832 102.978C464.142 100.515 461.148 98.3009 457.864 96.3943L343.981 30.2733C343.564 30.0311 343.143 29.7948 342.72 29.5645C271.305 -9.2586 193.363 -8.21156 129.63 23.1539C123.777 26.0341 118.715 29.8772 114.538 34.3979C108.587 35.9505 102.815 38.6031 97.5191 42.4046C40.3471 83.4466 2.31805 150.927 0.52734 231.223C0.51881 231.605 0.514542 231.988 0.514538 232.37L0.512859 364.238C0.51281 368.041 0.924896 371.747 1.70689 375.315C0.924809 378.883 0.51263 382.589 0.512581 386.392L0.509228 650.127C0.509178 653.93 0.921268 657.636 1.70326 661.204C0.921177 664.772 0.508995 668.478 0.508945 672.281L0.505592 936.017C0.505543 939.819 0.917629 943.526 1.69962 947.094C0.917538 950.661 0.50536 954.368 0.50531 958.17L0.501957 1221.91C0.501907 1225.71 0.913998 1229.42 1.69599 1232.98C0.913906 1236.55 0.501724 1240.26 0.501675 1244.06L0.5 1375.93C0.499996 1376.31 0.504219 1376.69 0.512669 1377.07C2.29223 1457.29 40.2422 1524.86 97.2673 1566.08C102.551 1569.9 108.315 1572.58 114.262 1574.15C118.422 1578.69 123.471 1582.55 129.314 1585.45C193.044 1617.12 271.122 1618.46 342.7 1579.56C343.135 1579.33 343.566 1579.08 343.993 1578.84L457.876 1512.62C461.16 1510.71 464.155 1508.5 466.844 1506.03C470.317 1504.91 473.725 1503.41 477.009 1501.5L555.03 1456.14C531.498 1430.84 510.694 1402.98 493.087 1373.01L425.238 1412.45C421.954 1414.36 418.96 1416.58 416.271 1419.05C412.797 1420.16 409.389 1421.67 406.105 1423.58L292.91 1489.39C251.384 1511.72 209.02 1510.05 175.147 1493.21C171.97 1491.64 168.708 1490.42 165.408 1489.54C163.094 1487.02 160.494 1484.7 157.615 1482.62C126.845 1460.37 104.716 1423.05 103.5 1375.32L103.502 1244.06C103.502 1240.26 103.09 1236.55 102.308 1232.98C103.09 1229.42 103.502 1225.71 103.502 1221.91L103.505 958.172C103.505 954.369 103.093 950.663 102.311 947.095C103.093 943.527 103.506 939.821 103.506 936.018L103.509 672.282C103.509 668.48 103.097 664.773 102.315 661.205C103.097 657.638 103.509 653.931 103.509 650.129L103.513 386.393C103.513 382.59 103.101 378.884 102.319 375.316C103.101 371.748 103.513 368.042 103.513 364.239L103.515 232.985C104.737 185.251 126.868 148.128 157.585 126.077C160.463 124.011 163.065 121.703 165.382 119.201C168.677 118.337 171.935 117.131 175.111 115.569Z" fill="url(#paint0_linear_22211_24906)"/>
<path d="M1024.62 1001.87C1008.33 999.291 952.692 987.819 926.91 982.406L1075.08 1038.45L1024.62 1001.87Z" fill="url(#paint1_linear_22211_24906)"/>
<path d="M556.351 996.389C554.408 954.554 597.69 863.824 619.574 823.688C507.702 923.679 477.05 1035.26 475.709 1078.56C507.938 1057.07 547.017 1045.15 562.528 1041.88C528.883 1092.73 528.799 1208.04 532.963 1259.34L576.824 1216.39C588.983 1280.82 619.482 1317.23 633.211 1327.39C605.285 1266.54 616.81 1170.76 626.063 1130.47L590.253 1164.47C588.115 1105.76 613.236 1009.56 626.063 968.802C607.575 978.046 571.885 991.045 556.351 996.389Z" fill="url(#paint2_linear_22211_24906)"/>
<path d="M791.236 794.82C769.977 839.386 729.929 941.892 739.811 995.385L826.214 956.313C800.125 1011.78 746.544 1145.29 748.497 1232.27L748.972 1242.07C748.729 1238.87 748.572 1235.61 748.497 1232.27L739.811 1052.99L664.721 1097.23C665.068 1055.06 676.345 947.257 728.499 868.87L791.236 794.82Z" fill="url(#paint3_linear_22211_24906)"/>
<path d="M835.152 867.714C813.66 831.914 831.07 795.441 843.248 780.977C837.175 841.875 895.853 899.338 915.909 915.751C892.93 912.781 862.296 892.829 845.703 879.508C841.56 876.182 837.886 872.269 835.152 867.714Z" fill="url(#paint4_linear_22211_24906)"/>
<path d="M1077.06 1213.02C1064.68 1333.17 972.679 1380.07 928.229 1388.5C881.691 1298.75 777.695 1315.37 729.572 1335.62C813.581 1247.38 907.756 1301.47 938.118 1343.53C1007.48 1332.49 1049.75 1248.24 1044.54 1213.02C992.25 1187.66 887.734 1189.79 839.258 1191.37C853.638 1159.81 895.611 1138.24 916.119 1131.86C939.899 1151.59 1010.85 1194.42 1072.37 1178.7C1138.35 1161.85 1170.75 1102.6 1177.51 1074.19L1147.08 979.042L1221.58 1012.7C1186.3 937.999 1086.03 879.465 1040.31 859.536C1064.77 848.82 1078.61 838.878 1082.47 835.246C1068.28 799.713 1020.85 765.476 998.912 752.799L997.281 785.105C976.323 766.783 951.744 759.913 942.074 758.767C901.572 749.662 870.488 761.52 860.009 768.587C879.476 735.692 933.283 723.721 954.948 723.061C939.513 708.626 919.461 703.745 911.365 703.109C910.139 702.461 899.032 701.554 864.416 703.109C829.799 704.663 793.94 725.479 780.338 735.692C794.912 700.687 831.358 680.924 847.76 675.418C841.597 669.533 798.255 655.801 777.354 649.671C777.493 682.789 768.667 700.298 764.237 704.913C744.458 624.548 652.782 562.019 611.281 534.294C602.231 545.759 589.397 578.328 584.111 593.18C564.79 661.414 606.249 692.028 629.394 698.806C610.684 652.919 626.618 625.347 636.924 617.296L707.121 725.976C714.166 728.243 713.159 733.832 652.782 738.052C592.404 742.271 554.153 684.984 542.575 655.813C475.534 666.695 418.06 689.009 397.703 698.806C417.024 660.164 502.335 622.351 542.575 608.274C538.327 537.042 574.024 496.078 592.404 484.5L764.48 608.274C865.915 638.477 927.986 668.143 946.342 679.201C1062.88 743.187 1117.37 815.074 1130.04 843.019C1113.14 846.267 1101.97 855.383 1098.5 859.536C1214.34 913.973 1261.96 1006.15 1269.64 1044C1231.94 1056.38 1172.23 1142.99 1147.08 1184.74C1114.21 1217.08 1086.7 1217.07 1077.06 1213.02Z" fill="url(#paint5_linear_22211_24906)"/>
<path d="M998.048 836.573C973.702 818.917 920.031 815.545 896.238 816.065C922.666 839.883 1000.11 900.478 1035.52 927.798C986.86 888.601 990.263 850.649 998.048 836.573Z" fill="#4688D9"/>
<path d="M1001.93 1043.06L908.416 1031.95L1063.98 1078.73L1001.93 1043.06Z" fill="url(#paint6_linear_22211_24906)"/>
<path d="M978.786 1083.36L875.068 1079.2L1032.95 1106.96L978.786 1083.36Z" fill="url(#paint7_linear_22211_24906)"/>
<path d="M2402.55 873.98H2041.32V758.844H2402.55V873.98ZM2453.53 615.582H1995.62V1131.5H1881.36V558.893C1881.36 550.982 1882.82 543.512 1885.75 536.48C1888.68 529.449 1892.64 523.297 1897.62 518.023C1902.89 512.75 1909.04 508.648 1916.07 505.719C1923.11 502.789 1930.72 501.324 1938.93 501.324H2453.53V615.582ZM2990.98 974.176C2990.98 989.996 2988.19 1007.13 2982.63 1025.59C2977.06 1043.76 2967.98 1060.75 2955.38 1076.57C2943.08 1092.1 2926.82 1105.13 2906.6 1115.68C2886.68 1126.23 2862.36 1131.5 2833.65 1131.5H2627.55C2611.73 1131.5 2594.59 1128.72 2576.13 1123.15C2557.97 1117.58 2540.98 1108.65 2525.16 1096.34C2509.63 1083.75 2496.59 1067.49 2486.04 1047.56C2475.5 1027.35 2470.22 1002.89 2470.22 974.176C2470.22 958.355 2473.01 941.217 2478.57 922.76C2484.14 904.303 2493.08 887.311 2505.38 871.783C2517.98 855.963 2534.24 842.779 2554.16 832.232C2574.38 821.686 2598.84 816.412 2627.55 816.412H2833.65V925.396H2627.55C2612.02 925.396 2600.01 930.23 2591.51 939.898C2583.02 949.273 2578.77 960.992 2578.77 975.055C2578.77 989.996 2583.6 1001.71 2593.27 1010.21C2603.23 1018.41 2614.95 1022.52 2628.43 1022.52H2833.65C2849.18 1022.52 2861.19 1017.83 2869.69 1008.45C2878.18 999.078 2882.43 987.359 2882.43 973.297V813.775C2882.43 798.834 2877.74 786.969 2868.37 778.18C2859.29 769.391 2847.71 764.996 2833.65 764.996H2582.72V656.451H2833.65C2849.47 656.451 2866.46 659.234 2884.63 664.801C2903.09 670.367 2920.08 679.449 2935.61 692.047C2951.43 704.352 2964.61 720.611 2975.16 740.826C2985.7 760.748 2990.98 785.064 2990.98 813.775V974.176ZM3615 1131.5H3500.74V867.828C3500.74 852.887 3498.11 839.557 3492.83 827.838C3487.85 815.826 3480.97 805.572 3472.18 797.076C3463.39 788.58 3452.99 782.135 3440.98 777.74C3429.26 773.053 3416.51 770.709 3402.74 770.709H3202.79V1131.5H3088.54V713.141C3088.54 705.23 3090 697.906 3092.93 691.168C3095.86 684.137 3099.96 678.131 3105.23 673.15C3110.51 667.877 3116.66 663.775 3123.69 660.846C3130.72 657.916 3138.19 656.451 3146.1 656.451H3403.62C3417.98 656.451 3433.07 658.062 3448.89 661.285C3465 664.508 3480.82 669.781 3496.35 677.105C3512.17 684.137 3527.11 693.219 3541.17 704.352C3555.53 715.191 3568.12 728.521 3578.96 744.342C3590.1 759.869 3598.89 777.887 3605.33 798.395C3611.78 818.902 3615 842.047 3615 867.828V1131.5ZM4297.47 615.582H4045.66V1131.5H3931.41V615.582H3679.16V501.324H4297.47V615.582ZM4485.12 558.893H4370.86V455.621H4485.12V558.893ZM4485.12 1131.5H4370.86V656.451H4485.12V1131.5ZM5111.78 1177.2C5111.78 1196.83 5109.29 1214.41 5104.31 1229.94C5099.33 1245.76 5092.73 1259.53 5084.53 1271.25C5076.33 1283.26 5066.81 1293.37 5055.97 1301.57C5045.13 1310.06 5033.7 1316.95 5021.69 1322.22C5009.97 1327.5 4997.96 1331.3 4985.65 1333.65C4973.64 1336.29 4962.22 1337.6 4951.38 1337.6H4745.27V1223.35H4951.38C4966.9 1223.35 4978.48 1219.39 4986.09 1211.48C4993.71 1203.57 4997.52 1192.14 4997.52 1177.2V816.412C4997.52 801.471 4993.71 790.191 4986.09 782.574C4978.48 774.664 4966.9 770.709 4951.38 770.709H4745.27C4731.21 770.709 4720.08 775.104 4711.88 783.893C4703.67 792.389 4699.57 803.229 4699.57 816.412V971.1C4699.57 986.041 4703.53 997.467 4711.44 1005.38C4719.35 1013.29 4730.92 1017.24 4746.15 1017.24H4951.38V1131.5H4745.27C4734.43 1131.5 4723.01 1130.33 4711 1127.98C4698.98 1125.35 4686.97 1121.39 4674.96 1116.12C4663.24 1110.85 4651.96 1104.11 4641.12 1095.9C4630.28 1087.41 4620.76 1077.3 4612.56 1065.58C4604.36 1053.57 4597.76 1039.8 4592.78 1024.27C4587.8 1008.45 4585.31 990.729 4585.31 971.1V816.412C4585.31 805.572 4586.48 794.146 4588.83 782.135C4591.46 770.123 4595.42 758.258 4600.69 746.539C4605.97 734.527 4612.71 723.102 4620.91 712.262C4629.4 701.422 4639.51 691.9 4651.23 683.697C4663.24 675.494 4677.01 668.902 4692.54 663.922C4708.07 658.941 4725.64 656.451 4745.27 656.451H4951.38C4962.22 656.451 4973.64 657.77 4985.65 660.406C4997.96 662.75 5009.97 666.559 5021.69 671.832C5033.7 677.105 5045.13 683.99 5055.97 692.486C5066.81 700.689 5076.33 710.797 5084.53 722.809C5092.73 734.527 5099.33 748.15 5104.31 763.678C5109.29 779.205 5111.78 796.783 5111.78 816.412V1177.2ZM5727.45 813.775C5727.45 829.596 5724.67 846.734 5719.1 865.191C5713.54 883.355 5704.45 900.348 5691.86 916.168C5679.55 931.695 5663.29 944.732 5643.08 955.279C5623.15 965.826 5598.84 971.1 5570.13 971.1H5364.02V862.555H5570.13C5585.65 862.555 5597.67 857.867 5606.16 848.492C5614.66 838.824 5618.91 826.959 5618.91 812.896C5618.91 797.955 5614.07 786.236 5604.4 777.74C5595.03 769.244 5583.6 764.996 5570.13 764.996H5364.02C5348.5 764.996 5336.48 769.83 5327.99 779.498C5319.49 788.873 5315.24 800.592 5315.24 814.654V974.176C5315.24 989.41 5319.93 1001.28 5329.31 1009.77C5338.97 1018.27 5350.84 1022.52 5364.9 1022.52H5570.13V1131.5H5364.02C5348.2 1131.5 5331.06 1128.72 5312.61 1123.15C5294.44 1117.58 5277.45 1108.65 5261.63 1096.34C5246.1 1083.75 5233.07 1067.49 5222.52 1047.56C5211.97 1027.35 5206.7 1002.89 5206.7 974.176V813.775C5206.7 797.955 5209.48 780.963 5215.05 762.799C5220.62 744.342 5229.55 727.35 5241.86 711.822C5254.45 696.002 5270.71 682.818 5290.63 672.271C5310.85 661.725 5335.31 656.451 5364.02 656.451H5570.13C5585.95 656.451 5602.94 659.234 5621.1 664.801C5639.56 670.367 5656.55 679.449 5672.08 692.047C5687.9 704.352 5701.08 720.611 5711.63 740.826C5722.18 760.748 5727.45 785.064 5727.45 813.775ZM6220.08 770.709H5963C5947.47 770.709 5935.75 774.664 5927.84 782.574C5919.93 790.191 5915.98 801.471 5915.98 816.412V1131.5H5801.72V816.412C5801.72 796.783 5804.21 779.205 5809.19 763.678C5814.17 748.15 5820.76 734.527 5828.96 722.809C5837.46 710.797 5847.13 700.689 5857.97 692.486C5868.81 683.99 5880.09 677.105 5891.81 671.832C5903.82 666.559 5915.83 662.75 5927.84 660.406C5940.15 657.77 5951.57 656.451 5962.12 656.451H6220.08V770.709Z" fill="url(#paint8_linear_22211_24906)"/>
<defs>
<linearGradient id="paint0_linear_22211_24906" x1="50.3966" y1="601.062" x2="1405.1" y2="611.267" gradientUnits="userSpaceOnUse">
<stop stop-color="#E14084"/>
<stop offset="0.531622" stop-color="#3454FA"/>
<stop offset="1" stop-color="#54B5BB"/>
</linearGradient>
<linearGradient id="paint1_linear_22211_24906" x1="932.019" y1="1003.34" x2="1070.68" y2="1006.41" gradientUnits="userSpaceOnUse">
<stop stop-color="#E14084"/>
<stop offset="0.531622" stop-color="#3454FA"/>
<stop offset="1" stop-color="#54B5BB"/>
</linearGradient>
<linearGradient id="paint2_linear_22211_24906" x1="394.5" y1="928" x2="628.972" y2="928.771" gradientUnits="userSpaceOnUse">
<stop stop-color="#E14084"/>
<stop offset="0.531622" stop-color="#3454FA"/>
<stop offset="1" stop-color="#54B5BB"/>
</linearGradient>
<linearGradient id="paint3_linear_22211_24906" x1="581.454" y1="887.441" x2="821.866" y2="888.354" gradientUnits="userSpaceOnUse">
<stop stop-color="#E14084"/>
<stop offset="0.531622" stop-color="#3454FA"/>
<stop offset="1" stop-color="#54B5BB"/>
</linearGradient>
<linearGradient id="paint4_linear_22211_24906" x1="828.122" y1="831.323" x2="913.247" y2="831.804" gradientUnits="userSpaceOnUse">
<stop stop-color="#E14084"/>
<stop offset="0.531622" stop-color="#3454FA"/>
<stop offset="1" stop-color="#54B5BB"/>
</linearGradient>
<linearGradient id="paint5_linear_22211_24906" x1="427.77" y1="822.201" x2="1244.08" y2="828.796" gradientUnits="userSpaceOnUse">
<stop stop-color="#E14084"/>
<stop offset="0.531622" stop-color="#3454FA"/>
<stop offset="1" stop-color="#54B5BB"/>
</linearGradient>
<linearGradient id="paint6_linear_22211_24906" x1="913.78" y1="1049.43" x2="1059.31" y2="1053.48" gradientUnits="userSpaceOnUse">
<stop stop-color="#E14084"/>
<stop offset="0.531622" stop-color="#3454FA"/>
<stop offset="1" stop-color="#54B5BB"/>
</linearGradient>
<linearGradient id="paint7_linear_22211_24906" x1="880.513" y1="1089.57" x2="1028" y2="1096.59" gradientUnits="userSpaceOnUse">
<stop stop-color="#E14084"/>
<stop offset="0.531622" stop-color="#3454FA"/>
<stop offset="1" stop-color="#54B5BB"/>
</linearGradient>
<linearGradient id="paint8_linear_22211_24906" x1="1967.69" y1="738.638" x2="6097.7" y2="993.936" gradientUnits="userSpaceOnUse">
<stop stop-color="#E14084"/>
<stop offset="0.531622" stop-color="#3454FA"/>
<stop offset="1" stop-color="#54B5BB"/>
</linearGradient>
</defs>
</svg>
