<?xml version="1.0" standalone="no"?>
<!DOCTYPE svg PUBLIC "-//W3C//DTD SVG 20010904//EN"
 "http://www.w3.org/TR/2001/REC-SVG-20010904/DTD/svg10.dtd">
<svg version="1.0" xmlns="http://www.w3.org/2000/svg"
 width="450.000000pt" height="450.000000pt" viewBox="0 0 450.000000 450.000000"
 preserveAspectRatio="xMidYMid meet">
<metadata>
Created by potrace 1.10, written by Peter Selinger 2001-2011
</metadata>
<g transform="translate(0.000000,450.000000) scale(0.100000,-0.100000)"
fill="#ff0000" stroke="none">
<path d="M1129 3853 c-12 -13 -15 -275 -17 -1595 -3 -1427 -2 -1582 13 -1604
l15 -24 1109 0 c1071 0 1108 1 1125 19 16 17 17 125 16 1599 -2 1371 -4 1583
-16 1601 l-15 21 -1108 0 c-1019 0 -1110 -1 -1122 -17z m2231 -1603 l0 -1595
-1110 0 -1110 0 0 1595 0 1595 1110 0 1110 0 0 -1595z"/>
<path d="M1190 2250 l0 -1551 1060 2 1060 2 0 1546 0 1546 -1060 3 -1060 3 0
-1551z m2097 0 l-2 -1520 -1037 0 -1038 0 1 1512 c1 832 4 1516 6 1521 2 4
469 7 1038 7 l1034 0 -2 -1520z"/>
<path d="M2003 3356 c-41 -34 -288 -286 -314 -319 -22 -28 -22 -31 -21 -404 1
-338 3 -378 18 -394 16 -18 39 -19 403 -19 l385 0 178 178 c98 98 178 182 178
188 0 6 -6 19 -14 30 -14 18 -31 19 -370 22 l-356 3 0 354 0 354 -22 15 c-29
21 -31 20 -65 -8z m62 -379 l0 -367 366 0 c299 0 368 -3 372 -13 3 -9 -63 -82
-166 -185 l-172 -172 -376 0 c-278 0 -378 3 -387 12 -9 9 -12 108 -12 383 l0
371 168 170 c112 115 174 171 187 170 20 -1 20 -8 20 -369z"/>
<path d="M2086 1878 c-12 -7 -16 -26 -16 -78 l0 -70 -68 0 c-42 0 -75 -5 -87
-14 -16 -12 -22 -12 -42 1 -32 21 -121 13 -140 -13 -13 -17 -14 -17 -28 3 -11
16 -24 20 -60 19 -26 -1 -49 2 -51 6 -3 4 -14 -1 -26 -12 -18 -17 -23 -17 -43
-4 -31 20 -139 17 -159 -5 -13 -15 -10 -30 35 -141 28 -69 64 -159 81 -200 41
-103 48 -110 123 -110 69 0 78 6 99 66 l13 39 24 -50 24 -50 66 -3 c52 -2 68
1 81 15 9 10 39 76 68 148 28 71 60 145 69 163 18 34 18 34 20 -103 2 -147 9
-172 57 -208 18 -13 43 -18 94 -18 38 0 75 3 82 7 7 5 59 7 116 5 122 -3 132
2 132 67 l0 45 41 -56 c22 -32 45 -57 52 -58 40 -2 350 0 352 3 2 2 5 56 6
121 1 64 6 117 11 117 5 0 7 4 3 9 -5 10 6 15 62 26 17 3 37 13 44 21 16 20
16 129 0 148 -17 20 -63 20 -102 1 -27 -14 -31 -14 -45 0 -18 18 -139 21 -149
4 -4 -6 -14 -7 -24 -3 -9 4 -50 8 -91 10 -81 4 -87 1 -140 -66 l-19 -25 -1
108 c0 59 1 109 3 112 1 2 -8 11 -20 20 -24 17 -155 17 -172 0 -6 -6 -11 -100
-11 -233 -1 -204 -3 -221 -18 -214 -9 5 -27 7 -39 6 -23 -1 -23 1 -24 120 -4
297 -4 308 -23 322 -20 14 -135 16 -160 2z m154 -230 c0 -117 4 -219 9 -227 6
-9 20 -12 41 -9 35 5 36 4 45 -63 l6 -46 -46 -13 c-67 -19 -141 -9 -173 24
l-27 26 -3 260 -3 260 76 0 75 0 0 -212z m283 60 l-3 -153 25 30 c14 17 38 49
52 72 l27 42 83 3 c46 2 83 1 83 -1 0 -2 -32 -43 -71 -92 l-70 -88 71 -106
c39 -58 73 -111 76 -118 3 -9 -16 -11 -75 -9 l-80 3 -43 70 c-23 38 -46 69
-49 69 -19 0 -31 -34 -27 -85 l3 -55 -77 0 -78 0 0 285 0 285 78 0 77 0 -2
-152z m587 -68 l0 -70 -30 0 c-17 0 -46 -7 -65 -14 l-35 -15 0 -125 0 -126
-75 0 -75 0 0 205 0 205 71 0 72 0 -6 -37 -6 -38 21 25 c30 36 69 60 101 60
27 0 27 0 27 -70z m-1544 -76 l48 -137 12 43 c12 40 10 47 -25 136 l-38 94 62
0 62 0 11 -39 c7 -21 12 -46 12 -55 0 -9 5 -16 10 -16 6 0 10 7 10 16 0 9 5
34 12 55 l11 39 62 0 63 0 -39 -93 c-36 -89 -37 -95 -25 -136 l13 -44 43 127
c25 70 47 131 51 137 3 6 36 9 75 7 l70 -3 -82 -200 -83 -200 -64 -3 -64 -3
-22 63 c-12 35 -25 70 -27 78 -3 8 -17 -20 -30 -62 l-25 -78 -65 0 c-58 0 -65
2 -73 23 -5 12 -43 104 -84 205 l-75 182 73 0 73 0 48 -136z m1236 -144 l-4
-75 -24 30 c-13 17 -24 33 -24 37 0 5 -16 31 -36 58 l-36 50 25 33 c13 17 36
44 49 58 14 15 29 35 34 45 11 23 21 -125 16 -236z"/>
</g>
</svg>
