<?xml version="1.0" encoding="UTF-8"?>
<svg viewBox="0 0 410 113" version="1.1" xmlns="http://www.w3.org/2000/svg" xmlns:xlink="http://www.w3.org/1999/xlink">
    <title>Group 28</title>
    <defs>
        <polygon id="path-1" points="0.000288856824 0.190786667 99.7363965 0.190786667 99.7363965 38.2666667 0.000288856824 38.2666667"></polygon>
        <linearGradient x1="50%" y1="-162.489066%" x2="50%" y2="100%" id="linearGradient-3">
            <stop stop-color="#B3F9BA" offset="0%"></stop>
            <stop stop-color="#F6FB8C" offset="100%"></stop>
        </linearGradient>
        <linearGradient x1="50%" y1="-98.9514803%" x2="50%" y2="157.8125%" id="linearGradient-4">
            <stop stop-color="#B1FFBF" offset="0%"></stop>
            <stop stop-color="#FFF16D" offset="100%"></stop>
        </linearGradient>
        <linearGradient x1="50%" y1="0%" x2="50%" y2="180.803571%" id="linearGradient-5">
            <stop stop-color="#B3F9BA" offset="0%"></stop>
            <stop stop-color="#F6FB8C" offset="100%"></stop>
        </linearGradient>
        <polygon id="path-6" points="0.693007059 0.77825 57.6259247 0.77825 57.6259247 108.692238 0.693007059 108.692238"></polygon>
    </defs>
    <g id="New-web-2021" stroke="none" stroke-width="1" fill="none" fill-rule="evenodd">
        <g id="Group-28">
            <g id="Group-3" transform="translate(0.000000, 74.000000)">
                <mask id="mask-2" fill="white">
                    <use xlink:href="#path-1"></use>
                </mask>
                <g id="Clip-2"></g>
                <path d="M49.7715227,19.57012 C46.2571627,19.57012 42.991376,18.8334867 40.325736,17.4394867 L11.621696,2.43212 L3.02050933,7.60085333 C-1.067904,10.0567533 -0.996490667,13.82192 3.179816,16.0058533 L42.880136,36.7641533 C44.808296,37.7713867 47.2734293,38.2674867 49.7715227,38.2674867 C52.6884827,38.2674867 55.648016,37.5923533 57.8508427,36.26942 L96.716176,12.9130867 C100.804589,10.45582 100.733176,6.69065333 96.5568693,4.50808667 L88.303136,0.190786667 L60.6895227,16.78622 C57.7011493,18.5806533 53.8242293,19.57012 49.7715227,19.57012" id="Fill-1" fill="url(#linearGradient-3)" mask="url(#mask-2)"></path>
            </g>
            <path d="M96.8120816,53.6566536 L89.920408,50 L73.8719653,59.7853719 L71.1166728,61.4649299 L68.3627573,63.1444879 L60.8500758,67.7257327 C57.8538157,69.5540595 53.965287,70.5592916 49.9032616,70.5592916 C46.3796266,70.5592916 43.1052211,69.8098862 40.4325461,68.3931067 L31.8251831,63.8257656 L28.9762575,62.3158318 L26.1273319,60.8045077 L10.2675324,52.3886429 L3.02886543,56.8030442 C-1.07033782,59.3029161 -1.00011298,63.1319747 3.18721558,65.3537741 L11.4641087,69.7445392 L14.3130343,71.2558633 L17.1605829,72.7671874 L42.9936875,86.4719915 C44.9255592,87.4966887 47.3985754,88 49.9032616,88 C52.8265429,88 55.7952638,87.3145512 58.0025271,85.9686803 L82.8387143,70.8248509 L85.5940067,69.1452929 L88.3479223,67.4657349 L96.9718087,62.2073836 C101.071012,59.708902 100.99941,55.878453 96.8120816,53.6566536" id="Fill-4" fill="url(#linearGradient-4)"></path>
            <path d="M96.8120816,31.2524518 L57.0056097,10.5028056 C55.0737379,9.49455965 52.6020988,9 50.0960356,9 C47.1727543,9 44.2040334,9.67489632 41.9967701,10.9973652 L3.02886543,34.3454989 C-1.07033782,36.8005367 -1.00011298,40.5630154 3.18721558,42.746182 L10.0788892,46.3392535 L12.9278148,47.8242986 L15.7767404,49.3093437 L31.6365399,57.5775067 L34.4854655,59.0611857 L37.3343911,60.547597 L42.9936875,63.4985606 C44.9255592,64.5054404 47.3985754,65 49.9032616,65 C52.8265429,65 55.7952638,64.3251037 58.0025271,63.0026348 L62.6649061,60.2087826 L65.4201986,58.5584289 L68.1741141,56.9080751 L84.2225568,47.2928519 L86.9778493,45.6424982 L89.7317648,43.9921444 L96.9718087,39.6545011 C101.071012,37.1994633 100.99941,33.4356184 96.8120816,31.2524518" id="Fill-6" fill="url(#linearGradient-5)"></path>
            <g id="Group-10" transform="translate(128.000000, 0.000000)">
                <mask id="mask-7" fill="white">
                    <use xlink:href="#path-6"></use>
                </mask>
                <g id="Clip-9"></g>
                <path d="M42.1651482,17.4939875 C36.9384424,17.2877375 32.5335718,21.3151125 32.3253365,26.4919875 C32.3253365,26.5098625 32.3239482,26.5249875 32.3239482,26.5428625 L32.3239482,35.5931125 L53.4098541,35.5931125 L53.4098541,50.9106125 L32.3239482,50.9106125 L32.3239482,108.692238 L13.3439953,108.692238 L13.3439953,50.9106125 L0.693007059,50.9106125 L0.693007059,35.5931125 L13.3439953,35.5931125 L13.3439953,25.1389875 C13.3439953,10.5199875 25.9963718,0.7836125 40.0536424,0.7836125 C46.4922776,0.6474875 52.7532188,2.8804875 57.6259247,7.0494875 L50.5972894,20.2756125 C48.0679247,18.6572375 45.1665129,17.6974875 42.1623718,17.4898625" id="Fill-8" fill="#FFFFFF" mask="url(#mask-7)"></path>
            </g>
            <path d="M260,35 L260,108.299585 L245.445531,108.299585 L242.670448,99.9249315 L240.60043,99.9249315 C237.826716,103.4146 231.590651,109 219.113045,109 C199.705261,109 190,95.0371895 190,74.7913212 L190,35 L210.108742,35 L210.108742,69.9035792 C210.108742,78.9786477 210.800117,91.5447635 223.280462,91.5447635 C229.519265,91.5447635 239.91727,88.0537162 239.91727,69.2086788 L239.91727,35 L260,35 Z" id="Fill-11" fill="#FFFFFF"></path>
            <path d="M301.204016,49.719238 C294.881051,49.719238 292.073311,52.5227046 292.073311,56.0294606 C292.073311,60.9372577 298.396276,62.3382988 303.311208,63.7379555 C316.656298,66.5428065 330,70.7473142 330,86.1656883 C330,101.585447 317.358233,110 301.904564,110 C285.047025,110 271.703322,99.4852697 271,84.0641267 L289.260022,84.0641267 C289.950859,90.3937313 295.539983,95.0398715 301.901789,94.5774726 C309.627237,94.5774726 311.032494,90.3729649 311.032494,87.5694983 C311.032494,81.9611806 306.116174,80.5587551 300.496532,79.157714 C292.067762,77.0630745 273.103031,73.5493964 273.103031,56.7272123 C273.100256,42.0093587 287.156991,35 301.204016,35 C318.061555,35 328.597517,44.8142098 329.298065,57.4277329 L311.038043,57.4277329 C311.038043,53.9237457 308.940561,49.719238 301.204016,49.719238" id="Fill-13" fill="#FFFFFF"></path>
            <path d="M409.732818,77.0550075 L356.122504,77.0550075 C358.201628,88.1654458 367.260667,92.3334031 375.615664,92.3334031 C380.993609,92.5926147 386.170792,90.2693111 389.541117,86.0821529 L408.33986,86.0821529 C403.191554,100.00826 389.802383,109.190383 374.921247,108.997003 C354.473781,108.939401 337.942548,92.3608329 338.00015,71.9667805 C338.001676,71.5800204 338.008551,71.1946318 338.022302,70.8065002 C337.341637,51.1695102 352.752179,34.69929 372.441975,34.0204026 C373.03601,33.9999712 373.631421,33.9957157 374.226831,34.0039447 C393.025574,34.0039447 412.518734,47.1990474 409.732818,77.0577504 M357.515462,62.4733286 L390.239659,62.4733286 C388.779322,55.2922084 382.258684,50.2656985 374.921247,50.6689165 C367.091532,50.1573508 359.916355,55.0233964 357.515462,62.4733286" id="Fill-15" fill="#FFFFFF"></path>
        </g>
    </g>
</svg>