<?xml version="1.0" encoding="utf-8"?>
<!-- Generator: Adobe Illustrator 25.4.1, SVG Export Plug-In . SVG Version: 6.00 Build 0)  -->
<svg version="1.1" id="Layer_1" xmlns="http://www.w3.org/2000/svg" xmlns:xlink="http://www.w3.org/1999/xlink" x="0px" y="0px"
	 viewBox="0 0 264.5 94.3" style="enable-background:new 0 0 264.5 94.3;" xml:space="preserve">
<style type="text/css">
	.st0{fill:#232323;}
	.st1{fill:url(#SVGID_1_);}
	.st2{fill:url(#SVGID_00000004537331470686661100000017749691217219967659_);}
	.st3{fill:url(#SVGID_00000119106182411845416120000014026223362051583657_);}
	.st4{fill:url(#SVGID_00000003820497538308361950000001397860938458239399_);}
</style>
<g>
	<path class="st0" d="M108.1,70.4V29.8h5.7v40.6H108.1z"/>
	<path class="st0" d="M129.8,53.8v16.6h-5.6V29.8H139c7.5,0,12.6,5.2,12.6,12c0,6.9-5,12-12.6,12H129.8z M137.9,48.8
		c4.9,0,7.9-2.7,7.9-6.9c0-4.3-3-7-7.9-7h-8.1v13.9H137.9z"/>
	<path class="st0" d="M176.2,28.9c10.2,0,20.4,7.6,20.4,21.1s-10.2,21.2-20.4,21.2c-10.2,0-20.4-7.6-20.4-21.2S166,28.9,176.2,28.9z
		 M176.2,66.1c7.6,0,14.7-5.4,14.7-16c0-10.6-7.1-16-14.7-16c-7.6,0-14.7,5.4-14.7,16C161.5,60.7,168.6,66.1,176.2,66.1z"/>
	<path class="st0" d="M216.1,53.8H210v16.6h-5.7V29.8h15.3c7.7,0,12.4,5.4,12.4,12.1c0,5.8-3.7,10.4-9.9,11.5l9.7,17h-6.5
		L216.1,53.8z M218.6,48.8c4.6,0,7.7-2.7,7.7-6.9c0-4.3-3.1-7-7.7-7H210v13.9H218.6z"/>
</g>
<g>
	<linearGradient id="SVGID_1_" gradientUnits="userSpaceOnUse" x1="22.1479" y1="50.1058" x2="93.5814" y2="50.1058">
		<stop  offset="0" style="stop-color:#FFF33B"/>
		<stop  offset="5.948720e-02" style="stop-color:#FFE029"/>
		<stop  offset="0.1303" style="stop-color:#FFD218"/>
		<stop  offset="0.2032" style="stop-color:#FEC90F"/>
		<stop  offset="0.2809" style="stop-color:#FDC70C"/>
		<stop  offset="0.6685" style="stop-color:#F3903F"/>
		<stop  offset="0.8876" style="stop-color:#ED683C"/>
		<stop  offset="1" style="stop-color:#E93E3A"/>
	</linearGradient>
	<path class="st1" d="M92,51.6c-1.6-3.5-3.3-7-5-10.5c-1.7-3.5-3.4-7-5.2-10.4l-0.8-1.5l-1,1.5l-2.4,3.5l-1.3,1.9
		c-0.5-0.7-1.1-1.4-1.7-2l-1.2-1.5l-1.2,1.6l-6.1,8.3l-6,8.3c-2,2.8-3.9,5.6-5.9,8.4l-2.9,4.2L49.7,66c-1.8-1.9-3.6-3.8-5.4-5.7
		c-2.3-2.4-4.5-4.7-6.8-7.1c-2.3-2.3-4.6-4.7-6.9-7c-2.3-2.3-4.7-4.6-7.1-6.9c2,2.6,4.1,5.2,6.1,7.7c2.1,2.5,4.2,5.1,6.3,7.6
		c2.1,2.5,4.2,5,6.4,7.5c2.1,2.5,4.3,5,6.5,7.4L50,71l1.2-1.6l3-4.1l3-4.2c2-2.8,4-5.5,6-8.4l5.9-8.4l4.7-6.9
		c0.6,0.6,1.1,1.2,1.7,1.8l1.3,1.4l0.9-1.5l2.1-3.7l1.2-2.1c1.6,2.8,3.3,5.6,5,8.4C88,45,90,48.3,92,51.6z"/>
	
		<linearGradient id="SVGID_00000047747049317566225170000005279541265413878162_" gradientUnits="userSpaceOnUse" x1="23.5247" y1="51.8568" x2="32.0996" y2="51.8474">
		<stop  offset="0" style="stop-color:#2484C6"/>
		<stop  offset="1" style="stop-color:#2484C6"/>
	</linearGradient>
	<path style="fill:url(#SVGID_00000047747049317566225170000005279541265413878162_);" d="M23.5,51.8c2.9,0.2,5.7,0.4,8.6,0.6
		c-0.3-0.3-0.6-0.7-0.9-1C28.7,51.5,26.1,51.6,23.5,51.8z"/>
	
		<linearGradient id="SVGID_00000093140957076036665920000016556212171175842721_" gradientUnits="userSpaceOnUse" x1="37.2762" y1="51.812" x2="58.6293" y2="51.812">
		<stop  offset="0" style="stop-color:#2484C6"/>
		<stop  offset="1" style="stop-color:#2484C6"/>
	</linearGradient>
	<path style="fill:url(#SVGID_00000093140957076036665920000016556212171175842721_);" d="M38.5,52.3c0.1,0.1,0.2,0.2,0.4,0.4
		c0.6,0,1.1,0,1.7,0.1c2.9,0.1,5.7,0.1,8.6,0.2l8,0.1c0.5-0.7,1-1.4,1.5-2.2l-1,0l-8.6,0.1c-2.9,0.1-5.7,0.1-8.6,0.2
		c-1.1,0-2.2,0.1-3.2,0.1C37.7,51.5,38.1,51.9,38.5,52.3z"/>
	
		<linearGradient id="SVGID_00000039094464167834903600000003542634519024317616_" gradientUnits="userSpaceOnUse" x1="64.8688" y1="51.8193" x2="90.4778" y2="51.7912">
		<stop  offset="0" style="stop-color:#3C9CD1"/>
		<stop  offset="1" style="stop-color:#1B2D91"/>
	</linearGradient>
	<path style="fill:url(#SVGID_00000039094464167834903600000003542634519024317616_);" d="M74.8,50.9c-2.8-0.1-5.7-0.1-8.5-0.2
		l-1.4,2.1l1.4,0c2.9-0.1,5.7-0.1,8.6-0.2c5.2-0.1,10.4-0.4,15.6-0.8c0-0.1-0.1-0.1-0.1-0.2C85.1,51.3,80,51.1,74.8,50.9z"/>
</g>
</svg>
