<svg width="128" height="50" viewBox="0 0 128 50" fill="none" xmlns="http://www.w3.org/2000/svg">
<circle cx="25" cy="25" r="25" fill="url(#paint0_linear_2_304)"/>
<path d="M24.9998 45.4167C21.3332 29.9167 9.58317 25.3472 4.1665 25H24.9998V45.4167Z" fill="white"/>
<path d="M25.0002 4.58337C28.6668 20.0834 40.4168 24.6528 45.8335 25H25.0002V4.58337Z" fill="white"/>
<path d="M72.746 28.804V18.328H74.132V31H72.656L65.258 20.578V31H63.872V18.328H65.348L72.746 28.804ZM80.7438 21.658C81.8478 21.658 82.7178 21.946 83.3538 22.522C83.9898 23.086 84.3078 23.842 84.3078 24.79V31H82.9758V29.272C82.6998 29.884 82.2918 30.37 81.7518 30.73C81.2118 31.078 80.6118 31.252 79.9518 31.252C78.9558 31.252 78.1998 31.006 77.6838 30.514C77.1798 30.01 76.9278 29.398 76.9278 28.678C76.9278 27.13 78.0138 26.188 80.1858 25.852L82.0578 25.582C82.4298 25.534 82.6758 25.45 82.7958 25.33C82.9158 25.198 82.9758 25.006 82.9758 24.754C82.9758 24.19 82.7718 23.728 82.3638 23.368C81.9678 23.008 81.4098 22.828 80.6898 22.828C80.0058 22.828 79.4658 22.996 79.0698 23.332C78.6858 23.656 78.4638 24.106 78.4038 24.682H77.0538C77.1378 23.71 77.5158 22.966 78.1878 22.45C78.8718 21.922 79.7238 21.658 80.7438 21.658ZM80.1678 30.118C81.0078 30.118 81.6858 29.806 82.2018 29.182C82.7178 28.558 82.9758 27.748 82.9758 26.752V26.302C82.7718 26.422 82.4598 26.506 82.0398 26.554L80.5098 26.788C79.0218 27.028 78.2778 27.628 78.2778 28.588C78.2778 29.056 78.4458 29.428 78.7818 29.704C79.1298 29.98 79.5918 30.118 80.1678 30.118ZM89.6248 31.126C88.0648 31.126 87.2848 30.37 87.2848 28.858V23.098H85.7548V21.946H87.2848V19.66H88.6168V21.946H90.6328V23.098H88.6168V28.786C88.6168 29.206 88.7188 29.506 88.9228 29.686C89.1388 29.854 89.4688 29.938 89.9128 29.938C90.1408 29.938 90.3808 29.92 90.6328 29.884V31.018C90.2248 31.09 89.8888 31.126 89.6248 31.126ZM93.2342 20.434C92.9582 20.434 92.7182 20.338 92.5142 20.146C92.3222 19.954 92.2262 19.72 92.2262 19.444C92.2262 19.168 92.3222 18.934 92.5142 18.742C92.7182 18.55 92.9582 18.454 93.2342 18.454C93.4982 18.454 93.7262 18.556 93.9182 18.76C94.1102 18.952 94.2062 19.18 94.2062 19.444C94.2062 19.72 94.1102 19.954 93.9182 20.146C93.7262 20.338 93.4982 20.434 93.2342 20.434ZM93.8822 31H92.5322V21.946H93.8822V31ZM103.77 29.956C102.966 30.844 101.916 31.288 100.62 31.288C99.3237 31.288 98.2677 30.844 97.4517 29.956C96.6357 29.068 96.2277 27.91 96.2277 26.482C96.2277 25.054 96.6357 23.896 97.4517 23.008C98.2677 22.108 99.3297 21.658 100.638 21.658C101.922 21.658 102.966 22.108 103.77 23.008C104.574 23.896 104.976 25.054 104.976 26.482C104.976 27.91 104.574 29.068 103.77 29.956ZM100.62 30.1C101.544 30.1 102.27 29.782 102.798 29.146C103.338 28.498 103.608 27.61 103.608 26.482C103.608 25.342 103.338 24.448 102.798 23.8C102.27 23.152 101.544 22.828 100.62 22.828C99.6837 22.828 98.9457 23.152 98.4057 23.8C97.8777 24.448 97.6137 25.342 97.6137 26.482C97.6137 27.61 97.8777 28.498 98.4057 29.146C98.9457 29.782 99.6837 30.1 100.62 30.1ZM111.689 21.658C112.709 21.658 113.507 21.982 114.083 22.63C114.659 23.278 114.947 24.166 114.947 25.294V31H113.597V25.51C113.597 23.722 112.859 22.828 111.383 22.828C110.579 22.828 109.925 23.128 109.421 23.728C108.929 24.328 108.683 25.126 108.683 26.122V31H107.351V21.946H108.683V23.224C109.367 22.18 110.369 21.658 111.689 21.658ZM123.913 24.196C125.401 24.808 126.145 25.87 126.145 27.382C126.145 28.474 125.737 29.398 124.921 30.154C124.105 30.91 122.989 31.288 121.573 31.288C120.193 31.288 119.095 30.892 118.279 30.1C117.475 29.308 117.073 28.33 117.073 27.166H118.405C118.441 28.006 118.735 28.696 119.287 29.236C119.839 29.776 120.595 30.046 121.555 30.046C122.515 30.046 123.289 29.8 123.877 29.308C124.477 28.816 124.777 28.168 124.777 27.364C124.777 26.56 124.483 25.948 123.895 25.528C123.307 25.108 122.503 24.898 121.483 24.898H120.583V23.692H121.429C122.317 23.692 123.001 23.488 123.481 23.08C123.973 22.672 124.219 22.144 124.219 21.496C124.219 20.812 123.973 20.272 123.481 19.876C123.001 19.48 122.347 19.282 121.519 19.282C120.643 19.282 119.965 19.51 119.485 19.966C119.005 20.41 118.747 21.028 118.711 21.82H117.343C117.403 20.668 117.799 19.75 118.531 19.066C119.263 18.382 120.271 18.04 121.555 18.04C122.827 18.04 123.811 18.37 124.507 19.03C125.215 19.678 125.569 20.488 125.569 21.46C125.569 22.684 125.017 23.596 123.913 24.196Z" fill="#224059"/>
<defs>
<linearGradient id="paint0_linear_2_304" x1="0" y1="0" x2="32.2147" y2="-9.6114" gradientUnits="userSpaceOnUse">
<stop stop-color="#69C9FF"/>
<stop offset="1" stop-color="#88F1BB"/>
</linearGradient>
</defs>
</svg>
