<?xml version="1.0" encoding="UTF-8" standalone="no"?>
<!-- Generator: Adobe Illustrator 21.1.0, SVG Export Plug-In . SVG Version: 6.00 Build 0)  -->

<svg
   xmlns:dc="http://purl.org/dc/elements/1.1/"
   xmlns:cc="http://creativecommons.org/ns#"
   xmlns:rdf="http://www.w3.org/1999/02/22-rdf-syntax-ns#"
   xmlns:svg="http://www.w3.org/2000/svg"
   xmlns="http://www.w3.org/2000/svg"
   xmlns:sodipodi="http://sodipodi.sourceforge.net/DTD/sodipodi-0.dtd"
   xmlns:inkscape="http://www.inkscape.org/namespaces/inkscape"
   version="1.1"
   id="图层_1"
   x="0px"
   y="0px"
   viewBox="0 0 894 716"
   style="enable-background:new 0 0 894 716;"
   xml:space="preserve"
   sodipodi:docname="tokenlon-applogo.svg"
   inkscape:version="0.92.2 (5c3e80d, 2017-08-06)"><metadata
     id="metadata63"><rdf:RDF><cc:Work
         rdf:about=""><dc:format>image/svg+xml</dc:format><dc:type
           rdf:resource="http://purl.org/dc/dcmitype/StillImage" /><dc:title></dc:title></cc:Work></rdf:RDF></metadata><defs
     id="defs61" /><sodipodi:namedview
     pagecolor="#ffffff"
     bordercolor="#666666"
     borderopacity="1"
     objecttolerance="10"
     gridtolerance="10"
     guidetolerance="10"
     inkscape:pageopacity="0"
     inkscape:pageshadow="2"
     inkscape:window-width="2153"
     inkscape:window-height="1127"
     id="namedview59"
     showgrid="false"
     inkscape:zoom="0.93227486"
     inkscape:cx="297.99416"
     inkscape:cy="260.30765"
     inkscape:window-x="0"
     inkscape:window-y="0"
     inkscape:window-maximized="0"
     inkscape:current-layer="图层_1" /><style
     type="text/css"
     id="style2">
	.st0{fill:url(#SVGID_1_);}
	.st1{fill:url(#SVGID_2_);}
	.st2{fill:#270F34;}
</style><g
     id="g18"><linearGradient
       id="SVGID_1_"
       gradientUnits="userSpaceOnUse"
       x1="347"
       y1="286.6529"
       x2="534.269"
       y2="286.6529"><stop
         offset="0"
         style="stop-color:#2D2D4C"
         id="stop4" /><stop
         offset="1"
         style="stop-color:#1E1E3A"
         id="stop6" /></linearGradient><path
       class="st0"
       d="M493.1,311.4c5.4-8.1,8.4-17.7,8.4-28c0-28.9-24.3-52.4-54.4-52.4c-13.4,0-25.7,4.7-35.1,12.4   c-0.3,0.2-0.6,0.4-0.9,0.7c-0.1,0.1-0.2,0.2-0.4,0.3c-0.1,0.1-0.3,0.3-0.4,0.4c-0.4,0.3-0.7,0.6-1.1,1c-0.5,0.5-1,1-1.4,1.5   c-5.8,6.1-9.8,14-11.9,22.5c0,0.1-0.1,0.2-0.1,0.4c-4.1,13.8-4.5,31.3,4.4,50.2c14.7,31.5,50.9,48.6,91.1,47.5c0.1,0,0.1,0,0.2,0   c4.6-0.1,6.3,6,2.3,8.1c-13.8,7.2-29.6,11.2-46.2,11.2c-55.6,0-100.6-45-100.6-100.6c0-51.9,39.4-94.7,89.9-100   c3.5-0.4,7.1-0.6,10.7-0.6c22.1,0,42.6,7.1,59.2,19.2l0,0c4.5,3.3,8.7,6.9,12.6,10.9c9.3,10.5,14.9,24,14.9,38.8   C534.3,281,517.1,303.2,493.1,311.4z"
       id="path9" /><linearGradient
       id="SVGID_2_"
       gradientUnits="userSpaceOnUse"
       x1="399.9445"
       y1="285.4911"
       x2="547"
       y2="285.4911"><stop
         offset="0"
         style="stop-color:#8592B9"
         id="stop11" /><stop
         offset="1"
         style="stop-color:#6D5D91"
         id="stop13" /></linearGradient><path
       class="st1"
       d="M547,286.1c0,0.2,0,0.4,0,0.6c-0.2,32.6-22.1,60.3-52.6,66.7c-3.7,0.8-7.8,1.3-10.9,1.6   c-36.9,3-65-14.3-77.5-42.4c-1.8-4-3.1-8-4-11.8c-0.8-3.2-1.4-6.3-1.7-9.4c0-0.1,0-0.2,0-0.3c-0.8-7.5-0.1-14.5,1.4-20.8   c0-0.1,0-0.2,0-0.3c0.1-0.3,0.2-0.6,0.2-0.9c0.5-2.1,1.5-4,2.6-5.7c3.5-5.1,11.3-3.5,12.6,2.5c1.3,6.4,3.3,13.8,5.8,18.2   c10.2,18,29.4,30.2,51.5,30.2c7,0,13.8-1.2,20.1-3.5c22.9-8.3,39.2-30.4,39.2-56.4c0-14.8-5.4-28.3-14.2-38.8   c14.4,15.4,24.3,35.7,26.8,58.3C546.8,278,547,282,547,286.1z"
       id="path16" /></g></svg>