<svg width="167" height="26" viewBox="0 0 167 26" fill="none" xmlns="http://www.w3.org/2000/svg">
<path fill-rule="evenodd" clip-rule="evenodd" d="M20.8194 14.1385L29.6618 23.2918C29.768 23.4001 29.8525 23.529 29.9105 23.6712C29.9685 23.8133 29.9989 23.9659 30 24.1202C30.001 24.2745 29.9727 24.4275 29.9165 24.5705C29.8604 24.7135 29.7777 24.8436 29.673 24.9535L29.0242 25.6228C28.8418 25.8206 28.601 25.9497 28.3397 25.9897C28.1672 26.0136 27.9917 25.9958 27.8269 25.9377C27.6621 25.8797 27.5126 25.7829 27.3899 25.6551L16.5922 14.4778C16.4045 14.2838 16.2556 14.0534 16.1539 13.7997C16.0523 13.5461 16 13.2742 16 12.9996C16 12.725 16.0523 12.4531 16.1539 12.1994C16.2556 11.9458 16.4045 11.7153 16.5922 11.5213L27.3899 0.344062C27.4951 0.234991 27.62 0.148459 27.7576 0.0894208C27.8951 0.0303825 28.0425 0 28.1914 0C28.3403 0 28.4877 0.0303825 28.6253 0.0894208C28.7628 0.148459 28.8878 0.234991 28.993 0.344062L29.6618 1.04798C29.7672 1.15687 29.8508 1.2862 29.9078 1.42856C29.9648 1.57093 29.9942 1.72354 29.9942 1.87767C29.9942 2.03179 29.9648 2.1844 29.9078 2.32677C29.8508 2.46914 29.7672 2.59848 29.6618 2.70738L20.8194 11.8629C20.5294 12.1655 20.3667 12.5745 20.3667 13.0007C20.3667 13.427 20.5294 13.8359 20.8194 14.1385ZM9.18017 11.8726L0.341223 2.71698C0.233969 2.60853 0.148579 2.47911 0.0900066 2.33622C0.0314344 2.19333 0.000846637 2.03982 1.73272e-05 1.88459C-0.000811983 1.72936 0.0281358 1.5755 0.0851776 1.43194C0.142219 1.28839 0.226225 1.158 0.332313 1.04833L0.978629 0.376712C1.16268 0.180155 1.40373 0.0512975 1.66506 0.00975571C1.83749 -0.0133774 2.01275 0.00476068 2.17734 0.0627778C2.34194 0.120795 2.49149 0.217133 2.61448 0.344398L13.408 11.5218C13.5957 11.7158 13.7445 11.9463 13.8461 12.1999C13.9477 12.4536 14 12.7255 14 13.0001C14 13.2747 13.9477 13.5466 13.8461 13.8002C13.7445 14.0539 13.5957 14.2843 13.408 14.4783L2.61448 25.6557C2.50913 25.7649 2.38405 25.8515 2.24639 25.9105C2.10872 25.9696 1.96117 26 1.81215 26C1.66314 26 1.51558 25.9696 1.37792 25.9105C1.24025 25.8515 1.11517 25.7649 1.00983 25.6557L0.341223 24.9634C0.235829 24.8543 0.152224 24.7247 0.0951824 24.5822C0.038141 24.4396 0.00878432 24.2868 0.00878432 24.1325C0.00878432 23.9782 0.038141 23.8254 0.0951824 23.6828C0.152224 23.5402 0.235829 23.4107 0.341223 23.3016L9.18017 14.1483C9.47006 13.8457 9.63272 13.4367 9.63272 13.0104C9.63272 12.5842 9.47006 12.1752 9.18017 11.8726Z" fill="black"/>
<path fill-rule="evenodd" clip-rule="evenodd" d="M75.3021 11.269C74.6396 10.8364 73.8634 10.6108 73.0722 10.621C72.4267 10.6107 71.7896 10.7683 71.2234 11.0784C70.8623 11.2696 70.5393 11.5254 70.2704 11.833V6.2373H68.1739V19.9601H70.2704V18.963C70.5363 19.2646 70.8523 19.5182 71.2044 19.7124C71.7807 20.0118 72.4228 20.1625 73.0722 20.1507C73.8607 20.1615 74.6354 19.943 75.3021 19.5218C75.971 19.1071 76.517 18.5216 76.8841 17.8255C77.2826 17.0816 77.4859 16.2488 77.4749 15.4049C77.4889 14.5607 77.2855 13.7272 76.8841 12.9844C76.5213 12.2802 75.9747 11.6875 75.3021 11.269ZM74.9781 16.8344C74.7711 17.2433 74.4543 17.5864 74.0633 17.8255C73.6589 18.0615 73.1972 18.1815 72.7291 18.172C72.2551 18.1799 71.7877 18.0603 71.3759 17.8255C70.9845 17.5869 70.6676 17.2436 70.461 16.8344C70.2377 16.3848 70.1266 15.8878 70.137 15.3859C70.1266 14.884 70.2377 14.387 70.461 13.9373C70.6646 13.531 70.9826 13.1931 71.3759 12.9653C71.7839 12.7198 72.253 12.5942 72.7291 12.6032C73.1995 12.5927 73.6628 12.7184 74.0633 12.9653C74.4562 13.1936 74.7741 13.5313 74.9781 13.9373C75.2146 14.383 75.3338 14.8815 75.3247 15.3859C75.3338 15.8903 75.2146 16.3887 74.9781 16.8344ZM52.5573 18.0542C53.3705 18.0542 54.0567 17.9335 54.6158 17.692C55.1641 17.4531 55.6564 17.1019 56.0608 16.6611L57.5475 18.1477C56.9328 18.7735 56.201 19.2722 55.3937 19.6153C54.5678 19.9711 53.6212 20.149 52.5539 20.149C51.6334 20.1575 50.7204 19.9826 49.8682 19.6344C49.0641 19.2901 48.3365 18.7892 47.7279 18.161C47.1193 17.5327 46.6417 16.7896 46.3231 15.975C45.9898 15.1191 45.8217 14.2078 45.8276 13.2893C45.8208 12.3762 45.9896 11.4703 46.3249 10.621C46.6416 9.80274 47.1208 9.05714 47.7335 8.42913C48.3594 7.78522 49.1099 7.27566 49.9393 6.93157C50.7687 6.58748 51.6595 6.4161 52.5573 6.42788C53.6379 6.4273 54.5713 6.60635 55.3573 6.96501C56.1388 7.31518 56.8498 7.80487 57.4556 8.41007L55.969 9.89671C55.5657 9.45823 55.0713 9.11343 54.5205 8.88656C53.9625 8.64514 53.3082 8.52442 52.5573 8.52442C51.9367 8.51779 51.321 8.63562 50.7467 8.87096C50.2055 9.09494 49.7182 9.43162 49.3172 9.85859C48.9141 10.2935 48.6034 10.8058 48.4041 11.3643C48.1826 11.9816 48.0729 12.6335 48.0801 13.2893C48.0727 13.9439 48.1819 14.5945 48.4024 15.2108C48.605 15.7739 48.9158 16.2918 49.3172 16.7356C49.7222 17.154 50.2087 17.4848 50.7467 17.7076C51.321 17.943 51.9367 18.0608 52.5573 18.0542ZM59.8856 10.8114L62.2291 16.7719L64.7077 10.8114H67.033L62.7827 20.0553L61.0864 23.7719H58.7611L61.0578 19.0399L57.5794 10.8114H59.8856ZM83.3617 10.6194C84.2153 10.6189 84.9661 10.8158 85.6142 11.2103C86.2655 11.5974 86.7974 12.1568 87.1511 12.8269C87.5405 13.546 87.7374 14.3535 87.7228 15.1712C87.7226 15.3308 87.7098 15.4901 87.6847 15.6477C87.6693 15.8205 87.6439 15.9924 87.6085 16.1623H80.7843C80.8388 16.3942 80.9223 16.6184 81.033 16.8294C81.2531 17.2525 81.5906 17.6032 82.005 17.8395C82.4507 18.0758 82.9491 18.1951 83.4535 18.1861C83.8989 18.1917 84.3409 18.1075 84.753 17.9383C85.1484 17.7814 85.5011 17.5332 85.7822 17.214L87.1164 18.5672C86.6777 19.084 86.1224 19.489 85.4963 19.7489C84.8566 20.0167 84.1695 20.1529 83.476 20.1492C82.6118 20.1626 81.7587 19.9537 80.9983 19.5427C80.2653 19.1279 79.6584 18.5222 79.2423 17.79C78.8261 17.0577 78.6162 16.2263 78.6349 15.3843C78.6252 14.7591 78.7406 14.1383 78.9742 13.5583C79.2078 12.9783 79.555 12.4508 79.9953 12.0069C80.4357 11.563 80.9603 11.2116 81.5384 10.9733C82.1165 10.7351 82.7364 10.6147 83.3617 10.6194ZM81.9374 12.8875C81.5445 13.1158 81.2266 13.4536 81.0226 13.8596L81.0208 13.8613C80.9236 14.0468 80.8491 14.2435 80.799 14.4469H85.667C85.6181 14.1961 85.5369 13.9526 85.4253 13.7227C85.2468 13.3544 84.9611 13.0488 84.6057 12.8459C84.2632 12.6426 83.8376 12.541 83.3288 12.541C82.8423 12.5301 82.3619 12.6498 81.9374 12.8875ZM95.1285 10.8687C94.7379 10.6988 94.3155 10.6144 93.8896 10.6209C92.85 10.6209 92.0686 10.9831 91.5453 11.7073C91.5372 11.7187 91.5294 11.7304 91.5215 11.7422L91.5072 11.7636V10.8107H89.4106V19.9601H91.5072V14.8712C91.5072 14.0834 91.6978 13.5058 92.0789 13.1385C92.4601 12.7712 92.943 12.5869 93.5275 12.5858C93.7675 12.5813 94.0064 12.62 94.2327 12.7001C94.4443 12.7819 94.6337 12.9125 94.7854 13.0813L96.162 11.6692C95.8809 11.3292 95.5279 11.0558 95.1285 10.8687ZM103.854 18.0542C104.668 18.0542 105.354 17.9334 105.913 17.692C106.462 17.4533 106.955 17.1021 107.359 16.6611L108.846 18.1477C108.231 18.7735 107.5 19.2721 106.692 19.6153C105.866 19.9711 104.92 20.149 103.852 20.149C102.932 20.1575 102.019 19.9825 101.167 19.6344C100.363 19.2901 99.6351 18.7892 99.0265 18.1609C98.4179 17.5327 97.9403 16.7896 97.6218 15.9749C97.2884 15.1191 97.1203 14.2078 97.1262 13.2893C97.1188 12.3763 97.2871 11.4704 97.6218 10.6209C97.939 9.80257 98.4188 9.05696 99.0322 8.42911C99.6578 7.78541 100.408 7.27597 101.237 6.93189C102.066 6.58781 102.957 6.41631 103.854 6.42786C104.934 6.42728 105.868 6.60632 106.656 6.96499C107.437 7.31534 108.147 7.80502 108.753 8.41005L107.266 9.89669C106.863 9.45821 106.368 9.1134 105.817 8.88653C105.259 8.64511 104.605 8.5244 103.854 8.5244C103.234 8.51777 102.618 8.6356 102.044 8.87094C101.502 9.09492 101.015 9.4316 100.614 9.85857C100.21 10.2934 99.8991 10.8056 99.6992 11.3643C99.4777 11.9816 99.368 12.6335 99.3752 13.2893C99.3684 13.9439 99.4781 14.5946 99.6992 15.2108C99.9019 15.7738 100.213 16.2918 100.614 16.7356C101.019 17.154 101.506 17.4848 102.044 17.7076C102.618 17.943 103.234 18.0608 103.854 18.0542ZM116.89 11.25C116.148 10.826 115.305 10.6088 114.45 10.6211C113.599 10.6106 112.762 10.8348 112.03 11.2691C111.317 11.6777 110.721 12.2616 110.297 12.9654C109.872 13.6942 109.654 14.5251 109.666 15.3686C109.656 16.2172 109.873 17.0531 110.295 17.7892C110.718 18.5034 111.314 19.0994 112.028 19.5218C112.573 19.8433 113.176 20.0536 113.802 20.1404C114.429 20.2273 115.066 20.189 115.678 20.0279C116.289 19.8668 116.863 19.5859 117.365 19.2016C117.867 18.8174 118.288 18.3373 118.604 17.7892C119.038 17.0572 119.263 16.2198 119.253 15.3686C119.265 14.5234 119.041 13.6917 118.605 12.9671C118.196 12.2524 117.604 11.6597 116.89 11.25ZM116.757 16.7946C116.546 17.2074 116.222 17.5513 115.823 17.7857C115.404 18.0218 114.931 18.1415 114.45 18.1322C113.971 18.1385 113.497 18.019 113.078 17.7857C112.684 17.5442 112.362 17.2021 112.144 16.7946C111.922 16.3513 111.811 15.8608 111.82 15.3651C111.81 14.8754 111.921 14.3907 112.144 13.9547C112.363 13.5581 112.686 13.2286 113.078 13.0018C113.494 12.7577 113.968 12.6324 114.45 12.6396C114.933 12.6293 115.408 12.7548 115.823 13.0018C116.215 13.2289 116.537 13.5583 116.757 13.9547C116.993 14.3867 117.112 14.8729 117.103 15.3651C117.111 15.8639 116.992 16.3565 116.757 16.7963V16.7946ZM125.819 10.621C126.468 10.6102 127.106 10.7962 127.648 11.1547C128.177 11.4914 128.612 11.9578 128.91 12.5096C129.206 13.0323 129.361 13.6227 129.36 14.2233V19.9602H127.264V14.6807C127.264 14.0714 127.068 13.5695 126.676 13.175C126.295 12.7811 125.8 12.5841 125.19 12.5841C124.811 12.5775 124.436 12.6695 124.103 12.851C123.791 13.0242 123.533 13.2817 123.36 13.5943C123.178 13.9272 123.086 14.3016 123.093 14.6807V19.9602H120.997V10.8116H123.093V11.8469C123.344 11.5452 123.648 11.2913 123.989 11.0975C124.545 10.7772 125.177 10.6126 125.819 10.621ZM138.146 11.1547C137.604 10.7962 136.966 10.6102 136.316 10.621C135.674 10.6126 135.042 10.7772 134.486 11.0975C134.144 11.2911 133.84 11.5449 133.588 11.8469V10.8116H131.491V19.9602H133.588V14.6807C133.581 14.3016 133.673 13.9272 133.855 13.5943C134.028 13.2817 134.285 13.0242 134.598 12.851C134.931 12.6695 135.305 12.5775 135.684 12.5841C136.294 12.5841 136.79 12.7811 137.171 13.175C137.566 13.5689 137.762 14.0708 137.762 14.6807V19.9602H139.858V14.2233C139.857 13.6215 139.7 13.0304 139.401 12.5079C139.104 11.9575 138.672 11.4917 138.146 11.1547ZM146.125 10.6194C146.978 10.6189 147.729 10.8158 148.377 11.2103C149.028 11.5979 149.56 12.1572 149.914 12.8269C150.304 13.546 150.501 14.3535 150.486 15.1712C150.485 15.3308 150.472 15.49 150.448 15.6477C150.432 15.8205 150.407 15.9923 150.372 16.1623H143.547C143.602 16.3942 143.685 16.6184 143.796 16.8294C144.016 17.2525 144.354 17.6032 144.768 17.8395C145.214 18.0759 145.712 18.1952 146.217 18.1861C146.662 18.1916 147.104 18.1073 147.516 17.9383C147.911 17.781 148.264 17.5329 148.545 17.214L149.879 18.5672C149.44 19.0836 148.885 19.4886 148.259 19.7489C147.62 20.0166 146.933 20.1527 146.239 20.1492C145.375 20.1627 144.522 19.9539 143.761 19.5427C143.028 19.1279 142.422 18.5222 142.005 17.79C141.589 17.0577 141.379 16.2263 141.398 15.3843C141.388 14.7591 141.504 14.1383 141.737 13.5583C141.971 12.9783 142.318 12.4508 142.758 12.0069C143.199 11.563 143.723 11.2116 144.302 10.9733C144.88 10.7351 145.5 10.6147 146.125 10.6194ZM144.701 12.8875C144.307 13.1153 143.989 13.4532 143.786 13.8596L143.784 13.8613C143.687 14.0467 143.612 14.2434 143.563 14.4469H148.429C148.381 14.196 148.3 13.9525 148.188 13.7227C148.01 13.3546 147.724 13.0491 147.369 12.8459C147.025 12.6426 146.6 12.541 146.092 12.541C145.605 12.53 145.125 12.6497 144.701 12.8875ZM154.994 13.0035C155.416 12.7577 155.897 12.6324 156.386 12.6413C156.805 12.6361 157.221 12.7206 157.605 12.8891C157.983 13.039 158.318 13.2815 158.577 13.5943L159.95 12.203C159.52 11.6956 158.977 11.2961 158.365 11.0369C157.743 10.7546 157.066 10.6115 156.383 10.6176C155.522 10.6068 154.674 10.8238 153.924 11.2465C153.21 11.6557 152.618 12.2478 152.209 12.9619C151.783 13.6967 151.566 14.5335 151.58 15.3824C151.569 16.231 151.786 17.067 152.209 17.803C152.618 18.5171 153.21 19.1092 153.924 19.5184C154.599 19.8885 155.35 20.1013 156.119 20.1409C156.888 20.1805 157.656 20.0459 158.365 19.7471C158.975 19.4771 159.515 19.0732 159.947 18.5654L158.575 17.174C158.312 17.4885 157.979 17.7366 157.603 17.8983C157.215 18.0543 156.801 18.1321 156.383 18.127C155.897 18.1349 155.417 18.0154 154.992 17.7805C154.601 17.5428 154.28 17.2078 154.058 16.8084C153.836 16.3651 153.725 15.8746 153.734 15.379C153.722 14.883 153.833 14.3918 154.058 13.9495C154.278 13.5551 154.602 13.2281 154.994 13.0035ZM164.8 10.8118H166.991V12.7177H164.8V19.9603H162.703V12.7177H160.511V10.8118H162.703V6.99987H164.8V10.8118Z" fill="black"/>
</svg>
