<?xml version="1.0" encoding="utf-8"?>
<!-- Generator: Adobe Illustrator 25.3.1, SVG Export Plug-In . SVG Version: 6.00 Build 0)  -->
<svg version="1.1" id="Layer_1" xmlns="http://www.w3.org/2000/svg" xmlns:xlink="http://www.w3.org/1999/xlink" x="0px" y="0px"
	 viewBox="0 0 217.8 47.6" style="enable-background:new 0 0 217.8 47.6;" xml:space="preserve">
<style type="text/css">
	.st0{fill:#D0A16D;}
</style>
<g id="Layer_5">
</g>
<g id="Layer_3">
</g>
<g id="Layer_1_1_">
	<g>
		<g>
			<path class="st0" d="M71.6,13.3v1h-9.7v20.5h-3V14.3h-9.7v-1H71.6z"/>
			<path class="st0" d="M69.8,27.4c0-1.3,0.2-2.4,0.7-3.4c0.4-1,1-1.8,1.7-2.5s1.5-1.2,2.5-1.5c0.9-0.4,1.8-0.6,2.8-0.6
				c0.8,0,1.5,0.1,2.3,0.3c0.8,0.2,1.5,0.5,2.2,1c0.7,0.4,1.3,1,1.8,1.7s0.8,1.6,1.1,2.6c0,0.2,0.1,0.4,0.1,0.7s0,0.6,0,0.8
				s0,0.5,0,0.8c0,0.2,0,0.4-0.1,0.6H73.2c0,0.9,0.2,1.7,0.6,2.4c0.3,0.7,0.8,1.4,1.3,1.9c0.5,0.5,1.1,0.9,1.8,1.3
				c0.7,0.3,1.4,0.5,2.1,0.5c0.4,0,0.9-0.1,1.3-0.2c0.5-0.1,0.9-0.3,1.3-0.5s0.8-0.5,1.2-0.8s0.7-0.6,0.9-0.9l0.6,0.4
				c-0.9,1-1.9,1.8-3.1,2.3S78.8,35,77.5,35c-1,0-1.9-0.2-2.8-0.5s-1.7-0.8-2.5-1.4s-1.3-1.5-1.7-2.4C70.1,29.8,69.8,28.6,69.8,27.4
				z M81.9,27.1c0.1-1.1,0-2.1-0.2-2.9c-0.2-0.9-0.6-1.6-1-2.2s-0.9-1-1.5-1.3s-1.1-0.5-1.7-0.5s-1.2,0.2-1.7,0.5
				c-0.6,0.3-1,0.8-1.5,1.4c-0.4,0.6-0.7,1.3-1,2.2c-0.2,0.8-0.3,1.8-0.2,2.9h8.8V27.1z"/>
			<path class="st0" d="M87.2,34.8V19.6h2.3l0.6,1.6c0.6-0.6,1.4-1.1,2.2-1.5c0.8-0.3,1.7-0.5,2.6-0.5c1,0,1.9,0.2,2.8,0.5
				c0.9,0.4,1.6,1,2.1,2c0.3-0.4,0.6-0.8,1-1.1c0.4-0.3,0.8-0.6,1.3-0.8s1-0.4,1.5-0.5s1-0.2,1.5-0.2c0.8,0,1.5,0.1,2.3,0.3
				c0.7,0.2,1.4,0.6,1.9,1.1s1,1.2,1.3,2.1s0.4,2,0.3,3.4v8.7h-3.1v-8.8c0-1,0-1.9-0.2-2.6s-0.4-1.3-0.8-1.7c-0.3-0.4-0.7-0.8-1.1-1
				s-0.9-0.3-1.3-0.4c-0.8,0-1.6,0.2-2.4,0.6s-1.4,0.9-1.8,1.6c0.4,0.9,0.5,2.2,0.5,3.7v8.7h-3V26c0-1,0-1.9-0.2-2.6
				s-0.4-1.3-0.8-1.7c-0.3-0.4-0.7-0.8-1.1-1s-0.9-0.3-1.3-0.4c-0.8,0-1.5,0.2-2.2,0.5s-1.3,0.8-1.8,1.4v12.6L87.2,34.8L87.2,34.8z"
				/>
			<path class="st0" d="M116.9,40.8h-3V19.6h2.3l0.4,1.1c0.5-0.6,1.2-1,2-1.3s1.7-0.4,2.6-0.4c0.9,0,1.8,0.1,2.7,0.4
				s1.7,0.7,2.4,1.3c0.7,0.6,1.3,1.4,1.8,2.3s0.7,2,0.7,3.3c0,1.5-0.2,2.8-0.7,3.8s-1.1,1.9-1.8,2.6c-0.8,0.7-1.6,1.2-2.5,1.5
				s-1.9,0.5-2.8,0.5c-0.7,0-1.4-0.1-2.1-0.3c-0.7-0.2-1.3-0.4-1.8-0.7v7.1H116.9z M116.9,32.5c0.3,0.2,0.6,0.5,1.2,0.6
				c0.5,0.2,1.1,0.3,1.7,0.3c0.6,0,1.3-0.1,1.9-0.3c0.7-0.2,1.3-0.6,1.8-1.2c0.5-0.6,1-1.3,1.3-2.3c0.3-0.9,0.5-2.1,0.5-3.6
				c0-1-0.2-1.9-0.5-2.6s-0.7-1.3-1.2-1.8s-1-0.8-1.7-1.1c-0.6-0.2-1.2-0.3-1.8-0.3s-1.3,0.1-1.8,0.4c-0.6,0.2-1.1,0.6-1.4,1.1V32.5
				z"/>
			<path class="st0" d="M130.2,12.4h3v22.4h-3V12.4z"/>
			<path class="st0" d="M135.1,27.4c0-1.3,0.2-2.4,0.7-3.4c0.4-1,1-1.8,1.7-2.5s1.5-1.2,2.5-1.5c0.9-0.3,1.8-0.5,2.8-0.5
				c0.8,0,1.5,0.1,2.3,0.3c0.8,0.2,1.5,0.5,2.2,1c0.7,0.4,1.3,1,1.8,1.7s0.8,1.6,1.1,2.6c0,0.2,0.1,0.4,0.1,0.7s0,0.6,0,0.8
				s0,0.5,0,0.8c0,0.2,0,0.4-0.1,0.6h-11.6c0,0.9,0.2,1.7,0.6,2.4c0.3,0.7,0.8,1.4,1.3,1.9c0.5,0.5,1.1,0.9,1.8,1.3
				c0.7,0.3,1.4,0.5,2.1,0.5c0.4,0,0.9-0.1,1.3-0.2c0.5-0.1,0.9-0.3,1.3-0.5c0.4-0.2,0.8-0.5,1.2-0.8s0.7-0.6,0.9-0.9l0.6,0.4
				c-0.9,1-1.9,1.8-3.1,2.3c-1.2,0.5-2.4,0.8-3.7,0.8c-1,0-1.9-0.2-2.8-0.5c-0.9-0.3-1.7-0.8-2.5-1.4s-1.3-1.5-1.7-2.4
				C135.3,29.8,135.1,28.6,135.1,27.4z M147.2,27.1c0.1-1.1,0-2.1-0.2-2.9c-0.2-0.9-0.6-1.6-1-2.2s-0.9-1-1.5-1.3s-1.1-0.5-1.7-0.5
				c-0.6,0-1.2,0.2-1.7,0.5c-0.6,0.3-1,0.8-1.5,1.4c-0.4,0.6-0.7,1.3-1,2.2c-0.2,0.8-0.3,1.8-0.2,2.9h8.8V27.1z"/>
			<path class="st0" d="M162.6,13.3c1.6,0,3.1,0.3,4.3,0.9s2.3,1.4,3.1,2.4s1.5,2.2,1.9,3.5s0.6,2.6,0.6,4c0,1.3-0.2,2.7-0.6,3.9
				c-0.4,1.3-1,2.4-1.9,3.4c-0.8,1-1.9,1.8-3.1,2.4c-1.2,0.6-2.7,0.9-4.4,0.9h-10.6V13.3H162.6z M160.6,14.2H155v19.6h5.6
				c1.4,0,2.7-0.2,3.8-0.7s2-1.3,2.7-2.2s1.2-1.9,1.6-3.1s0.5-2.4,0.5-3.6c0-1.2-0.2-2.4-0.5-3.6c-0.4-1.2-0.9-2.2-1.6-3.2
				s-1.6-1.7-2.7-2.3C163.3,14.6,162,14.3,160.6,14.2z"/>
			<path class="st0" d="M181,13.3h2.7l10,21.5h-3.5l-2.4-5.4H175l-2.5,5.4h-1.3L181,13.3z M175.4,28.3h11.7l-5.8-12.9L175.4,28.3z"
				/>
			<path class="st0" d="M205.7,35.2c-2,0-3.8-0.3-5.3-1s-2.8-1.5-3.8-2.6c-1-1-1.8-2.3-2.3-3.6c-0.5-1.4-0.8-2.7-0.8-4.2
				c0-1.4,0.3-2.8,0.8-4.2c0.5-1.4,1.3-2.6,2.3-3.6s2.3-1.9,3.8-2.6s3.3-1,5.3-1s3.8,0.3,5.3,1s2.8,1.5,3.8,2.6c1,1,1.8,2.3,2.3,3.6
				c0.5,1.4,0.7,2.7,0.7,4.2c0,1.4-0.2,2.8-0.7,4.2s-1.2,2.6-2.3,3.6c-1,1-2.3,1.9-3.8,2.6S207.7,35.2,205.7,35.2z M205.7,13.4
				c-1.4,0-2.7,0.3-3.7,0.9c-1.1,0.6-1.9,1.4-2.7,2.4s-1.2,2.1-1.6,3.4s-0.5,2.6-0.5,3.9s0.2,2.6,0.5,3.9s0.9,2.4,1.6,3.4
				c0.7,1,1.6,1.8,2.7,2.4c1.1,0.6,2.3,0.9,3.7,0.9s2.7-0.3,3.7-0.9c1.1-0.6,1.9-1.4,2.7-2.4c0.7-1,1.2-2.1,1.6-3.4s0.5-2.6,0.5-3.9
				s-0.2-2.6-0.5-3.9s-0.9-2.4-1.6-3.4c-0.7-1-1.6-1.8-2.7-2.4C208.4,13.7,207.1,13.4,205.7,13.4z"/>
		</g>
		<g>
			<circle class="st0" cx="23.8" cy="23.8" r="7.5"/>
			<g>
				<path class="st0" d="M23.8,23.8"/>
				<path class="st0" d="M24.4,0.1L24.4,0.1C24.3,0,24,0,23.9,0.1c-0.1,0.1-0.2,0.3-0.1,0.4c0,0,0,0,0,0.1l0,0C24,1.2,24,2,23.9,2.7
					c-0.1,0.4-0.2,0.7-0.3,1c-0.1,0.2-0.1,0.3-0.2,0.5c0,0.1-0.1,0.2-0.1,0.2l-0.2,0.2c-0.2,0.3-0.4,0.7-0.6,1.2
					c-0.1,0.4-0.2,0.9-0.1,1.3c0,0.4,0.1,0.9,0.3,1.3c0,0.1,0.1,0.2,0.1,0.3L22.9,9C23,9.2,23,9.3,23.1,9.6c0.1,0.3,0.1,0.6,0,0.9
					s-0.2,0.6-0.4,0.9l-0.2,0.2c-0.1,0.1-0.1,0.2-0.2,0.3c-0.1,0.2-0.2,0.4-0.3,0.5c-0.2,0.4-0.3,0.7-0.4,1.1
					c-0.1,0.4-0.2,0.8-0.3,1.2c0,0.1,0,0.2,0,0.3c0,0.1,0,0.2,0,0.3c0,0.2,0,0.4,0.1,0.7c0.1,0.4,0.3,0.8,0.5,1.1
					c0.1,0.2,0.2,0.4,0.3,0.5s0.1,0.2,0.2,0.2l0.1,0.1c0,0,0,0,0,0.1l0,0l0,0c0,0,0,0,0.1,0h0.1l0.1-0.1l0,0l0,0l0,0c0,0,0,0,0-0.1
					l-0.1-0.1l-0.1-0.3c-0.1-0.2-0.1-0.3-0.2-0.5c-0.1-0.3-0.2-0.7-0.3-1c0-0.2,0-0.3,0-0.5c0-0.1,0-0.2,0-0.2c0-0.1,0-0.2,0.1-0.3
					c0.1-0.4,0.2-0.7,0.3-1.1c0.1-0.3,0.3-0.7,0.4-1c0.1-0.2,0.2-0.3,0.3-0.5c0-0.1,0.1-0.2,0.1-0.2l0.2-0.2
					c0.2-0.4,0.4-0.8,0.5-1.2c0.1-0.5,0.1-0.9-0.1-1.4c-0.1-0.2-0.1-0.4-0.2-0.6l-0.1-0.3c0-0.1-0.1-0.2-0.1-0.2
					c-0.1-0.3-0.2-0.7-0.3-1c0-0.3,0-0.7,0.1-1s0.2-0.6,0.4-0.9l0.2-0.2C24,4.9,24,4.9,24.1,4.8c0.1-0.2,0.2-0.4,0.3-0.6
					c0.1-0.4,0.2-0.8,0.3-1.2s0.1-0.8,0-1.2c0.2,0.3,0.3,0.6,0.4,1c0.1,0.4,0.1,0.8,0.1,1.1C25.1,4.2,25,4.7,24.8,5
					c-0.2,0.4-0.4,0.8-0.4,1.3c0,0.3,0,0.5,0.1,0.7s0.2,0.4,0.3,0.6C24.9,7.8,25,8,25.2,8.1c0.1,0.2,0.2,0.3,0.3,0.5
					s0.2,0.4,0.3,0.5c0,0.1,0.1,0.2,0.1,0.3v0.1c0,0,0,0,0,0.1l0,0l0,0v0.1c0,0.3-0.1,0.6-0.2,0.9c-0.1,0.3-0.2,0.6-0.4,0.9
					l-0.9,1.9c-0.1,0.4-0.2,0.7-0.2,1.1s0.1,0.7,0.2,1.1c0.2,0.7,0.5,1.3,0.8,1.9c0,0.1,0.1,0.1,0.2,0.1c0.1,0,0.1-0.1,0.1-0.2l0,0
					c-0.2-0.3-0.3-0.6-0.4-0.9c-0.1-0.3-0.2-0.6-0.3-0.9c-0.1-0.6-0.2-1.3,0.1-1.9s0.6-1.2,0.9-1.8c0.1-0.3,0.3-0.6,0.4-1
					c0.1-0.2,0.1-0.3,0.1-0.5s0.1-0.3,0-0.5l0,0c0,0,0,0,0-0.1V9.7c0-0.1,0-0.1,0-0.2s-0.1-0.2-0.1-0.3C26.1,9,26,8.8,25.9,8.6
					c-0.1-0.2-0.2-0.4-0.3-0.6c-0.1-0.2-0.2-0.4-0.3-0.5c-0.2-0.4-0.4-0.7-0.3-1.1c0-0.4,0.2-0.7,0.4-1.1c0.2-0.4,0.4-0.8,0.5-1.3
					s0.1-0.9,0-1.4C25.5,1.6,24.9,0.8,24.4,0.1z"/>
			</g>
			<g>
				<g>
					<path class="st0" d="M23.8,23.8"/>
					<path class="st0" d="M33.1,2L33.1,2c-0.1-0.2-0.3-0.3-0.5-0.2S32.3,2,32.4,2.2c0,0,0,0,0,0.1l0,0c0,0.7-0.3,1.4-0.7,2
						c-0.2,0.3-0.4,0.6-0.7,0.8c-0.1,0.1-0.3,0.2-0.4,0.4c-0.1,0.1-0.1,0.1-0.2,0.2l-0.2,0.2c-0.4,0.2-0.7,0.5-0.9,0.9
						c-0.3,0.3-0.5,0.7-0.6,1.1c-0.1,0.4-0.2,0.8-0.2,1.3c0,0.1,0,0.2,0,0.3v0.3c0,0.2,0,0.3,0,0.5c0,0.3-0.1,0.6-0.3,0.9
						s-0.4,0.5-0.7,0.7l-0.2,0.2c-0.1,0.1-0.2,0.1-0.2,0.2c-0.2,0.1-0.3,0.3-0.5,0.4c-0.3,0.3-0.6,0.6-0.8,0.9
						c-0.3,0.3-0.5,0.6-0.7,1c-0.1,0.1-0.1,0.2-0.2,0.3c-0.1,0.1-0.1,0.2-0.1,0.3c-0.1,0.2-0.1,0.4-0.2,0.6c-0.1,0.4,0,0.8,0,1.2
						c0,0.2,0.1,0.4,0.1,0.6c0,0.1,0,0.2,0.1,0.3V18c0,0,0,0,0,0.1l0,0l0,0c0,0,0,0,0.1,0H25h0.1c0,0,0,0,0.1,0l0,0l0,0
						c0,0,0,0,0-0.1v-0.1v-0.3c0-0.2,0-0.4,0-0.6c0-0.4,0-0.7,0.1-1.1c0-0.2,0.1-0.3,0.1-0.5c0-0.1,0.1-0.1,0.1-0.2s0.1-0.2,0.1-0.2
						c0.2-0.3,0.4-0.6,0.7-0.9c0.2-0.3,0.5-0.5,0.8-0.8c0.1-0.1,0.3-0.2,0.4-0.4c0.1-0.1,0.1-0.1,0.2-0.2l0.2-0.2
						c0.3-0.2,0.7-0.6,0.9-0.9c0.3-0.4,0.4-0.8,0.4-1.3c0-0.2,0-0.4,0-0.7V9.3c0-0.1,0-0.2,0-0.3c0-0.3,0-0.7,0.1-1s0.2-0.6,0.4-0.9
						c0.2-0.3,0.5-0.5,0.7-0.7l0.2-0.2c0.1-0.1,0.2-0.1,0.2-0.2c0.2-0.1,0.3-0.3,0.4-0.4c0.3-0.3,0.5-0.6,0.7-1
						c0.2-0.3,0.4-0.7,0.5-1.1c0.1,0.4,0.1,0.7,0,1.1c0,0.4-0.2,0.8-0.4,1.1s-0.5,0.6-0.8,0.9c-0.3,0.3-0.6,0.6-0.9,1.1
						c-0.1,0.2-0.2,0.5-0.2,0.7s0,0.5,0.1,0.7c0,0.2,0.1,0.4,0.1,0.6c0,0.2,0.1,0.4,0.1,0.6s0.1,0.4,0.1,0.6c0,0.1,0,0.2,0,0.3v0.1
						c0,0,0,0,0,0.1l0,0l0,0v0.1c-0.1,0.3-0.3,0.5-0.5,0.8c-0.2,0.2-0.5,0.5-0.7,0.7l-1.5,1.4c-0.3,0.3-0.4,0.6-0.6,0.9
						c-0.1,0.3-0.2,0.7-0.2,1c-0.1,0.7-0.1,1.4,0.1,2.1c0,0.1,0.1,0.1,0.2,0.1c0.1,0,0.1-0.1,0.1-0.2l0,0c0-0.3,0-0.7,0-1
						s0-0.7,0.1-1c0.1-0.6,0.3-1.3,0.7-1.7c0.5-0.5,1-0.9,1.5-1.4c0.2-0.2,0.5-0.5,0.7-0.8c0.1-0.1,0.2-0.3,0.3-0.4s0.2-0.3,0.2-0.5
						l0,0c0,0,0,0,0-0.1v-0.1c0-0.1,0-0.1,0-0.2s0-0.2,0-0.4c0-0.2,0-0.5-0.1-0.7c0-0.2-0.1-0.4-0.1-0.6c0-0.2-0.1-0.4-0.1-0.6
						c-0.1-0.4-0.1-0.8,0.1-1.1c0.2-0.3,0.5-0.6,0.8-0.9c0.3-0.3,0.6-0.6,0.9-1c0.3-0.4,0.4-0.9,0.5-1.3C33.6,3.8,33.4,2.8,33.1,2z"
						/>
				</g>
				<g>
					<path class="st0" d="M23.8,23.9"/>
					<path class="st0" d="M40.7,7.2L40.7,7.2c0-0.2-0.1-0.4-0.3-0.4S40.1,6.9,40,7.1l0,0l0,0c-0.3,0.6-0.8,1.2-1.4,1.6
						c-0.3,0.2-0.6,0.4-0.9,0.5c-0.2,0.1-0.3,0.1-0.5,0.2c-0.1,0-0.2,0-0.3,0.1l-0.3,0.1c-0.4,0.1-0.8,0.2-1.2,0.4
						c-0.4,0.2-0.7,0.5-1,0.8s-0.5,0.7-0.7,1.1c0,0.1-0.1,0.2-0.1,0.3l-0.1,0.3c-0.1,0.2-0.1,0.3-0.2,0.5c-0.2,0.3-0.4,0.5-0.6,0.7
						c-0.3,0.2-0.6,0.3-0.9,0.4l-0.3,0.1c-0.1,0-0.2,0.1-0.3,0.1c-0.2,0.1-0.4,0.1-0.6,0.2c-0.4,0.1-0.7,0.3-1.1,0.5
						c-0.4,0.2-0.7,0.4-1,0.6c-0.1,0.1-0.2,0.1-0.2,0.2c-0.1,0.1-0.2,0.2-0.3,0.2c-0.2,0.2-0.3,0.3-0.4,0.5
						c-0.2,0.4-0.4,0.8-0.5,1.1C27,17.9,27,18.1,27,18.3c0,0.1,0,0.2-0.1,0.3v0.1c0,0,0,0,0,0.1l0,0l0,0c0,0,0,0,0.1,0h0.1h0.1
						c0,0,0,0,0.1,0l0,0l0,0c0,0,0,0,0-0.1v-0.1l0.1-0.3c0.1-0.2,0.1-0.4,0.2-0.5c0.2-0.3,0.3-0.7,0.5-1c0.1-0.1,0.2-0.3,0.3-0.4
						s0.1-0.1,0.2-0.1c0.1-0.1,0.1-0.1,0.2-0.2c0.3-0.2,0.6-0.4,1-0.5c0.3-0.2,0.7-0.3,1-0.4c0.2-0.1,0.4-0.1,0.5-0.2
						c0.1,0,0.2,0,0.3-0.1l0.3-0.1c0.4-0.1,0.8-0.3,1.2-0.5c0.4-0.3,0.7-0.6,0.9-1c0.1-0.2,0.2-0.4,0.3-0.6l0.1-0.3
						c0-0.1,0.1-0.2,0.1-0.2c0.1-0.3,0.3-0.6,0.5-0.9s0.5-0.5,0.8-0.7s0.6-0.3,1-0.4l0.3-0.1c0.1,0,0.2-0.1,0.3-0.1
						c0.2-0.1,0.4-0.1,0.6-0.2c0.4-0.2,0.7-0.4,1.1-0.6c0.3-0.2,0.6-0.5,0.8-0.8c-0.1,0.4-0.2,0.7-0.4,1s-0.4,0.6-0.8,0.9
						c-0.3,0.2-0.7,0.4-1.1,0.6c-0.4,0.2-0.8,0.3-1.2,0.6c-0.2,0.2-0.3,0.4-0.4,0.6c-0.1,0.2-0.2,0.4-0.2,0.7
						c-0.1,0.2-0.1,0.4-0.1,0.6s-0.1,0.4-0.1,0.6s-0.1,0.4-0.2,0.6c0,0.1-0.1,0.2-0.1,0.3c0,0,0,0.1-0.1,0.1l0,0l0,0l0,0l-0.1,0.1
						c-0.2,0.2-0.5,0.4-0.8,0.5s-0.6,0.3-0.9,0.4l-1.9,0.7c-0.3,0.2-0.6,0.4-0.9,0.7c-0.2,0.3-0.5,0.6-0.6,0.9
						c-0.3,0.6-0.6,1.3-0.7,2c0,0.1,0,0.2,0.1,0.2s0.2,0,0.2-0.1l0,0c0.1-0.3,0.2-0.6,0.3-0.9s0.3-0.6,0.5-0.9
						c0.3-0.6,0.8-1.1,1.3-1.3c0.6-0.2,1.3-0.5,1.9-0.7c0.3-0.1,0.6-0.3,0.9-0.4c0.2-0.1,0.3-0.2,0.5-0.3c0.1-0.1,0.3-0.2,0.4-0.3
						l0,0l0,0c0,0,0-0.1,0.1-0.1c0-0.1,0.1-0.1,0.1-0.2c0.1-0.1,0.1-0.2,0.2-0.3c0.1-0.2,0.2-0.4,0.2-0.6c0.1-0.2,0.1-0.4,0.1-0.6
						s0.1-0.4,0.1-0.6c0.1-0.4,0.2-0.8,0.5-1s0.7-0.4,1.1-0.5c0.4-0.1,0.8-0.3,1.2-0.6c0.4-0.3,0.7-0.6,1-1
						C40.5,9,40.6,8.1,40.7,7.2z"/>
				</g>
				<g>
					<path class="st0" d="M23.8,23.9"/>
					<path class="st0" d="M45.7,14.9L45.7,14.9c0.1-0.2,0-0.4-0.2-0.5s-0.3,0-0.4,0.1l0,0l0,0c-0.5,0.5-1.2,0.8-1.9,0.9
						c-0.4,0.1-0.7,0.1-1.1,0.1c-0.2,0-0.4,0-0.5,0s-0.2,0-0.3,0L41,15.4c-0.4-0.1-0.8-0.1-1.3-0.1c-0.4,0.1-0.9,0.2-1.2,0.4
						c-0.4,0.2-0.7,0.5-1,0.8c-0.1,0.1-0.2,0.2-0.2,0.2L37.1,17c-0.1,0.1-0.2,0.2-0.4,0.3c-0.3,0.2-0.5,0.3-0.8,0.4s-0.6,0.1-1,0
						h-0.3c-0.1,0-0.2,0-0.3,0c-0.2,0-0.4,0-0.6,0c-0.4,0-0.8,0-1.2,0.1c-0.4,0-0.8,0.1-1.2,0.2c-0.1,0-0.2,0.1-0.3,0.1
						s-0.2,0.1-0.3,0.1c-0.2,0.1-0.4,0.2-0.6,0.3c-0.3,0.3-0.6,0.6-0.9,0.9c-0.1,0.2-0.2,0.3-0.4,0.5c-0.1,0.1-0.1,0.2-0.2,0.3v0.2
						c0,0,0,0,0,0.1l0,0l0,0l0,0l0.1,0.1h0.1c0,0,0,0,0.1,0l0,0l0,0c0,0,0,0,0-0.1l0.1-0.1l0.2-0.2c0.1-0.1,0.3-0.3,0.4-0.4
						c0.3-0.3,0.5-0.5,0.8-0.7c0.1-0.1,0.3-0.2,0.4-0.2c0.1,0,0.1-0.1,0.2-0.1c0.1,0,0.2,0,0.3-0.1c0.4-0.1,0.7-0.1,1.1-0.1
						c0.4,0,0.7,0,1.1,0c0.2,0,0.4,0,0.5,0s0.2,0,0.3,0h0.3c0.4,0.1,0.9,0.1,1.3,0c0.5-0.1,0.9-0.3,1.2-0.6c0.2-0.1,0.3-0.3,0.5-0.5
						l0.2-0.2c0.1-0.1,0.1-0.1,0.2-0.2c0.2-0.3,0.5-0.5,0.8-0.6c0.3-0.2,0.6-0.3,1-0.3c0.3-0.1,0.7,0,1,0h0.3c0.1,0,0.2,0,0.3,0
						c0.2,0,0.4,0,0.6,0c0.4,0,0.8-0.1,1.2-0.2c0.4-0.1,0.7-0.2,1.1-0.4c-0.2,0.3-0.5,0.6-0.7,0.8c-0.3,0.2-0.7,0.4-1,0.5
						c-0.4,0.1-0.8,0.1-1.2,0.1s-0.9,0-1.4,0.1c-0.2,0.1-0.5,0.2-0.6,0.4c-0.2,0.2-0.3,0.3-0.4,0.5c-0.1,0.2-0.2,0.4-0.4,0.6
						c-0.1,0.2-0.2,0.4-0.3,0.5c-0.1,0.2-0.2,0.3-0.4,0.5c-0.1,0.1-0.1,0.1-0.2,0.2l-0.1,0.1l0,0l0,0l0,0h-0.1
						c-0.3,0.4-0.6,0.5-1,0.5c-0.3,0-0.7,0-1,0h-2c-0.4,0-0.7,0.1-1.1,0.3c-0.3,0.2-0.6,0.3-0.9,0.6c-0.6,0.4-1,1-1.4,1.5
						c0,0.1,0,0.2,0,0.2c0.1,0.1,0.2,0,0.2,0l0,0c0.2-0.3,0.4-0.5,0.7-0.7c0.2-0.2,0.5-0.5,0.8-0.6c0.5-0.4,1.1-0.7,1.7-0.7
						c0.7,0,1.4,0,2,0c0.3,0,0.7,0,1,0c0.2,0,0.3,0,0.5-0.1c0.2,0,0.3-0.1,0.5-0.2l0,0c0,0,0,0,0.1,0h0.1c0.1,0,0.1-0.1,0.2-0.1
						c0.1-0.1,0.2-0.2,0.3-0.2c0.2-0.2,0.3-0.3,0.4-0.5c0.1-0.2,0.3-0.4,0.4-0.5c0.1-0.2,0.2-0.4,0.4-0.5c0.2-0.3,0.5-0.6,0.8-0.7
						S41,18,41.4,18s0.9,0,1.4-0.1s0.9-0.3,1.3-0.6C44.8,16.6,45.3,15.7,45.7,14.9z"/>
				</g>
				<g>
					<path class="st0" d="M23.8,23.9"/>
					<path class="st0" d="M47.4,24L47.4,24c0.2-0.1,0.2-0.4,0-0.5c-0.1-0.1-0.3-0.2-0.4-0.1c0,0,0,0-0.1,0l0,0
						c-0.6,0.3-1.4,0.3-2.1,0.1c-0.4-0.1-0.7-0.2-1-0.3c-0.2-0.1-0.3-0.1-0.5-0.2c-0.1,0-0.2-0.1-0.2-0.1l-0.2-0.2
						c-0.4-0.2-0.7-0.4-1.2-0.5c-0.4-0.1-0.9-0.2-1.3-0.1c-0.4,0-0.9,0.1-1.3,0.3c-0.1,0-0.2,0.1-0.3,0.1l-0.3,0.1
						c-0.2,0.1-0.3,0.1-0.5,0.2c-0.3,0.1-0.6,0.1-0.9,0c-0.3-0.1-0.6-0.2-0.9-0.4H36c-0.1-0.1-0.2-0.1-0.3-0.1
						c-0.2-0.1-0.4-0.2-0.6-0.3c-0.4-0.2-0.8-0.3-1.1-0.4c-0.4-0.1-0.8-0.2-1.2-0.3c-0.1,0-0.2,0-0.3,0s-0.2,0-0.3,0
						c-0.2,0-0.4,0.1-0.7,0.1c-0.4,0.1-0.8,0.3-1.1,0.5c-0.2,0.1-0.3,0.2-0.5,0.3c-0.1,0.1-0.2,0.1-0.2,0.2l-0.2,0.1c0,0,0,0-0.1,0
						l0,0l0,0c0,0,0,0,0,0.1v0.1l0.1,0.1l0,0l0,0l0,0c0,0,0,0,0.1,0l0.1-0.1l0.3-0.1c0.2-0.1,0.3-0.2,0.5-0.2c0.3-0.1,0.7-0.2,1-0.3
						c0.2,0,0.3,0,0.5,0c0.1,0,0.2,0,0.2,0c0.1,0,0.2,0,0.3,0c0.4,0.1,0.7,0.2,1.1,0.3c0.3,0.1,0.7,0.3,1,0.4
						c0.2,0.1,0.3,0.2,0.5,0.3c0.1,0,0.2,0.1,0.2,0.1l0.2,0.2c0.4,0.2,0.8,0.4,1.2,0.5c0.5,0.1,0.9,0,1.4-0.1
						c0.2-0.1,0.4-0.2,0.6-0.3l0.3-0.1c0.1,0,0.2-0.1,0.2-0.1c0.3-0.1,0.6-0.2,1-0.3c0.3,0,0.7,0,1,0.1s0.7,0.2,1,0.4l0.3,0.2
						c0.1,0.1,0.2,0.1,0.3,0.2c0.2,0.1,0.4,0.2,0.6,0.2c0.4,0.1,0.8,0.2,1.2,0.3c0.4,0,0.8,0.1,1.2,0c-0.3,0.2-0.6,0.3-1,0.4
						s-0.8,0.1-1.1,0.1c-0.4-0.1-0.8-0.2-1.2-0.4c-0.4-0.2-0.8-0.4-1.3-0.4c-0.3,0-0.5,0-0.7,0.1s-0.4,0.2-0.6,0.3
						c-0.2,0.1-0.4,0.2-0.5,0.4c-0.2,0.1-0.3,0.2-0.5,0.4c-0.2,0.1-0.4,0.2-0.5,0.3c-0.1,0-0.2,0.1-0.3,0.1H38c0,0,0,0-0.1,0l0,0
						l0,0h-0.1c-0.3,0-0.6-0.1-0.9-0.2c-0.3-0.1-0.6-0.2-0.9-0.4l-1.9-0.8C33.7,24.1,33.4,24,33,24c-0.4,0-0.7,0.1-1.1,0.2
						c-0.7,0.2-1.3,0.5-1.9,0.9c-0.1,0-0.1,0.1-0.1,0.2c0,0.1,0.1,0.1,0.2,0.1l0,0c0.3-0.2,0.6-0.3,0.9-0.4c0.3-0.1,0.6-0.2,0.9-0.3
						c0.6-0.2,1.3-0.2,1.9,0c0.6,0.3,1.2,0.6,1.9,0.8c0.3,0.1,0.6,0.3,1,0.4c0.2,0.1,0.3,0.1,0.5,0.1s0.3,0.1,0.5,0l0,0
						c0,0,0,0,0.1,0h0.1c0.1,0,0.1,0,0.2,0c0.1,0,0.2-0.1,0.3-0.1c0.2-0.1,0.4-0.2,0.6-0.3c0.2-0.1,0.4-0.2,0.6-0.4
						c0.2-0.1,0.3-0.2,0.5-0.3c0.4-0.2,0.7-0.4,1.1-0.3c0.4,0,0.7,0.2,1.1,0.4c0.4,0.2,0.8,0.4,1.3,0.4c0.5,0.1,0.9,0.1,1.4-0.1
						C46,25.1,46.8,24.6,47.4,24z"/>
				</g>
				<g>
					<path class="st0" d="M23.8,23.9"/>
					<path class="st0" d="M45.8,32.4L45.8,32.4c0.2-0.1,0.3-0.3,0.2-0.5c-0.1-0.2-0.2-0.2-0.4-0.2c0,0,0,0-0.1,0l0,0
						c-0.7,0-1.4-0.3-2-0.6c-0.3-0.2-0.6-0.4-0.9-0.6c-0.1-0.1-0.3-0.2-0.4-0.4c-0.1-0.1-0.1-0.1-0.2-0.2l-0.2-0.2
						c-0.2-0.3-0.5-0.7-0.9-0.9c-0.4-0.3-0.7-0.5-1.2-0.6c-0.4-0.1-0.9-0.2-1.3-0.2c-0.1,0-0.2,0-0.3,0h-0.3c-0.2,0-0.3,0-0.5,0
						c-0.3,0-0.6-0.1-0.9-0.3c-0.3-0.2-0.5-0.4-0.7-0.7l-0.2-0.2c-0.1-0.1-0.1-0.2-0.2-0.2c-0.1-0.2-0.3-0.3-0.4-0.4
						c-0.3-0.3-0.6-0.5-0.9-0.8c-0.3-0.2-0.7-0.5-1-0.7c-0.1-0.1-0.2-0.1-0.3-0.1c-0.1-0.1-0.2-0.1-0.3-0.1
						c-0.2-0.1-0.4-0.1-0.6-0.1c-0.4,0-0.8,0-1.2,0c-0.2,0-0.4,0.1-0.6,0.1c-0.1,0-0.2,0-0.3,0.1h-0.1c0,0,0,0-0.1,0l0,0l0,0
						c0,0,0,0,0,0.1v0.1v0.1c0,0,0,0,0,0.1l0,0l0,0c0,0,0,0,0.1,0h0.1H30c0.2,0,0.4,0,0.6,0c0.4,0,0.7,0,1.1,0.1
						c0.2,0,0.3,0.1,0.5,0.1c0.1,0,0.1,0.1,0.2,0.1c0.1,0,0.2,0.1,0.2,0.1c0.3,0.2,0.6,0.4,0.9,0.7c0.3,0.2,0.5,0.5,0.8,0.8
						c0.1,0.1,0.2,0.3,0.4,0.4c0.1,0.1,0.1,0.1,0.2,0.2l0.2,0.2c0.3,0.3,0.6,0.6,1,0.9c0.4,0.2,0.9,0.4,1.3,0.4c0.2,0,0.4,0,0.7,0
						h0.3c0.1,0,0.2,0,0.3,0c0.3,0,0.7,0,1,0.1s0.6,0.2,0.9,0.4c0.3,0.2,0.5,0.4,0.7,0.7l0.2,0.1c0.1,0.1,0.1,0.2,0.2,0.2
						c0.1,0.2,0.3,0.3,0.5,0.4c0.3,0.3,0.7,0.5,1,0.7s0.7,0.3,1.1,0.4c-0.4,0.1-0.7,0.1-1.1,0.1c-0.4,0-0.8-0.1-1.1-0.3
						c-0.3-0.2-0.6-0.5-0.9-0.7c-0.3-0.3-0.6-0.6-1.1-0.8c-0.2-0.1-0.5-0.2-0.7-0.1c-0.2,0-0.5,0-0.7,0.1c-0.2,0-0.4,0.1-0.6,0.2
						c-0.2,0.1-0.4,0.1-0.6,0.1c-0.2,0-0.4,0.1-0.6,0.1c-0.1,0-0.2,0-0.3,0h-0.1c0,0,0,0-0.1,0l0,0l0,0h-0.1
						c-0.3-0.1-0.5-0.3-0.8-0.5s-0.5-0.4-0.7-0.7l-1.5-1.4c-0.3-0.3-0.6-0.4-1-0.5c-0.3-0.1-0.7-0.2-1-0.2c-0.7-0.1-1.4,0-2.1,0.1
						c-0.1,0-0.1,0.1-0.1,0.2c0,0.1,0.1,0.1,0.2,0.1l0,0c0.3,0,0.7-0.1,1-0.1s0.7,0,1,0.1c0.6,0.1,1.3,0.3,1.7,0.7
						c0.5,0.5,1,1,1.4,1.4c0.3,0.2,0.5,0.5,0.8,0.7c0.1,0.1,0.3,0.2,0.4,0.3c0.1,0.1,0.3,0.2,0.5,0.2l0,0c0,0,0,0,0.1,0h0.1
						c0.1,0,0.1,0,0.2,0c0.1,0,0.2,0,0.4,0s0.5,0,0.7-0.1c0.2,0,0.4-0.1,0.6-0.1c0.2,0,0.4-0.1,0.6-0.1c0.4-0.1,0.8-0.1,1.1,0.1
						c0.3,0.2,0.6,0.5,0.9,0.8c0.3,0.3,0.6,0.6,1,0.9c0.4,0.2,0.9,0.4,1.3,0.5C44.1,32.9,45,32.8,45.8,32.4z"/>
				</g>
			</g>
			<g>
				<g>
					<path class="st0" d="M23.7,23.9"/>
					<path class="st0" d="M1.5,31.8L1.5,31.8c-0.1,0.2,0,0.4,0.1,0.5c0.2,0.1,0.3,0,0.4-0.1l0,0l0,0c0.5-0.5,1.2-0.7,1.9-0.9
						c0.4-0.1,0.7-0.1,1.1-0.1c0.2,0,0.4,0,0.5,0s0.2,0,0.3,0l0.3,0.1c0.4,0.1,0.8,0.1,1.3,0.1c0.4,0,0.9-0.1,1.3-0.3
						s0.8-0.4,1.1-0.7c0.1-0.1,0.2-0.1,0.2-0.2l0.2-0.2c0.1-0.1,0.2-0.2,0.4-0.3c0.3-0.2,0.6-0.3,0.9-0.4c0.3-0.1,0.6,0,1,0l0.3,0.1
						c0.1,0,0.2,0,0.3,0c0.2,0,0.4,0,0.6,0.1c0.4,0,0.8,0,1.2,0c0.4,0,0.8-0.1,1.2-0.2c0.1,0,0.2,0,0.3-0.1c0.1,0,0.2-0.1,0.3-0.1
						c0.2-0.1,0.4-0.2,0.6-0.3c0.3-0.2,0.6-0.5,0.9-0.8c0.1-0.2,0.3-0.3,0.4-0.5c0.1-0.1,0.1-0.2,0.2-0.2l0.1-0.1c0,0,0,0,0-0.1l0,0
						l0,0c0,0,0,0,0-0.1l-0.1-0.1h-0.1c0,0,0,0-0.1,0l0,0l0,0c0,0,0,0,0,0.1l-0.1,0.1l-0.2,0.2c-0.1,0.1-0.3,0.3-0.4,0.4
						c-0.3,0.2-0.6,0.5-0.9,0.6c-0.2,0.1-0.3,0.2-0.5,0.2c-0.1,0-0.1,0-0.2,0.1c-0.1,0-0.2,0-0.3,0c-0.4,0.1-0.7,0.1-1.1,0.1
						s-0.7,0-1.1-0.1c-0.2,0-0.4,0-0.5-0.1c-0.1,0-0.2,0-0.3,0l-0.3-0.1c-0.4-0.1-0.9-0.1-1.3,0c-0.5,0.1-0.9,0.3-1.3,0.5
						c-0.2,0.1-0.3,0.3-0.5,0.4l-0.2,0.2c-0.1,0.1-0.1,0.1-0.2,0.2c-0.2,0.2-0.5,0.4-0.8,0.6c-0.3,0.1-0.6,0.2-1,0.3
						c-0.3,0-0.7,0-1-0.1l-0.3-0.1c-0.1,0-0.2,0-0.3,0c-0.2,0-0.4,0-0.6,0c-0.4,0-0.8,0.1-1.2,0.1c-0.4,0.1-0.7,0.2-1.1,0.4
						c0.2-0.3,0.5-0.5,0.8-0.8c0.3-0.2,0.7-0.4,1-0.5c0.4-0.1,0.8-0.1,1.2-0.1c0.4,0,0.9,0.1,1.4-0.1c0.2-0.1,0.5-0.2,0.6-0.4
						c0.2-0.2,0.3-0.3,0.5-0.5c0.1-0.2,0.3-0.4,0.4-0.5c0.1-0.2,0.2-0.3,0.4-0.5c0.1-0.2,0.3-0.3,0.4-0.5c0.1-0.1,0.1-0.1,0.2-0.2
						l0.1-0.1c0,0,0,0,0.1,0l0,0l0,0h0.1c0.2-0.1,0.6-0.1,0.9-0.1s0.7,0,1,0l2,0.1c0.4,0,0.7-0.1,1.1-0.2c0.3-0.1,0.6-0.3,0.9-0.5
						c0.6-0.4,1.1-0.9,1.5-1.5c0-0.1,0-0.2,0-0.2c-0.1-0.1-0.2,0-0.2,0l0,0c-0.2,0.2-0.5,0.5-0.7,0.7s-0.5,0.4-0.8,0.6
						c-0.5,0.4-1.2,0.6-1.8,0.6c-0.7,0-1.3-0.1-2-0.1c-0.3,0-0.7,0-1,0c-0.2,0-0.4,0-0.5,0.1c-0.2,0-0.3,0.1-0.5,0.1l0,0
						c0,0,0,0-0.1,0H9.8c-0.1,0-0.1,0.1-0.2,0.1c-0.1,0.1-0.2,0.1-0.3,0.2c-0.2,0.2-0.3,0.3-0.5,0.5c-0.1,0.2-0.3,0.3-0.4,0.5
						S8.2,27.9,8,28.1c-0.3,0.3-0.5,0.6-0.9,0.7c-0.3,0.1-0.8,0-1.2,0c-0.4,0-0.9-0.1-1.4,0s-0.9,0.3-1.3,0.5
						C2.4,30.3,1.9,31.1,1.5,31.8z"/>
				</g>
				<g>
					<path class="st0" d="M23.7,23.9"/>
					<path class="st0" d="M0.1,22.6L0.1,22.6C-0.1,22.8-0.1,23,0,23.1c0.1,0.1,0.3,0.2,0.4,0.1c0,0,0,0,0.1,0l0,0
						c0.6-0.2,1.4-0.2,2.1,0c0.4,0.1,0.7,0.2,1,0.3c0.2,0.1,0.3,0.2,0.5,0.2c0.1,0,0.2,0.1,0.2,0.1l0.2,0.2c0.3,0.2,0.7,0.5,1.1,0.6
						c0.4,0.1,0.9,0.2,1.3,0.2s0.9-0.1,1.3-0.3c0.1,0,0.2-0.1,0.3-0.1l0.3-0.1c0.2-0.1,0.3-0.1,0.5-0.2c0.3-0.1,0.6-0.1,0.9,0
						s0.6,0.2,0.9,0.4l0.2,0.2c0.1,0.1,0.2,0.1,0.3,0.2c0.2,0.1,0.4,0.2,0.5,0.3c0.4,0.2,0.7,0.3,1.1,0.5c0.4,0.1,0.8,0.2,1.2,0.3
						c0.1,0,0.2,0,0.3,0.1c0.1,0,0.2,0,0.3,0c0.2,0,0.4,0,0.7-0.1c0.4-0.1,0.8-0.3,1.2-0.4c0.2-0.1,0.4-0.2,0.5-0.3
						c0.1-0.1,0.2-0.1,0.3-0.2l0.1-0.1c0,0,0,0,0.1,0l0,0l0,0c0,0,0,0,0-0.1v-0.1l-0.1-0.1l0,0l0,0l0,0c0,0,0,0-0.1,0l-0.1,0.1
						l-0.3,0.1C17.1,25,17,25,16.8,25.1c-0.4,0.1-0.7,0.2-1.1,0.3c-0.2,0-0.3,0-0.5,0c-0.1,0-0.2,0-0.2,0c-0.1,0-0.2,0-0.3-0.1
						c-0.4-0.1-0.7-0.2-1-0.3c-0.3-0.1-0.7-0.3-1-0.5c-0.2-0.1-0.3-0.2-0.5-0.3c-0.1,0-0.2-0.1-0.2-0.1l-0.2-0.2
						c-0.3-0.2-0.8-0.4-1.2-0.5c-0.5-0.1-0.9-0.1-1.4,0c-0.2,0.1-0.4,0.1-0.6,0.2l-0.3,0.1c-0.1,0-0.2,0.1-0.2,0.1
						c-0.3,0.1-0.7,0.2-1,0.2s-0.7,0-1-0.1s-0.6-0.2-0.9-0.4L5,23.4c-0.1-0.1-0.2-0.1-0.3-0.2c-0.2-0.1-0.4-0.2-0.6-0.3
						c-0.4-0.2-0.8-0.3-1.2-0.3c-0.4-0.1-0.8-0.1-1.2-0.1c0.3-0.2,0.7-0.3,1-0.4c0.4-0.1,0.8-0.1,1.1,0c0.4,0.1,0.8,0.2,1.1,0.4
						c0.4,0.2,0.8,0.4,1.3,0.5c0.3,0,0.5,0,0.7-0.1s0.4-0.2,0.6-0.3c0.2-0.1,0.4-0.2,0.6-0.4c0.2-0.1,0.3-0.2,0.5-0.3
						c0.2-0.1,0.4-0.2,0.5-0.3c0.1,0,0.2-0.1,0.3-0.1h0.1c0,0,0,0,0.1,0l0,0l0,0h0.1c0.3,0,0.6,0.1,0.9,0.2s0.6,0.3,0.9,0.4l1.8,0.9
						c0.3,0.2,0.7,0.2,1.1,0.2s0.7,0,1.1-0.1c0.7-0.2,1.3-0.4,1.9-0.8c0.1,0,0.1-0.1,0.1-0.2S17.4,22,17.3,22l0,0
						c-0.3,0.1-0.6,0.3-0.9,0.4s-0.6,0.2-1,0.3c-0.6,0.1-1.3,0.2-1.9-0.1c-0.6-0.3-1.2-0.6-1.8-0.9c-0.3-0.1-0.6-0.3-1-0.4
						c-0.2-0.1-0.3-0.1-0.5-0.2C10,21.1,9.9,21,9.7,21l0,0c0,0,0,0-0.1,0H9.5c-0.1,0-0.1,0-0.2,0S9.1,21.1,9,21.1
						c-0.2,0.1-0.4,0.2-0.6,0.3c-0.2,0.1-0.4,0.2-0.6,0.3c-0.2,0.1-0.4,0.2-0.5,0.3c-0.4,0.2-0.7,0.3-1.1,0.3S5.5,22,5.1,21.8
						c-0.4-0.2-0.8-0.4-1.3-0.5c-0.3,0-0.8,0-1.3,0.1C1.6,21.6,0.8,22.1,0.1,22.6z"/>
				</g>
				<g>
					<path class="st0" d="M23.8,23.8"/>
					<path class="st0" d="M2.4,13.7L2.4,13.7c-0.2,0.1-0.3,0.3-0.2,0.4c0.1,0.2,0.2,0.3,0.4,0.2c0,0,0,0,0.1,0l0,0
						c0.7,0,1.4,0.3,2,0.8c0.3,0.2,0.6,0.4,0.8,0.7c0.1,0.1,0.2,0.3,0.3,0.4c0.1,0.1,0.1,0.1,0.1,0.2l0.2,0.2c0.2,0.4,0.5,0.7,0.8,1
						s0.7,0.5,1.1,0.6c0.4,0.2,0.8,0.2,1.3,0.2c0.1,0,0.2,0,0.3,0h0.3c0.2,0,0.3,0,0.5,0c0.3,0.1,0.6,0.2,0.9,0.3
						c0.3,0.2,0.5,0.4,0.7,0.7l0.2,0.2c0.1,0.1,0.1,0.2,0.2,0.2c0.1,0.2,0.3,0.3,0.4,0.5c0.3,0.3,0.6,0.6,0.9,0.9s0.6,0.5,1,0.7
						c0.1,0.1,0.2,0.1,0.3,0.2c0.1,0.1,0.2,0.1,0.3,0.2c0.2,0.1,0.4,0.1,0.6,0.2c0.4,0.1,0.8,0.1,1.2,0c0.2,0,0.4,0,0.6-0.1
						c0.1,0,0.2,0,0.3-0.1h0.1c0,0,0,0,0.1,0l0,0l0,0c0,0,0,0,0-0.1v-0.1v-0.1c0,0,0,0,0-0.1l0,0l0,0c0,0,0,0-0.1,0H18h-0.3
						c-0.2,0-0.4,0-0.6,0c-0.4,0-0.7-0.1-1.1-0.2c-0.2,0-0.3-0.1-0.5-0.2c-0.1,0-0.1-0.1-0.2-0.1c-0.1-0.1-0.1-0.1-0.2-0.2
						c-0.3-0.2-0.6-0.5-0.8-0.7c-0.3-0.3-0.5-0.5-0.8-0.8c-0.1-0.1-0.2-0.3-0.3-0.4c-0.1-0.1-0.1-0.1-0.2-0.2L12.8,19
						c-0.2-0.3-0.5-0.7-0.9-0.9c-0.4-0.3-0.8-0.4-1.3-0.5c-0.2,0-0.4,0-0.7,0H9.6c-0.1,0-0.2,0-0.3,0c-0.3,0-0.7-0.1-1-0.2
						s-0.6-0.3-0.9-0.5s-0.5-0.5-0.7-0.8l-0.2,0.1c-0.1-0.1-0.1-0.2-0.2-0.3c-0.1-0.2-0.3-0.3-0.4-0.5c-0.3-0.3-0.6-0.5-1-0.8
						c-0.3-0.2-0.7-0.4-1-0.5c0.4,0,0.7-0.1,1.1,0c0.4,0.1,0.7,0.2,1.1,0.4c0.3,0.2,0.6,0.5,0.9,0.8s0.6,0.7,1,0.9
						c0.2,0.1,0.5,0.2,0.7,0.2s0.5,0,0.7,0s0.4-0.1,0.7-0.1c0.2,0,0.4-0.1,0.6-0.1s0.4,0,0.6,0c0.1,0,0.2,0,0.3,0h0.1c0,0,0,0,0.1,0
						l0,0l0,0h0.1c0.2,0.1,0.5,0.3,0.7,0.5s0.5,0.5,0.7,0.7l1.4,1.5c0.3,0.3,0.6,0.5,0.9,0.6s0.7,0.2,1,0.3c0.7,0.1,1.4,0.1,2.1,0
						c0.1,0,0.1-0.1,0.1-0.2s-0.1-0.1-0.2-0.1l0,0c-0.3,0-0.7,0-1,0s-0.7-0.1-1-0.1c-0.6-0.1-1.3-0.4-1.7-0.8
						c-0.4-0.5-0.9-1-1.4-1.5c-0.2-0.3-0.5-0.5-0.7-0.7c-0.1-0.1-0.3-0.2-0.4-0.3c-0.1-0.1-0.3-0.2-0.5-0.3l0,0c0,0,0,0-0.1,0h-0.1
						c-0.1,0-0.1,0-0.2,0s-0.2,0-0.3,0c-0.2,0-0.5,0-0.7,0s-0.4,0.1-0.7,0.1c-0.2,0-0.4,0.1-0.6,0.1c-0.4,0-0.8,0-1.1-0.1
						c-0.3-0.2-0.6-0.5-0.9-0.8s-0.6-0.7-1-0.9c-0.4-0.3-0.8-0.5-1.3-0.5C4.1,13.3,3.2,13.6,2.4,13.7z"/>
				</g>
				<g>
					<path class="st0" d="M23.8,23.8"/>
					<path class="st0" d="M7.8,6.3L7.8,6.3c-0.2,0-0.4,0.1-0.4,0.3S7.5,6.9,7.7,7l0,0l0,0c0.6,0.3,1.1,0.9,1.5,1.5
						c0.2,0.3,0.4,0.6,0.5,1c0.1,0.2,0.1,0.3,0.2,0.5c0,0.1,0,0.2,0.1,0.3v0.3c0.1,0.4,0.2,0.8,0.4,1.2c0.2,0.4,0.5,0.7,0.8,1
						s0.7,0.5,1.1,0.7c0.1,0,0.2,0.1,0.3,0.1l0.3,0.1c0.2,0.1,0.3,0.1,0.4,0.2c0.3,0.2,0.5,0.4,0.7,0.7c0.2,0.3,0.3,0.6,0.3,0.9
						l0.1,0.3c0,0.1,0,0.2,0.1,0.3c0.1,0.2,0.1,0.4,0.2,0.6c0.1,0.4,0.3,0.8,0.5,1.1c0.2,0.4,0.4,0.7,0.6,1.1
						c0.1,0.1,0.1,0.2,0.2,0.3c0.1,0.1,0.1,0.2,0.2,0.3c0.2,0.2,0.3,0.3,0.5,0.4c0.4,0.2,0.7,0.4,1.1,0.5c0.2,0.1,0.4,0.1,0.6,0.2
						c0.1,0,0.2,0,0.3,0.1h0.1c0,0,0,0,0.1,0l0,0l0,0c0,0,0,0,0-0.1v-0.1v-0.1c0,0,0,0,0-0.1l0,0l0,0c0,0,0,0-0.1,0h-0.1L18.5,20
						c-0.2-0.1-0.3-0.1-0.5-0.2c-0.3-0.2-0.7-0.3-0.9-0.6c-0.1-0.1-0.3-0.2-0.4-0.3c-0.1-0.1-0.1-0.1-0.1-0.2s-0.1-0.1-0.1-0.2
						c-0.2-0.3-0.4-0.6-0.5-1c-0.1-0.3-0.3-0.7-0.4-1c-0.1-0.2-0.1-0.4-0.1-0.5c0-0.1,0-0.2-0.1-0.3l-0.1-0.3
						c-0.1-0.4-0.2-0.8-0.5-1.2c-0.2-0.4-0.6-0.7-1-0.9c-0.2-0.1-0.4-0.2-0.6-0.3l-0.3-0.1c-0.1,0-0.2-0.1-0.2-0.1
						c-0.3-0.1-0.6-0.3-0.9-0.5s-0.5-0.5-0.6-0.8c-0.2-0.3-0.3-0.6-0.4-1l-0.1-0.3c0-0.1,0-0.2-0.1-0.3c-0.1-0.2-0.1-0.4-0.2-0.6
						C10.2,8.9,10,8.6,9.8,8.2C9.6,7.9,9.3,7.6,9,7.3c0.4,0.1,0.7,0.2,1,0.4s0.6,0.5,0.8,0.8c0.2,0.3,0.4,0.7,0.5,1.1
						c0.2,0.4,0.3,0.8,0.6,1.2c0.2,0.2,0.4,0.4,0.6,0.5s0.4,0.2,0.7,0.2c0.2,0.1,0.4,0.1,0.6,0.1s0.4,0.1,0.6,0.1
						c0.2,0.1,0.4,0.1,0.6,0.2c0.1,0,0.2,0.1,0.3,0.1c0,0,0.1,0,0.1,0.1l0,0l0,0l0,0l0.1,0.1c0.2,0.2,0.3,0.5,0.5,0.8
						c0.1,0.3,0.3,0.6,0.4,0.9l0.7,1.9c0.1,0.4,0.4,0.7,0.6,0.9c0.3,0.3,0.5,0.5,0.8,0.7c0.6,0.4,1.2,0.6,1.9,0.8
						c0.1,0,0.2,0,0.2-0.1s0-0.2-0.1-0.2l0,0c-0.3-0.1-0.6-0.2-0.9-0.4c-0.3-0.1-0.6-0.3-0.9-0.5c-0.5-0.4-1-0.8-1.3-1.4
						c-0.2-0.6-0.4-1.3-0.7-1.9c-0.1-0.3-0.2-0.6-0.4-1c-0.1-0.2-0.2-0.3-0.3-0.5c-0.1-0.1-0.2-0.3-0.3-0.4l0,0l0,0l-0.1-0.1
						c-0.1,0-0.1-0.1-0.2-0.1c-0.1-0.1-0.2-0.1-0.3-0.2c-0.2-0.1-0.4-0.2-0.6-0.2c-0.2-0.1-0.4-0.1-0.6-0.2c-0.2,0-0.4-0.1-0.6-0.2
						c-0.4-0.1-0.8-0.3-1-0.5c-0.2-0.3-0.3-0.7-0.5-1.1c-0.1-0.4-0.3-0.8-0.6-1.2c-0.3-0.4-0.6-0.7-1-1C9.6,6.6,8.7,6.4,7.8,6.3z"/>
				</g>
				<g>
					<path class="st0" d="M23.8,23.9"/>
					<path class="st0" d="M15.2,1.8C15.1,1.8,15.1,1.8,15.2,1.8c-0.2-0.1-0.4,0-0.5,0.2s0,0.3,0.1,0.4l0,0l0,0
						c0.5,0.5,0.8,1.2,0.9,1.9c0.1,0.4,0.1,0.7,0.1,1.1c0,0.2,0,0.4,0,0.5s0,0.2,0,0.3l-0.1,0.3c-0.1,0.4-0.1,0.8-0.1,1.3
						C15.7,8.2,15.8,8.7,16,9c0.2,0.4,0.5,0.7,0.8,1c0.1,0.1,0.1,0.2,0.2,0.2l0.2,0.2c0.1,0.1,0.2,0.2,0.3,0.4
						c0.2,0.3,0.3,0.5,0.4,0.8s0,0.6,0,1v0.3c0,0.1,0,0.2,0,0.3c0,0.2,0,0.4,0,0.6c0,0.4,0,0.8,0,1.2c0,0.4,0.1,0.8,0.2,1.2
						c0,0.1,0.1,0.2,0.1,0.3c0,0.1,0.1,0.2,0.1,0.3c0.1,0.2,0.2,0.4,0.3,0.6c0.3,0.3,0.6,0.6,0.9,0.9c0.2,0.1,0.3,0.2,0.5,0.4
						c0.1,0.1,0.2,0.1,0.3,0.2l0.1,0.1c0,0,0,0,0.1,0l0,0l0,0l0,0l0.1-0.1v-0.1c0,0,0,0,0-0.1l0,0l0,0c0,0,0,0-0.1,0v-0.2l-0.2-0.2
						c-0.1-0.1-0.3-0.3-0.4-0.4c-0.3-0.3-0.5-0.6-0.7-0.8c-0.1-0.1-0.2-0.3-0.2-0.4s0-0.1-0.1-0.2c0-0.1,0-0.2-0.1-0.3
						c-0.1-0.4-0.1-0.7-0.1-1.1s0-0.7,0-1.1c0-0.2,0-0.4,0.1-0.5c0-0.1,0-0.2,0-0.3V13c0.1-0.4,0.1-0.9,0-1.3
						c-0.1-0.5-0.3-0.9-0.6-1.2c-0.1-0.2-0.3-0.3-0.5-0.5l-0.2-0.2c-0.1-0.1-0.1-0.1-0.2-0.2c-0.2-0.2-0.5-0.5-0.6-0.8
						c-0.2-0.3-0.3-0.6-0.3-1c0-0.3,0-0.7,0-1V6.4c0-0.1,0-0.2,0-0.3c0-0.2,0-0.4,0-0.6c0-0.4-0.1-0.8-0.2-1.2S16,3.6,15.8,3.2
						c0.3,0.2,0.6,0.5,0.8,0.7c0.2,0.3,0.4,0.7,0.5,1c0.1,0.4,0.1,0.8,0.1,1.2s0,0.9,0.1,1.4c0.1,0.2,0.2,0.5,0.4,0.6
						c0.2,0.2,0.3,0.3,0.5,0.5c0.2,0.1,0.4,0.2,0.6,0.4c0.2,0.1,0.4,0.2,0.5,0.3c0.2,0.1,0.3,0.2,0.5,0.4c0.1,0.1,0.1,0.1,0.2,0.2
						l0.1,0.1l0,0l0,0l0,0v0.1c0.1,0.2,0.1,0.6,0.2,0.9c0,0.3,0,0.7,0,1l-0.1,2c0,0.4,0.1,0.7,0.3,1.1c0.1,0.3,0.3,0.6,0.6,0.9
						c0.4,0.6,0.9,1,1.5,1.4c0.1,0,0.2,0,0.2,0c0.1-0.1,0-0.2,0-0.2l0,0c-0.3-0.2-0.5-0.4-0.7-0.7c-0.2-0.2-0.4-0.5-0.6-0.8
						c-0.4-0.5-0.7-1.1-0.7-1.7c0-0.7,0.1-1.4,0.1-2c0-0.3,0-0.7,0-1c0-0.2,0-0.4-0.1-0.5c0-0.2-0.1-0.3-0.2-0.5l0,0c0,0,0,0,0-0.1
						V9.8c0-0.1-0.1-0.1-0.1-0.2c-0.1-0.1-0.1-0.2-0.2-0.3C20.1,9.1,20,9,19.8,8.9c-0.2-0.1-0.4-0.3-0.5-0.4
						c-0.2-0.1-0.3-0.2-0.5-0.4c-0.3-0.2-0.6-0.5-0.7-0.9C18,6.9,18,6.4,18,6s0-0.9-0.1-1.4s-0.3-0.9-0.6-1.3
						C16.7,2.7,15.9,2.2,15.2,1.8z"/>
				</g>
			</g>
			<g>
				<path class="st0" d="M23.8,23.9"/>
				<path class="st0" d="M40.8,40.2L40.8,40.2c0.2,0,0.4-0.2,0.4-0.3c0-0.2-0.1-0.3-0.3-0.4l0,0l0,0c-0.6-0.3-1.2-0.8-1.6-1.4
					c-0.2-0.3-0.4-0.6-0.6-0.9c-0.1-0.2-0.1-0.3-0.2-0.5c0-0.1-0.1-0.2-0.1-0.3l-0.1-0.3c-0.1-0.4-0.2-0.8-0.5-1.2
					c-0.2-0.4-0.5-0.7-0.9-1c-0.3-0.3-0.7-0.5-1.1-0.6c-0.1,0-0.2-0.1-0.3-0.1l-0.3-0.1c-0.2,0-0.3-0.1-0.5-0.2
					c-0.3-0.2-0.5-0.4-0.7-0.6c-0.2-0.3-0.3-0.6-0.4-0.9l-0.1-0.3c0-0.1-0.1-0.2-0.1-0.3c-0.1-0.2-0.1-0.4-0.2-0.6
					c-0.2-0.4-0.3-0.7-0.5-1.1c-0.2-0.4-0.4-0.7-0.7-1c-0.1-0.1-0.1-0.2-0.2-0.2c-0.1-0.1-0.2-0.2-0.2-0.2c-0.2-0.1-0.4-0.3-0.5-0.4
					c-0.4-0.2-0.8-0.3-1.2-0.4c-0.2,0-0.4-0.1-0.6-0.1c-0.1,0-0.2,0-0.3,0h-0.1c0,0,0,0-0.1,0l0,0l0,0c0,0,0,0,0,0.1v0.1v0.1
					c0,0,0,0,0,0.1l0,0l0,0c0,0,0,0,0.1,0H29l0.3,0.1c0.2,0.1,0.4,0.1,0.5,0.2c0.3,0.1,0.7,0.3,1,0.5c0.1,0.1,0.3,0.2,0.4,0.3
					c0.1,0.1,0.1,0.1,0.2,0.2c0.1,0.1,0.1,0.1,0.2,0.2c0.2,0.3,0.4,0.6,0.6,0.9c0.2,0.3,0.3,0.7,0.4,1c0.1,0.2,0.1,0.3,0.2,0.5
					c0,0.1,0.1,0.2,0.1,0.3l0.1,0.3c0.1,0.4,0.3,0.8,0.6,1.2s0.6,0.7,1.1,0.9c0.2,0.1,0.4,0.2,0.6,0.2l0.3,0.1c0.1,0,0.2,0,0.2,0.1
					c0.3,0.1,0.6,0.3,0.9,0.5c0.3,0.2,0.5,0.5,0.7,0.7c0.2,0.3,0.3,0.6,0.4,0.9l0.1,0.3c0,0.1,0.1,0.2,0.1,0.3
					c0.1,0.2,0.2,0.4,0.2,0.6c0.2,0.4,0.4,0.7,0.7,1c0.2,0.3,0.5,0.6,0.8,0.8c-0.4-0.1-0.7-0.2-1-0.4s-0.6-0.4-0.9-0.7
					c-0.2-0.3-0.4-0.7-0.6-1.1c-0.2-0.4-0.3-0.8-0.7-1.2c-0.2-0.2-0.4-0.3-0.6-0.4c-0.2-0.1-0.4-0.1-0.7-0.2c-0.2,0-0.4-0.1-0.7-0.1
					c-0.2,0-0.4-0.1-0.6-0.1c-0.2,0-0.4-0.1-0.6-0.1c-0.1,0-0.2-0.1-0.3-0.1c0,0-0.1,0-0.1-0.1l0,0l0,0l0,0l-0.1-0.1
					c-0.2-0.2-0.4-0.5-0.5-0.8c-0.2-0.3-0.3-0.6-0.4-0.9l-0.8-1.9c-0.2-0.3-0.4-0.6-0.7-0.9c-0.3-0.2-0.6-0.4-0.9-0.6
					c-0.6-0.3-1.3-0.5-2-0.7c-0.1,0-0.2,0-0.2,0.1s0,0.2,0.1,0.2l0,0c0.3,0.1,0.6,0.2,0.9,0.3c0.3,0.1,0.6,0.3,0.9,0.4
					c0.6,0.3,1.1,0.7,1.3,1.3c0.3,0.6,0.5,1.3,0.8,1.9c0.1,0.3,0.3,0.6,0.5,0.9c0.1,0.2,0.2,0.3,0.3,0.5c0.1,0.1,0.2,0.3,0.4,0.4
					l0,0l0,0c0,0,0.1,0,0.1,0.1c0.1,0,0.1,0.1,0.2,0.1c0.1,0.1,0.2,0.1,0.3,0.1c0.2,0.1,0.4,0.1,0.6,0.2c0.2,0,0.4,0.1,0.6,0.1
					c0.2,0,0.4,0.1,0.6,0.1c0.4,0.1,0.8,0.2,1,0.5s0.4,0.7,0.5,1.1c0.2,0.4,0.4,0.8,0.6,1.2c0.3,0.4,0.6,0.7,1.1,0.9
					C39,40,39.9,40.1,40.8,40.2z"/>
			</g>
			<g>
				<path class="st0" d="M23.6,23.9"/>
				<path class="st0" d="M33.3,45.3L33.3,45.3c0.2,0.1,0.4,0,0.5-0.2s0-0.3-0.1-0.4l0,0l0,0c-0.5-0.5-0.8-1.2-1-1.9
					c-0.1-0.4-0.2-0.7-0.2-1.1c0-0.2,0-0.4,0-0.5s0-0.2,0-0.3v-0.3c0.1-0.4,0.1-0.9,0-1.3c-0.1-0.4-0.2-0.8-0.4-1.2s-0.5-0.7-0.8-1
					c-0.1-0.1-0.2-0.1-0.2-0.2l-0.2-0.2c-0.1-0.1-0.2-0.2-0.4-0.4s-0.4-0.5-0.4-0.8c-0.1-0.3-0.1-0.6,0-1v-0.3c0-0.1,0-0.2,0-0.3
					c0-0.2,0-0.4,0-0.6c0-0.4,0-0.8-0.1-1.2c-0.1-0.4-0.1-0.8-0.2-1.2c0-0.1-0.1-0.2-0.1-0.3s-0.1-0.2-0.1-0.3
					c-0.1-0.2-0.2-0.4-0.4-0.5c-0.3-0.3-0.6-0.6-0.9-0.8c-0.2-0.1-0.3-0.2-0.5-0.3c-0.1-0.1-0.2-0.1-0.3-0.2l-0.1-0.1c0,0,0,0-0.1,0
					l0,0l0,0l0,0l-0.1,0.1v0.1c0,0,0,0,0,0.1l0,0l0,0c0,0,0,0,0.1,0l0.1,0.1l0.2,0.2c0.1,0.1,0.3,0.2,0.4,0.4
					c0.3,0.3,0.5,0.5,0.7,0.8c0.1,0.1,0.2,0.3,0.2,0.4c0,0.1,0.1,0.1,0.1,0.2c0,0.1,0,0.2,0.1,0.3c0.1,0.4,0.1,0.7,0.2,1.1
					c0,0.4,0,0.7,0,1.1c0,0.2,0,0.4,0,0.6c0,0.1,0,0.2,0,0.3v0.3c0,0.4,0,0.9,0.1,1.3c0.1,0.4,0.3,0.9,0.6,1.2
					c0.2,0.2,0.3,0.3,0.5,0.4l0.2,0.2c0.1,0.1,0.1,0.1,0.2,0.2c0.3,0.2,0.5,0.5,0.7,0.8s0.3,0.6,0.4,0.9c0.1,0.3,0.1,0.7,0,1v0.3
					c0,0.1,0,0.2,0,0.3c0,0.2,0,0.4,0,0.6c0,0.4,0.1,0.8,0.2,1.2c0.1,0.4,0.3,0.7,0.5,1.1c-0.3-0.2-0.6-0.4-0.8-0.7
					c-0.3-0.3-0.4-0.6-0.5-1s-0.1-0.8-0.2-1.2c0-0.4,0-0.9-0.2-1.4c-0.1-0.2-0.2-0.5-0.4-0.6c-0.2-0.2-0.4-0.3-0.5-0.4
					c-0.2-0.1-0.4-0.2-0.6-0.3c-0.2-0.1-0.4-0.2-0.5-0.3c-0.2-0.1-0.3-0.2-0.5-0.4c-0.1-0.1-0.1-0.1-0.2-0.2l-0.1-0.1l0,0l0,0l0,0
					v-0.1c-0.1-0.2-0.2-0.6-0.2-0.9c0-0.3,0-0.7-0.1-1v-2c0-0.4-0.1-0.7-0.3-1.1c-0.2-0.3-0.4-0.6-0.6-0.9c-0.5-0.5-1-1-1.6-1.4
					c-0.1,0-0.2,0-0.2,0c0,0.1,0,0.2,0,0.2l0,0c0.3,0.2,0.5,0.4,0.8,0.6c0.2,0.2,0.5,0.5,0.7,0.7c0.4,0.5,0.7,1.1,0.8,1.7
					c0,0.7,0,1.4,0,2c0,0.3,0,0.7,0.1,1c0,0.2,0.1,0.3,0.1,0.5s0.1,0.3,0.2,0.5l0,0c0,0,0,0,0,0.1v0.1c0,0.1,0.1,0.1,0.1,0.2
					c0.1,0.1,0.2,0.2,0.2,0.3c0.2,0.2,0.3,0.3,0.5,0.4c0.2,0.1,0.4,0.2,0.6,0.4c0.2,0.1,0.4,0.2,0.5,0.3c0.3,0.2,0.6,0.5,0.7,0.8
					c0.1,0.3,0.1,0.8,0.1,1.2s0,0.9,0.1,1.3c0.1,0.5,0.3,0.9,0.6,1.3C31.7,44.5,32.5,45,33.3,45.3z"/>
			</g>
			<g>
				<path class="st0" d="M23.6,23.8"/>
				<path class="st0" d="M24.3,47.4L24.3,47.4c0.1,0.1,0.4,0.2,0.5,0c0.1-0.1,0.1-0.3,0-0.4c0,0,0,0,0-0.1l0,0
					c-0.3-0.6-0.3-1.4-0.2-2.1c0-0.4,0.1-0.7,0.3-1.1c0.1-0.2,0.1-0.3,0.2-0.5c0-0.1,0.1-0.2,0.1-0.2l0.1-0.2
					c0.2-0.4,0.4-0.8,0.5-1.2s0.1-0.9,0.1-1.3c0-0.4-0.2-0.9-0.3-1.2c0-0.1-0.1-0.2-0.1-0.3l-0.1-0.3c-0.1-0.2-0.1-0.3-0.2-0.5
					c-0.1-0.3-0.1-0.6-0.1-0.9c0-0.3,0.2-0.6,0.3-0.9l0.1-0.3c0-0.1,0.1-0.2,0.1-0.3c0.1-0.2,0.2-0.4,0.2-0.6
					c0.1-0.4,0.3-0.8,0.4-1.2c0.1-0.4,0.2-0.8,0.2-1.2c0-0.1,0-0.2,0-0.3s0-0.2,0-0.3c0-0.2-0.1-0.4-0.1-0.6
					c-0.1-0.4-0.3-0.8-0.5-1.1c-0.1-0.2-0.2-0.3-0.3-0.5c-0.1-0.1-0.1-0.2-0.2-0.2l-0.1-0.1c0,0,0,0-0.1-0.1l0,0l0,0c0,0,0,0-0.1,0
					h-0.1l-0.1,0.1c0,0,0,0,0,0.1l0,0l0,0c0,0,0,0,0,0.1l0.1,0.1l0.1,0.3c0.1,0.2,0.2,0.3,0.2,0.5c0.1,0.3,0.3,0.7,0.3,1
					c0,0.2,0.1,0.3,0.1,0.5c0,0.1,0,0.2,0,0.2c0,0.1,0,0.2,0,0.3c-0.1,0.4-0.1,0.7-0.3,1.1c-0.1,0.4-0.2,0.7-0.4,1
					c-0.1,0.2-0.2,0.3-0.2,0.5c0,0.1-0.1,0.2-0.1,0.2l-0.1,0.3c-0.2,0.4-0.4,0.8-0.4,1.2c-0.1,0.5,0,0.9,0.1,1.4
					c0.1,0.2,0.2,0.4,0.3,0.6l0.1,0.3c0,0.1,0.1,0.2,0.1,0.2c0.2,0.3,0.3,0.6,0.3,1c0,0.3,0,0.7,0,1c-0.1,0.3-0.2,0.7-0.4,1
					l-0.1,0.3c-0.1,0.1-0.1,0.2-0.1,0.3c-0.1,0.2-0.2,0.4-0.2,0.6C24.1,44,24,44.4,24,44.8s0,0.8,0,1.2c-0.2-0.3-0.4-0.6-0.5-1
					s-0.2-0.8-0.1-1.1c0-0.4,0.2-0.8,0.3-1.2S24,42,24,41.5c0-0.3-0.1-0.5-0.1-0.7c-0.1-0.2-0.2-0.4-0.3-0.6
					c-0.1-0.2-0.3-0.4-0.4-0.5c-0.1-0.2-0.3-0.3-0.4-0.5c-0.1-0.2-0.2-0.3-0.3-0.5c0-0.1-0.1-0.2-0.1-0.3v-0.1c0,0,0,0,0-0.1l0,0
					l0,0v-0.1c0-0.3,0.1-0.6,0.2-0.9c0.1-0.3,0.2-0.6,0.3-0.9l0.8-1.9c0.1-0.4,0.2-0.7,0.1-1.1c0-0.4-0.1-0.7-0.2-1
					c-0.2-0.7-0.5-1.3-0.9-1.9c0-0.1-0.1-0.1-0.2,0c-0.1,0-0.1,0.1-0.1,0.2l0,0c0.2,0.3,0.3,0.6,0.5,0.9c0.1,0.3,0.3,0.6,0.3,0.9
					c0.2,0.6,0.3,1.3,0,1.9c-0.2,0.6-0.5,1.3-0.8,1.9c-0.1,0.3-0.2,0.6-0.3,1c0,0.2-0.1,0.3-0.1,0.5s0,0.3,0,0.5l0,0c0,0,0,0,0,0.1
					v0.1c0,0.1,0,0.1,0,0.2c0,0.1,0.1,0.2,0.1,0.3c0.1,0.2,0.2,0.4,0.3,0.6c0.1,0.2,0.2,0.4,0.4,0.5c0.1,0.2,0.2,0.3,0.4,0.5
					c0.2,0.3,0.4,0.7,0.4,1c0,0.4-0.2,0.7-0.3,1.1c-0.2,0.4-0.3,0.8-0.4,1.3c-0.1,0.5,0,1,0.1,1.4C23.1,46,23.7,46.8,24.3,47.4z"/>
			</g>
			<g>
				<path class="st0" d="M23.6,23.9"/>
				<path class="st0" d="M14.6,45.6C14.6,45.8,14.6,45.8,14.6,45.6c0.1,0.2,0.3,0.3,0.5,0.2s0.3-0.2,0.2-0.4c0,0,0,0,0-0.1l0,0
					c0-0.7,0.3-1.4,0.7-2c0.2-0.3,0.4-0.6,0.7-0.9c0.1-0.1,0.3-0.3,0.4-0.4c0.1-0.1,0.1-0.1,0.2-0.2l0.2-0.2
					c0.3-0.2,0.7-0.5,0.9-0.9c0.3-0.3,0.5-0.7,0.6-1.2c0.1-0.4,0.2-0.8,0.2-1.3c0-0.1,0-0.2,0-0.3v-0.3c0-0.2,0-0.3,0-0.5
					c0-0.3,0.1-0.6,0.3-0.9c0.2-0.3,0.4-0.5,0.7-0.7l0.2-0.2c0.1-0.1,0.2-0.1,0.2-0.2c0.2-0.1,0.3-0.3,0.5-0.4
					c0.3-0.3,0.6-0.6,0.8-0.9c0.3-0.3,0.5-0.6,0.7-1c0.1-0.1,0.1-0.2,0.2-0.3c0.1-0.1,0.1-0.2,0.1-0.3C23,32,23,31.8,23,31.6
					c0-0.4,0-0.8,0-1.2c0-0.2-0.1-0.4-0.1-0.6c0-0.1,0-0.2-0.1-0.3v-0.1c0,0,0,0,0-0.1l0,0l0,0c0,0,0,0-0.1,0h-0.1h-0.1
					c0,0,0,0-0.1,0l0,0l0,0c0,0,0,0,0,0.1v0.1v0.3c0,0.2,0,0.4,0,0.6c0,0.4,0,0.7-0.1,1.1c0,0.2-0.1,0.3-0.1,0.5
					c0,0.1-0.1,0.1-0.1,0.2c0,0.1-0.1,0.2-0.1,0.2c-0.2,0.3-0.4,0.6-0.7,0.9c-0.2,0.3-0.5,0.5-0.8,0.8c-0.1,0.1-0.3,0.2-0.4,0.4
					c-0.1,0.1-0.1,0.1-0.2,0.2l-0.4,0.4c-0.3,0.3-0.7,0.6-0.9,1c-0.2,0.4-0.4,0.9-0.4,1.3c0,0.2,0,0.4,0,0.7v0.3c0,0.1,0,0.2,0,0.3
					c0,0.3,0,0.7-0.1,1s-0.2,0.6-0.4,0.9c-0.2,0.3-0.4,0.5-0.7,0.7l-0.2,0.2c-0.1,0.1-0.2,0.1-0.2,0.2c-0.2,0.1-0.3,0.3-0.4,0.4
					c-0.3,0.3-0.5,0.6-0.7,1c-0.2,0.3-0.3,0.7-0.5,1.1c-0.1-0.4-0.1-0.7,0-1.1c0-0.4,0.2-0.8,0.4-1.1c0.2-0.3,0.5-0.6,0.8-0.9
					c0.3-0.3,0.6-0.6,0.9-1.1c0.1-0.2,0.2-0.5,0.2-0.7s0-0.5-0.1-0.7c0-0.2-0.1-0.4-0.1-0.6C17,37.9,17,37.7,17,37.5
					c0-0.2-0.1-0.4-0.1-0.6c0-0.1,0-0.2,0-0.3v-0.1c0,0,0,0,0-0.1l0,0l0,0v-0.1c0.1-0.3,0.3-0.5,0.5-0.8c0.2-0.2,0.5-0.5,0.7-0.7
					l1.5-1.4c0.3-0.3,0.4-0.6,0.6-0.9c0.1-0.3,0.2-0.7,0.2-1c0.1-0.7,0-1.4-0.1-2.1c0-0.1-0.1-0.1-0.2-0.1S20,29.4,20,29.5l0,0
					c0,0.3,0.1,0.7,0.1,1s0,0.7-0.1,1c-0.1,0.6-0.3,1.3-0.7,1.7c-0.8,0.2-1.3,0.7-1.8,1.2c-0.2,0.2-0.5,0.5-0.7,0.8
					c-0.1,0.1-0.2,0.3-0.3,0.4c-0.1,0.1-0.2,0.3-0.2,0.5l0,0c0,0,0,0,0,0.1v0.1c0,0.1,0,0.1,0,0.2c0,0.1,0,0.2,0,0.4s0,0.5,0.1,0.7
					c0,0.2,0.1,0.4,0.1,0.6c0,0.2,0.1,0.4,0.1,0.6c0.1,0.4,0.1,0.8-0.1,1.1s-0.5,0.6-0.8,0.9c-0.3,0.3-0.6,0.6-0.9,1
					s-0.4,0.9-0.5,1.3C14.1,43.9,14.3,44.8,14.6,45.6z"/>
			</g>
			<g>
				<path class="st0" d="M23.6,23.9"/>
				<path class="st0" d="M6.9,40.5L6.9,40.5C6.9,40.8,7,41,7.2,41c0.2,0,0.3-0.1,0.4-0.3l0,0l0,0c0.3-0.6,0.8-1.2,1.4-1.6
					c0.3-0.2,0.6-0.4,0.9-0.5c0.2-0.1,0.3-0.1,0.5-0.2c0.1,0,0.2,0,0.3-0.1l0.3-0.1c0.4-0.1,0.8-0.2,1.2-0.4c0.4-0.2,0.7-0.5,1-0.8
					s0.5-0.7,0.7-1.1c0-0.1,0.1-0.2,0.1-0.3l0.1-0.3c0.1-0.2,0.1-0.3,0.2-0.5c0.2-0.3,0.4-0.5,0.6-0.7c0.3-0.2,0.6-0.3,0.9-0.4
					l0.3-0.1c0.1,0,0.2-0.1,0.3-0.1c0.2-0.1,0.4-0.1,0.6-0.2c0.4-0.2,0.7-0.3,1.1-0.5s0.7-0.4,1-0.7c0.1-0.1,0.2-0.1,0.2-0.2
					c0.1-0.1,0.2-0.2,0.2-0.2c0.2-0.2,0.3-0.4,0.4-0.5c0.2-0.4,0.3-0.8,0.5-1.1c0.1-0.2,0.1-0.4,0.1-0.6c0-0.1,0-0.2,0-0.3v-0.1
					c0,0,0,0,0-0.1l0,0l0,0c0,0,0,0-0.1,0h-0.1h-0.1c0,0,0,0-0.1,0l0,0l0,0c0,0,0,0,0,0.1v0.1L20,29.5c-0.1,0.2-0.1,0.4-0.2,0.5
					c-0.1,0.3-0.3,0.7-0.5,1c-0.1,0.1-0.2,0.3-0.3,0.4c-0.1,0.1-0.1,0.1-0.2,0.2c-0.1,0.1-0.1,0.1-0.2,0.2c-0.3,0.2-0.6,0.4-1,0.5
					c-0.3,0.2-0.7,0.3-1,0.4c-0.2,0.1-0.3,0.1-0.5,0.2c-0.1,0-0.2,0.1-0.3,0.1l-0.3-0.2c-0.4,0.1-0.8,0.3-1.2,0.5
					c-0.4,0.3-0.7,0.6-0.9,1c-0.1,0.2-0.2,0.4-0.2,0.6l-0.1,0.3c0,0.1-0.1,0.2-0.1,0.2c-0.1,0.3-0.3,0.6-0.5,0.9
					c-0.2,0.3-0.5,0.5-0.8,0.7s-0.6,0.3-1,0.4l-0.2,0.1c-0.1,0-0.2,0.1-0.3,0.1c-0.2,0.1-0.4,0.1-0.6,0.2c-0.4,0.2-0.7,0.4-1,0.7
					c-0.3,0.2-0.6,0.5-0.8,0.8c0.1-0.4,0.2-0.7,0.4-1c0.2-0.3,0.4-0.6,0.8-0.9c0.3-0.2,0.7-0.4,1.1-0.6c0.4-0.2,0.8-0.3,1.2-0.7
					c0.2-0.2,0.3-0.4,0.4-0.6c0.1-0.2,0.2-0.4,0.2-0.7c0-0.2,0.1-0.4,0.1-0.7c0-0.2,0.1-0.4,0.1-0.6c0-0.2,0.1-0.4,0.2-0.6
					c0-0.1,0.1-0.2,0.1-0.3c0,0,0-0.1,0.1-0.1l0,0l0,0l0,0l0.1-0.1c0.2-0.2,0.5-0.4,0.8-0.5s0.6-0.3,0.9-0.4l1.9-0.8
					c0.3-0.2,0.6-0.4,0.9-0.7c0.2-0.3,0.4-0.6,0.6-0.9c0.3-0.6,0.6-1.3,0.7-2c0-0.1,0-0.2-0.1-0.2s-0.2,0-0.2,0.1l0,0
					c-0.1,0.3-0.2,0.6-0.3,0.9c-0.1,0.3-0.3,0.6-0.4,0.9c-0.3,0.6-0.8,1.1-1.3,1.3c-0.6,0.2-1.3,0.5-1.9,0.8
					c-0.3,0.1-0.6,0.3-0.9,0.4c-0.2,0.1-0.3,0.2-0.5,0.3c-0.1,0.1-0.3,0.2-0.4,0.4l0,0l0,0c0,0,0,0.1-0.1,0.1c0,0.1-0.1,0.1-0.1,0.2
					c-0.1,0.1-0.1,0.2-0.2,0.3c-0.1,0.2-0.1,0.4-0.2,0.6c-0.1,0.2-0.1,0.4-0.1,0.6c0,0.2-0.1,0.4-0.1,0.6c-0.1,0.4-0.2,0.8-0.5,1
					s-0.7,0.4-1.1,0.5c-0.4,0.2-0.8,0.3-1.2,0.6c-0.4,0.3-0.7,0.6-0.9,1C7.1,38.8,6.9,39.6,6.9,40.5z"/>
			</g>
		</g>
	</g>
</g>
<g id="Layer_4">
</g>
<g id="Layer_2_1_">
</g>
</svg>
