<?xml version="1.0" encoding="utf-8"?>
<!-- Generator: Adobe Illustrator 19.2.1, SVG Export Plug-In . SVG Version: 6.00 Build 0)  -->
<svg version="1.1" id="layer" xmlns="http://www.w3.org/2000/svg" xmlns:xlink="http://www.w3.org/1999/xlink" x="0px" y="0px"
	 viewBox="0 0 652 652" style="enable-background:new 0 0 652 652;" xml:space="preserve">
<style type="text/css">
	.st0{fill:#0FCE7C;stroke:#0FCE7C;stroke-width:2.4137;}
	.st1{fill:#FFFFFF;}
	.st2{fill:#25E899;}
</style>
<path id="Path" class="st0" d="M138,362.6l-8.9-8.2c6.5-6.4,10.2-14.9,10.2-23.9c0-5.5-1.3-10.8-3.9-15.6c-1.8-3.4-4.2-6.4-7-9
	l-4.6-4.3l5-4.5l4.2,4.3l4.1-4c9.5,8.8,14.7,20.5,14.7,33.1C151.6,342.6,146.8,354,138,362.6z"/>
<path id="helmet" d="M137.7,391.3H94.8c-33.3,0-60.4-27.6-60.4-61.4c0-33.9,27.1-61.4,60.4-61.4c13.8,0,27,4.7,37.6,13.3L103,309.5
	c-2.6-1.1-5.4-1.6-8.2-1.6c-12,0-21.7,9.9-21.7,22.1c0,12.2,9.7,22.1,21.7,22.1c2.1,0,4.1-0.3,6.1-0.9l36.8,28.1L137.7,391.3
	L137.7,391.3z M94.8,338.6c-4.7,0-8.6-3.9-8.6-8.7c0-4.8,3.8-8.7,8.6-8.7c4.7,0,8.6,3.9,8.6,8.7C103.3,334.7,99.5,338.6,94.8,338.6
	L94.8,338.6z M116.5,329.9c0-4.3-1.2-8.4-3.4-11.8l17.6-16.5l0.1,0.2l20.8-19.9l-4.8-4.9c-13.9-14.1-32.4-21.9-52-21.9
	c-40.6,0-73.6,33.6-73.6,74.8c0,40.8,32.4,74.1,72.4,74.8v0h57.3v-32.2L112.2,343C115,339.2,116.5,334.6,116.5,329.9z"/>
<circle cx="94.8" cy="329.6" r="21.7"/>
<circle class="st1" cx="94.8" cy="329.6" r="8.7"/>
<path class="st2" d="M165.6,250.5l-4.7,4.7l-4.7-4.7l4.7-4.7L165.6,250.5z M128.3,250.5l-4.7,4.7l-4.7-4.7l4.7-4.7L128.3,250.5z"/>
<path d="M72.4,301.9c-2.6,0-4.7-2.3-4.7-5.2v-55.1c0-2.9,2.1-5.2,4.7-5.2c2.6,0,4.7,2.3,4.7,5.2v55.1
	C77.1,299.6,75,301.9,72.4,301.9 M99.9,289.9c-2.6,0-4.7-1.9-4.7-4.2v-45c0-2.3,2.1-4.2,4.7-4.2c2.6,0,4.7,1.9,4.7,4.2v45
	C104.5,288,102.4,289.9,99.9,289.9"/>
<path d="M239.6,328.5H271c0,3.2-0.2,6.2-0.4,8.9c-0.2,2.7-0.8,5.1-1.6,7.3c-1.1,3.2-2.7,6-4.6,8.5c-1.9,2.4-4.3,4.5-6.8,6.1
	c-2.6,1.6-5.5,2.9-8.6,3.7c-3.1,0.9-6.4,1.3-9.9,1.3c-4.7,0-9.1-0.8-13-2.3c-3.9-1.5-7.2-3.8-10.1-6.5c-2.8-2.9-5-6.3-6.5-10.2
	c-1.5-4-2.3-8.4-2.3-13.2c0-4.7,0.7-9.1,2.3-13c1.5-4,3.8-7.4,6.5-10.2c2.9-2.8,6.3-5,10.3-6.5c4-1.5,8.4-2.3,13.4-2.3
	c6.4,0,11.9,1.4,16.7,4.1s8.6,7,11.4,12.8l-15,6.2c-1.4-3.4-3.2-5.7-5.5-7.2c-2.2-1.4-4.7-2.2-7.6-2.2c-2.3,0-4.5,0.5-6.4,1.4
	c-1.9,0.9-3.6,2.1-5,3.8c-1.4,1.6-2.4,3.6-3.2,5.9c-0.7,2.3-1.1,4.9-1.1,7.7c0,2.6,0.3,5,1,7.2c0.7,2.2,1.7,4.1,3.1,5.7
	c1.4,1.6,3.1,2.9,5,3.8c2,0.9,4.3,1.3,6.9,1.3c1.5,0,3.1-0.2,4.5-0.5c1.4-0.4,2.7-1,3.9-1.7c1.2-0.8,2.2-1.9,2.9-3.1
	s1.3-2.7,1.5-4.5h-13V328.5z M349.2,314.4v49.9h-16.9v-49.9h-13.7V300h44.3v14.5H349.2z M421.7,322c-3.7-4.5-8.2-6.8-13.6-6.8
	c-2.4,0-4.6,0.4-6.7,1.3c-2,0.9-3.7,2.1-5.2,3.5c-1.4,1.4-2.7,3.2-3.5,5.3c-0.8,2.1-1.2,4.3-1.2,6.7s0.4,4.7,1.2,6.8
	c0.9,2.1,2,3.9,3.5,5.4c1.5,1.5,3.3,2.7,5.3,3.5c2,0.9,4.2,1.3,6.5,1.3c5.1,0,9.7-2.2,13.7-6.5v18.8l-1.6,0.6
	c-2.4,0.9-4.7,1.4-6.8,1.9c-2.1,0.4-4.2,0.6-6.3,0.6c-4.2,0-8.3-0.8-12.1-2.3c-3.9-1.6-7.2-3.9-10.2-6.8c-2.9-2.9-5.3-6.4-7.1-10.3
	c-1.8-4-2.7-8.4-2.7-13c0-4.7,0.9-9,2.6-12.9c1.8-3.9,4.1-7.3,7.1-10.1c3-2.9,6.4-5.1,10.3-6.7c3.9-1.6,8-2.4,12.2-2.4
	c2.4,0,4.8,0.2,7.2,0.8c2.4,0.5,4.9,1.3,7.5,2.3V322z M454.8,332.1c0,2.4,0.5,4.7,1.4,6.8c0.9,2.1,2.2,3.9,3.7,5.4s3.4,2.7,5.5,3.5
	c2.1,0.8,4.3,1.2,6.7,1.2c2.3,0,4.5-0.4,6.6-1.2c2.1-0.9,3.9-2.1,5.6-3.5c1.6-1.5,2.9-3.3,3.8-5.4c0.9-2.1,1.4-4.3,1.4-6.8
	c0-2.5-0.5-4.7-1.4-6.8c-0.9-2.1-2.2-3.9-3.8-5.4c-1.5-1.5-3.4-2.7-5.6-3.5c-2.1-0.9-4.3-1.3-6.6-1.3c-2.3,0-4.5,0.4-6.7,1.3
	c-2.1,0.8-3.9,2-5.5,3.5c-1.5,1.5-2.8,3.3-3.7,5.4C455.3,327.5,454.8,329.7,454.8,332.1z M438.2,332.1c0-4.5,0.8-8.8,2.5-12.6
	c1.7-3.9,4-7.4,7-10.3c3-2.9,6.5-5.2,10.6-6.8c4.2-1.7,8.8-2.5,13.7-2.5c4.9,0,9.5,0.8,13.6,2.5c4.2,1.6,7.7,3.9,10.7,6.8
	c3.1,2.9,5.4,6.4,7.1,10.3c1.7,3.9,2.5,8.1,2.5,12.6c0,4.5-0.8,8.8-2.5,12.7c-1.7,3.9-4,7.3-7.1,10.2c-3,2.9-6.5,5.2-10.7,6.9
	c-4.2,1.6-8.7,2.4-13.6,2.4c-5,0-9.6-0.8-13.7-2.4c-4.1-1.7-7.6-3.9-10.6-6.9c-3-2.9-5.3-6.4-7-10.2
	C439,340.9,438.2,336.7,438.2,332.1z M539.1,300v64.4h-16.9V300H539.1z M302.6,300v64.4h-16.9V300H302.6z M556.8,364.3V300h16.1
	l31.4,39.3V300h16.9v64.4h-16.3L573.7,325v39.3H556.8z"/>
</svg>
