<svg width="408" height="86" viewBox="0 0 408 86" fill="none" xmlns="http://www.w3.org/2000/svg">
<path d="M160.029 65.8906H168.774V48.9306H179.109C187.589 48.9306 193.949 43.3656 193.949 34.6868V33.7593C193.949 25.0805 187.854 19.5155 179.109 19.5155H160.029V65.8906ZM168.774 40.9805V27.4655H178.248C182.421 27.4655 185.204 29.9168 185.204 33.8918V34.5543C185.204 38.5293 182.355 40.9805 178.248 40.9805H168.774ZM199.614 65.8906H207.962V49.1956C207.962 43.1006 210.943 39.523 216.044 39.523C220.549 39.523 223.067 41.9743 223.067 46.9431V65.8906H231.414V46.2806C231.414 38.1318 226.313 32.5005 218.628 32.5005C212.798 32.5005 210.214 34.9518 209.154 37.0718H207.962V19.5155H199.614V65.8906ZM251.78 66.4206C257.676 66.4206 260.326 63.8369 261.386 61.5844H262.578V65.8906H270.793V33.0305H262.446V49.7256C262.446 55.8206 259.465 59.3981 254.363 59.3981C249.858 59.3981 247.341 56.9468 247.341 51.9781V33.0305H238.993V52.6406C238.993 60.7894 244.095 66.4206 251.78 66.4206ZM292.007 65.8906H301.283V59.0006H294.922C293.73 59.0006 293.067 58.3381 293.067 57.0131V39.9205H302.078V33.0305H293.067V22.828H284.72V33.0305H276.505V39.9205H284.72V58.4706C284.72 62.9756 287.635 65.8906 292.007 65.8906ZM321.492 66.4206C327.389 66.4206 330.039 63.8369 331.099 61.5844H332.291V65.8906H340.506V33.0305H332.159V49.7256C332.159 55.8206 329.177 59.3981 324.076 59.3981C319.571 59.3981 317.054 56.9468 317.054 51.9781V33.0305H308.706V52.6406C308.706 60.7894 313.807 66.4206 321.492 66.4206ZM349.133 65.8906H357.48V47.2081C357.48 42.5705 360.528 40.318 364.768 40.318H368.875V32.898H364.9C361.853 32.898 359.468 34.0905 358.54 36.7405H357.348V33.0305H349.133V65.8906ZM388.545 66.8181C397.555 66.8181 401.464 61.7169 403.319 58.2056L396.495 54.6281C395.369 57.1456 393.448 59.5306 388.81 59.5306C384.173 59.5306 380.662 56.4168 380.463 51.9118H404.379V49.0631C404.379 38.993 398.085 32.103 388.413 32.103C378.608 32.103 371.983 38.728 371.983 49.0631V49.8581C371.983 60.1931 378.674 66.8181 388.545 66.8181ZM380.529 45.6843C381.125 41.908 383.842 39.3905 388.347 39.3905C392.653 39.3905 395.502 41.908 395.899 45.6843H380.529Z" fill="#000725"/>
<g clip-path="url(#clip0)">
<path d="M130.864 23.0042C117.186 14.3188 100.921 10.64 84.836 12.5935C82.7387 12.8473 80.6756 13.1873 78.6469 13.6134C65.1567 16.4509 52.8013 23.1998 43.1239 33.0174C42.7348 33.4491 42.3337 33.866 41.9205 34.268C39.9278 36.2226 37.685 37.9048 35.2506 39.2705C31.6391 41.2987 27.6633 42.5953 23.5504 43.0862C15.2511 44.0811 6.89632 41.74 0.32238 36.5775C0.213994 36.4941 0.113945 36.4079 0 36.319C0.038908 36.3968 0.0750368 36.4719 0.113945 36.5469C4.03253 44.2507 9.33791 50.8567 15.7605 56.6401C18.7084 59.2935 21.8738 61.6948 25.2235 63.8186C34.138 69.4812 44.2152 73.0597 54.7046 74.2876C60.2184 74.9268 65.7906 75.2242 71.3016 74.5655C72.1909 74.4599 73.0719 74.0264 73.9473 74.1959C83.7771 72.6479 93.1679 68.7154 101.494 63.2655C109.821 57.8146 116.896 50.6569 122.249 42.2664C126.117 36.2301 129.038 29.9492 130.914 23.0292L130.864 23.0042Z" fill="url(#paint0_linear)"/>
<path d="M130.864 23.0042C117.186 14.3188 100.921 10.64 84.836 12.5935C82.7387 12.8473 80.6756 13.1873 78.6469 13.6134C65.1567 16.4509 52.8013 23.1998 43.1239 33.0174C42.7348 33.4491 42.3337 33.866 41.9205 34.268C39.9278 36.2226 37.685 37.9048 35.2506 39.2705C31.6391 41.2987 27.6633 42.5953 23.5504 43.0862C15.2511 44.0811 6.89632 41.74 0.32238 36.5775C0.213994 36.4941 0.113945 36.4079 0 36.319C0.038908 36.3968 0.0750368 36.4719 0.113945 36.5469C4.03253 44.2507 9.33791 50.8567 15.7605 56.6401C18.7084 59.2935 21.8738 61.6948 25.2235 63.8186C34.138 69.4812 44.2152 73.0597 54.7046 74.2876C60.2184 74.9268 65.7906 75.2242 71.3016 74.5655C72.1909 74.4599 73.0719 74.0264 73.9473 74.1959C83.7771 72.6479 93.1679 68.7154 101.494 63.2655C109.821 57.8146 116.896 50.6569 122.249 42.2664C126.117 36.2301 129.038 29.9492 130.914 23.0292L130.864 23.0042Z" fill="url(#paint1_linear)"/>
<path d="M79.9609 57.7278C80.2944 57.2165 80.6409 56.7134 81.0003 56.2188C80.6823 56.739 80.3353 57.241 79.9609 57.7223V57.7278Z" fill="url(#paint2_linear)"/>
<path d="M108.382 41.0562C108.293 41.0562 108.204 41.0784 108.118 41.0868C107.979 41.1034 107.84 41.1173 107.687 41.1284C107.534 41.1396 107.409 41.1535 107.256 41.1646L106.762 41.1951C107.423 41.1173 108.085 41.0562 108.746 41.0117L108.382 41.0562Z" fill="url(#paint3_linear)"/>
<path d="M122.184 42.5553C116.831 50.9458 109.757 58.1036 101.43 63.5545C93.1018 69.0051 83.6868 72.6642 73.8553 74.2151C72.9826 74.354 72.1296 74.466 71.2403 74.5716C65.7289 75.2217 60.1578 75.202 54.6401 74.5821C44.1509 73.3552 34.0737 69.7777 25.159 64.1158C21.8141 61.9895 18.6533 59.5863 15.7099 56.9318C9.24764 51.0864 3.92381 44.0948 0.0078125 36.3106C1.8601 39.1259 4.13619 41.6382 6.75556 43.7586C13.0485 48.7044 20.9868 51.072 28.9609 50.3813C29.3027 50.3508 29.6473 50.3146 29.9892 50.2729L30.545 50.2313C33.9204 50.0331 37.2977 50.5873 40.4328 51.8537C43.5679 53.1202 46.3826 55.0673 48.6733 57.5543C49.154 58.2154 49.6756 58.8456 50.2352 59.4413C52.3079 61.6869 54.8881 63.4037 57.7601 64.4481C60.632 65.4924 63.7123 65.834 66.7433 65.4443C71.982 64.7411 76.7065 61.8314 79.8747 57.696C80.2416 57.2208 80.589 56.7317 80.9169 56.2231C81.1522 55.8951 81.3958 55.5718 81.6478 55.2532C84.693 51.3765 88.4724 48.138 92.7698 45.7227C97.0673 43.3074 101.799 41.7626 106.693 41.1768H106.713C107.352 41.1407 107.994 41.0823 108.639 40.9934H108.68C118.702 39.6483 127.498 32.467 130.922 23.0234C130.93 23.0318 128.093 34.5458 122.184 42.5553Z" fill="url(#paint4_linear)"/>
</g>
<defs>
<linearGradient id="paint0_linear" x1="61.2633" y1="78.6787" x2="65.2042" y2="32.6366" gradientUnits="userSpaceOnUse">
<stop stop-color="#0038FF"/>
<stop offset="1" stop-color="#001259"/>
</linearGradient>
<linearGradient id="paint1_linear" x1="49.4595" y1="12.082" x2="53.1043" y2="54.6735" gradientUnits="userSpaceOnUse">
<stop stop-color="#0038FF"/>
<stop offset="1" stop-color="#001259"/>
</linearGradient>
<linearGradient id="paint2_linear" x1="380.97" y1="306.302" x2="381.709" y2="300.283" gradientUnits="userSpaceOnUse">
<stop stop-color="#0038FF"/>
<stop offset="1" stop-color="#001259"/>
</linearGradient>
<linearGradient id="paint3_linear" x1="876.77" y1="23.6508" x2="876.77" y2="23.6673" gradientUnits="userSpaceOnUse">
<stop stop-color="#0038FF"/>
<stop offset="1" stop-color="#001259"/>
</linearGradient>
<linearGradient id="paint4_linear" x1="68.1801" y1="42.2662" x2="75.6449" y2="76.8971" gradientUnits="userSpaceOnUse">
<stop stop-color="#00B9FF"/>
<stop offset="1" stop-color="#3E1FFF"/>
</linearGradient>
<clipPath id="clip0">
<rect width="130.914" height="62.9781" fill="white" transform="translate(0 12.082)"/>
</clipPath>
</defs>
</svg>
