<?xml version="1.0" encoding="utf-8"?>
<!-- Generator: Adobe Illustrator 24.0.1, SVG Export Plug-In . SVG Version: 6.00 Build 0)  -->
<svg version="1.1" id="Layer_1" xmlns="http://www.w3.org/2000/svg" xmlns:xlink="http://www.w3.org/1999/xlink" x="0px" y="0px"
	 viewBox="0 0 552 240" style="enable-background:new 0 0 552 240;" xml:space="preserve">
<style type="text/css">
	.st0{fill:#0B0E14;}
	.st1{fill:#1A5AFF;}
</style>
<path class="st0" d="M372.2,128.9c-0.4,1.3-0.9,2.5-1.6,3.5c-0.7,1.2-1.6,2.1-2.8,2.9c-4.8,3.6-13.5,4-19.1-1.4
	c-4.2-4-5.9-11.3-3.3-17.6c1.3-3,3.7-6.1,7.6-7.8c4.4-2,11.8-1.4,15.8,2.9c2.7,2.9,4.1,7.4,3.7,12.5c0,0.5-0.1,0.8-0.1,0.8h-20.6
	c0,1.5,0.7,2.8,1.5,3.9c1.1,1.4,3.2,2.6,5.3,2.7c1.6,0.1,3.5-0.2,4.8-1.2c1.1-0.8,1.8-1.9,2.2-3.2L372.2,128.9z M364.8,119.5
	c0-2.1-1.4-4.1-3-4.9c-2.1-1.1-4.8-0.9-6.7,0.1c-1.8,0.9-3,2.7-3.2,4.9c2.9,0,5.8,0,8.8,0C362.1,119.5,363.4,119.5,364.8,119.5z"/>
<path class="st0" d="M270.9,108.4v-6.6l7-2.1v8.7h5.9v6.9h-5.9v12.1c0,1.3,0.2,2.1,0.8,2.6c0.6,0.5,1.4,0.7,2.6,0.7
	c0.5,0,0.9,0,1.4,0c0.5,0,0.8-0.1,1.1-0.2v6.4c-0.4,0.1-0.9,0.4-1.6,0.5c-0.7,0.1-1.6,0.2-2.8,0.2c-2.8,0-5-0.8-6.7-2.3
	c-1.6-1.5-2.5-3.7-2.5-6.6v-13.3H265v-6.9H270.9L270.9,108.4z"/>
<path class="st0" d="M307.5,116.1c-1.9-0.2-4.6-0.8-7.6,1.5c-0.7,0.6-1.2,1.4-1.6,2.5c-0.4,1.1-0.6,2.3-0.6,3.9v13.1h-7.8v-28.7h7.6
	c0,1.4,0,2.7,0,4.1c0.4-0.5,0.7-1.1,1.1-1.5c0.6-0.6,1.2-1.1,1.8-1.5c1.9-1.2,4.1-1.4,6.2-1.3c0.2,0,0.6,0,0.9,0.1v7.8H307.5z"/>
<path class="st0" d="M331.1,108.4h7.8v28.8h-7.6v-3.5c-0.9,1.5-2.1,2.6-3.6,3.3c-3.5,1.6-8.1,1.4-11.1-0.9c-2.9-2.2-3.9-5.9-3.9-9.4
	v-18.3h7.8v16.7c0,3,1.8,5.5,4.9,5.6c1.6,0,3.2-0.5,4.2-1.6c1.2-1.2,1.5-2.7,1.5-4.3C331.1,125,331.1,108.4,331.1,108.4z"/>
<path class="st0" d="M387.9,115.1v22.1H380v-22.1h-4.8v-6.7h4.8c0-2.9-0.2-5.9,1.2-8.5c1.1-2.1,2.8-3.7,5-4.7
	c1.3-0.5,2.7-0.7,4.3-0.7c0.8,0,1.6,0,2.3,0.1c0.7,0.1,1.3,0.2,1.5,0.5v6.4c-0.2-0.1-0.5-0.1-0.8-0.2c-1.3-0.2-2.8-0.1-4,0.6
	c-1.2,0.7-1.6,2-1.6,3.3v3.2h19.3v28.8h-7.7v-22H387.9z"/>
<path class="st0" d="M408.1,98.8c0-1.3-0.6-2.6-1.4-3.4c-0.8-0.8-2.1-1.4-3.4-1.4s-2.6,0.6-3.4,1.4c-0.8,0.8-1.4,2.1-1.4,3.4
	c0,1.3,0.6,2.6,1.4,3.4s2.1,1.4,3.4,1.4s2.6-0.6,3.4-1.4S408.1,100.2,408.1,98.8z"/>
<path class="st1" d="M215.7,88c-3.6,0-6.9,1.9-8.6,5l-22.4,39H168v20h22.4c3.5,0,6.8-1.9,8.6-5l22.3-39H238V88H215.7z"/>
<path class="st1" d="M156.2,152L139,142l28.1-49c1.8-3.1,5-5,8.6-5H198v20h-16.6L156.2,152z"/>
<path class="st1" d="M228,140c5.5,0,10-4.5,10-10c0-5.5-4.5-10-10-10s-10,4.5-10,10C218,135.5,222.5,140,228,140z"/>
<path class="st1" d="M141,88v20c11.1,0,20-8.9,20-20H141z"/>
</svg>
