<svg width="300" height="77" viewBox="0 0 300 77" fill="none" xmlns="http://www.w3.org/2000/svg">
<path d="M84.3857 17.1305V0H152.852V28.0137H133.634V16.9074H115.06V29.9722H131.005V45.7888H115.06V59.9692H133.956V47.4498H153.174V76.9014H84.3857V59.7709H92.5193V17.1305H84.3857Z" fill="#48DBB4"/>
<path d="M157.241 17.1305V0H225.707V28.0137H206.489V16.9074H187.915V29.9722H203.86V45.7888H187.915V59.9692H206.811V47.4498H226.029V76.9014H157.241V59.7709H165.374V17.1305H157.241Z" fill="#48DBB4"/>
<path d="M295.04 45.7144C292.065 48.7885 287.452 49.8793 280.633 49.8793H260.745V59.7709H269.425V76.9014H230.096V59.7709H238.229V17.1305H230.096V0H280.633C287.452 0 292.065 1.0908 295.04 4.16487C298.562 7.78435 299.975 11.6269 299.975 24.9397C300 38.2276 298.562 42.0702 295.04 45.7144ZM270.218 33.6165C273.392 33.6165 274.607 33.3934 275.277 32.7488C276.269 31.658 276.492 29.997 276.492 25.2867C276.492 20.5517 276.269 18.9155 275.277 17.8247C274.607 17.1553 273.417 16.957 270.218 16.957H260.77V33.6661H270.218V33.6165Z" fill="#48DBB4"/>
<path d="M80.3191 17.1305V0H41.5358V16.9074H47.5864L35.6092 30.8647H30.6497V16.9074H37.469V0H28.2691V6.34647H23.2848V0H14.1842V6.34647H9.19987V0H0V17.1305H8.13358V38.4507V59.7709H0V76.9014H37.469V59.994H30.6497V46.0367H35.6092L47.5864 59.994H41.5358V76.9014H80.3191V59.7709H74.2933L56.0175 38.4507L74.2933 17.1305H80.3191Z" fill="#48DBB4"/>
</svg>
